<svg width="72" height="72" viewBox="0 0 72 72" fill="none" xmlns="http://www.w3.org/2000/svg">
<path d="M35.8374 18L28.7515 51.2566C28.1876 53.9031 28.498 54.8941 30.4417 56.7946L38.302 64.4803C39.3382 65.4934 39.8562 66 40.5 66C41.1438 66 41.6618 65.4934 42.698 64.4803L50.5583 56.7946C52.502 54.8941 52.8124 53.9031 52.2485 51.2566L45.1626 18" stroke="#141B34" stroke-width="3" stroke-linecap="round" stroke-linejoin="round"/>
<path d="M31.6703 9.3721C31.4681 7.80043 31.367 7.01459 31.828 6.5073C32.2889 6 33.104 6 34.7343 6H46.2657C47.896 6 48.7111 6 49.172 6.5073C49.633 7.01459 49.5319 7.80043 49.3297 9.3721L49.1771 10.5579C48.7495 13.8815 48.5357 15.5433 47.4671 16.6215C47.2934 16.7966 47.1054 16.9578 46.905 17.1035C45.6713 18 43.9476 18 40.5 18C37.0524 18 35.3287 18 34.095 17.1035C33.8946 16.9578 33.7066 16.7966 33.5329 16.6215C32.4643 15.5433 32.2505 13.8815 31.8229 10.5579L31.6703 9.3721Z" stroke="#141B34" stroke-width="3" stroke-linecap="round" stroke-linejoin="round"/>
<path d="M29.9996 45C28.1763 47.0774 26.6324 48 25.4996 48C24.0465 48 21.4304 44.3383 20.2694 41.6861C19.7246 40.4417 19.4522 39.8195 19.5064 39.0323C19.5606 38.2452 19.9173 37.6695 20.6309 36.5181C24.666 30.0071 31.5432 24.0634 35.9996 18" stroke="#141B34" stroke-width="3" stroke-linejoin="round"/>
</svg>
