<svg width="24" height="24" viewBox="0 0 24 24" fill="none" xmlns="http://www.w3.org/2000/svg">
<ellipse cx="11" cy="5" rx="8" ry="3" stroke="#141B34" stroke-width="1.5"/>
<path d="M6 10.8418C6.60158 11.0226 7.27434 11.1716 8 11.2817" stroke="#141B34" stroke-width="1.5" stroke-linecap="round"/>
<path d="M3 12C3 13.5299 6.05369 14.7923 10 14.9768" stroke="#141B34" stroke-width="1.5" stroke-linecap="round"/>
<path d="M6 17.8418C6.60158 18.0226 7.27434 18.1716 8 18.2817" stroke="#141B34" stroke-width="1.5" stroke-linecap="round"/>
<path d="M11 22C6.58172 22 3 20.6569 3 19V5M19 5V8.5" stroke="#141B34" stroke-width="1.5" stroke-linecap="round" stroke-linejoin="round"/>
<path d="M17.5556 21.5H18.4444C20.1205 21.5 20.9586 21.5 21.4793 20.9728C22 20.4456 22 19.5971 22 17.9V17.5912C22 16.8554 22 16.4875 21.8647 16.1568C21.7293 15.826 21.4724 15.5658 20.9586 15.0456L19.6488 13.7194C19.2323 13.2977 19.0241 13.0869 18.7847 12.9306C18.5152 12.7547 18.2165 12.6295 17.9031 12.5609C17.6247 12.5 17.3302 12.5 16.7412 12.5C15.8428 12.5 15.3936 12.5 15.0437 12.6606C14.6511 12.8408 14.3366 13.1593 14.1586 13.5568C14 13.911 14 14.3659 14 15.2755V17.9C14 19.5971 14 20.4456 14.5207 20.9728C15.0414 21.5 15.8795 21.5 17.5556 21.5Z" stroke="#141B34" stroke-width="1.5" stroke-linejoin="round"/>
</svg>
