<svg width="24" height="24" viewBox="0 0 24 24" fill="none" xmlns="http://www.w3.org/2000/svg">
<path d="M8.5 5.83301C8.5 4.18309 8.5 3.35813 9.01256 2.84557C9.52513 2.33301 10.3501 2.33301 12 2.33301C13.6499 2.33301 14.4749 2.33301 14.9874 2.84557C15.5 3.35813 15.5 4.18309 15.5 5.83301C15.5 7.48292 15.5 8.30788 14.9874 8.82044C14.4749 9.33301 13.6499 9.33301 12 9.33301C10.3501 9.33301 9.52513 9.33301 9.01256 8.82044C8.5 8.30788 8.5 7.48292 8.5 5.83301Z" stroke="#141B34" stroke-width="1.5"/>
<path d="M8.5 4.72754H15.5" stroke="#141B34" stroke-width="1.5" stroke-linejoin="round"/>
<path d="M10.8948 4.72754V9.3328" stroke="#141B34" stroke-width="1.5" stroke-linecap="round" stroke-linejoin="round"/>
<path d="M15.5 18.333C15.5 16.6831 15.5 15.8581 16.0126 15.3456C16.5251 14.833 17.3501 14.833 19 14.833C20.6499 14.833 21.4749 14.833 21.9874 15.3456C22.5 15.8581 22.5 16.6831 22.5 18.333C22.5 19.9829 22.5 20.8079 21.9874 21.3204C21.4749 21.833 20.6499 21.833 19 21.833C17.3501 21.833 16.5251 21.833 16.0126 21.3204C15.5 20.8079 15.5 19.9829 15.5 18.333Z" stroke="#141B34" stroke-width="1.5"/>
<path d="M15.5 17.2275H22.5" stroke="#141B34" stroke-width="1.5" stroke-linejoin="round"/>
<path d="M17.8948 17.2275V21.8328" stroke="#141B34" stroke-width="1.5" stroke-linecap="round" stroke-linejoin="round"/>
<path d="M1.5 18.333C1.5 16.6831 1.5 15.8581 2.01256 15.3456C2.52513 14.833 3.35008 14.833 5 14.833C6.64992 14.833 7.47487 14.833 7.98744 15.3456C8.5 15.8581 8.5 16.6831 8.5 18.333C8.5 19.9829 8.5 20.8079 7.98744 21.3204C7.47487 21.833 6.64992 21.833 5 21.833C3.35008 21.833 2.52513 21.833 2.01256 21.3204C1.5 20.8079 1.5 19.9829 1.5 18.333Z" stroke="#141B34" stroke-width="1.5"/>
<path d="M1.5 17.2275H8.5" stroke="#141B34" stroke-width="1.5" stroke-linejoin="round"/>
<path d="M3.89478 17.2275V21.8328" stroke="#141B34" stroke-width="1.5" stroke-linecap="round" stroke-linejoin="round"/>
<path d="M5 14.5V13.5C5 12 7 12 7 12C7 12 7 12 7 12H12H17C17 12 17 12 17 12C17 12 19 12 19 13.5V14.5" stroke="#141B34" stroke-width="1.5" stroke-linecap="round" stroke-linejoin="round"/>
</svg>
