<svg width="72" height="72" viewBox="0 0 72 72" fill="none" xmlns="http://www.w3.org/2000/svg">
<path d="M33.0088 6H30.0186C20.1733 6 15.2506 6 11.7612 8.44145C10.4702 9.34471 9.34731 10.4667 8.44334 11.7567C6 15.2435 6 20.1623 6 30C6 39.8377 6 44.7565 8.44334 48.2433C9.34731 49.5333 10.4702 50.6553 11.7612 51.5586C15.2506 54 20.1733 54 30.0186 54H42.0279C51.8732 54 56.7959 54 60.2854 51.5586C61.5763 50.6553 62.6992 49.5333 63.6032 48.2433C65.4467 45.6126 65.899 42.2824 66 39" stroke="#141B34" stroke-width="3" stroke-linecap="round"/>
<path d="M58 16.9996L50.0001 25M58 16.9996C60.2092 19.2088 63.7909 19.2097 66 17.0004M58 16.9996C55.7909 14.7903 55.7909 11.2093 58 9M50.0001 25C52.2092 27.2093 52.2091 30.7907 50 33M50.0001 25C47.7909 22.7907 44.2091 22.7903 42 24.9996" stroke="#141B34" stroke-width="3" stroke-linecap="round" stroke-linejoin="round"/>
<path d="M33 45H39" stroke="#141B34" stroke-width="3" stroke-linecap="round" stroke-linejoin="round"/>
<path d="M36 54V66" stroke="#141B34" stroke-width="3"/>
<path d="M24 66H48" stroke="#141B34" stroke-width="3" stroke-linecap="round"/>
</svg>
