<svg width="72" height="72" viewBox="0 0 72 72" fill="none" xmlns="http://www.w3.org/2000/svg">
<path d="M38.1 9H33.9C30.4568 9 28.7352 9 27.5149 9.76295C27.0634 10.0452 26.6706 10.3959 26.3545 10.799C25.5 11.8886 25.5 13.4257 25.5 16.5C25.5 19.5743 25.5 21.1114 26.3545 22.201C26.6706 22.6041 27.0634 22.9548 27.5149 23.237C28.7352 24 30.4568 24 33.9 24H38.1C41.5432 24 43.2648 24 44.4851 23.237C44.9366 22.9548 45.3293 22.6041 45.6455 22.201C46.5 21.1114 46.5 19.5743 46.5 16.5C46.5 13.4257 46.5 11.8886 45.6455 10.799C45.3293 10.3959 44.9366 10.0452 44.4851 9.76295C43.2648 9 41.5432 9 38.1 9Z" stroke="#141B34" stroke-width="2.5" stroke-linecap="round"/>
<path d="M38.625 30.0003L38.2937 29.5605C37.5469 28.569 37.3618 27.0544 37.8341 25.8003M33.375 30.0003L33.7063 29.5605C34.4531 28.569 34.6382 27.0544 34.1659 25.8003" stroke="#141B34" stroke-width="2.5" stroke-linecap="round"/>
<path d="M30.75 30H41.25" stroke="#141B34" stroke-width="2.5" stroke-linecap="round"/>
<ellipse cx="57" cy="48.15" rx="9" ry="3.15" stroke="#141B34" stroke-width="2.5"/>
<path d="M66 55.5C66 57.2397 61.9706 58.65 57 58.65C52.0294 58.65 48 57.2397 48 55.5" stroke="#141B34" stroke-width="2.5"/>
<path d="M66 48.1499V62.8499C66 64.5896 61.9706 65.9999 57 65.9999C52.0294 65.9999 48 64.5896 48 62.8499V48.1499" stroke="#141B34" stroke-width="2.5"/>
<ellipse cx="15" cy="48.15" rx="9" ry="3.15" stroke="#141B34" stroke-width="2.5"/>
<path d="M24 55.5C24 57.2397 19.9706 58.65 15 58.65C10.0294 58.65 6 57.2397 6 55.5" stroke="#141B34" stroke-width="2.5"/>
<path d="M24 48.1499V62.8499C24 64.5896 19.9706 65.9999 15 65.9999C10.0294 65.9999 6 64.5896 6 62.8499V48.1499" stroke="#141B34" stroke-width="2.5"/>
<path d="M36 36V42M36 42L40.5 46.5M36 42L31.5 46.5" stroke="#141B34" stroke-width="2.5" stroke-linecap="round" stroke-linejoin="round"/>
</svg>
