<svg width="72" height="72" viewBox="0 0 72 72" fill="none" xmlns="http://www.w3.org/2000/svg">
<path d="M42 26.9995H54" stroke="#141B34" stroke-width="3" stroke-linecap="round"/>
<path d="M42 37.4995H51" stroke="#141B34" stroke-width="3" stroke-linecap="round"/>
<path d="M6 35.9995C6 24.7503 6 19.1257 8.86474 15.1827C9.78994 13.9093 10.9098 12.7895 12.1832 11.8643C16.1262 8.99951 21.7508 8.99951 33 8.99951H39C50.2492 8.99951 55.8738 8.99951 59.8168 11.8643C61.0902 12.7895 62.2101 13.9093 63.1353 15.1827C66 19.1257 66 24.7503 66 35.9995V35.9995C66 47.2487 66 52.8733 63.1353 56.8163C62.2101 58.0897 61.0902 59.2096 59.8168 60.1348C55.8738 62.9995 50.2492 62.9995 39 62.9995H33C21.7508 62.9995 16.1262 62.9995 12.1832 60.1348C10.9098 59.2096 9.78994 58.0897 8.86474 56.8163C6 52.8733 6 47.2487 6 35.9995V35.9995Z" stroke="#141B34" stroke-width="3" stroke-linejoin="round"/>
<path d="M15 47.9995C18.6249 40.2563 32.1365 39.7468 36 47.9995" stroke="#141B34" stroke-width="3" stroke-linecap="round" stroke-linejoin="round"/>
<path d="M31.5 26.9995C31.5 30.3132 28.8137 32.9995 25.5 32.9995C22.1863 32.9995 19.5 30.3132 19.5 26.9995C19.5 23.6858 22.1863 20.9995 25.5 20.9995C28.8137 20.9995 31.5 23.6858 31.5 26.9995Z" stroke="#141B34" stroke-width="3"/>
</svg>
