<svg width="72" height="72" viewBox="0 0 72 72" fill="none" xmlns="http://www.w3.org/2000/svg">
<path d="M36 13.5C36.8284 13.5 37.5 12.8284 37.5 12C37.5 11.1716 36.8284 10.5 36 10.5V13.5ZM36 61.5C36.8284 61.5 37.5 60.8284 37.5 60C37.5 59.1716 36.8284 58.5 36 58.5V61.5ZM22.5 51C22.5 50.1716 21.8284 49.5 21 49.5C20.1716 49.5 19.5 50.1716 19.5 51H22.5ZM19.5 21C19.5 21.8284 20.1716 22.5 21 22.5C21.8284 22.5 22.5 21.8284 22.5 21H19.5ZM36 10.5H30V13.5H36V10.5ZM30 61.5H36V58.5H30V61.5ZM22.5 21C22.5 18.5525 23.2073 16.7149 24.3928 15.495C25.5713 14.2823 27.3972 13.5 30 13.5V10.5C26.7817 10.5 24.1075 11.4839 22.2413 13.4043C20.3821 15.3175 19.5 17.9799 19.5 21H22.5ZM30 58.5C27.5525 58.5 25.7149 57.7927 24.495 56.6072C23.2823 55.4287 22.5 53.6028 22.5 51H19.5C19.5 54.2183 20.4839 56.8925 22.4043 58.7587C24.3175 60.6179 26.9799 61.5 30 61.5V58.5Z" fill="#141B34"/>
<path d="M45 15C45 10.7574 45 8.63604 46.5377 7.31802C48.0754 6 50.5503 6 55.5 6C60.4497 6 62.9246 6 64.4623 7.31802C66 8.63604 66 10.7574 66 15C66 19.2426 66 21.364 64.4623 22.682C62.9246 24 60.4497 24 55.5 24C50.5503 24 48.0754 24 46.5377 22.682C45 21.364 45 19.2426 45 15Z" stroke="#141B34" stroke-width="3"/>
<path d="M45 57C45 52.7574 45 50.636 46.5377 49.318C48.0754 48 50.5503 48 55.5 48C60.4497 48 62.9246 48 64.4623 49.318C66 50.636 66 52.7574 66 57C66 61.2426 66 63.364 64.4623 64.682C62.9246 66 60.4497 66 55.5 66C50.5503 66 48.0754 66 46.5377 64.682C45 63.364 45 61.2426 45 57Z" stroke="#141B34" stroke-width="3"/>
<path d="M17.0828 35.106C16.5096 34.508 15.56 34.4879 14.962 35.0612C14.364 35.6345 14.3439 36.584 14.9172 37.182L17.0828 35.106ZM18.3905 38.6379L17.3077 39.6759L18.3905 38.6379ZM20.2761 38.6379L21.359 39.6759L20.2761 38.6379ZM27.0828 33.7047C27.6561 33.1066 27.636 32.1571 27.038 31.5838C26.44 31.0105 25.4904 31.0306 24.9172 31.6287L27.0828 33.7047ZM34.5 36C34.5 43.4558 28.4558 49.5 21 49.5V52.5C30.1127 52.5 37.5 45.1127 37.5 36H34.5ZM21 49.5C13.5442 49.5 7.5 43.4558 7.5 36H4.5C4.5 45.1127 11.8873 52.5 21 52.5V49.5ZM7.5 36C7.5 28.5442 13.5442 22.5 21 22.5V19.5C11.8873 19.5 4.5 26.8873 4.5 36H7.5ZM21 22.5C28.4558 22.5 34.5 28.5442 34.5 36H37.5C37.5 26.8873 30.1127 19.5 21 19.5V22.5ZM14.9172 37.182L17.3077 39.6759L19.4734 37.5999L17.0828 35.106L14.9172 37.182ZM21.359 39.6759L27.0828 33.7047L24.9172 31.6287L19.1933 37.5999L21.359 39.6759ZM17.3077 39.6759C17.5002 39.8766 17.7475 40.1393 17.9909 40.3331C18.2661 40.5521 18.7155 40.8333 19.3333 40.8333V37.8333C19.4055 37.8333 19.4785 37.8411 19.55 37.8566C19.6209 37.872 19.6815 37.8931 19.7304 37.9144C19.8233 37.9548 19.8693 37.9939 19.8592 37.9858C19.8486 37.9774 19.8149 37.9487 19.7428 37.8771C19.6714 37.8063 19.5884 37.7198 19.4734 37.5999L17.3077 39.6759ZM19.1933 37.5999C19.0783 37.7198 18.9953 37.8063 18.9238 37.8771C18.8517 37.9487 18.818 37.9774 18.8075 37.9858C18.7973 37.9939 18.8434 37.9548 18.9363 37.9144C18.9852 37.8931 19.0458 37.872 19.1167 37.8566C19.1882 37.8411 19.2612 37.8333 19.3333 37.8333V40.8333C19.9511 40.8333 20.4006 40.5521 20.6758 40.3331C20.9192 40.1393 21.1665 39.8766 21.359 39.6759L19.1933 37.5999Z" fill="#141B34"/>
</svg>
