<svg width="72" height="72" viewBox="0 0 72 72" fill="none" xmlns="http://www.w3.org/2000/svg">
<path d="M45 15C45 19.9706 39.7254 25.5 36 25.5C32.2746 25.5 27 19.9706 27 15C27 10.0294 31.0294 6 36 6C40.9706 6 45 10.0294 45 15Z" stroke="#141B34" stroke-width="3"/>
<path d="M48.1246 27C52.6936 31.0059 55.6541 37.7906 52.9955 44.1155C52.4227 45.4782 51.1084 46.3618 49.6543 46.3618C48.1756 46.3618 45.747 45.8879 45.2751 47.8123L41.9834 61.237C41.297 64.0363 38.8302 66 36.0002 66C33.1702 66 30.7033 64.0363 30.0169 61.237L26.7252 47.8123C26.2533 45.8879 23.8247 46.3618 22.346 46.3618C20.8919 46.3618 19.5777 45.4782 19.0048 44.1155C16.3462 37.7906 19.3069 31.0059 23.8759 27" stroke="#141B34" stroke-width="3" stroke-linecap="round"/>
</svg>
