<svg width="72" height="72" viewBox="0 0 72 72" fill="none" xmlns="http://www.w3.org/2000/svg">
<path d="M24 48L48 24M30 27C30 28.6569 28.6569 30 27 30C25.3431 30 24 28.6569 24 27C24 25.3431 25.3431 24 27 24C28.6569 24 30 25.3431 30 27ZM48 44.4851C48 46.142 46.6569 47.4851 45 47.4851C43.3431 47.4851 42 46.142 42 44.4851C42 42.8283 43.3431 41.4851 45 41.4851C46.6569 41.4851 48 42.8283 48 44.4851Z" stroke="#141B34" stroke-width="3" stroke-linecap="round"/>
<circle cx="36" cy="36" r="30" stroke="#141B34" stroke-width="3"/>
</svg>
