<svg width="24" height="24" viewBox="0 0 24 24" fill="none" xmlns="http://www.w3.org/2000/svg">
<path d="M20 10.5C19.9641 8.02043 19.7801 6.11466 18.8365 5.17157C17.6643 4 15.7776 4 12.0043 4C8.23106 4 6.34442 4 5.17221 5.17157C4 6.34315 4 8.22876 4 12C4 15.7712 4 17.6569 5.17221 18.8284C6.23545 19.8911 7.88646 19.9899 11 19.9991" stroke="#141B34" stroke-width="1.5" stroke-linecap="round" stroke-linejoin="round"/>
<path d="M13 19.0005L15.3671 16.6334C15.6682 16.3323 15.8187 16.1818 16.0095 16.1713C16.2003 16.1607 16.3665 16.2937 16.699 16.5596L17.7587 17.4074C18.1097 17.6882 18.2852 17.8286 18.484 17.8117C18.6829 17.7948 18.8322 17.6269 19.1308 17.2909L22.5001 13.5005" stroke="#141B34" stroke-width="1.5" stroke-linecap="round" stroke-linejoin="round"/>
<path d="M21 13H22C22.4714 13 22.7071 13 22.8536 13.1464C23 13.2929 23 13.5286 23 14L23 15" stroke="#141B34" stroke-width="1.5" stroke-linecap="round" stroke-linejoin="round"/>
<path d="M14.4999 13.9995H17.4999" stroke="#141B34" stroke-width="1.5" stroke-linecap="round" stroke-linejoin="round"/>
<path d="M9.5 2V4" stroke="#141B34" stroke-width="1.5" stroke-linecap="round" stroke-linejoin="round"/>
<path d="M14.5 2V4" stroke="#141B34" stroke-width="1.5" stroke-linecap="round" stroke-linejoin="round"/>
<path d="M9.5 20V22" stroke="#141B34" stroke-width="1.5" stroke-linecap="round" stroke-linejoin="round"/>
<path d="M4 9.5L2 9.5" stroke="#141B34" stroke-width="1.5" stroke-linecap="round" stroke-linejoin="round"/>
<path d="M4 14.5L2 14.5" stroke="#141B34" stroke-width="1.5" stroke-linecap="round" stroke-linejoin="round"/>
<path d="M22 9.5L20 9.5" stroke="#141B34" stroke-width="1.5" stroke-linecap="round" stroke-linejoin="round"/>
<path d="M12 8H8" stroke="#141B34" stroke-width="1.5" stroke-linecap="round" stroke-linejoin="round"/>
</svg>
