<svg width="72" height="72" viewBox="0 0 72 72" fill="none" xmlns="http://www.w3.org/2000/svg">
<path d="M48 10.1538V6M58.8918 13.0911L61.8243 10.1538M61.8527 24H66" stroke="#141B34" stroke-width="3" stroke-linecap="round" stroke-linejoin="round"/>
<path d="M66 36C66 52.5685 52.5685 66 36 66C19.4315 66 6 52.5685 6 36C6 19.4315 19.4315 6 36 6" stroke="#141B34" stroke-width="3" stroke-linecap="round" stroke-linejoin="round"/>
<path d="M36 22.5C35.1716 22.5 34.5 23.1716 34.5 24C34.5 24.8284 35.1716 25.5 36 25.5V22.5ZM46.5 35.9111C46.5 36.7396 47.1716 37.4111 48 37.4111C48.8284 37.4111 49.5 36.7396 49.5 35.9111H46.5ZM36 25.5H42V22.5H36V25.5ZM46.5 29.9556V35.9111H49.5V29.9556H46.5ZM42 25.5C43.4563 25.5 44.3988 25.5031 45.0934 25.5958C45.746 25.6829 45.9508 25.8239 46.0646 25.9368L48.178 23.8076C47.4131 23.0483 46.4715 22.7532 45.4902 22.6222C44.551 22.4969 43.3721 22.5 42 22.5V25.5ZM49.5 29.9556C49.5 28.5945 49.5032 27.4218 49.3766 26.4868C49.2439 25.5075 48.9445 24.5684 48.178 23.8076L46.0646 25.9368C46.1768 26.0482 46.3167 26.247 46.4037 26.8895C46.4968 27.5763 46.5 28.5091 46.5 29.9556H49.5ZM45.99 23.8872C37.2469 33.9294 27.2847 38.0038 19.5126 39.5793C15.6208 40.3682 12.2774 40.5301 9.91577 40.4957C8.73565 40.4786 7.80297 40.4125 7.17235 40.3518C6.85711 40.3214 6.61761 40.2925 6.46068 40.2717C6.38223 40.2613 6.32444 40.253 6.28818 40.2476C6.27004 40.2449 6.2573 40.2429 6.25004 40.2418C6.24641 40.2412 6.24416 40.2409 6.24329 40.2407C6.24286 40.2407 6.24277 40.2406 6.24303 40.2407C6.24316 40.2407 6.24362 40.2408 6.24368 40.2408C6.24423 40.2409 6.24486 40.241 6 41.7209C5.75514 43.2007 5.75595 43.2009 5.75684 43.201C5.75726 43.2011 5.75825 43.2013 5.75908 43.2014C5.76075 43.2017 5.76277 43.202 5.76515 43.2024C5.7699 43.2031 5.77606 43.2041 5.78361 43.2053C5.79872 43.2077 5.81941 43.2109 5.84558 43.2148C5.89791 43.2226 5.97215 43.2332 6.06743 43.2458C6.25799 43.271 6.53281 43.3041 6.88496 43.338C7.58909 43.4057 8.60339 43.477 9.87214 43.4954C12.4082 43.5323 15.9702 43.3584 20.1087 42.5195C28.3972 40.8393 38.9958 36.4893 48.2526 25.8571L45.99 23.8872Z" fill="#141B34"/>
</svg>
