<svg width="72" height="72" viewBox="0 0 72 72" fill="none" xmlns="http://www.w3.org/2000/svg">
<path d="M36 54C32.0024 55.8671 26.7512 57 21 57C17.8022 57 14.7591 56.6498 12 56.0178C10.2264 55.6116 9.33958 55.4085 8.27695 54.5676C7.67089 54.0881 6.91449 53.1388 6.58235 52.441C6 51.2175 6 50.031 6 47.6581V15.3419C6 12.3874 9.12009 10.3582 12 11.0178C14.7591 11.6498 17.8022 12 21 12C26.7512 12 32.0024 10.8671 36 9C39.9976 7.13291 45.2488 6 51 6C54.1978 6 57.2409 6.35024 60 6.98219C61.7736 7.38843 62.6604 7.59154 63.723 8.43236C64.3291 8.91191 65.0855 9.86116 65.4177 10.559C66 11.7825 66 12.969 66 15.3419V47.6581C66 50.6126 62.8799 52.6418 60 51.9822C57.2409 51.3502 54.1978 51 51 51C45.2488 51 39.9976 52.1329 36 54Z" stroke="#141B34" stroke-width="3"/>
<path d="M6 63C9.99762 64.8671 15.2488 66 21 66C26.7512 66 32.0024 64.8671 36 63C39.9976 61.1329 45.2488 60 51 60C56.7512 60 62.0024 61.1329 66 63" stroke="#141B34" stroke-width="3" stroke-linecap="round"/>
<path d="M43.5 31.5C43.5 35.6421 40.1421 39 36 39C31.8579 39 28.5 35.6421 28.5 31.5C28.5 27.3579 31.8579 24 36 24C40.1421 24 43.5 27.3579 43.5 31.5Z" stroke="#141B34" stroke-width="3"/>
<path d="M16.5 34.5L16.5 34.5269" stroke="#141B34" stroke-width="3" stroke-linecap="round" stroke-linejoin="round"/>
<path d="M55.5 28.4766L55.5 28.5035" stroke="#141B34" stroke-width="3" stroke-linecap="round" stroke-linejoin="round"/>
</svg>
