<svg width="72" height="72" viewBox="0 0 72 72" fill="none" xmlns="http://www.w3.org/2000/svg">
<path d="M60 31.5C59.8923 24.0613 59.3403 18.344 56.5095 15.5147C52.9928 12 47.3329 12 36.013 12C24.6932 12 19.0333 12 15.5166 15.5147C12 19.0294 12 24.6863 12 36C12 47.3137 12 52.9706 15.5166 56.4853C18.7063 59.6733 23.6594 59.9696 33 59.9972" stroke="#141B34" stroke-width="3" stroke-linecap="round" stroke-linejoin="round"/>
<path d="M39 57.001L46.1014 49.8997C47.0045 48.9965 47.4561 48.545 48.0285 48.5133C48.6009 48.4816 49.0995 48.8805 50.0969 49.6784L53.2761 52.2217C54.3291 53.0641 54.8556 53.4853 55.4521 53.4347C56.0486 53.384 56.4966 52.8801 57.3925 51.8722L67.5003 40.501" stroke="#141B34" stroke-width="3" stroke-linecap="round" stroke-linejoin="round"/>
<path d="M62.9998 38.9995H65.9998C67.414 38.9995 68.1211 38.9995 68.5605 39.4389C68.9998 39.8782 68.9998 40.5853 68.9998 41.9995L68.9998 44.9995" stroke="#141B34" stroke-width="3" stroke-linecap="round" stroke-linejoin="round"/>
<path d="M43.4995 41.998H52.4996" stroke="#141B34" stroke-width="3" stroke-linecap="round" stroke-linejoin="round"/>
<path d="M28.5 6V12" stroke="#141B34" stroke-width="3" stroke-linecap="round" stroke-linejoin="round"/>
<path d="M43.5 6V12" stroke="#141B34" stroke-width="3" stroke-linecap="round" stroke-linejoin="round"/>
<path d="M28.5 60V66" stroke="#141B34" stroke-width="3" stroke-linecap="round" stroke-linejoin="round"/>
<path d="M12 28.5L6 28.5" stroke="#141B34" stroke-width="3" stroke-linecap="round" stroke-linejoin="round"/>
<path d="M12 43.5L6 43.5" stroke="#141B34" stroke-width="3" stroke-linecap="round" stroke-linejoin="round"/>
<path d="M66 28.5L60 28.5" stroke="#141B34" stroke-width="3" stroke-linecap="round" stroke-linejoin="round"/>
<path d="M36 24H24" stroke="#141B34" stroke-width="3" stroke-linecap="round" stroke-linejoin="round"/>
</svg>
