<svg width="24" height="24" viewBox="0 0 24 24" fill="none" xmlns="http://www.w3.org/2000/svg">
<path d="M9 5C9 6.65685 7.65685 8 6 8C4.34315 8 3 6.65685 3 5C3 3.34315 4.34315 2 6 2C7.65685 2 9 3.34315 9 5Z" stroke="#141B34" stroke-width="1.5"/>
<path d="M21 14C21 15.6569 19.6569 17 18 17C16.3431 17 15 15.6569 15 14C15 12.3431 16.3431 11 18 11C19.6569 11 21 12.3431 21 14Z" stroke="#141B34" stroke-width="1.5"/>
<path d="M9 19C9 20.6569 7.65685 22 6 22C4.34315 22 3 20.6569 3 19C3 17.3431 4.34315 16 6 16C7.65685 16 9 17.3431 9 19Z" stroke="#141B34" stroke-width="1.5"/>
<path d="M6 8V16" stroke="#141B34" stroke-width="1.5" stroke-linecap="round" stroke-linejoin="round"/>
<path d="M15 14H12C8.68629 14 6 11.3137 6 8" stroke="#141B34" stroke-width="1.5" stroke-linecap="round" stroke-linejoin="round"/>
<path d="M11 8.00049L13.3671 5.63338C13.6682 5.33234 13.8187 5.18182 14.0095 5.17125C14.2003 5.16069 14.3665 5.29366 14.699 5.55962L15.7587 6.4074C16.1097 6.6882 16.2852 6.8286 16.484 6.81172C16.6829 6.79484 16.8322 6.62686 17.1308 6.2909L20.5001 2.50049" stroke="#141B34" stroke-width="1.5" stroke-linecap="round" stroke-linejoin="round"/>
<path d="M19 2H20C20.4714 2 20.7071 2 20.8536 2.14645C21 2.29289 21 2.5286 21 3L21 4" stroke="#141B34" stroke-width="1.5" stroke-linecap="round" stroke-linejoin="round"/>
<path d="M12.4998 2.99951H15.4998" stroke="#141B34" stroke-width="1.5" stroke-linecap="round" stroke-linejoin="round"/>
</svg>
