<svg width="72" height="72" viewBox="0 0 72 72" fill="none" xmlns="http://www.w3.org/2000/svg">
<circle cx="36" cy="36" r="6" stroke="#141B34" stroke-width="3" stroke-linecap="round"/>
<path d="M12 54.0029C8.23254 48.9885 6 42.7549 6 36C6 19.4315 19.4315 6 36 6C52.5685 6 66 19.4315 66 36C66 42.7549 63.7675 48.9885 60 54.0029" stroke="#141B34" stroke-width="3" stroke-linecap="round"/>
<path d="M22.5834 48C19.7331 44.8155 18 40.6101 18 36C18 26.0589 26.0589 18 36 18C45.9411 18 54 26.0589 54 36C54 40.6101 52.2669 44.8155 49.4166 48" stroke="#141B34" stroke-width="3" stroke-linecap="round"/>
<path d="M36 42L36 57" stroke="#141B34" stroke-width="3" stroke-linecap="round"/>
<path d="M39.7868 57H32.2132C31.4002 57 30.9936 57 30.6057 57.0548C29.8201 57.1656 29.0751 57.4423 28.4322 57.8619C28.1147 58.0691 27.8272 58.3268 27.2523 58.8421C25.3614 60.5373 24.416 61.3849 24.1671 62.0651C23.652 63.4732 24.3609 65.0076 25.8359 65.6768C26.5484 66 27.8854 66 30.5596 66H41.4404C44.1146 66 45.4516 66 46.1641 65.6768C47.6391 65.0076 48.348 63.4732 47.8329 62.0651C47.584 61.3849 46.6386 60.5373 44.7477 58.8421C44.1728 58.3268 43.8853 58.0691 43.5678 57.8619C42.9249 57.4423 42.1799 57.1656 41.3943 57.0548C41.0064 57 40.5998 57 39.7868 57Z" stroke="#141B34" stroke-width="3" stroke-linecap="round"/>
</svg>
