<svg width="24" height="24" viewBox="0 0 24 24" fill="none" xmlns="http://www.w3.org/2000/svg">
<path d="M20 10C19.9641 7.52043 19.7801 6.11466 18.8365 5.17157C17.6643 4 15.7776 4 12.0043 4C8.23106 4 6.34442 4 5.17221 5.17157C4 6.34315 4 8.22876 4 12C4 15.7712 4 17.6569 5.17221 18.8284C6.23545 19.8911 7.88646 19.9899 11 19.9991" stroke="#141B34" stroke-width="1.5" stroke-linecap="round" stroke-linejoin="round"/>
<path d="M12.9974 17.3874L12.3242 17.7179L12.3242 17.7179L12.9974 17.3874ZM13.2853 17.9736L12.612 18.3042L13.2853 17.9736ZM15.2001 17.8208L14.4729 17.6374L14.4729 17.6374L15.2001 17.8208ZM16.3697 13.182L17.097 13.3653L17.097 13.3653L16.3697 13.182ZM17.3553 12.5L17.3553 13.25L17.3553 12.5ZM22.5 13.25C22.9142 13.25 23.25 12.9142 23.25 12.5C23.25 12.0858 22.9142 11.75 22.5 11.75L22.5 13.25ZM14.4165 19.4988L14.3568 18.7512L14.3568 18.7512L14.4165 19.4988ZM12.4471 16.6573L12.2497 17.3809L12.2497 17.3809L12.4471 16.6573ZM11.0943 16.3692C10.7459 16.5933 10.6451 17.0573 10.8692 17.4057C11.0933 17.7541 11.5573 17.8549 11.9057 17.6308L11.0943 16.3692ZM17.8034 17.75C17.3892 17.75 17.0534 18.0858 17.0534 18.5C17.0534 18.9142 17.3892 19.25 17.8034 19.25V17.75ZM21.3326 16.25C21.7468 16.25 22.0826 15.9142 22.0826 15.5C22.0826 15.0858 21.7468 14.75 21.3326 14.75V16.25ZM19.2453 16.2539L18.5569 16.5516L18.5569 16.5516L19.2453 16.2539ZM19.8907 17.7461L20.5791 17.4484L20.5791 17.4484L19.8907 17.7461ZM20.2022 18.2983L20.6993 17.7368L20.6993 17.7368L20.2022 18.2983ZM21.125 19.25C21.5392 19.25 21.875 18.9142 21.875 18.5C21.875 18.0858 21.5392 17.75 21.125 17.75V19.25ZM20.4336 18.4397L20.7108 17.7428L20.7108 17.7428L20.4336 18.4397ZM18.011 14.75C17.5968 14.75 17.261 15.0858 17.261 15.5C17.261 15.9142 17.5968 16.25 18.011 16.25V14.75ZM18.7024 15.5603L18.4253 16.2572L18.4253 16.2572L18.7024 15.5603ZM18.9338 15.7017L19.431 15.1401L19.431 15.1401L18.9338 15.7017ZM12.3242 17.7179L12.612 18.3042L13.9585 17.6431L13.6707 17.0568L12.3242 17.7179ZM15.9274 18.0042L17.097 13.3653L15.6425 12.9986L14.4729 17.6374L15.9274 18.0042ZM17.3553 13.25L22.5 13.25L22.5 11.75L17.3553 11.75L17.3553 13.25ZM12.612 18.3042C12.8554 18.7998 13.073 19.2471 13.283 19.5568C13.4732 19.8373 13.8484 20.2965 14.4762 20.2464L14.3568 18.7512C14.6166 18.7305 14.6807 18.9453 14.5245 18.7149C14.388 18.5137 14.224 18.1838 13.9585 17.6431L12.612 18.3042ZM14.4729 17.6374C14.3279 18.2126 14.2385 18.5588 14.1494 18.7741C14.1065 18.8778 14.0883 18.8866 14.111 18.8627C14.1526 18.8189 14.2413 18.7604 14.3568 18.7512L14.4762 20.2464C15.1218 20.1949 15.4061 19.6601 15.5354 19.3478C15.6768 19.0062 15.7953 18.5281 15.9274 18.0042L14.4729 17.6374ZM13.6707 17.0568C13.5715 16.8549 13.4618 16.6269 13.3398 16.4507C13.2004 16.2493 12.9871 16.0272 12.6445 15.9338L12.2497 17.3809C12.2007 17.3675 12.156 17.3432 12.1232 17.3165C12.0958 17.2943 12.0909 17.282 12.1065 17.3045C12.1227 17.3279 12.1477 17.3691 12.1865 17.4429C12.2251 17.5162 12.2681 17.6035 12.3242 17.7179L13.6707 17.0568ZM17.097 13.3653C17.1283 13.2409 17.1514 13.1915 17.1582 13.1791C17.159 13.1778 17.1372 13.2143 17.0866 13.2462C17.0436 13.2733 17.0223 13.2695 17.0697 13.2625C17.1221 13.2548 17.206 13.25 17.3553 13.25V11.75C17.0754 11.75 16.6472 11.7504 16.2876 11.9767C15.8794 12.2336 15.729 12.6555 15.6425 12.9986L17.097 13.3653ZM11.9057 17.6308C11.9417 17.6077 11.9803 17.5821 12.0123 17.5611C12.0463 17.5388 12.0775 17.5185 12.1082 17.4992C12.1707 17.4599 12.2207 17.4316 12.2629 17.4118C12.3617 17.3655 12.3355 17.4043 12.2497 17.3809L12.6445 15.9338C12.2252 15.8194 11.8536 15.9471 11.6263 16.0536C11.4036 16.158 11.1835 16.3118 11.0943 16.3692L11.9057 17.6308ZM17.8034 19.25C18.4407 19.25 18.9286 18.9062 19.2748 18.5669C19.6195 18.2291 19.925 17.7937 20.1801 17.4335L18.956 16.5665C18.6799 16.9563 18.4542 17.2709 18.2249 17.4956C17.9972 17.7188 17.8684 17.75 17.8034 17.75V19.25ZM20.1801 17.4335C20.4561 17.0437 20.6818 16.7291 20.9111 16.5044C21.1388 16.2812 21.2677 16.25 21.3326 16.25V14.75C20.6953 14.75 20.2074 15.0938 19.8612 15.4331C19.5166 15.7709 19.2111 16.2063 18.956 16.5665L20.1801 17.4335ZM18.5569 16.5516L18.8796 17.2977L20.2564 16.7023L19.9337 15.9561L18.5569 16.5516ZM18.8796 17.2977L19.2023 18.0439L20.5791 17.4484L20.2564 16.7023L18.8796 17.2977ZM19.2023 18.0439C19.3037 18.2783 19.4331 18.6191 19.7051 18.8599L20.6993 17.7368C20.7295 17.7635 20.7339 17.7821 20.7118 17.7408C20.6996 17.7182 20.6836 17.6854 20.6607 17.6347C20.6377 17.5839 20.6121 17.5247 20.5791 17.4484L19.2023 18.0439ZM21.125 17.75C20.9349 17.75 20.8301 17.7496 20.7531 17.7443C20.6851 17.7395 20.6871 17.7334 20.7108 17.7428L20.1565 19.1366C20.4741 19.2629 20.8306 19.25 21.125 19.25V17.75ZM19.7051 18.8599C19.8393 18.9788 19.9929 19.0715 20.1565 19.1366L20.7108 17.7428C20.7021 17.7393 20.6988 17.7363 20.6993 17.7368L19.7051 18.8599ZM18.011 16.25C18.2011 16.25 18.3059 16.2504 18.383 16.2557C18.4509 16.2605 18.4489 16.2666 18.4253 16.2572L18.9795 14.8634C18.6619 14.7371 18.3054 14.75 18.011 14.75V16.25ZM19.9337 15.9561C19.8323 15.7217 19.7029 15.3809 19.431 15.1401L18.4367 16.2632C18.4066 16.2365 18.4021 16.2179 18.4243 16.2592C18.4364 16.2818 18.4524 16.3146 18.4753 16.3653C18.4983 16.4161 18.5239 16.4753 18.5569 16.5516L19.9337 15.9561ZM18.4253 16.2572C18.4339 16.2607 18.4372 16.2637 18.4367 16.2632L19.431 15.1401C19.2967 15.0212 19.1432 14.9285 18.9795 14.8634L18.4253 16.2572Z" fill="#141B34"/>
<path d="M9.5 2V4" stroke="#141B34" stroke-width="1.5" stroke-linecap="round" stroke-linejoin="round"/>
<path d="M14.5 2V4" stroke="#141B34" stroke-width="1.5" stroke-linecap="round" stroke-linejoin="round"/>
<path d="M9.5 20V22" stroke="#141B34" stroke-width="1.5" stroke-linecap="round" stroke-linejoin="round"/>
<path d="M4 9.5L2 9.5" stroke="#141B34" stroke-width="1.5" stroke-linecap="round" stroke-linejoin="round"/>
<path d="M4 14.5L2 14.5" stroke="#141B34" stroke-width="1.5" stroke-linecap="round" stroke-linejoin="round"/>
<path d="M22 9.5L20 9.5" stroke="#141B34" stroke-width="1.5" stroke-linecap="round" stroke-linejoin="round"/>
<path d="M12 8H8" stroke="#141B34" stroke-width="1.5" stroke-linecap="round" stroke-linejoin="round"/>
</svg>
