<svg width="72" height="72" viewBox="0 0 72 72" fill="none" xmlns="http://www.w3.org/2000/svg">
<path d="M18 60C18 63.3137 15.3137 66 12 66C8.68629 66 6 63.3137 6 60C6 56.6863 8.68629 54 12 54C15.3137 54 18 56.6863 18 60Z" stroke="#141B34" stroke-width="3"/>
<path d="M42 18V30M30 36H24C18.3431 36 15.5147 36 13.7574 37.7574C12 39.5147 12 42.3431 12 48V54M18 60H30" stroke="#141B34" stroke-width="3" stroke-linecap="round" stroke-linejoin="round"/>
<path d="M30 12C30 7.036 31.036 6 36 6H48C52.964 6 54 7.036 54 12C54 16.964 52.964 18 48 18H36C31.036 18 30 16.964 30 12Z" stroke="#141B34" stroke-width="3"/>
<path d="M30 36C30 31.036 31.036 30 36 30H48C52.964 30 54 31.036 54 36C54 40.964 52.964 42 48 42H36C31.036 42 30 40.964 30 36Z" stroke="#141B34" stroke-width="3"/>
<path d="M30 60C30 55.036 31.036 54 36 54H48C52.964 54 54 55.036 54 60C54 64.964 52.964 66 48 66H36C31.036 66 30 64.964 30 60Z" stroke="#141B34" stroke-width="3"/>
<path d="M54 36C59.6569 36 62.4853 36 64.2426 34.2426C66 32.4853 66 29.6569 66 24C66 18.3431 66 15.5147 64.2426 13.7574C62.4853 12 59.6569 12 54 12" stroke="#141B34" stroke-width="3" stroke-linecap="round" stroke-linejoin="round"/>
</svg>
