<svg width="72" height="72" viewBox="0 0 72 72" fill="none" xmlns="http://www.w3.org/2000/svg">
<path d="M12.8028 12.9835C17.862 9.08222 25.7201 6 36 6C46.2799 6 54.138 9.08222 59.1972 12.9835C59.9079 13.5314 60.2632 13.8054 60.5547 14.291C60.7995 14.6986 60.9756 15.3167 60.9824 15.7921C60.9906 16.3584 60.8017 16.8621 60.424 17.8694C59.4914 20.3562 59.0252 21.5995 58.8367 22.8309C58.599 24.3841 58.5967 24.7642 58.8158 26.3201C58.9895 27.5537 59.9385 30.1794 61.8364 35.431C62.5321 37.3559 63 39.5376 63 42C63 51 55.5 58.125 48 60C41.4245 61.6439 38 64 36 66C34 64 30.5755 61.6439 24 60C16.5 58.125 9 51 9 42C9 39.5376 9.46785 37.3559 10.1636 35.431C12.0615 30.1794 13.0105 27.5537 13.1842 26.3201C13.4033 24.7642 13.401 24.3841 13.1633 22.8309C12.9748 21.5995 12.5086 20.3562 11.576 17.8694C11.1983 16.8621 11.0094 16.3584 11.0176 15.7921C11.0244 15.3167 11.2005 14.6986 11.4453 14.291C11.7368 13.8054 12.0921 13.5314 12.8028 12.9835Z" stroke="#141B34" stroke-width="3" stroke-linecap="round" stroke-linejoin="round"/>
<path d="M38.0732 22.733L40.1849 26.9915C40.4729 27.5842 41.2408 28.1528 41.8887 28.2617L45.7163 28.9029C48.164 29.3142 48.74 31.1047 46.9762 32.871L44.0005 35.8713C43.4966 36.3794 43.2206 37.3593 43.3766 38.061L44.2285 41.775C44.9004 44.7148 43.3526 45.852 40.7729 44.3155L37.1853 42.1742C36.5373 41.7871 35.4695 41.7871 34.8095 42.1742L31.2219 44.3155C28.6542 45.852 27.0944 44.7027 27.7663 41.775L28.6182 38.061C28.7742 37.3593 28.4982 36.3794 27.9943 35.8713L25.0186 32.871C23.2668 31.1047 23.8307 29.3142 26.2785 28.9029L30.106 28.2617C30.742 28.1528 31.5099 27.5842 31.7979 26.9915L33.9096 22.733C35.0615 20.4223 36.9333 20.4223 38.0732 22.733Z" stroke="#141B34" stroke-width="3" stroke-linecap="round" stroke-linejoin="round"/>
</svg>
