<svg width="24" height="24" viewBox="0 0 24 24" fill="none" xmlns="http://www.w3.org/2000/svg">
<path d="M3.77762 11.9424C2.8296 10.2893 2.37185 8.93948 2.09584 7.57121C1.68762 5.54758 2.62181 3.57081 4.16938 2.30947C4.82345 1.77638 5.57323 1.95852 5.96 2.6524L6.83318 4.21891C7.52529 5.46057 7.87134 6.08139 7.8027 6.73959C7.73407 7.39779 7.26737 7.93386 6.33397 9.00601L3.77762 11.9424ZM3.77762 11.9424C5.69651 15.2883 8.70784 18.3013 12.0576 20.2224M12.0576 20.2224C13.7107 21.1704 15.0605 21.6282 16.4288 21.9042C18.4524 22.3124 20.4292 21.3782 21.6905 19.8306C22.2236 19.1766 22.0415 18.4268 21.3476 18.04L19.7811 17.1668C18.5394 16.4747 17.9186 16.1287 17.2604 16.1973C16.6022 16.2659 16.0661 16.7326 14.994 17.666L12.0576 20.2224Z" stroke="#141B34" stroke-width="1.5" stroke-linejoin="round"/>
<path d="M17.4991 2C16.0744 2 15.1506 2.90855 14.0581 3.23971C13.6138 3.37436 13.3917 3.44168 13.3018 3.53659C13.2119 3.6315 13.1856 3.77019 13.133 4.04756C12.5696 7.0157 13.801 9.75979 16.7375 10.8279C17.053 10.9426 17.2108 11 17.5007 11C17.7906 11 17.9484 10.9426 18.2639 10.8279C21.2002 9.75978 22.4304 7.01569 21.8669 4.04756C21.8142 3.77014 21.7879 3.63143 21.698 3.53652C21.6081 3.44161 21.386 3.37432 20.9418 3.23974C19.8488 2.90862 18.9239 2 17.4991 2Z" stroke="#141B34" stroke-width="1.5" stroke-linecap="round" stroke-linejoin="round"/>
</svg>
