<svg width="72" height="72" viewBox="0 0 72 72" fill="none" xmlns="http://www.w3.org/2000/svg">
<path d="M36 13.5C36.8284 13.5 37.5 12.8284 37.5 12C37.5 11.1716 36.8284 10.5 36 10.5V13.5ZM36 61.5C36.8284 61.5 37.5 60.8284 37.5 60C37.5 59.1716 36.8284 58.5 36 58.5V61.5ZM22.5 51C22.5 50.1716 21.8284 49.5 21 49.5C20.1716 49.5 19.5 50.1716 19.5 51H22.5ZM19.5 21C19.5 21.8284 20.1716 22.5 21 22.5C21.8284 22.5 22.5 21.8284 22.5 21H19.5ZM36 10.5H30V13.5H36V10.5ZM30 61.5H36V58.5H30V61.5ZM22.5 21C22.5 18.5525 23.2073 16.7149 24.3928 15.495C25.5713 14.2823 27.3972 13.5 30 13.5V10.5C26.7817 10.5 24.1075 11.4839 22.2413 13.4043C20.3821 15.3175 19.5 17.9799 19.5 21H22.5ZM30 58.5C27.5525 58.5 25.7149 57.7927 24.495 56.6072C23.2823 55.4287 22.5 53.6028 22.5 51H19.5C19.5 54.2183 20.4839 56.8925 22.4043 58.7587C24.3175 60.6179 26.9799 61.5 30 61.5V58.5Z" fill="#141B34"/>
<path d="M45 15C45 10.7574 45 8.63604 46.5377 7.31802C48.0754 6 50.5503 6 55.5 6C60.4497 6 62.9246 6 64.4623 7.31802C66 8.63604 66 10.7574 66 15C66 19.2426 66 21.364 64.4623 22.682C62.9246 24 60.4497 24 55.5 24C50.5503 24 48.0754 24 46.5377 22.682C45 21.364 45 19.2426 45 15Z" stroke="#141B34" stroke-width="3"/>
<path d="M45 57C45 52.7574 45 50.636 46.5377 49.318C48.0754 48 50.5503 48 55.5 48C60.4497 48 62.9246 48 64.4623 49.318C66 50.636 66 52.7574 66 57C66 61.2426 66 63.364 64.4623 64.682C62.9246 66 60.4497 66 55.5 66C50.5503 66 48.0754 66 46.5377 64.682C45 63.364 45 61.2426 45 57Z" stroke="#141B34" stroke-width="3"/>
<path d="M21 51C29.2843 51 36 44.2843 36 36C36 27.7157 29.2843 21 21 21C12.7157 21 6 27.7157 6 36C6 44.2843 12.7157 51 21 51Z" stroke="#141B34" stroke-width="3" stroke-linecap="round"/>
<path d="M21 42.4286V45M21 42.4286C18.831 42.4286 16.9201 41.2922 15.7993 39.5666M21 42.4286C23.169 42.4286 25.0799 41.2922 26.2007 39.5666M21 29.5714C23.1691 29.5714 25.0802 30.708 26.2009 32.4338M21 29.5714C18.8309 29.5714 16.9198 30.708 15.7991 32.4338M21 29.5714V27M28.5 30.8571L26.2009 32.4338M13.5008 41.1429L15.7993 39.5666M13.5 30.8571L15.7991 32.4338M28.4992 41.1429L26.2007 39.5666M26.2009 32.4338C26.8636 33.4542 27.25 34.6807 27.25 36C27.25 37.3195 26.8635 38.5461 26.2007 39.5666M15.7991 32.4338C15.1364 33.4542 14.75 34.6807 14.75 36C14.75 37.3195 15.1365 38.5461 15.7993 39.5666" stroke="#141B34" stroke-width="3" stroke-linecap="round"/>
</svg>
