<svg width="72" height="72" viewBox="0 0 72 72" fill="none" xmlns="http://www.w3.org/2000/svg">
<path d="M36 33L36 60" stroke="#141B34" stroke-width="3" stroke-linecap="round"/>
<path d="M42 27C42 30.3137 39.3137 33 36 33C32.6863 33 30 30.3137 30 27C30 23.6863 32.6863 21 36 21C39.3137 21 42 23.6863 42 27Z" stroke="#141B34" stroke-width="3"/>
<path d="M50.8765 18C52.8557 20.6088 54 23.694 54 27C54 30.306 52.8557 33.3912 50.8765 36M21.1235 18C19.1443 20.6088 18 23.694 18 27C18 30.306 19.1443 33.3912 21.1235 36" stroke="#141B34" stroke-width="3" stroke-linecap="round" stroke-linejoin="round"/>
<path d="M60.9477 12C64.1389 16.2902 66 21.4495 66 27C66 32.5505 64.1389 37.7098 60.9477 42M11.0523 12C7.86107 16.2902 6 21.4495 6 27C6 32.5505 7.86107 37.7098 11.0523 42" stroke="#141B34" stroke-width="3" stroke-linecap="round" stroke-linejoin="round"/>
</svg>
