<svg width="72" height="72" viewBox="0 0 72 72" fill="none" xmlns="http://www.w3.org/2000/svg">
<path d="M45.3861 41.2404C44.8802 41.7276 44.204 42 43.5002 42C42.7965 42 42.1203 41.7276 41.6144 41.2404C36.9815 36.7512 30.7728 31.7363 33.8006 24.4556C35.4377 20.519 39.3674 18 43.5002 18C47.633 18 51.5628 20.519 53.1999 24.4556C56.2239 31.7271 50.0304 36.7666 45.3861 41.2404Z" stroke="#141B34" stroke-width="3"/>
<path d="M43.5 28.5H43.5269" stroke="#141B34" stroke-width="3" stroke-linecap="round" stroke-linejoin="round"/>
<path d="M7.5 36C7.5 22.565 7.5 15.8475 11.6737 11.6737C15.8475 7.5 22.565 7.5 36 7.5C49.435 7.5 56.1525 7.5 60.3263 11.6737C64.5 15.8475 64.5 22.565 64.5 36C64.5 49.435 64.5 56.1525 60.3263 60.3263C56.1525 64.5 49.435 64.5 36 64.5C22.565 64.5 15.8475 64.5 11.6737 60.3263C7.5 56.1525 7.5 49.435 7.5 36Z" stroke="#141B34" stroke-width="3"/>
<path d="M51 63L9 21" stroke="#141B34" stroke-width="3" stroke-linecap="round" stroke-linejoin="round"/>
<path d="M30 42L12 60" stroke="#141B34" stroke-width="3" stroke-linecap="round" stroke-linejoin="round"/>
</svg>
