<svg width="72" height="72" viewBox="0 0 72 72" fill="none" xmlns="http://www.w3.org/2000/svg">
<path d="M60 30C59.8923 22.5613 59.3403 18.344 56.5095 15.5147C52.9928 12 47.3329 12 36.013 12C24.6932 12 19.0333 12 15.5166 15.5147C12 19.0294 12 24.6863 12 36C12 47.3137 12 52.9706 15.5166 56.4853C18.7063 59.6733 23.6594 59.9696 33 59.9972" stroke="#141B34" stroke-width="3" stroke-linecap="round" stroke-linejoin="round"/>
<path d="M38.9923 52.1622L37.6459 52.8233L37.6459 52.8233L38.9923 52.1622ZM39.8558 53.9208L38.5094 54.5819L39.8558 53.9208ZM45.6004 53.4624L44.146 53.0957H44.146L45.6004 53.4624ZM49.1092 39.5459L50.5637 39.9126V39.9126L49.1092 39.5459ZM52.0658 37.5V39V37.5ZM67.5 39C68.3284 39 69 38.3284 69 37.5C69 36.6716 68.3284 36 67.5 36V39ZM43.2495 58.4965L43.1302 57.0012H43.1302L43.2495 58.4965ZM37.3413 49.972L36.9465 51.4191L36.9465 51.4191L37.3413 49.972ZM33.6886 49.7384C32.9918 50.1865 32.7903 51.1147 33.2384 51.8114C33.6865 52.5082 34.6147 52.7097 35.3114 52.2616L33.6886 49.7384ZM53.4103 54C52.5819 54 51.9103 54.6716 51.9103 55.5C51.9103 56.3284 52.5819 57 53.4103 57V54ZM63.9978 48C64.8262 48 65.4978 47.3284 65.4978 46.5C65.4978 45.6716 64.8262 45 63.9978 45V48ZM57.7359 48.7616L56.3592 49.357H56.3592L57.7359 48.7616ZM59.6722 53.2384L61.0489 52.643V52.643L59.6722 53.2384ZM60.6066 54.895L61.6009 53.7719L61.6009 53.7719L60.6066 54.895ZM63.375 57C64.2034 57 64.875 56.3284 64.875 55.5C64.875 54.6716 64.2034 54 63.375 54V57ZM61.3009 55.3191L61.8552 53.9252L61.8552 53.9252L61.3009 55.3191ZM54.0331 45C53.2047 45 52.5331 45.6716 52.5331 46.5C52.5331 47.3284 53.2047 48 54.0331 48V45ZM56.1072 46.6809L55.5529 48.0748L56.1072 46.6809ZM56.8015 47.105L57.7958 45.9819H57.7958L56.8015 47.105ZM37.6459 52.8233L38.5094 54.5819L41.2023 53.2597L40.3388 51.5011L37.6459 52.8233ZM47.0549 53.8291L50.5637 39.9126L47.6547 39.1792L44.146 53.0957L47.0549 53.8291ZM52.0658 39H67.5V36H52.0658V39ZM38.5094 54.5819C39.2505 56.0915 39.8765 57.3747 40.4697 58.2495C41.0233 59.0659 41.9294 60.1066 43.3689 59.9917L43.1302 57.0012C43.4658 56.9744 43.4383 57.2819 42.9526 56.5657C42.5066 55.9079 41.9877 54.8593 41.2023 53.2597L38.5094 54.5819ZM44.146 53.0957C43.7174 54.7955 43.4347 55.9002 43.1413 56.6091C42.8234 57.3769 42.7589 57.0308 43.1302 57.0012L43.3689 59.9917C44.8441 59.874 45.5393 58.6595 45.9131 57.7566C46.3113 56.7949 46.6521 55.4266 47.0549 53.8291L44.146 53.0957ZM40.3388 51.5011C40.0309 50.874 39.7293 50.2506 39.4028 49.7791C39.0414 49.257 38.5321 48.7421 37.7361 48.5249L36.9465 51.4191C36.8153 51.3833 36.8027 51.2938 36.9362 51.4867C37.1047 51.7301 37.2962 52.1111 37.6459 52.8233L40.3388 51.5011ZM50.5637 39.9126C50.7764 39.0688 50.9299 39.0601 50.8602 39.1039C50.8489 39.111 50.8957 39.0755 51.1 39.0455C51.3142 39.014 51.6117 39 52.0658 39V36C51.1949 36 50.1309 36.0182 49.2623 36.5649C48.2966 37.1726 47.9049 38.1868 47.6547 39.1792L50.5637 39.9126ZM35.3114 52.2616C35.7737 51.9643 36.1006 51.7298 36.4705 51.5564C36.6377 51.478 36.7605 51.4399 36.8456 51.4248C36.8857 51.4177 36.912 51.4167 36.9267 51.4171C36.9405 51.4174 36.9459 51.419 36.9465 51.4191L37.7361 48.5249C36.7308 48.2506 35.8148 48.5505 35.1972 48.84C34.5888 49.1252 33.9953 49.5412 33.6886 49.7384L35.3114 52.2616ZM53.4103 57C55.036 57 56.3201 56.1249 57.2995 55.165C58.2757 54.2083 59.1524 52.9623 59.9281 51.8669L57.4799 50.1331C56.6622 51.2877 55.9453 52.2917 55.1997 53.0225C54.4573 53.7501 53.8913 54 53.4103 54V57ZM59.9281 51.8669C60.7459 50.7123 61.4628 49.7083 62.2084 48.9775C62.9508 48.2499 63.5168 48 63.9978 48V45C62.3721 45 61.088 45.8751 60.1085 46.835C59.1323 47.7917 58.2557 49.0377 57.4799 50.1331L59.9281 51.8669ZM56.3592 49.357L57.3273 51.5954L60.0808 50.4046L59.1127 48.1661L56.3592 49.357ZM57.3273 51.5954L58.2954 53.8339L61.0489 52.643L60.0808 50.4046L57.3273 51.5954ZM58.2954 53.8339C58.6273 54.6013 58.9507 55.4324 59.6123 56.0181L61.6009 53.7719C61.5977 53.7691 61.5893 53.7616 61.5723 53.7387C61.553 53.7125 61.5213 53.6645 61.4742 53.5767C61.3698 53.3819 61.2524 53.1134 61.0489 52.643L58.2954 53.8339ZM63.375 54C62.1647 54 61.9782 53.9742 61.8552 53.9252L60.7467 56.7129C61.5336 57.0258 62.4265 57 63.375 57V54ZM59.6123 56.0181C59.9478 56.3151 60.3332 56.5485 60.7467 56.7129L61.8552 53.9252C61.7518 53.8841 61.6667 53.8301 61.6009 53.7719L59.6123 56.0181ZM54.0331 48C55.2434 48 55.4299 48.0258 55.5529 48.0748L56.6614 45.2871C55.8745 44.9742 54.9816 45 54.0331 45V48ZM59.1127 48.1661C58.7808 47.3987 58.4574 46.5676 57.7958 45.9819L55.8072 48.2281C55.8104 48.2309 55.8188 48.2384 55.8358 48.2613C55.8551 48.2875 55.8868 48.3355 55.9338 48.4233C56.0383 48.6181 56.1557 48.8866 56.3592 49.357L59.1127 48.1661ZM55.5529 48.0748C55.6563 48.1159 55.7414 48.1699 55.8072 48.2281L57.7958 45.9819C57.4603 45.6849 57.0749 45.4515 56.6614 45.2871L55.5529 48.0748Z" fill="#141B34"/>
<path d="M28.5 6V12" stroke="#141B34" stroke-width="3" stroke-linecap="round" stroke-linejoin="round"/>
<path d="M43.5 6V12" stroke="#141B34" stroke-width="3" stroke-linecap="round" stroke-linejoin="round"/>
<path d="M28.5 60V66" stroke="#141B34" stroke-width="3" stroke-linecap="round" stroke-linejoin="round"/>
<path d="M12 28.5L6 28.5" stroke="#141B34" stroke-width="3" stroke-linecap="round" stroke-linejoin="round"/>
<path d="M12 43.5L6 43.5" stroke="#141B34" stroke-width="3" stroke-linecap="round" stroke-linejoin="round"/>
<path d="M66 28.5L60 28.5" stroke="#141B34" stroke-width="3" stroke-linecap="round" stroke-linejoin="round"/>
<path d="M36 24H24" stroke="#141B34" stroke-width="3" stroke-linecap="round" stroke-linejoin="round"/>
</svg>
