<svg width="24" height="24" viewBox="0 0 24 24" fill="none" xmlns="http://www.w3.org/2000/svg">
<path d="M20.9977 12.5032C20.9977 12.5032 21 12.0338 21 11.5029C21 7.02321 21 4.78334 19.6088 3.39167C18.2175 2 15.9783 2 11.5 2C7.02166 2 4.78249 2 3.39124 3.39167C2 4.78334 2 7.02321 2 11.5029C2 15.9827 2 18.2225 3.39124 19.6142C4.55785 20.7812 6.32067 20.9696 9.5 21" stroke="#141B34" stroke-width="1.5" stroke-linecap="round"/>
<path d="M2 7H21" stroke="#141B34" stroke-width="1.5" stroke-linejoin="round"/>
<path d="M6 16H7M10 12H15M6 12H7" stroke="#141B34" stroke-width="1.5" stroke-linecap="round" stroke-linejoin="round"/>
<path d="M12 22L14.3671 19.6329C14.6681 19.3319 14.8187 19.1813 15.0095 19.1708C15.2002 19.1602 15.3665 19.2932 15.6989 19.5591L16.7586 20.4069C17.1096 20.6877 17.2851 20.8281 17.484 20.8112C17.6828 20.7943 17.8321 20.6264 18.1307 20.2904L21.5 16.5" stroke="#141B34" stroke-width="1.5" stroke-linecap="round" stroke-linejoin="round"/>
<path d="M20 16H21C21.4714 16 21.7071 16 21.8536 16.1464C22 16.2929 22 16.5286 22 17L22 18" stroke="#141B34" stroke-width="1.5" stroke-linecap="round" stroke-linejoin="round"/>
<path d="M13.5 17H16.5" stroke="#141B34" stroke-width="1.5" stroke-linecap="round" stroke-linejoin="round"/>
</svg>
