<svg width="72" height="72" viewBox="0 0 72 72" fill="none" xmlns="http://www.w3.org/2000/svg">
<path d="M11.3329 35.8271C8.4888 30.8679 7.11554 26.8184 6.28751 22.7136C5.06287 16.6427 7.86543 10.7124 12.5081 6.92842C14.4703 5.32915 16.7197 5.87555 17.88 7.9572L20.4996 12.6567C22.5759 16.3817 23.614 18.2442 23.4081 20.2188C23.2022 22.1934 21.8021 23.8016 19.0019 27.018L11.3329 35.8271ZM11.3329 35.8271C17.0895 45.8648 26.1235 54.9038 36.1729 60.6671M36.1729 60.6671C41.1321 63.5112 45.1816 64.8845 49.2864 65.7125C55.3573 66.9371 61.2876 64.1346 65.0716 59.4919C66.6708 57.5297 66.1244 55.2803 64.0428 54.12L59.3433 51.5005C55.6183 49.4241 53.7558 48.386 51.7812 48.5919C49.8066 48.7978 48.1984 50.1979 44.982 52.9981L36.1729 60.6671Z" stroke="#141B34" stroke-width="3" stroke-linejoin="round"/>
<path d="M52.4974 6C48.2232 6 45.4518 8.72564 42.1742 9.71912C40.8415 10.1231 40.1752 10.3251 39.9055 10.6098C39.6358 10.8945 39.5569 11.3106 39.3989 12.1427C37.7089 21.0471 41.4029 29.2794 50.2125 32.4836C51.1591 32.8279 51.6323 33 52.5021 33C53.3719 33 53.8451 32.8279 54.7916 32.4836C63.6007 29.2793 67.2912 21.0471 65.6006 12.1427C65.4426 11.3104 65.3636 10.8943 65.0939 10.6096C64.8242 10.3248 64.1579 10.123 62.8253 9.71923C59.5464 8.72585 56.7718 6 52.4974 6Z" stroke="#141B34" stroke-width="3" stroke-linecap="round" stroke-linejoin="round"/>
</svg>
