<svg width="24" height="24" viewBox="0 0 24 24" fill="none" xmlns="http://www.w3.org/2000/svg">
<path d="M21 21H10C6.70017 21 5.05025 21 4.02513 19.9749C3 18.9497 3 17.2998 3 14V3" stroke="#141B34" stroke-width="1.5" stroke-linecap="round"/>
<circle cx="5.75" cy="4.75" r="0.75" stroke="#141B34" stroke-width="1.5" stroke-linecap="round" stroke-linejoin="round"/>
<path d="M12.9996 5.125C12.9799 4.88009 12.9357 4.7075 12.8361 4.5625C12.7187 4.39148 12.5498 4.24946 12.3463 4.15072C12.0358 4 11.619 4 10.7853 4C9.95156 4 9.5347 4 9.22421 4.15072C9.02079 4.24946 8.85188 4.39148 8.73444 4.5625C8.55518 4.82356 8.55518 5.17404 8.55518 5.875V8.125C8.55518 8.82596 8.55518 9.17644 8.73444 9.4375C8.85188 9.60852 9.02079 9.75054 9.22421 9.84928C9.5347 10 9.95156 10 10.7853 10C11.619 10 12.0358 10 12.3463 9.84928C12.5498 9.75054 12.7187 9.60852 12.8361 9.4375C12.9357 9.2925 12.9799 9.11991 12.9996 8.875" stroke="#141B34" stroke-width="1.5" stroke-linecap="round" stroke-linejoin="round"/>
<path d="M5 20C6.07093 18.053 7.52279 13.0189 10.3063 13.0189C12.2301 13.0189 12.7283 15.4717 14.6136 15.4717C17.8572 15.4717 17.387 10 21 10" stroke="#141B34" stroke-width="1.5" stroke-linecap="round" stroke-linejoin="round"/>
</svg>
