<svg width="24" height="24" viewBox="0 0 24 24" fill="none" xmlns="http://www.w3.org/2000/svg">
<path d="M21 9.011C21 12.0001 20.0868 21 16.1774 21C14.1321 21 12.8338 17.3802 11.9999 12.0001C11.1661 6.61994 9.86786 3 7.82263 3C3.91318 3 3 12.0001 3 14.989" stroke="#141B34" stroke-width="1.5" stroke-linecap="round"/>
<path d="M2 12H5" stroke="#141B34" stroke-width="1.5" stroke-linecap="round" stroke-linejoin="round"/>
<path d="M8 12H10" stroke="#141B34" stroke-width="1.5" stroke-linecap="round" stroke-linejoin="round"/>
<path d="M14 12H16" stroke="#141B34" stroke-width="1.5" stroke-linecap="round" stroke-linejoin="round"/>
<path d="M19 12H22" stroke="#141B34" stroke-width="1.5" stroke-linecap="round" stroke-linejoin="round"/>
<path d="M22 20.7288C18 22.6651 16.5884 13.6549 16.3311 12.0453C15.4666 6.63802 14.1205 3 12 3C9.87955 3 8.53343 6.63802 7.66891 12.0453C7.41158 13.6549 6 22.6651 2 20.7288" stroke="#141B34" stroke-width="1.5" stroke-linecap="round"/>
<path d="M22 3.27124C18 1.33494 16.5884 10.3451 16.3311 11.9547C15.4666 17.362 14.1205 21 12 21C9.87955 21 8.53343 17.362 7.66891 11.9547C7.41158 10.3451 6 1.33494 2 3.27124" stroke="#141B34" stroke-width="1.5" stroke-linecap="round"/>
</svg>
