<svg width="24" height="24" viewBox="0 0 24 24" fill="none" xmlns="http://www.w3.org/2000/svg">
<path d="M9 5C9 6.65685 7.65685 8 6 8C4.34315 8 3 6.65685 3 5C3 3.34315 4.34315 2 6 2C7.65685 2 9 3.34315 9 5Z" stroke="#141B34" stroke-width="1.5"/>
<path d="M21 14C21 15.6569 19.6569 17 18 17C16.3431 17 15 15.6569 15 14C15 12.3431 16.3431 11 18 11C19.6569 11 21 12.3431 21 14Z" stroke="#141B34" stroke-width="1.5"/>
<path d="M9 19C9 20.6569 7.65685 22 6 22C4.34315 22 3 20.6569 3 19C3 17.3431 4.34315 16 6 16C7.65685 16 9 17.3431 9 19Z" stroke="#141B34" stroke-width="1.5"/>
<path d="M6 8V16" stroke="#141B34" stroke-width="1.5" stroke-linecap="round" stroke-linejoin="round"/>
<path d="M15 14H12C8.68629 14 6 11.3137 6 8" stroke="#141B34" stroke-width="1.5" stroke-linecap="round" stroke-linejoin="round"/>
<circle cx="13.75" cy="2.75" r="0.75" stroke="#141B34" stroke-width="1.5" stroke-linecap="round" stroke-linejoin="round"/>
<path d="M20.9999 3.125C20.9802 2.88009 20.9359 2.7075 20.8363 2.5625C20.7189 2.39148 20.55 2.24946 20.3466 2.15072C20.0361 2 19.6192 2 18.7855 2C17.9518 2 17.5349 2 17.2244 2.15072C17.021 2.24946 16.8521 2.39148 16.7347 2.5625C16.5554 2.82356 16.5554 3.17404 16.5554 3.875V6.125C16.5554 6.82596 16.5554 7.17644 16.7347 7.4375C16.8521 7.60852 17.021 7.75054 17.2244 7.84928C17.5349 8 17.9518 8 18.7855 8C19.6192 8 20.0361 8 20.3466 7.84928C20.55 7.75054 20.7189 7.60852 20.8363 7.4375C20.9359 7.2925 20.9802 7.11991 20.9999 6.875" stroke="#141B34" stroke-width="1.5" stroke-linecap="round" stroke-linejoin="round"/>
</svg>
