<svg width="24" height="24" viewBox="0 0 24 24" fill="none" xmlns="http://www.w3.org/2000/svg">
<path d="M2 19.5C2 18.3215 2 17.7322 2.43934 17.3661C2.87868 17 3.58579 17 5 17C6.41421 17 7.12132 17 7.56066 17.3661C8 17.7322 8 18.3215 8 19.5C8 20.6785 8 21.2678 7.56066 21.6339C7.12132 22 6.41421 22 5 22C3.58579 22 2.87868 22 2.43934 21.6339C2 21.2678 2 20.6785 2 19.5Z" stroke="#141B34" stroke-width="1.5"/>
<path d="M16 19.5C16 18.3215 16 17.7322 16.4393 17.3661C16.8787 17 17.5858 17 19 17C20.4142 17 21.1213 17 21.5607 17.3661C22 17.7322 22 18.3215 22 19.5C22 20.6785 22 21.2678 21.5607 21.6339C21.1213 22 20.4142 22 19 22C17.5858 22 16.8787 22 16.4393 21.6339C16 21.2678 16 20.6785 16 19.5Z" stroke="#141B34" stroke-width="1.5"/>
<path d="M19 17C19 14.518 18.2562 14 14.6923 14H9.30769C5.74379 14 5 14.518 5 17" stroke="#141B34" stroke-width="1.5" stroke-linecap="round" stroke-linejoin="round"/>
<g clip-path="url(#clip0_5735_2849)">
<path d="M15.5417 8.5946C14.4994 11.0647 11.1101 11.7844 9.16734 9.85973C7.26237 7.97246 7.85214 4.55335 10.357 3.45801" stroke="#141B34" stroke-width="1.5" stroke-linecap="round"/>
<path d="M14.3681 7.20817C15.1546 7.20817 15.5478 7.20817 15.8018 6.85608C15.8113 6.84292 15.8271 6.81931 15.8356 6.80551C16.0637 6.43613 15.9461 6.15234 15.711 5.58475C15.4978 5.07006 15.1854 4.6024 14.7914 4.20848C14.3975 3.81455 13.9299 3.50207 13.4152 3.28888C12.8476 3.05378 12.5638 2.93623 12.1944 3.16432C12.1806 3.17285 12.157 3.18862 12.1438 3.19811C11.7917 3.45209 11.7917 3.84535 11.7917 4.63186V5.51129C11.7917 6.31121 11.7917 6.71116 12.0403 6.95967C12.2888 7.20817 12.6887 7.20817 13.4886 7.20817H14.3681Z" stroke="#141B34" stroke-width="1.5"/>
</g>
<defs>
<clipPath id="clip0_5735_2849">
<rect width="10" height="10" fill="white" transform="translate(7 2)"/>
</clipPath>
</defs>
</svg>
