<svg width="24" height="24" viewBox="0 0 24 24" fill="none" xmlns="http://www.w3.org/2000/svg">
<path d="M20.9977 12.5032C20.9977 12.5032 21 12.0338 21 11.5029C21 7.02321 21 4.78334 19.6088 3.39167C18.2175 2 15.9783 2 11.5 2C7.02166 2 4.78249 2 3.39124 3.39167C2 4.78334 2 7.02321 2 11.5029C2 15.9827 2 18.2225 3.39124 19.6142C4.55785 20.7812 6.32067 20.9696 9.5 21" stroke="#141B34" stroke-width="1.5" stroke-linecap="round"/>
<path d="M2 7H21" stroke="#141B34" stroke-width="1.5" stroke-linejoin="round"/>
<path d="M6 16H7M10 12H15M6 12H7" stroke="#141B34" stroke-width="1.5" stroke-linecap="round" stroke-linejoin="round"/>
<path d="M20.485 19.0997C21.2718 19.1376 21.6651 19.1566 21.8877 19.5273C22.1104 19.8979 21.9764 20.1736 21.7086 20.725C21.5982 20.9522 21.4659 21.1697 21.3129 21.3743C20.8355 22.0127 20.1777 22.4965 19.4227 22.7645C18.6677 23.0326 17.8494 23.0728 17.0714 22.88C16.2934 22.6873 15.5905 22.2703 15.0516 21.6818C14.5128 21.0933 14.1622 20.3597 14.0442 19.5737C13.9261 18.7878 14.046 17.9848 14.3885 17.2663C14.7311 16.5479 15.281 15.9462 15.9687 15.5374C16.1891 15.4064 16.4204 15.2971 16.6594 15.2103C17.2392 14.9997 17.5292 14.8944 17.8799 15.15C18.2306 15.4055 18.2115 15.7952 18.1732 16.5747L18.1338 17.3774C18.0966 18.134 18.078 18.5123 18.3037 18.7588C18.5294 19.0053 18.9112 19.0237 19.6749 19.0606L20.485 19.0997Z" stroke="#141B34" stroke-width="1.5" stroke-linejoin="round"/>
</svg>
