<svg width="24" height="24" viewBox="0 0 24 24" fill="none" xmlns="http://www.w3.org/2000/svg">
<path d="M7.75025 7.56659C9.66926 4.5222 10.6288 3 12 3C13.3712 3 14.3307 4.52219 16.2498 7.56658L18.4941 11.1271C21.2362 15.4772 22.6072 17.6522 21.7426 19.3261C20.878 21 18.3834 21 13.3944 21H10.6056C5.61655 21 3.12205 21 2.25742 19.3261C1.3928 17.6522 2.76382 15.4772 5.50587 11.1271L7.75025 7.56659Z" stroke="#141B34" stroke-width="1.5" stroke-linejoin="round"/>
<path d="M3.5 15H6M7 9H17" stroke="#141B34" stroke-width="1.5" stroke-linecap="round" stroke-linejoin="round"/>
<g clip-path="url(#clip0_5735_2869)">
<path d="M7.93335 12.4998C7.93335 12.107 7.93335 11.9106 8.05539 11.7885C8.17743 11.6665 8.37385 11.6665 8.76668 11.6665C9.15952 11.6665 9.35594 11.6665 9.47798 11.7885C9.60002 11.9106 9.60002 12.107 9.60002 12.4998V13.3332C9.60002 13.726 9.60002 13.9224 9.47798 14.0445C9.35594 14.1665 9.15952 14.1665 8.76668 14.1665C8.37385 14.1665 8.17743 14.1665 8.05539 14.0445C7.93335 13.9224 7.93335 13.726 7.93335 13.3332V12.4998Z" stroke="#141B34"/>
<path d="M9.80835 16.6663C9.80835 16.2735 9.80835 16.0771 9.93039 15.955C10.0524 15.833 10.2488 15.833 10.6417 15.833C11.0345 15.833 11.2309 15.833 11.353 15.955C11.475 16.0771 11.475 16.2735 11.475 16.6663V17.4997C11.475 17.8925 11.475 18.0889 11.353 18.211C11.2309 18.333 11.0345 18.333 10.6417 18.333C10.2488 18.333 10.0524 18.333 9.93039 18.211C9.80835 18.0889 9.80835 17.8925 9.80835 17.4997V16.6663Z" stroke="#141B34"/>
<path d="M12.7251 12.4998C12.7251 12.107 12.7251 11.9106 12.8471 11.7885C12.9692 11.6665 13.1656 11.6665 13.5584 11.6665C13.9513 11.6665 14.1477 11.6665 14.2697 11.7885C14.3918 11.9106 14.3918 12.107 14.3918 12.4998V13.3332C14.3918 13.726 14.3918 13.9224 14.2697 14.0445C14.1477 14.1665 13.9513 14.1665 13.5584 14.1665C13.1656 14.1665 12.9692 14.1665 12.8471 14.0445C12.7251 13.9224 12.7251 13.726 12.7251 13.3332V12.4998Z" stroke="#141B34"/>
<path d="M12.7251 16.6663C12.7251 16.2735 12.7251 16.0771 12.8471 15.955C12.9692 15.833 13.1656 15.833 13.5584 15.833C13.9513 15.833 14.1477 15.833 14.2697 15.955C14.3918 16.0771 14.3918 16.2735 14.3918 16.6663V17.4997C14.3918 17.8925 14.3918 18.0889 14.2697 18.211C14.1477 18.333 13.9513 18.333 13.5584 18.333C13.1656 18.333 12.9692 18.333 12.8471 18.211C12.7251 18.0889 12.7251 17.8925 12.7251 17.4997V16.6663Z" stroke="#141B34"/>
<path d="M10.8501 12.0832L11.4751 11.6665V14.1665" stroke="#141B34" stroke-linecap="round" stroke-linejoin="round"/>
<path d="M7.93335 16.2497L8.55835 15.833V18.333" stroke="#141B34" stroke-linecap="round" stroke-linejoin="round"/>
<path d="M15.6416 12.0832L16.2666 11.6665V14.1665" stroke="#141B34" stroke-linecap="round" stroke-linejoin="round"/>
<path d="M15.6416 16.2497L16.2666 15.833V18.333" stroke="#141B34" stroke-linecap="round" stroke-linejoin="round"/>
</g>
<defs>
<clipPath id="clip0_5735_2869">
<rect width="10" height="10" fill="white" transform="translate(7.1001 10)"/>
</clipPath>
</defs>
</svg>
