<svg width="72" height="72" viewBox="0 0 72 72" fill="none" xmlns="http://www.w3.org/2000/svg">
<path d="M62.9931 37.5097C62.9931 37.5097 63 36.1013 63 34.5088C63 21.0696 63 14.35 58.8263 10.175C54.6525 6 47.935 6 34.5 6C21.065 6 14.3475 6 10.1737 10.175C6 14.35 6 21.0696 6 34.5088C6 47.948 6 54.6675 10.1737 58.8426C13.6735 62.3435 18.962 62.9087 28.5 63" stroke="#141B34" stroke-width="3" stroke-linecap="round"/>
<path d="M6 21L63 21" stroke="#141B34" stroke-width="3" stroke-linejoin="round"/>
<path d="M18 48H21M30 36H45M18 36H21" stroke="#141B34" stroke-width="3" stroke-linecap="round" stroke-linejoin="round"/>
<path d="M36 66L43.1013 58.8987C44.0044 57.9956 44.456 57.544 45.0284 57.5123C45.6007 57.4806 46.0994 57.8795 47.0967 58.6774L50.2759 61.2207C51.3289 62.0631 51.8554 62.4843 52.4519 62.4337C53.0484 62.383 53.4964 61.8791 54.3922 60.8712L64.5 49.5" stroke="#141B34" stroke-width="3" stroke-linecap="round" stroke-linejoin="round"/>
<path d="M60 48H63C64.4142 48 65.1213 48 65.5607 48.4393C66 48.8787 66 49.5858 66 51L66 54" stroke="#141B34" stroke-width="3" stroke-linecap="round" stroke-linejoin="round"/>
<path d="M40.5 51H49.5" stroke="#141B34" stroke-width="3" stroke-linecap="round" stroke-linejoin="round"/>
</svg>
