<svg width="72" height="72" viewBox="0 0 72 72" fill="none" xmlns="http://www.w3.org/2000/svg">
<path d="M51.675 51.827C50.8466 51.827 50.175 52.4986 50.175 53.327C50.175 54.1555 50.8466 54.827 51.675 54.827V51.827ZM51.675 29.4308V27.9308L51.6716 27.9308L51.675 29.4308ZM20.3832 26.836L20.5157 28.3301H20.5157L20.3832 26.836ZM29.4412 30.6597C30.1199 31.1347 31.0552 30.9697 31.5303 30.291C32.0053 29.6123 31.8402 28.677 31.1615 28.2019L29.4412 30.6597ZM46.9696 36.4012C46.4201 37.0211 46.4771 37.9691 47.0971 38.5187C47.717 39.0682 48.665 39.0112 49.2145 38.3912L46.9696 36.4012ZM28.8 45.3616C28.8 46.19 29.4716 46.8616 30.3 46.8616C31.1284 46.8616 31.8 46.19 31.8 45.3616H28.8ZM40.9374 48.0168L42.1323 48.9236L42.1747 48.8676L42.2118 48.808L40.9374 48.0168ZM36 15C43.9305 15 50.175 20.9648 50.175 28.1032H53.175C53.175 19.1114 45.3837 12 36 12V15ZM63 41.3789C63 47.051 58.0315 51.827 51.675 51.827V54.827C59.4847 54.827 66 48.9044 66 41.3789H63ZM51.675 30.9308C58.0314 30.9308 63 35.7069 63 41.3789H66C66 33.8535 59.4847 27.9308 51.675 27.9308V30.9308ZM51.6145 30.931L51.6784 30.9308L51.6716 27.9308L51.6077 27.931L51.6145 30.931ZM50.175 28.1032C50.175 28.5025 50.1557 28.8971 50.1181 29.2865L53.1041 29.5754C53.1511 29.0902 53.175 28.5991 53.175 28.1032H50.175ZM9 40.0514C9 34.0187 13.9649 28.9108 20.5157 28.3301L20.2507 25.3418C12.3437 26.0428 6 32.2791 6 40.0514H9ZM20.5157 28.3301C20.9215 28.2941 21.3332 28.2757 21.75 28.2757V25.2757C21.2447 25.2757 20.7446 25.298 20.2507 25.3418L20.5157 28.3301ZM21.8769 26.9738C22.4878 20.3521 28.495 15 36 15V12C27.1075 12 19.6574 18.3762 18.8896 26.6981L21.8769 26.9738ZM21.75 28.2757C24.6485 28.2757 27.3095 29.1676 29.4412 30.6597L31.1615 28.2019C28.5295 26.3596 25.2687 25.2757 21.75 25.2757V28.2757ZM50.1181 29.2865C49.8591 31.963 48.7276 34.4181 46.9696 36.4012L49.2145 38.3912C51.3656 35.9648 52.7803 32.9231 53.1041 29.5754L50.1181 29.2865ZM31.8 45.3616C31.8 43.3556 33.5786 41.5514 36 41.5514V38.5514C32.1254 38.5514 28.8 41.5021 28.8 45.3616H31.8ZM39.7426 47.11C36.1656 51.8233 28.5286 53.4543 21.471 51.9742C14.402 50.4918 9 46.1604 9 40.0514H6C6 48.2941 13.2425 53.3139 20.8552 54.9103C28.4792 56.5092 37.561 54.947 42.1323 48.9236L39.7426 47.11ZM36 41.5514C37.554 41.5514 38.8684 42.3747 39.5924 43.5207C40.3079 44.6533 40.4096 46.0233 39.6631 47.2255L42.2118 48.808C43.6418 46.5049 43.3756 43.8922 42.1287 41.9184C40.8902 39.9581 38.6476 38.5514 36 38.5514V41.5514Z" fill="#141B34"/>
<path d="M8.59036 25.1833C6.59037 17.9248 11.0199 10.4639 18.484 8.51902M8.59036 25.1833L6 25.8582M8.59036 25.1833C9.0877 26.9883 9.9358 28.6108 11.0442 30M18.484 8.51902L17.7899 6M18.484 8.51902C24.0002 7.08167 29.63 9.05917 33 13.119M9.98654 14.8612L7.25388 13.3234M30.6798 7.21934L29.1039 9.87985" stroke="#141B34" stroke-width="3" stroke-linecap="round"/>
<path d="M42.4616 65.7439C42.8947 65.9098 43.3607 66 43.8462 66C46.1403 66 48 63.9853 48 61.5C48 59.0147 46.1403 57 43.8462 57C43.0318 57 42.2722 57.2539 41.6311 57.6926C38.4474 60.0674 32.5501 63.1134 25.846 63.9031M17.5384 63.5809C15.6838 63.1904 13.826 62.5624 12 61.6435" stroke="#141B34" stroke-width="3" stroke-linecap="round"/>
<path d="M57 63C57.7742 63 59.867 63 63 63" stroke="#141B34" stroke-width="3" stroke-linecap="round"/>
</svg>
