<svg width="24" height="24" viewBox="0 0 24 24" fill="none" xmlns="http://www.w3.org/2000/svg">
<ellipse cx="11" cy="5" rx="8" ry="3" stroke="#141B34" stroke-width="1.5"/>
<path d="M6 10.8418C6.60158 11.0226 7.27434 11.1716 8 11.2817" stroke="#141B34" stroke-width="1.5" stroke-linecap="round"/>
<path d="M3 12C3 13.5299 6.05369 14.7923 10 14.9768" stroke="#141B34" stroke-width="1.5" stroke-linecap="round"/>
<path d="M6 17.8418C6.60158 18.0226 7.27434 18.1716 8 18.2817" stroke="#141B34" stroke-width="1.5" stroke-linecap="round"/>
<path d="M11 22C6.58172 22 3 20.6569 3 19V5M19 5V11" stroke="#141B34" stroke-width="1.5" stroke-linecap="round" stroke-linejoin="round"/>
<path d="M21.2324 15C20.8866 14.4022 20.2403 14 19.5 14C18.3954 14 17.5 14.8954 17.5 16V18C17.5 19.1046 18.3954 20 19.5 20C20.2403 20 20.8866 19.5978 21.2324 19" stroke="#141B34" stroke-width="1.5" stroke-linecap="round"/>
<path d="M13 15L14.5 14V20" stroke="#141B34" stroke-width="1.5" stroke-linecap="round" stroke-linejoin="round"/>
</svg>
