<svg width="24" height="24" viewBox="0 0 24 24" fill="none" xmlns="http://www.w3.org/2000/svg">
<path d="M6.48311 3.65819C6.11715 3.25395 5.58823 3 5 3C3.89543 3 3 3.89543 3 5C3 5.58823 3.25395 6.11716 3.65819 6.48311C4.01303 6.80434 4.48366 7 5 7C6.10457 7 7 6.10457 7 5C7 4.48366 6.80434 4.01303 6.48311 3.65819ZM6.48311 3.65819C8.0644 2.6103 9.96093 2 12 2C12.6849 2 13.3538 2.06886 14 2.20004M20.353 6.5C21.394 8.0779 22 9.96818 22 12C22 12.6849 21.9311 13.3538 21.8 14M17.5169 20.3418C15.9356 21.3897 14.0391 22 12 22C11.3151 22 10.6462 21.9311 10 21.8M17.5169 20.3418C17.8828 20.7461 18.4118 21 19 21C20.1046 21 21 20.1046 21 19C21 18.4118 20.7461 17.8828 20.3418 17.5169C19.987 17.1957 19.5163 17 19 17C17.8954 17 17 17.8954 17 19C17 19.5163 17.1957 19.987 17.5169 20.3418ZM3.65819 17.5169C2.6103 15.9356 2 14.0391 2 12C2 11.3151 2.06886 10.6462 2.20004 10M3.65819 17.5169C3.25395 17.8828 3 18.4118 3 19C3 20.1046 3.89543 21 5 21C5.58823 21 6.11715 20.7461 6.48311 20.3418C6.80434 19.987 7 19.5163 7 19C7 17.8954 6.10457 17 5 17C4.48366 17 4.01303 17.1957 3.65819 17.5169ZM21 5C21 6.10457 20.1046 7 19 7C17.8954 7 17 6.10457 17 5C17 4.48366 17.1957 4.01303 17.5169 3.65819C17.8828 3.25395 18.4118 3 19 3C20.1046 3 21 3.89543 21 5Z" stroke="#141B34" stroke-width="1.5" stroke-linecap="round" stroke-linejoin="round"/>
<path d="M15.542 13.5946C14.4997 16.0647 11.1104 16.7844 9.16759 14.8597C7.26261 12.9725 7.85238 9.55335 10.3572 8.45801" stroke="#141B34" stroke-width="1.5" stroke-linecap="round"/>
<path d="M14.3683 12.2077C15.1548 12.2077 15.5481 12.2077 15.802 11.8556C15.8115 11.8424 15.8273 11.8188 15.8358 11.805C16.0639 11.4356 15.9464 11.1518 15.7113 10.5843C15.4981 10.0696 15.1856 9.60191 14.7917 9.20799C14.3978 8.81406 13.9301 8.50158 13.4154 8.28839C12.8478 8.05329 12.564 7.93574 12.1947 8.16384C12.1808 8.17236 12.1572 8.18814 12.1441 8.19763C11.792 8.4516 11.792 8.84486 11.792 9.63137V10.5108C11.792 11.3107 11.792 11.7107 12.0405 11.9592C12.289 12.2077 12.689 12.2077 13.4889 12.2077H14.3683Z" stroke="#141B34" stroke-width="1.5"/>
</svg>
