<svg width="72" height="72" viewBox="0 0 72 72" fill="none" xmlns="http://www.w3.org/2000/svg">
<path d="M63 63H30C20.1005 63 15.1508 63 12.0754 59.9246C9 56.8492 9 51.8995 9 42V9" stroke="#141B34" stroke-width="3" stroke-linecap="round"/>
<circle cx="17.25" cy="14.25" r="2.25" stroke="#141B34" stroke-width="3" stroke-linecap="round" stroke-linejoin="round"/>
<path d="M38.9989 15.375C38.9398 14.6403 38.807 14.1225 38.5083 13.6875C38.156 13.1744 37.6493 12.7484 37.039 12.4522C36.1075 12 34.857 12 32.3558 12C29.8547 12 28.6041 12 27.6726 12.4522C27.0624 12.7484 26.5556 13.1744 26.2033 13.6875C25.6655 14.4707 25.6655 15.5221 25.6655 17.625V24.375C25.6655 26.4779 25.6655 27.5293 26.2033 28.3125C26.5556 28.8256 27.0624 29.2516 27.6726 29.5478C28.6041 30 29.8547 30 32.3558 30C34.857 30 36.1075 30 37.039 29.5478C37.6493 29.2516 38.156 28.8256 38.5083 28.3125C38.807 27.8775 38.9398 27.3597 38.9989 26.625" stroke="#141B34" stroke-width="3" stroke-linecap="round" stroke-linejoin="round"/>
<path d="M15 60C18.2128 54.1591 22.5684 39.0566 30.9188 39.0566C36.6903 39.0566 38.185 46.4151 43.8409 46.4151C53.5717 46.4151 52.1611 30 63 30" stroke="#141B34" stroke-width="3" stroke-linecap="round" stroke-linejoin="round"/>
</svg>
