<svg width="72" height="72" viewBox="0 0 72 72" fill="none" xmlns="http://www.w3.org/2000/svg">
<path d="M63 27.033C63 36.0003 60.2605 63 48.5321 63C42.3964 63 38.5013 52.1407 35.9998 36.0003C33.4982 19.8598 29.6036 9 23.4679 9C11.7395 9 9 36.0003 9 44.967" stroke="#141B34" stroke-width="3" stroke-linecap="round"/>
<path d="M6 35.9995H15" stroke="#141B34" stroke-width="3" stroke-linecap="round" stroke-linejoin="round"/>
<path d="M24 36H30" stroke="#141B34" stroke-width="3" stroke-linecap="round" stroke-linejoin="round"/>
<path d="M42 36H48" stroke="#141B34" stroke-width="3" stroke-linecap="round" stroke-linejoin="round"/>
<path d="M57 36H66" stroke="#141B34" stroke-width="3" stroke-linecap="round" stroke-linejoin="round"/>
<path d="M66 62.1863C54 67.9952 49.7653 40.9646 48.9933 36.136C46.3997 19.914 42.3614 9 36 9C29.6386 9 25.6003 19.914 23.0067 36.136C22.2347 40.9646 18 67.9952 6 62.1863" stroke="#141B34" stroke-width="3" stroke-linecap="round"/>
<path d="M66 9.81372C54 4.00481 49.7653 31.0354 48.9933 35.864C46.3997 52.086 42.3614 63 36 63C29.6386 63 25.6003 52.086 23.0067 35.864C22.2347 31.0354 18 4.00481 6 9.81372" stroke="#141B34" stroke-width="3" stroke-linecap="round"/>
</svg>
