<svg width="72" height="72" viewBox="0 0 72 72" fill="none" xmlns="http://www.w3.org/2000/svg">
<path d="M27 15C27 19.9706 22.9706 24 18 24C13.0294 24 9 19.9706 9 15C9 10.0294 13.0294 6 18 6C22.9706 6 27 10.0294 27 15Z" stroke="#141B34" stroke-width="3"/>
<path d="M63 42C63 46.9706 58.9706 51 54 51C49.0294 51 45 46.9706 45 42C45 37.0294 49.0294 33 54 33C58.9706 33 63 37.0294 63 42Z" stroke="#141B34" stroke-width="3"/>
<path d="M27 57C27 61.9706 22.9706 66 18 66C13.0294 66 9 61.9706 9 57C9 52.0294 13.0294 48 18 48C22.9706 48 27 52.0294 27 57Z" stroke="#141B34" stroke-width="3"/>
<path d="M18 24L18 48" stroke="#141B34" stroke-width="3" stroke-linecap="round" stroke-linejoin="round"/>
<path d="M45 42H36C26.0589 42 18 33.9411 18 24" stroke="#141B34" stroke-width="3" stroke-linecap="round" stroke-linejoin="round"/>
<circle cx="41.25" cy="8.25" r="2.25" stroke="#141B34" stroke-width="3" stroke-linecap="round" stroke-linejoin="round"/>
<path d="M62.9998 9.375C62.9408 8.64027 62.808 8.1225 62.5093 7.6875C62.157 7.17444 61.6502 6.74838 61.04 6.45216C60.1085 6 58.8579 6 56.3568 6C53.8557 6 52.6051 6 51.6736 6.45216C51.0634 6.74838 50.5566 7.17444 50.2043 7.6875C49.6665 8.47067 49.6665 9.52211 49.6665 11.625V18.375C49.6665 20.4779 49.6665 21.5293 50.2043 22.3125C50.5566 22.8256 51.0634 23.2516 51.6736 23.5478C52.6051 24 53.8557 24 56.3568 24C58.8579 24 60.1085 24 61.04 23.5478C61.6502 23.2516 62.157 22.8256 62.5093 22.3125C62.808 21.8775 62.9408 21.3597 62.9998 20.625" stroke="#141B34" stroke-width="3" stroke-linecap="round" stroke-linejoin="round"/>
</svg>
