<svg width="24" height="24" viewBox="0 0 24 24" fill="none" xmlns="http://www.w3.org/2000/svg">
<path d="M11.5294 22H10.4706C6.47751 22 4.48098 22 3.24049 20.8284C2 19.6569 2 17.7712 2 14L2 10C2 6.22876 2 4.34315 3.24049 3.17157C4.48098 2 6.47752 2 10.4706 2L11.5294 2C15.5225 2 17.519 2 18.7595 3.17157C20 4.34315 20 6.22876 20 10V10.5" stroke="#141B34" stroke-width="1.5" stroke-linecap="round"/>
<path d="M7 7H15" stroke="#141B34" stroke-width="1.5" stroke-linecap="round"/>
<path d="M7 12H12" stroke="#141B34" stroke-width="1.5" stroke-linecap="round"/>
<path d="M21 15L22.2265 16.0572C22.7422 16.5016 23 16.7239 23 17C23 17.2761 22.7422 17.4984 22.2265 17.9428L21 19" stroke="#141B34" stroke-width="1.5" stroke-linecap="round" stroke-linejoin="round"/>
<path d="M14 15L12.7735 16.0572C12.2578 16.5016 12 16.7239 12 17C12 17.2761 12.2578 17.4984 12.7735 17.9428L14 19" stroke="#141B34" stroke-width="1.5" stroke-linecap="round" stroke-linejoin="round"/>
<path d="M18.5 15L16.5 19" stroke="#141B34" stroke-width="1.5" stroke-linecap="round" stroke-linejoin="round"/>
</svg>
