<svg width="72" height="72" viewBox="0 0 72 72" fill="none" xmlns="http://www.w3.org/2000/svg">
<path d="M62.9931 37.5097C62.9931 37.5097 63 36.1013 63 34.5088C63 21.0696 63 14.35 58.8263 10.175C54.6525 6 47.935 6 34.5 6C21.065 6 14.3475 6 10.1737 10.175C6 14.35 6 21.0696 6 34.5088C6 47.948 6 54.6675 10.1737 58.8426C13.6735 62.3435 18.962 62.9087 28.5 63" stroke="#141B34" stroke-width="3" stroke-linecap="round"/>
<path d="M6 21L63 21" stroke="#141B34" stroke-width="3" stroke-linejoin="round"/>
<path d="M18 48H21M30 36H45M18 36H21" stroke="#141B34" stroke-width="3" stroke-linecap="round" stroke-linejoin="round"/>
<path d="M61.4551 57.299C63.8153 57.4128 64.9953 57.4697 65.6632 58.5818C66.3311 59.6938 65.9293 60.5209 65.1257 62.1749C64.7945 62.8566 64.3977 63.5091 63.9388 64.1228C62.5064 66.0381 60.533 67.4895 58.268 68.2936C56.0031 69.0977 53.5483 69.2183 51.2142 68.6401C48.8801 68.0619 46.7715 66.811 45.1549 65.0454C43.5384 63.2799 42.4866 61.079 42.1325 58.7212C41.7784 56.3633 42.1379 53.9544 43.1656 51.799C44.1933 49.6437 45.843 47.8386 47.9061 46.6122C48.5672 46.2193 49.2611 45.8914 49.9781 45.631C51.7177 44.9992 52.5875 44.6833 53.6397 45.4499C54.6919 46.2165 54.6345 47.3857 54.5196 49.7241L54.4013 52.1322C54.2898 54.4021 54.234 55.537 54.9111 56.2765C55.5882 57.016 56.7337 57.0712 59.0246 57.1817L61.4551 57.299Z" stroke="#141B34" stroke-width="3" stroke-linejoin="round"/>
</svg>
