<svg width="72" height="72" viewBox="0 0 72 72" fill="none" xmlns="http://www.w3.org/2000/svg">
<ellipse cx="33" cy="15" rx="24" ry="9" stroke="#141B34" stroke-width="3"/>
<path d="M18 32.5254C19.8047 33.0679 21.823 33.5147 24 33.8451" stroke="#141B34" stroke-width="3" stroke-linecap="round"/>
<path d="M9 36C9 40.5896 18.1611 44.3768 30 44.9304" stroke="#141B34" stroke-width="3" stroke-linecap="round"/>
<path d="M18 53.5254C19.8047 54.0679 21.823 54.5147 24 54.8451" stroke="#141B34" stroke-width="3" stroke-linecap="round"/>
<path d="M33 66C19.7452 66 9 61.9706 9 57V15M57 15V33" stroke="#141B34" stroke-width="3" stroke-linecap="round" stroke-linejoin="round"/>
<path d="M63.6973 45C62.6599 43.2066 60.7208 42 58.5 42C55.1863 42 52.5 44.6863 52.5 48V54C52.5 57.3137 55.1863 60 58.5 60C60.7208 60 62.6599 58.7934 63.6973 57" stroke="#141B34" stroke-width="3" stroke-linecap="round"/>
<path d="M39 45L43.5 42V60" stroke="#141B34" stroke-width="3" stroke-linecap="round" stroke-linejoin="round"/>
</svg>
