<svg width="72" height="72" viewBox="0 0 72 72" fill="none" xmlns="http://www.w3.org/2000/svg">
<path d="M19.4493 10.9746C18.3515 9.76184 16.7647 9 15 9C11.6863 9 9 11.6863 9 15C9 16.7647 9.76184 18.3515 10.9746 19.4493C12.0391 20.413 13.451 21 15 21C18.3137 21 21 18.3137 21 15C21 13.451 20.413 12.0391 19.4493 10.9746ZM19.4493 10.9746C24.1932 7.83089 29.8828 6 36 6C38.0548 6 40.0613 6.20658 42 6.60011M61.0589 19.5C64.1821 24.2337 66 29.9045 66 36C66 38.0548 65.7934 40.0613 65.3999 42M52.5507 61.0254C47.8068 64.1691 42.1172 66 36 66C33.9452 66 31.9387 65.7934 30 65.3999M52.5507 61.0254C53.6485 62.2382 55.2353 63 57 63C60.3137 63 63 60.3137 63 57C63 55.2353 62.2382 53.6485 61.0254 52.5507C59.9609 51.587 58.549 51 57 51C53.6863 51 51 53.6863 51 57C51 58.549 51.587 59.9609 52.5507 61.0254ZM10.9746 52.5507C7.83089 47.8068 6 42.1172 6 36C6 33.9452 6.20658 31.9387 6.60011 30M10.9746 52.5507C9.76184 53.6485 9 55.2353 9 57C9 60.3137 11.6863 63 15 63C16.7647 63 18.3515 62.2382 19.4493 61.0254C20.413 59.9609 21 58.549 21 57C21 53.6863 18.3137 51 15 51C13.451 51 12.0391 51.587 10.9746 52.5507ZM63 15C63 18.3137 60.3137 21 57 21C53.6863 21 51 18.3137 51 15C51 13.451 51.587 12.0391 52.5507 10.9746C53.6485 9.76184 55.2353 9 57 9C60.3137 9 63 11.6863 63 15Z" stroke="#141B34" stroke-width="3" stroke-linecap="round" stroke-linejoin="round"/>
<path d="M46.625 40.7848C43.4981 48.1949 33.3301 50.3543 27.5018 44.5802C21.7869 38.9184 23.5562 28.661 31.0707 25.375" stroke="#141B34" stroke-width="3" stroke-linecap="round"/>
<path d="M43.1039 36.625C45.4635 36.625 46.6432 36.625 47.4052 35.5687C47.4336 35.5293 47.481 35.4584 47.5065 35.417C48.1908 34.3089 47.8382 33.4575 47.1329 31.7547C46.4933 30.2107 45.5559 28.8077 44.3741 27.6259C43.1923 26.4441 41.7893 25.5067 40.2453 24.8671C38.5425 24.1618 37.6911 23.8092 36.583 24.4935C36.5416 24.519 36.4707 24.5664 36.4313 24.5948C35.375 25.3568 35.375 26.5365 35.375 28.8961V31.5344C35.375 33.9341 35.375 35.134 36.1205 35.8795C36.866 36.625 38.0659 36.625 40.4657 36.625H43.1039Z" stroke="#141B34" stroke-width="3"/>
</svg>
