<svg width="72" height="72" viewBox="0 0 72 72" fill="none" xmlns="http://www.w3.org/2000/svg">
<path d="M30.042 6C18.7085 6 13.0417 6 9.52087 9.51472C6 13.0294 6 18.6863 6 30C6 41.3137 6 46.9706 9.52087 50.4853C13.0417 54 18.7085 54 30.042 54H42.063C53.3966 54 59.0633 54 62.5842 50.4853C65.013 48.0608 65.7663 44.6169 66 39" stroke="#141B34" stroke-width="3" stroke-linecap="round"/>
<path d="M36 54V66" stroke="#141B34" stroke-width="3"/>
<path d="M24 66H48" stroke="#141B34" stroke-width="3" stroke-linecap="round"/>
<path d="M33 45H39" stroke="#141B34" stroke-width="3" stroke-linecap="round" stroke-linejoin="round"/>
<path d="M52.4974 6C48.2232 6 45.4518 8.72564 42.1742 9.71912C40.8415 10.1231 40.1752 10.3251 39.9055 10.6098C39.6358 10.8945 39.5569 11.3106 39.3989 12.1427C37.7089 21.0471 41.4029 29.2794 50.2125 32.4836C51.1591 32.8279 51.6323 33 52.5021 33C53.3719 33 53.8451 32.8279 54.7916 32.4836C63.6007 29.2793 67.2912 21.0471 65.6006 12.1427C65.4426 11.3104 65.3636 10.8943 65.0939 10.6096C64.8242 10.3248 64.1579 10.123 62.8253 9.71923C59.5464 8.72585 56.7718 6 52.4974 6Z" stroke="#141B34" stroke-width="3" stroke-linecap="round" stroke-linejoin="round"/>
</svg>
