<svg width="72" height="72" viewBox="0 0 72 72" fill="none" xmlns="http://www.w3.org/2000/svg">
<path d="M57 42H15C10.7574 42 8.63604 42 7.31802 43.318C6 44.636 6 46.7574 6 51V57C6 61.2426 6 63.364 7.31802 64.682C8.63604 66 10.7574 66 15 66H57C61.2426 66 63.364 66 64.682 64.682C66 63.364 66 61.2426 66 57V51C66 46.7574 66 44.636 64.682 43.318C63.364 42 61.2426 42 57 42Z" stroke="#141B34" stroke-width="3" stroke-linecap="round" stroke-linejoin="round"/>
<path d="M6 54L66 54" stroke="#141B34" stroke-width="3" stroke-linecap="round" stroke-linejoin="round"/>
<path d="M36 54L36 42" stroke="#141B34" stroke-width="3" stroke-linecap="round" stroke-linejoin="round"/>
<path d="M21 66L21 54" stroke="#141B34" stroke-width="3" stroke-linecap="round" stroke-linejoin="round"/>
<path d="M51 66L51 54" stroke="#141B34" stroke-width="3" stroke-linecap="round" stroke-linejoin="round"/>
<path d="M56.5237 33C55.6616 29.418 53.5086 25.9179 49.124 22.8C37.3115 14.4 35.999 6 35.999 6C35.999 6 23.8139 16.8 30.749 30C24.449 30.96 21.5169 24 20.8384 20.4C17.9288 24.2699 15.6183 28.6069 15.1055 33" stroke="#141B34" stroke-width="3" stroke-linecap="round" stroke-linejoin="round"/>
</svg>
