<svg width="72" height="72" viewBox="0 0 72 72" fill="none" xmlns="http://www.w3.org/2000/svg">
<path d="M27 15C27 10.7574 27 8.63604 28.318 7.31802C29.636 6 31.7574 6 36 6C40.2426 6 42.364 6 43.682 7.31802C45 8.63604 45 10.7574 45 15C45 19.2426 45 21.364 43.682 22.682C42.364 24 40.2426 24 36 24C31.7574 24 29.636 24 28.318 22.682C27 21.364 27 19.2426 27 15Z" stroke="#141B34" stroke-width="3"/>
<path d="M6 57C6 52.7574 6 50.636 7.31802 49.318C8.63604 48 10.7574 48 15 48C19.2426 48 21.364 48 22.682 49.318C24 50.636 24 52.7574 24 57C24 61.2426 24 63.364 22.682 64.682C21.364 66 19.2426 66 15 66C10.7574 66 8.63604 66 7.31802 64.682C6 63.364 6 61.2426 6 57Z" stroke="#141B34" stroke-width="3"/>
<path d="M48 57C48 52.7574 48 50.636 49.318 49.318C50.636 48 52.7574 48 57 48C61.2426 48 63.364 48 64.682 49.318C66 50.636 66 52.7574 66 57C66 61.2426 66 63.364 64.682 64.682C63.364 66 61.2426 66 57 66C52.7574 66 50.636 66 49.318 64.682C48 63.364 48 61.2426 48 57Z" stroke="#141B34" stroke-width="3"/>
<path d="M36 24V27M36 27C36 29.7956 36 31.1935 36.5328 32.2961C37.2433 33.7663 38.606 34.9343 40.3212 35.5433C41.6076 36 43.2384 36 46.5 36C49.7616 36 51.3924 36 52.6788 36.4567C54.394 37.0657 55.7567 38.2337 56.4672 39.7039C57 40.8065 57 42.2043 57 45V48M36 27C36 29.7956 36 31.1935 35.4672 32.2961C34.7567 33.7663 33.394 34.9343 31.6788 35.5433C30.3924 36 28.7616 36 25.5 36C22.2384 36 20.6076 36 19.3212 36.4567C17.606 37.0657 16.2433 38.2337 15.5328 39.7039C15 40.8065 15 42.2043 15 45V48" stroke="#141B34" stroke-width="3" stroke-linecap="round" stroke-linejoin="round"/>
</svg>
