<svg width="24" height="24" viewBox="0 0 24 24" fill="none" xmlns="http://www.w3.org/2000/svg">
<path d="M20.2603 8.47335L19.2038 7.36396C19.0685 7.22192 19.0008 7.15089 18.9208 7.10193C18.8653 7.06797 18.8056 7.04203 18.7435 7.02481C18.6539 7 18.5583 7 18.3669 7C17.4901 7 17.0517 7 16.7238 7.19522C16.4992 7.32898 16.3133 7.52417 16.1859 7.76003C16 8.10426 16 8.5646 16 9.48528V10.375C16 11.4283 16 11.955 16.2408 12.3334C16.345 12.4971 16.4789 12.6378 16.6349 12.7472C16.9952 13 17.4968 13 18.5 13C19.5032 13 20.0048 13 20.3651 12.7472C20.5211 12.6378 20.655 12.4971 20.7592 12.3334C21 11.955 21 11.4221 21 10.3562C21 9.88105 21 9.64347 20.9356 9.42589C20.9097 9.33874 20.8764 9.25426 20.836 9.17347C20.735 8.97178 20.5768 8.80563 20.2603 8.47335Z" stroke="#141B34" stroke-width="1.5" stroke-linecap="round" stroke-linejoin="round"/>
<path d="M20.2603 17.4733L19.2038 16.364C19.0685 16.2219 19.0008 16.1509 18.9208 16.1019C18.8653 16.068 18.8056 16.042 18.7435 16.0248C18.6539 16 18.5583 16 18.3669 16C17.4901 16 17.0517 16 16.7238 16.1952C16.4992 16.329 16.3133 16.5242 16.1859 16.76C16 17.1043 16 17.5646 16 18.4853V19.375C16 20.4283 16 20.955 16.2408 21.3334C16.345 21.4971 16.4789 21.6378 16.6349 21.7472C16.9952 22 17.4968 22 18.5 22C19.5032 22 20.0048 22 20.3651 21.7472C20.5211 21.6378 20.655 21.4971 20.7592 21.3334C21 20.955 21 20.4221 21 19.3562C21 18.881 21 18.6435 20.9356 18.4259C20.9097 18.3387 20.8764 18.2543 20.836 18.1735C20.735 17.9718 20.5768 17.8056 20.2603 17.4733Z" stroke="#141B34" stroke-width="1.5" stroke-linecap="round" stroke-linejoin="round"/>
<path d="M13 11H7M7 11V9M7 11V14C7 16.8284 7 18.2426 7.87868 19.1213C8.75736 20 10.1716 20 13 20" stroke="#141B34" stroke-width="1.5" stroke-linecap="round" stroke-linejoin="round"/>
<path d="M7 4.5H7.00898" stroke="#141B34" stroke-width="1.5" stroke-linecap="round" stroke-linejoin="round"/>
<path d="M10.3404 4.15892C10.4468 4.31118 10.5 4.38731 10.5 4.5C10.5 4.61269 10.4468 4.68882 10.3404 4.84108C9.86227 5.5252 8.64123 7 7 7C5.35877 7 4.13773 5.5252 3.65961 4.84108C3.5532 4.68882 3.5 4.61269 3.5 4.5C3.5 4.38731 3.5532 4.31118 3.65961 4.15892C4.13773 3.4748 5.35877 2 7 2C8.64123 2 9.86227 3.4748 10.3404 4.15892Z" stroke="#141B34" stroke-width="1.5"/>
</svg>
