<svg width="24" height="24" viewBox="0 0 24 24" fill="none" xmlns="http://www.w3.org/2000/svg">
<path d="M7.75025 7.56659C9.66926 4.5222 10.6288 3 12 3C13.3712 3 14.3307 4.52219 16.2498 7.56658L18.4941 11.1271C21.2362 15.4772 22.6072 17.6522 21.7426 19.3261C20.878 21 18.3834 21 13.3944 21H10.6056C5.61655 21 3.12205 21 2.25742 19.3261C1.3928 17.6522 2.76382 15.4772 5.50587 11.1271L7.75025 7.56659Z" stroke="#141B34" stroke-width="1.5" stroke-linejoin="round"/>
<path d="M3.5 15H8M7 9H17" stroke="#141B34" stroke-width="1.5" stroke-linecap="round" stroke-linejoin="round"/>
<path d="M13.9993 12C12.8912 12 12.1727 12.7066 11.3229 12.9642C10.9774 13.0689 10.8047 13.1213 10.7348 13.1951C10.6648 13.2689 10.6444 13.3768 10.6034 13.5925C10.1653 15.9011 11.123 18.0354 13.407 18.8661C13.6524 18.9554 13.7751 19 14.0005 19C14.226 19 14.3487 18.9554 14.5941 18.8661C16.878 18.0354 17.8348 15.9011 17.3965 13.5925C17.3555 13.3768 17.335 13.2689 17.2651 13.1951C17.1952 13.1213 17.0224 13.0689 16.6769 12.9642C15.8268 12.7067 15.1075 12 13.9993 12Z" stroke="#141B34" stroke-width="1.5" stroke-linecap="round" stroke-linejoin="round"/>
</svg>
