<svg width="24" height="24" viewBox="0 0 24 24" fill="none" xmlns="http://www.w3.org/2000/svg">
<ellipse cx="12" cy="5" rx="8" ry="3" stroke="#141B34" stroke-width="1.5"/>
<path d="M7 10.8418C7.60158 11.0226 8.27434 11.1716 9 11.2817" stroke="#141B34" stroke-width="1.5" stroke-linecap="round"/>
<path d="M12 15C7.58172 15 4 13.6569 4 12" stroke="#141B34" stroke-width="1.5" stroke-linecap="round"/>
<path d="M7 17.8418C7.60158 18.0226 8.27434 18.1716 9 18.2817" stroke="#141B34" stroke-width="1.5" stroke-linecap="round"/>
<path d="M12 22C7.58172 22 4 20.6569 4 19V5M20 5V12" stroke="#141B34" stroke-width="1.5" stroke-linecap="round" stroke-linejoin="round"/>
<path d="M15 16L15 20" stroke="#141B34" stroke-width="1.25" stroke-linecap="round" stroke-linejoin="round"/>
<path d="M21.0002 19.9998V17.9732C21.0002 16.5401 21.0002 15.8236 20.5399 15.3784C20.0796 14.9332 19.3388 14.9332 17.8573 14.9332H17.3335M17.3335 14.9332C17.3335 14.5784 18.3781 13.9155 18.643 13.6665M17.3335 14.9332C17.3335 15.288 18.3781 15.9508 18.643 16.1998" stroke="#141B34" stroke-width="1.25" stroke-linecap="round" stroke-linejoin="round"/>
<path d="M15 22C15.5523 22 16 21.5523 16 21C16 20.4477 15.5523 20 15 20C14.4477 20 14 20.4477 14 21C14 21.5523 14.4477 22 15 22Z" stroke="#141B34" stroke-width="1.25"/>
<path d="M15 16C15.5523 16 16 15.5523 16 15C16 14.4477 15.5523 14 15 14C14.4477 14 14 14.4477 14 15C14 15.5523 14.4477 16 15 16Z" stroke="#141B34" stroke-width="1.25"/>
<path d="M21 22C21.5523 22 22 21.5523 22 21C22 20.4477 21.5523 20 21 20C20.4477 20 20 20.4477 20 21C20 21.5523 20.4477 22 21 22Z" stroke="#141B34" stroke-width="1.25"/>
</svg>
