<svg width="24" height="24" viewBox="0 0 24 24" fill="none" xmlns="http://www.w3.org/2000/svg">
<ellipse cx="11" cy="5" rx="8" ry="3" stroke="#141B34" stroke-width="1.5"/>
<path d="M6 10.8418C6.60158 11.0226 7.27434 11.1716 8 11.2817" stroke="#141B34" stroke-width="1.5" stroke-linecap="round"/>
<path d="M3 12C3 13.5299 6.05369 14.7923 10 14.9768" stroke="#141B34" stroke-width="1.5" stroke-linecap="round"/>
<path d="M6 17.8418C6.60158 18.0226 7.27434 18.1716 8 18.2817" stroke="#141B34" stroke-width="1.5" stroke-linecap="round"/>
<path d="M11 22C6.58172 22 3 20.6569 3 19V5M19 5V11" stroke="#141B34" stroke-width="1.5" stroke-linecap="round" stroke-linejoin="round"/>
<path d="M17.9742 20.6665L16.5135 16.1454C16.4217 15.8612 16.1399 15.6665 15.8204 15.6665C15.5008 15.6665 15.219 15.8612 15.1272 16.1454L13.6665 20.6665M20.6665 15.6665V20.6665M14.205 19.1665H17.4357" stroke="#141B34" stroke-width="1.5" stroke-linecap="round" stroke-linejoin="round"/>
</svg>
