<svg width="72" height="72" viewBox="0 0 72 72" fill="none" xmlns="http://www.w3.org/2000/svg">
<path d="M31.6507 9C20.0935 9.02081 14.0415 9.30455 10.1738 13.1722C6 17.3461 6 24.0638 6 37.4992C6 50.9346 6 57.6523 10.1738 61.8262C14.3477 66 21.0654 66 34.5008 66C47.9362 66 54.6539 66 58.8278 61.8262C62.6955 57.9585 62.9792 51.9065 63 40.3493" stroke="#141B34" stroke-width="3" stroke-linecap="round" stroke-linejoin="round"/>
<path d="M33.1667 39C30.9967 11.5991 50.407 3.82662 65.9416 6.49317C66.5688 15.5741 62.1256 18.9744 53.6638 20.5448C55.2977 22.2521 58.185 24.4006 57.8735 27.0864C57.6519 28.9976 56.3539 29.9353 53.7581 31.8107C48.0693 35.9208 41.4793 38.5126 33.1667 39Z" stroke="#141B34" stroke-width="3" stroke-linecap="round" stroke-linejoin="round"/>
<path d="M27 51C33 34.5 38.8811 28.9091 45 24" stroke="#141B34" stroke-width="3" stroke-linecap="round" stroke-linejoin="round"/>
</svg>
