<svg width="24" height="24" viewBox="0 0 24 24" fill="none" xmlns="http://www.w3.org/2000/svg">
<path d="M12 18V22" stroke="#141B34" stroke-width="1.5" stroke-linecap="round" stroke-linejoin="round"/>
<path d="M8.5 22L8.82821 21.6717C9.40628 21.0936 9.69532 20.8045 10.0629 20.6523C10.4305 20.5 10.8392 20.5 11.6568 20.5H12.343C13.1605 20.5 13.5692 20.5 13.9368 20.6522C14.3043 20.8045 14.5933 21.0935 15.1714 21.6716L15.4998 22" stroke="#141B34" stroke-width="1.5" stroke-linecap="round" stroke-linejoin="round"/>
<path d="M21.5 7C21.5 4.17157 21.5 3.75736 20.6213 2.87868C19.7426 2 18.3284 2 15.5 2H8.5C5.67157 2 4.25736 2 3.37868 2.87868C2.5 3.75736 2.5 5.17157 2.5 8V12C2.5 14.8284 2.5 16.2426 3.37868 17.1213C4.25736 18 5.67157 18 8.5 18H13.5" stroke="#141B34" stroke-width="1.5" stroke-linecap="round"/>
<path d="M8.11089 9C8.11089 9.55228 8.50886 10 8.99978 10C9.4907 10 9.88867 9.55228 9.88867 9C9.88867 8.44772 9.4907 8 8.99978 8C8.50886 8 8.11089 8.44772 8.11089 9Z" stroke="#141B34" stroke-width="1.25"/>
<path d="M11.7758 11.5C12.2638 10.8152 12.5557 9.94595 12.5557 9C12.5557 6.79086 10.9638 5 9.00011 5C7.03643 5 5.44455 6.79086 5.44455 9C5.44455 9.94595 5.73643 10.8152 6.22439 11.5" stroke="#141B34" stroke-width="1.25" stroke-linecap="round"/>
<path d="M5 13.25C5 12.5478 5 12.1967 5.13482 11.9444C5.19319 11.8352 5.26819 11.7415 5.35554 11.6685C5.55732 11.5 5.83822 11.5 6.4 11.5H11.6C12.1618 11.5 12.4427 11.5 12.6445 11.6685C12.7318 11.7415 12.8068 11.8352 12.8652 11.9444C13 12.1967 13 12.5478 13 13.25C13 13.9522 13 14.3033 12.8652 14.5556C12.8068 14.6648 12.7318 14.7585 12.6445 14.8315C12.4427 15 12.1618 15 11.6 15H6.4C5.83822 15 5.55732 15 5.35554 14.8315C5.26819 14.7585 5.19319 14.6648 5.13482 14.5556C5 14.3033 5 13.9522 5 13.25Z" stroke="#141B34" stroke-width="1.25"/>
<path d="M8.55566 13H9.44455" stroke="#141B34" stroke-width="1.25" stroke-linecap="round" stroke-linejoin="round"/>
<path d="M10.729 7.30552L11.623 6.2998" stroke="#141B34" stroke-width="1.25" stroke-linecap="round" stroke-linejoin="round"/>
<path d="M21 10.1C21 11.2598 19.8279 12.55 19 12.55C18.1721 12.55 17 11.2598 17 10.1C17 8.9402 17.8954 8 19 8C20.1046 8 21 8.9402 21 10.1Z" stroke="#141B34" stroke-width="1.5"/>
<path d="M21.6943 12.9004C22.7096 13.8351 23.3675 15.4182 22.7767 16.894C22.6494 17.212 22.3574 17.4181 22.0342 17.4181C21.7057 17.4181 21.166 17.3076 21.0611 17.7566L20.3296 20.889C20.1771 21.5422 19.6289 22.0004 19 22.0004C18.3711 22.0004 17.8229 21.5422 17.6704 20.889L16.9389 17.7566C16.834 17.3076 16.2943 17.4181 15.9657 17.4181C15.6426 17.4181 15.3505 17.212 15.2233 16.894C14.6324 15.4182 15.2904 13.8351 16.3057 12.9004" stroke="#141B34" stroke-width="1.5" stroke-linecap="round"/>
</svg>
