<svg width="72" height="72" viewBox="0 0 72 72" fill="none" xmlns="http://www.w3.org/2000/svg">
<path d="M60.781 25.42L57.6113 22.0919C57.2055 21.6657 57.0025 21.4527 56.7624 21.3058C56.5958 21.2039 56.4169 21.1261 56.2305 21.0744C55.9617 21 55.6748 21 55.1008 21C52.4703 21 51.155 21 50.1715 21.5857C49.4976 21.9869 48.9399 22.5725 48.5578 23.2801C48 24.3128 48 25.6938 48 28.4558V31.125C48 34.285 48 35.8651 48.7223 37.0001C49.035 37.4914 49.4367 37.9133 49.9047 38.2416C50.9857 39 52.4904 39 55.5 39C58.5096 39 60.0143 39 61.0953 38.2416C61.5633 37.9133 61.965 37.4914 62.2777 37.0001C63 35.8651 63 34.2663 63 31.0686C63 29.6431 63 28.9304 62.8067 28.2777C62.7292 28.0162 62.6293 27.7628 62.508 27.5204C62.2051 26.9153 61.7304 26.4169 60.781 25.42Z" stroke="#141B34" stroke-width="3" stroke-linecap="round" stroke-linejoin="round"/>
<path d="M60.781 52.42L57.6113 49.0919C57.2055 48.6657 57.0025 48.4527 56.7624 48.3058C56.5958 48.2039 56.4169 48.1261 56.2305 48.0744C55.9617 48 55.6748 48 55.1008 48C52.4703 48 51.155 48 50.1715 48.5857C49.4976 48.9869 48.9399 49.5725 48.5578 50.2801C48 51.3128 48 52.6938 48 55.4558V58.125C48 61.285 48 62.8651 48.7223 64.0001C49.035 64.4914 49.4367 64.9133 49.9047 65.2416C50.9857 66 52.4904 66 55.5 66C58.5096 66 60.0143 66 61.0953 65.2416C61.5633 64.9133 61.965 64.4914 62.2777 64.0001C63 62.8651 63 61.2663 63 58.0686C63 56.6431 63 55.9304 62.8067 55.2777C62.7292 55.0162 62.6293 54.7628 62.508 54.5204C62.2051 53.9153 61.7304 53.4169 60.781 52.42Z" stroke="#141B34" stroke-width="3" stroke-linecap="round" stroke-linejoin="round"/>
<path d="M39 33H21M21 33V27M21 33V42C21 50.4853 21 54.7279 23.636 57.364C26.2721 60 30.5147 60 39 60" stroke="#141B34" stroke-width="3" stroke-linecap="round" stroke-linejoin="round"/>
<path d="M21 13.5H21.0269" stroke="#141B34" stroke-width="3" stroke-linecap="round" stroke-linejoin="round"/>
<path d="M31.0212 12.4768C31.3404 12.9335 31.5 13.1619 31.5 13.5C31.5 13.8381 31.3404 14.0665 31.0212 14.5232C29.5868 16.5756 25.9237 21 21 21C16.0763 21 12.4132 16.5756 10.9788 14.5232C10.6596 14.0665 10.5 13.8381 10.5 13.5C10.5 13.1619 10.6596 12.9335 10.9788 12.4768C12.4132 10.4244 16.0763 6 21 6C25.9237 6 29.5868 10.4244 31.0212 12.4768Z" stroke="#141B34" stroke-width="3"/>
</svg>
