<svg width="24" height="24" viewBox="0 0 24 24" fill="none" xmlns="http://www.w3.org/2000/svg">
<path d="M7.75025 7.56659C9.66926 4.5222 10.6288 3 12 3C13.3712 3 14.3307 4.52219 16.2498 7.56658L18.4941 11.1271C21.2362 15.4772 22.6072 17.6522 21.7426 19.3261C20.878 21 18.3834 21 13.3944 21H10.6056C5.61655 21 3.12205 21 2.25742 19.3261C1.3928 17.6522 2.76382 15.4772 5.50587 11.1271L7.75025 7.56659Z" stroke="#141B34" stroke-width="1.5" stroke-linejoin="round"/>
<path d="M3.5 15H6M7 9H17" stroke="#141B34" stroke-width="1.5" stroke-linecap="round" stroke-linejoin="round"/>
<path d="M8.2666 12.4998C8.2666 12.107 8.2666 11.9106 8.38864 11.7885C8.51068 11.6665 8.7071 11.6665 9.09993 11.6665C9.49277 11.6665 9.68919 11.6665 9.81123 11.7885C9.93327 11.9106 9.93327 12.107 9.93327 12.4998V13.3332C9.93327 13.726 9.93327 13.9224 9.81123 14.0445C9.68919 14.1665 9.49277 14.1665 9.09993 14.1665C8.7071 14.1665 8.51068 14.1665 8.38864 14.0445C8.2666 13.9224 8.2666 13.726 8.2666 13.3332V12.4998Z" stroke="#141B34" stroke-width="1.25"/>
<path d="M10.1416 16.6663C10.1416 16.2735 10.1416 16.0771 10.2636 15.955C10.3857 15.833 10.5821 15.833 10.9749 15.833C11.3678 15.833 11.5642 15.833 11.6862 15.955C11.8083 16.0771 11.8083 16.2735 11.8083 16.6663V17.4997C11.8083 17.8925 11.8083 18.0889 11.6862 18.211C11.5642 18.333 11.3678 18.333 10.9749 18.333C10.5821 18.333 10.3857 18.333 10.2636 18.211C10.1416 18.0889 10.1416 17.8925 10.1416 17.4997V16.6663Z" stroke="#141B34" stroke-width="1.25"/>
<path d="M13.0581 12.4998C13.0581 12.107 13.0581 11.9106 13.1801 11.7885C13.3022 11.6665 13.4986 11.6665 13.8914 11.6665C14.2843 11.6665 14.4807 11.6665 14.6027 11.7885C14.7248 11.9106 14.7248 12.107 14.7248 12.4998V13.3332C14.7248 13.726 14.7248 13.9224 14.6027 14.0445C14.4807 14.1665 14.2843 14.1665 13.8914 14.1665C13.4986 14.1665 13.3022 14.1665 13.1801 14.0445C13.0581 13.9224 13.0581 13.726 13.0581 13.3332V12.4998Z" stroke="#141B34" stroke-width="1.25"/>
<path d="M13.0581 16.6663C13.0581 16.2735 13.0581 16.0771 13.1801 15.955C13.3022 15.833 13.4986 15.833 13.8914 15.833C14.2843 15.833 14.4807 15.833 14.6027 15.955C14.7248 16.0771 14.7248 16.2735 14.7248 16.6663V17.4997C14.7248 17.8925 14.7248 18.0889 14.6027 18.211C14.4807 18.333 14.2843 18.333 13.8914 18.333C13.4986 18.333 13.3022 18.333 13.1801 18.211C13.0581 18.0889 13.0581 17.8925 13.0581 17.4997V16.6663Z" stroke="#141B34" stroke-width="1.25"/>
<path d="M11.1831 12.0832L11.8081 11.6665V14.1665" stroke="#141B34" stroke-width="1.25" stroke-linecap="round" stroke-linejoin="round"/>
<path d="M8.2666 16.2497L8.8916 15.833V18.333" stroke="#141B34" stroke-width="1.25" stroke-linecap="round" stroke-linejoin="round"/>
<path d="M15.9751 12.0832L16.6001 11.6665V14.1665" stroke="#141B34" stroke-width="1.25" stroke-linecap="round" stroke-linejoin="round"/>
<path d="M15.9751 16.2497L16.6001 15.833V18.333" stroke="#141B34" stroke-width="1.25" stroke-linecap="round" stroke-linejoin="round"/>
</svg>
