<svg width="72" height="72" viewBox="0 0 72 72" fill="none" xmlns="http://www.w3.org/2000/svg">
<path d="M23.2507 22.6998C29.0078 13.5666 31.8863 9 36 9C40.1137 9 42.9922 13.5666 48.7493 22.6997L55.4824 33.3814C63.7085 46.4316 67.8216 52.9567 65.2277 57.9783C62.6339 63 55.1503 63 40.1833 63H31.8167C16.8497 63 9.36614 63 6.77227 57.9783C4.1784 52.9567 8.29146 46.4316 16.5176 33.3814L23.2507 22.6998Z" stroke="#141B34" stroke-width="3" stroke-linejoin="round"/>
<path d="M10.5 45H24M21 27H51" stroke="#141B34" stroke-width="3" stroke-linecap="round" stroke-linejoin="round"/>
<path d="M41.998 36C38.6736 36 36.5181 38.1199 33.9688 38.8926C32.9323 39.2068 32.414 39.3639 32.2043 39.5854C31.9945 39.8068 31.9331 40.1304 31.8103 40.7776C30.4958 47.7033 33.3689 54.1062 40.2209 56.5984C40.9571 56.8661 41.3252 57 42.0016 57C42.6781 57 43.0462 56.8661 43.7824 56.5983C50.6339 54.1061 53.5043 47.7033 52.1894 40.7776C52.0665 40.1303 52.005 39.8067 51.7953 39.5852C51.5855 39.3638 51.0672 39.2067 50.0308 38.8927C47.4805 38.1201 45.3225 36 41.998 36Z" stroke="#141B34" stroke-width="3" stroke-linecap="round" stroke-linejoin="round"/>
</svg>
