<svg width="72" height="72" viewBox="0 0 72 72" fill="none" xmlns="http://www.w3.org/2000/svg">
<ellipse cx="33" cy="15" rx="24" ry="9" stroke="#141B34" stroke-width="3"/>
<path d="M18 32.5254C19.8047 33.0679 21.823 33.5147 24 33.8451" stroke="#141B34" stroke-width="3" stroke-linecap="round"/>
<path d="M9 36C9 40.5896 18.1611 44.3768 30 44.9304" stroke="#141B34" stroke-width="3" stroke-linecap="round"/>
<path d="M18 53.5254C19.8047 54.0679 21.823 54.5147 24 54.8451" stroke="#141B34" stroke-width="3" stroke-linecap="round"/>
<path d="M33 66C19.7452 66 9 61.9706 9 57V15M57 15V33" stroke="#141B34" stroke-width="3" stroke-linecap="round" stroke-linejoin="round"/>
<path d="M54.7603 66V64.8141L54.7604 64.7889C54.7664 64.1348 55.2955 63.6061 55.9501 63.6001L56.0389 63.5999C57.7343 63.5862 59.1907 62.3931 59.5366 60.7344L59.5492 60.6721L60.1641 57.6L61.2788 57.043C61.8753 56.745 62.1735 56.596 62.2381 56.3227C62.3026 56.0495 62.1025 55.7829 61.7024 55.2497L59.4436 52.24C59.2188 51.9405 59.1064 51.7907 59.0462 51.6323C58.986 51.4738 58.9674 51.2493 58.9304 50.8002C58.5237 45.8725 54.3927 42 49.3566 42C44.051 42 39.75 46.2981 39.75 51.6C39.75 54.8996 41.4158 57.8104 43.9529 59.5384M43.9529 59.5384V66M43.9529 59.5384C44.6869 60.0383 45.4939 60.4393 46.3545 60.7219" stroke="#141B34" stroke-width="3" stroke-linecap="round" stroke-linejoin="round"/>
</svg>
