<svg width="72" height="72" viewBox="0 0 72 72" fill="none" xmlns="http://www.w3.org/2000/svg">
<path d="M6 48C6 40.9833 6 37.475 7.6094 34.9137C8.44863 33.578 9.57802 32.4486 10.9137 31.6094C13.475 30 16.9833 30 24 30H48C55.0167 30 58.525 30 61.0863 31.6094C62.422 32.4486 63.5514 33.578 64.3906 34.9137C66 37.475 66 40.9833 66 48C66 55.0167 66 58.525 64.3906 61.0863C63.5514 62.422 62.422 63.5514 61.0863 64.3906C58.525 66 55.0167 66 48 66H24C16.9833 66 13.475 66 10.9137 64.3906C9.57802 63.5514 8.44863 62.422 7.6094 61.0863C6 58.525 6 55.0167 6 48Z" stroke="#141B34" stroke-width="3" stroke-linecap="round" stroke-linejoin="round"/>
<path d="M60 30C60 25.7996 60 23.6994 59.1825 22.0951C58.4635 20.6839 57.3161 19.5365 55.9049 18.8175C54.3006 18 52.2004 18 48 18H24C19.7996 18 17.6994 18 16.0951 18.8175C14.6839 19.5365 13.5365 20.6839 12.8175 22.0951C12 23.6994 12 25.7996 12 30" stroke="#141B34" stroke-width="3" stroke-linecap="round" stroke-linejoin="round"/>
<path d="M54 18C54 12.3431 54 9.51472 52.2426 7.75736C50.4853 6 47.6569 6 42 6H30C24.3431 6 21.5147 6 19.7574 7.75736C18 9.51472 18 12.3431 18 18" stroke="#141B34" stroke-width="3" stroke-linecap="round" stroke-linejoin="round"/>
<path d="M45 42C45 45.3137 42.3137 48 39 48H33C29.6863 48 27 45.3137 27 42" stroke="#141B34" stroke-width="3" stroke-linecap="round"/>
</svg>
