<svg width="72" height="72" viewBox="0 0 72 72" fill="none" xmlns="http://www.w3.org/2000/svg">
<path d="M35.9946 6C26.9713 6 21.1205 12.057 14.2011 14.2647C11.3877 15.1624 9.98091 15.6112 9.4116 16.2439C8.84229 16.8767 8.67558 17.8012 8.34217 19.6504C4.7743 39.438 12.5727 57.7319 31.1709 64.8524C33.1692 65.6175 34.1683 66 36.0044 66C37.8406 66 38.8397 65.6174 40.8378 64.8524C59.4348 57.7318 67.2258 39.4379 63.6569 19.6504C63.3233 17.8009 63.1566 16.8762 62.5871 16.2435C62.0177 15.6107 60.6111 15.1621 57.7978 14.265C50.8756 12.0574 45.0183 6 35.9946 6Z" stroke="#141B34" stroke-width="3" stroke-linecap="round" stroke-linejoin="round"/>
<path d="M28.7409 47.5718L28.1324 48.9429H28.1324L28.7409 47.5718ZM25.8996 44.5276L24.5005 45.0685H24.5005L25.8996 44.5276ZM46.1004 44.5276L47.4995 45.0685V45.0685L46.1004 44.5276ZM43.2591 47.5718L43.8676 48.9429L43.2591 47.5718ZM43.2591 31.5532L43.8676 30.1821L43.2591 31.5532ZM46.1004 34.5974L47.4995 34.0565V34.0565L46.1004 34.5974ZM28.7409 31.5532L28.1324 30.1821L28.7409 31.5532ZM25.8996 34.5974L24.5005 34.0565H24.5005L25.8996 34.5974ZM29.25 31.125C29.25 31.9534 29.9216 32.625 30.75 32.625C31.5784 32.625 32.25 31.9534 32.25 31.125H29.25ZM39.75 31.125C39.75 31.9534 40.4216 32.625 41.25 32.625C42.0784 32.625 42.75 31.9534 42.75 31.125H39.75ZM33.375 32.625H38.625V29.625H33.375V32.625ZM38.625 46.5H33.375V49.5H38.625V46.5ZM33.375 46.5C32.1299 46.5 31.2766 46.4991 30.6118 46.4505C29.9627 46.403 29.6087 46.3159 29.3494 46.2008L28.1324 48.9429C28.8379 49.2559 29.5779 49.3829 30.3931 49.4425C31.1926 49.5009 32.1739 49.5 33.375 49.5V46.5ZM24 39.5625C24 40.8538 23.9993 41.8924 24.053 42.7356C24.1074 43.5904 24.2221 44.3483 24.5005 45.0685L27.2987 43.9867C27.1775 43.6731 27.0924 43.259 27.0469 42.5449C27.0007 41.8192 27 40.8921 27 39.5625H24ZM29.3494 46.2008C28.4457 45.7997 27.6963 45.0151 27.2987 43.9867L24.5005 45.0685C25.1687 46.7967 26.4633 48.2021 28.1324 48.9429L29.3494 46.2008ZM45 39.5625C45 40.8921 44.9993 41.8192 44.9531 42.5449C44.9076 43.259 44.8225 43.6731 44.7013 43.9867L47.4995 45.0685C47.7779 44.3483 47.8926 43.5904 47.947 42.7356C48.0007 41.8924 48 40.8538 48 39.5625H45ZM38.625 49.5C39.8261 49.5 40.8074 49.5009 41.6069 49.4425C42.4221 49.3829 43.1621 49.2559 43.8676 48.9429L42.6506 46.2008C42.3913 46.3159 42.0373 46.403 41.3882 46.4505C40.7234 46.4991 39.8701 46.5 38.625 46.5V49.5ZM44.7013 43.9867C44.3037 45.0151 43.5543 45.7997 42.6506 46.2008L43.8676 48.9429C45.5367 48.2021 46.8313 46.7967 47.4995 45.0685L44.7013 43.9867ZM38.625 32.625C39.8701 32.625 40.7234 32.6259 41.3882 32.6745C42.0373 32.722 42.3913 32.8091 42.6506 32.9242L43.8676 30.1821C43.1621 29.8691 42.4221 29.7421 41.6069 29.6825C40.8074 29.6241 39.8261 29.625 38.625 29.625V32.625ZM48 39.5625C48 38.2712 48.0007 37.2326 47.947 36.3894C47.8926 35.5346 47.7779 34.7767 47.4995 34.0565L44.7013 35.1383C44.8225 35.4519 44.9076 35.866 44.9531 36.5801C44.9993 37.3058 45 38.2329 45 39.5625H48ZM42.6506 32.9242C43.5543 33.3253 44.3037 34.1099 44.7013 35.1383L47.4995 34.0565C46.8313 32.3283 45.5367 30.9229 43.8676 30.1821L42.6506 32.9242ZM33.375 29.625C32.1739 29.625 31.1926 29.6241 30.3931 29.6825C29.5779 29.7421 28.8379 29.8691 28.1324 30.1821L29.3494 32.9242C29.6087 32.8091 29.9627 32.722 30.6118 32.6745C31.2766 32.6259 32.1299 32.625 33.375 32.625V29.625ZM27 39.5625C27 38.2329 27.0007 37.3058 27.0469 36.5801C27.0924 35.866 27.1775 35.4519 27.2987 35.1383L24.5005 34.0565C24.2221 34.7767 24.1074 35.5346 24.053 36.3894C23.9993 37.2326 24 38.2712 24 39.5625H27ZM28.1324 30.1821C26.4633 30.9229 25.1687 32.3283 24.5005 34.0565L27.2987 35.1383C27.6963 34.1099 28.4457 33.3253 29.3494 32.9242L28.1324 30.1821ZM32.25 31.125V26.0625H29.25V31.125H32.25ZM39.75 26.0625V31.125H42.75V26.0625H39.75ZM36 22.5C38.123 22.5 39.75 24.1459 39.75 26.0625H42.75C42.75 22.3872 39.676 19.5 36 19.5V22.5ZM32.25 26.0625C32.25 24.1459 33.877 22.5 36 22.5V19.5C32.324 19.5 29.25 22.3872 29.25 26.0625H32.25Z" fill="#141B34"/>
</svg>
