<svg width="72" height="72" viewBox="0 0 72 72" fill="none" xmlns="http://www.w3.org/2000/svg">
<path d="M23.2507 22.6998C29.0078 13.5666 31.8863 9 36 9C40.1137 9 42.9922 13.5666 48.7493 22.6997L55.4824 33.3814C63.7085 46.4316 67.8216 52.9567 65.2277 57.9783C62.6339 63 55.1503 63 40.1833 63H31.8167C16.8497 63 9.36614 63 6.77227 57.9783C4.1784 52.9567 8.29146 46.4316 16.5176 33.3814L23.2507 22.6998Z" stroke="#141B34" stroke-width="3" stroke-linejoin="round"/>
<path d="M10.5 45H18M21 27H51" stroke="#141B34" stroke-width="3" stroke-linecap="round" stroke-linejoin="round"/>
<path d="M24.7998 37.4995C24.7998 36.321 24.7998 35.7317 25.1659 35.3656C25.532 34.9995 26.1213 34.9995 27.2998 34.9995C28.4783 34.9995 29.0676 34.9995 29.4337 35.3656C29.7998 35.7317 29.7998 36.321 29.7998 37.4995V39.9995C29.7998 41.178 29.7998 41.7673 29.4337 42.1334C29.0676 42.4995 28.4783 42.4995 27.2998 42.4995C26.1213 42.4995 25.532 42.4995 25.1659 42.1334C24.7998 41.7673 24.7998 41.178 24.7998 39.9995V37.4995Z" stroke="#141B34" stroke-width="2.5"/>
<path d="M30.4248 49.9995C30.4248 48.821 30.4248 48.2317 30.7909 47.8656C31.157 47.4995 31.7463 47.4995 32.9248 47.4995C34.1033 47.4995 34.6926 47.4995 35.0587 47.8656C35.4248 48.2317 35.4248 48.821 35.4248 49.9995V52.4995C35.4248 53.678 35.4248 54.2673 35.0587 54.6334C34.6926 54.9995 34.1033 54.9995 32.9248 54.9995C31.7463 54.9995 31.157 54.9995 30.7909 54.6334C30.4248 54.2673 30.4248 53.678 30.4248 52.4995V49.9995Z" stroke="#141B34" stroke-width="2.5"/>
<path d="M39.1748 37.4995C39.1748 36.321 39.1748 35.7317 39.5409 35.3656C39.907 34.9995 40.4963 34.9995 41.6748 34.9995C42.8533 34.9995 43.4426 34.9995 43.8087 35.3656C44.1748 35.7317 44.1748 36.321 44.1748 37.4995V39.9995C44.1748 41.178 44.1748 41.7673 43.8087 42.1334C43.4426 42.4995 42.8533 42.4995 41.6748 42.4995C40.4963 42.4995 39.907 42.4995 39.5409 42.1334C39.1748 41.7673 39.1748 41.178 39.1748 39.9995V37.4995Z" stroke="#141B34" stroke-width="2.5"/>
<path d="M39.1748 49.9995C39.1748 48.821 39.1748 48.2317 39.5409 47.8656C39.907 47.4995 40.4963 47.4995 41.6748 47.4995C42.8533 47.4995 43.4426 47.4995 43.8087 47.8656C44.1748 48.2317 44.1748 48.821 44.1748 49.9995V52.4995C44.1748 53.678 44.1748 54.2673 43.8087 54.6334C43.4426 54.9995 42.8533 54.9995 41.6748 54.9995C40.4963 54.9995 39.907 54.9995 39.5409 54.6334C39.1748 54.2673 39.1748 53.678 39.1748 52.4995V49.9995Z" stroke="#141B34" stroke-width="2.5"/>
<path d="M33.5498 36.2495L35.4248 34.9995V42.4995" stroke="#141B34" stroke-width="2.5" stroke-linecap="round" stroke-linejoin="round"/>
<path d="M24.7998 48.7495L26.6748 47.4995V54.9995" stroke="#141B34" stroke-width="2.5" stroke-linecap="round" stroke-linejoin="round"/>
<path d="M47.9248 36.2495L49.7998 34.9995V42.4995" stroke="#141B34" stroke-width="2.5" stroke-linecap="round" stroke-linejoin="round"/>
<path d="M47.9248 48.7495L49.7998 47.4995V54.9995" stroke="#141B34" stroke-width="2.5" stroke-linecap="round" stroke-linejoin="round"/>
</svg>
