<svg width="24" height="24" viewBox="0 0 24 24" fill="none" xmlns="http://www.w3.org/2000/svg">
<path d="M20 10C19.9641 7.52043 19.7801 6.11466 18.8365 5.17157C17.6643 4 15.7776 4 12.0043 4C8.23106 4 6.34442 4 5.17221 5.17157C4 6.34315 4 8.22876 4 12C4 15.7712 4 17.6569 5.17221 18.8284C6.23545 19.8911 7.88646 19.9899 11 19.9991" stroke="#141B34" stroke-width="1.5" stroke-linecap="round" stroke-linejoin="round"/>
<path d="M20.6092 19.1054C21.4521 18.4918 22 17.4974 22 16.375C22 14.511 20.489 13 18.625 13H18.375C16.511 13 15 14.511 15 16.375C15 17.4974 15.5479 18.4918 16.3908 19.1054M20.6092 19.1054C20.0523 19.5108 19.3666 19.75 18.625 19.75H18.375C17.6334 19.75 16.9477 19.5108 16.3908 19.1054M20.6092 19.1054L21.192 20.9404C21.4143 21.6403 21.5255 21.9903 21.4951 22.2082C21.4318 22.6617 21.0619 22.9984 20.6252 23C20.4154 23.0008 20.101 22.8358 19.4723 22.5059C19.2027 22.3644 19.0679 22.2936 18.93 22.252C18.649 22.1673 18.351 22.1673 18.07 22.252C17.9321 22.2936 17.7973 22.3644 17.5277 22.5059C16.899 22.8358 16.5846 23.0008 16.3748 23C15.9381 22.9984 15.5682 22.6617 15.5049 22.2082C15.4745 21.9903 15.5857 21.6403 15.808 20.9404L16.3908 19.1054" stroke="#141B34" stroke-width="1.5"/>
<path d="M9.5 2V4" stroke="#141B34" stroke-width="1.5" stroke-linecap="round" stroke-linejoin="round"/>
<path d="M14.5 2V4" stroke="#141B34" stroke-width="1.5" stroke-linecap="round" stroke-linejoin="round"/>
<path d="M9.5 20V22" stroke="#141B34" stroke-width="1.5" stroke-linecap="round" stroke-linejoin="round"/>
<path d="M4 9.5L2 9.5" stroke="#141B34" stroke-width="1.5" stroke-linecap="round" stroke-linejoin="round"/>
<path d="M4 14.5L2 14.5" stroke="#141B34" stroke-width="1.5" stroke-linecap="round" stroke-linejoin="round"/>
<path d="M22 9.5L20 9.5" stroke="#141B34" stroke-width="1.5" stroke-linecap="round" stroke-linejoin="round"/>
<path d="M12 8H8" stroke="#141B34" stroke-width="1.5" stroke-linecap="round" stroke-linejoin="round"/>
</svg>
