<svg width="72" height="72" viewBox="0 0 72 72" fill="none" xmlns="http://www.w3.org/2000/svg">
<path d="M61.5 48L64.2597 50.3787C65.4199 51.3787 66 51.8787 66 52.5C66 53.1213 65.4199 53.6213 64.2597 54.6213L61.5 57" stroke="#141B34" stroke-width="3" stroke-linecap="round" stroke-linejoin="round"/>
<path d="M40.5 48L37.7403 50.3787C36.5801 51.3787 36 51.8787 36 52.5C36 53.1213 36.5801 53.6213 37.7403 54.6213L40.5 57" stroke="#141B34" stroke-width="3" stroke-linecap="round" stroke-linejoin="round"/>
<path d="M54 45L48 60" stroke="#141B34" stroke-width="3" stroke-linecap="round" stroke-linejoin="round"/>
<path d="M32.8351 66C19.6713 66 9 55.2548 9 42C9 35.7487 11.8749 29.4973 15.6277 24C16.3979 28.5 19.7258 37.2 26.8763 36C19.005 19.5 32.8351 6 32.8351 6C32.8351 6 34.3248 16.5 47.732 27C48.9734 27.9722 50.0572 28.9742 51 30" stroke="#141B34" stroke-width="3" stroke-linecap="round" stroke-linejoin="round"/>
</svg>
