<svg width="72" height="72" viewBox="0 0 72 72" fill="none" xmlns="http://www.w3.org/2000/svg">
<path d="M61.8277 54.3162C64.3564 52.4753 66 49.4921 66 46.125C66 40.5331 61.4669 36 55.875 36H55.125C49.5331 36 45 40.5331 45 46.125C45 49.4921 46.6436 52.4753 49.1723 54.3162M61.8277 54.3162C60.157 55.5324 58.0998 56.25 55.875 56.25H55.125C52.9002 56.25 50.843 55.5324 49.1723 54.3162M61.8277 54.3162L63.5761 59.8213C64.243 61.9209 64.5764 62.9708 64.4852 63.6246C64.2954 64.9852 63.1858 65.9952 61.8757 66C61.2461 66.0023 60.303 65.5074 58.4169 64.5176C57.6081 64.0932 57.2036 63.8809 56.7899 63.7561C55.947 63.5019 55.053 63.5019 54.2101 63.7561C53.7964 63.8809 53.3919 64.0932 52.5831 64.5176C50.697 65.5074 49.7539 66.0023 49.1243 66C47.8142 65.9952 46.7046 64.9852 46.5148 63.6246C46.4236 62.9708 46.757 61.9209 47.4239 59.8213L49.1723 54.3162" stroke="#141B34" stroke-width="3"/>
<path d="M39 33C39 36.3137 36.3137 39 33 39C29.6863 39 27 36.3137 27 33C27 29.6863 29.6863 27 33 27C36.3137 27 39 29.6863 39 33Z" stroke="#141B34" stroke-width="3"/>
<path d="M60 27.3936C57.391 15.1725 46.4257 6 33.2946 6C18.2202 6 6 18.0883 6 33C6 47.9117 18.2202 60 33.2946 60C34.7248 60 36.1292 59.8912 37.5 59.6815" stroke="#141B34" stroke-width="3" stroke-linecap="round"/>
<path d="M52.0898 13.9072L45.7259 20.2712" stroke="#141B34" stroke-width="3" stroke-linecap="round" stroke-linejoin="round"/>
<path d="M20.2734 45.7266L13.9095 52.0905" stroke="#141B34" stroke-width="3" stroke-linecap="round" stroke-linejoin="round"/>
</svg>
