<svg width="24" height="24" viewBox="0 0 24 24" fill="none" xmlns="http://www.w3.org/2000/svg">
<path d="M3 12C3 13.6569 6.58172 15 11 15C11.3387 15 11.6724 14.9921 12 14.9768" stroke="#141B34" stroke-width="1.5" stroke-linecap="round"/>
<path d="M19 5V11.5M3 5V19C3 20.6569 6.58172 22 11 22C11.3387 22 11.6724 21.9921 12 21.9768" stroke="#141B34" stroke-width="1.5" stroke-linecap="round"/>
<ellipse cx="11" cy="5" rx="8" ry="3" stroke="#141B34" stroke-width="1.5"/>
<path d="M7 8V10" stroke="#141B34" stroke-width="1.5" stroke-linecap="round"/>
<path d="M7 15V17" stroke="#141B34" stroke-width="1.5" stroke-linecap="round"/>
<path d="M13 18.6667C13 19.9553 14.0074 21 15.25 21H19.975C21.0934 21 22 20.0598 22 18.9C22 17.7402 21.0833 16.8 19.9649 16.8C20.0897 15.3643 18.9799 14 17.5 14C16.2055 14 15.143 15.0307 15.0342 16.3439C13.8928 16.4566 13 17.4535 13 18.6667Z" stroke="#141B34" stroke-width="1.5" stroke-linecap="round" stroke-linejoin="round"/>
</svg>
