<svg width="72" height="72" viewBox="0 0 72 72" fill="none" xmlns="http://www.w3.org/2000/svg">
<path d="M6 61.5C5.17157 61.5 4.5 62.1716 4.5 63C4.5 63.8284 5.17157 64.5 6 64.5V61.5ZM66 64.5C66.8284 64.5 67.5 63.8284 67.5 63C67.5 62.1716 66.8284 61.5 66 61.5V64.5ZM45.4393 62.5607L44.3787 63.6213L44.3787 63.6213L45.4393 62.5607ZM6 64.5H24V61.5H6V64.5ZM48 64.5H66V61.5H48V64.5ZM28.5 60V54H25.5V60H28.5ZM43.5 54V60H46.5V54H43.5ZM36 46.5C40.1421 46.5 43.5 49.8579 43.5 54H46.5C46.5 48.201 41.799 43.5 36 43.5V46.5ZM28.5 54C28.5 49.8579 31.8579 46.5 36 46.5V43.5C30.201 43.5 25.5 48.201 25.5 54H28.5ZM48 61.5C47.2505 61.5 46.8393 61.4968 46.554 61.4585C46.3118 61.4259 46.3945 61.3945 46.5 61.5L44.3787 63.6213C44.9235 64.1661 45.5794 64.3544 46.1542 64.4317C46.6859 64.5032 47.3353 64.5 48 64.5V61.5ZM43.5 60C43.5 60.6647 43.4968 61.3141 43.5683 61.8458C43.6456 62.4206 43.8339 63.0765 44.3787 63.6213L46.5 61.5C46.6055 61.6055 46.5741 61.6882 46.5415 61.446C46.5032 61.1607 46.5 60.7495 46.5 60H43.5ZM24 64.5C24.6647 64.5 25.3141 64.5032 25.8458 64.4317C26.4206 64.3544 27.0765 64.1661 27.6213 63.6213L25.5 61.5C25.6055 61.3945 25.6882 61.4259 25.446 61.4585C25.1607 61.4968 24.7495 61.5 24 61.5V64.5ZM25.5 60C25.5 60.7495 25.4968 61.1607 25.4585 61.446C25.4259 61.6882 25.3945 61.6055 25.5 61.5L27.6213 63.6213C28.1661 63.0765 28.3544 62.4206 28.4317 61.8458C28.5032 61.3141 28.5 60.6647 28.5 60H25.5Z" fill="#141B34"/>
<path d="M9 63.0002V12.0001C9 10.5859 9 9.87887 9.43932 9.43953C9.87863 9.0002 10.5857 9.00016 11.9999 9.0001L14.063 9C14.963 8.99996 15.009 9.03585 15.2273 9.90896L16.2728 14.091C16.491 14.9641 16.537 15 17.4369 15H21.5631C22.463 15 22.509 14.9641 22.7272 14.091L23.7728 9.90918C23.991 9.03612 24.037 9.00024 24.9369 9.00024L27 9.00024C28.4142 9.00024 29.1213 9.00024 29.5607 9.43958C30 9.87892 30 10.586 30 12.0002V24.0002C30 25.4144 30 26.1216 30.4393 26.5609C30.8787 27.0002 31.5858 27.0002 33 27.0002H39C40.4142 27.0002 41.1213 27.0002 41.5607 26.5609C42 26.1216 42 25.4144 42 24.0002V12.0002C42 10.586 42 9.87892 42.4393 9.43958C42.8787 9.00024 43.5858 9.00024 45 9.00024L47.0631 9.00024C47.963 9.00024 48.009 9.03612 48.2272 9.90918L49.2728 14.091C49.491 14.9641 49.537 15 50.4369 15H54.5631C55.463 15 55.509 14.9641 55.7272 14.091L56.7727 9.90896C56.991 9.03586 57.037 8.99996 57.937 9L60.0001 9.0001C61.4143 9.00016 62.1214 9.0002 62.5607 9.43953C63 9.87887 63 10.5859 63 12.0001V63.0002" stroke="#141B34" stroke-width="3" stroke-linecap="round" stroke-linejoin="round"/>
<path d="M21 27H18" stroke="#141B34" stroke-width="3" stroke-linecap="round" stroke-linejoin="round"/>
<path d="M37.5 36H34.5" stroke="#141B34" stroke-width="3" stroke-linecap="round" stroke-linejoin="round"/>
<path d="M54 27H51" stroke="#141B34" stroke-width="3" stroke-linecap="round" stroke-linejoin="round"/>
</svg>
