<svg width="72" height="72" viewBox="0 0 72 72" fill="none" xmlns="http://www.w3.org/2000/svg">
<path d="M57 51.4286C57 55.9393 57 58.1946 55.9511 59.8412C55.4041 60.6998 54.668 61.4259 53.7975 61.9654C52.1282 63 49.8416 63 45.2685 63H27.5958C19.841 63 15.9636 63 15.137 60.7959C14.3104 58.5919 17.2544 56.1029 23.1422 51.125L34.9703 41.125C37.7875 38.7432 39.1961 37.5523 39.1961 36C39.1961 34.4477 37.7875 33.2568 34.9703 30.875L23.1422 20.875C17.2544 15.8971 14.3104 13.4081 15.137 11.2041C15.9636 9 19.841 9 27.5958 9H45.2685C49.8416 9 52.1282 9 53.7975 10.0346C54.668 10.5741 55.4041 11.3002 55.9511 12.1588C57 13.8054 57 16.0607 57 20.5714" stroke="#141B34" stroke-width="3" stroke-linecap="round" stroke-linejoin="round"/>
</svg>
