<svg width="24" height="24" viewBox="0 0 24 24" fill="none" xmlns="http://www.w3.org/2000/svg">
<path d="M20.9977 12.5C20.9977 12.5 21 12.0307 21 11.5C21 7.02166 21 4.78249 19.6088 3.39124C18.2175 2 15.9783 2 11.5 2C7.02166 2 4.78249 2 3.39124 3.39124C2 4.78249 2 7.02166 2 11.5C2 15.9783 2 18.2175 3.39124 19.6088C4.78249 21 7.02166 21 11.5 21C12.0307 21 12.5 20.9977 12.5 20.9977" stroke="#141B34" stroke-width="1.5" stroke-linecap="round"/>
<path d="M2 7H21" stroke="#141B34" stroke-width="1.5" stroke-linejoin="round"/>
<path d="M10 16H11.5M6 16H7M10 12H16M6 12H7" stroke="#141B34" stroke-width="1.5" stroke-linecap="round" stroke-linejoin="round"/>
<path d="M19 21.7143V23M19 21.7143C17.8432 21.7143 16.8241 21.1461 16.2263 20.2833M19 21.7143C20.1568 21.7143 21.1759 21.1461 21.7737 20.2833M19 15.2857C20.1569 15.2857 21.1761 15.854 21.7738 16.7169M19 15.2857C17.8431 15.2857 16.8239 15.854 16.2262 16.7169M19 15.2857V14M23 15.9286L21.7738 16.7169M15.0004 21.0714L16.2263 20.2833M15 15.9286L16.2262 16.7169M22.9996 21.0714L21.7737 20.2833M21.7738 16.7169C22.1273 17.2271 22.3333 17.8403 22.3333 18.5C22.3333 19.1597 22.1272 19.773 21.7737 20.2833M16.2262 16.7169C15.8727 17.2271 15.6667 17.8403 15.6667 18.5C15.6667 19.1597 15.8728 19.773 16.2263 20.2833" stroke="#141B34" stroke-width="1.5" stroke-linecap="round"/>
</svg>
