<svg width="72" height="72" viewBox="0 0 72 72" fill="none" xmlns="http://www.w3.org/2000/svg">
<path d="M34.4118 66C22.4325 66 16.4429 66 12.7215 62.4853C9 58.9706 9 53.3137 9 42L9 30C9 18.6863 9 13.0294 12.7215 9.51472C16.4429 6 22.4325 6 34.4118 6L37.5882 6C49.5675 6 55.5571 6 59.2785 9.51472C63 13.0294 63 18.6863 63 30M34.5 66H39" stroke="#141B34" stroke-width="3" stroke-linecap="round"/>
<path d="M24 21H48" stroke="#141B34" stroke-width="3" stroke-linecap="round"/>
<path d="M24 36H39" stroke="#141B34" stroke-width="3" stroke-linecap="round"/>
<path d="M52.5 55.7687L49.7935 65.2285C49.6716 65.7034 50.1416 66.1155 50.5976 65.9334L56.5543 63.5546C56.8404 63.4403 57.1596 63.4403 57.4457 63.5546L63.4594 65.9561C63.9043 66.1338 64.368 65.7448 64.2694 65.2767L61.9767 55.4732M66 47.9854C66 43.0229 61.9706 39 57 39C52.0294 39 48 43.0229 48 47.9854C48 52.9479 52.0294 56.9707 57 56.9707C61.9706 56.9707 66 52.9479 66 47.9854Z" stroke="#141B34" stroke-width="3" stroke-linejoin="round"/>
</svg>
