<svg width="72" height="72" viewBox="0 0 72 72" fill="none" xmlns="http://www.w3.org/2000/svg">
<path d="M18.5244 30.9994C14.9021 32.222 12.6615 33.9116 12.6615 35.7779C12.6615 38.3225 16.8269 40.5386 22.9803 41.6905M22.9803 41.6905C20.695 42.8468 19.3281 44.3142 19.3281 45.911C19.3281 49.6419 26.79 52.6663 35.9948 52.6663C38.3651 52.6663 40.6199 52.4658 42.6615 52.1042M22.9803 41.6905C25.8489 42.2275 29.1495 42.5333 32.6615 42.5333C37.7838 42.5333 42.4564 41.8828 45.9948 40.8131M49.3281 30.3726C45.0931 31.6238 39.1904 32.4002 32.6615 32.4002C19.7748 32.4002 9.32812 29.3757 9.32812 25.6448C9.32812 22.7639 15.5569 20.3043 24.3281 19.333" stroke="#141B34" stroke-width="3" stroke-linecap="round" stroke-linejoin="round"/>
<path d="M66 57.2098C66 62.0645 52.5685 66 36 66C19.4315 66 6 62.0645 6 57.2098C6 53.7585 11.1219 50.7717 21 49.3333" stroke="#141B34" stroke-width="3" stroke-linecap="round"/>
<path d="M56.2772 26.364C68.9231 23.0831 70.7296 42.7686 52.6641 49.3314" stroke="#141B34" stroke-width="3" stroke-linecap="round" stroke-linejoin="round"/>
<path d="M52.6745 6C50.452 6.37037 46.2738 8.44444 47.3406 13.7778C48.4074 19.1111 46.8966 21.9259 46.0078 22.6667" stroke="#141B34" stroke-width="3" stroke-linecap="round" stroke-linejoin="round"/>
<path d="M39.3385 6C37.1161 6.44444 32.9379 8.93333 34.0047 15.3333C35.0714 21.7333 33.5606 23.4444 32.6719 24.3333" stroke="#141B34" stroke-width="3" stroke-linecap="round" stroke-linejoin="round"/>
</svg>
