<svg width="72" height="72" viewBox="0 0 72 72" fill="none" xmlns="http://www.w3.org/2000/svg">
<path d="M62.9931 37.5C62.9931 37.5 63 36.092 63 34.5C63 21.065 63 14.3475 58.8263 10.1737C54.6525 6 47.935 6 34.5 6C21.065 6 14.3475 6 10.1737 10.1737C6 14.3475 6 21.065 6 34.5C6 47.935 6 54.6525 10.1737 58.8263C14.3475 63 21.065 63 34.5 63C36.092 63 37.5 62.9931 37.5 62.9931" stroke="#141B34" stroke-width="3" stroke-linecap="round"/>
<path d="M6 21L63 21" stroke="#141B34" stroke-width="3" stroke-linejoin="round"/>
<path d="M30 48H34.5M18 48H21M30 36H48M18 36H21" stroke="#141B34" stroke-width="3" stroke-linecap="round" stroke-linejoin="round"/>
<path d="M57 65.1429V69M57 65.1429C53.5297 65.1429 50.4722 63.4382 48.6789 60.8499M57 65.1429C60.4703 65.1429 63.5278 63.4382 65.3211 60.8499M57 45.8571C60.4706 45.8571 63.5283 47.562 65.3214 50.1506M57 45.8571C53.5294 45.8571 50.4717 47.562 48.6786 50.1506M57 45.8571V42M69 47.7857L65.3214 50.1506M45.0013 63.2143L48.6789 60.8499M45 47.7857L48.6786 50.1506M68.9987 63.2143L65.3211 60.8499M65.3214 50.1506C66.3818 51.6813 67 53.521 67 55.5C67 57.4792 66.3816 59.3191 65.3211 60.8499M48.6786 50.1506C47.6182 51.6813 47 53.521 47 55.5C47 57.4792 47.6184 59.3191 48.6789 60.8499" stroke="#141B34" stroke-width="3" stroke-linecap="round"/>
</svg>
