<svg width="72" height="72" viewBox="0 0 72 72" fill="none" xmlns="http://www.w3.org/2000/svg">
<path d="M52.4327 27.0332C52.4551 27.0331 52.4776 27.033 52.5 27.033C59.9558 27.033 66 33.0883 66 40.5578C66 47.5194 60.7499 53.2525 54 54M52.4327 27.0332C52.4773 26.5382 52.5 26.0369 52.5 25.5303C52.5 16.4009 45.1127 9 36 9C27.3697 9 20.287 15.638 19.5613 24.0957M52.4327 27.0332C52.126 30.4428 50.7859 33.5538 48.7285 36.0495M19.5613 24.0957C11.9519 24.8212 6 31.2418 6 39.055C6 46.3252 11.1533 52.3896 18 53.7819M19.5613 24.0957C20.0348 24.0506 20.5147 24.0275 21 24.0275C24.3775 24.0275 27.4942 25.1458 30.0015 27.033" stroke="#141B34" stroke-width="3" stroke-linecap="round" stroke-linejoin="round"/>
<path d="M36 63L36 39M36 63C33.8993 63 29.9746 57.0171 28.5 55.5M36 63C38.1007 63 42.0254 57.0171 43.5 55.5" stroke="#141B34" stroke-width="3" stroke-linecap="round" stroke-linejoin="round"/>
</svg>
