<svg width="24" height="24" viewBox="0 0 24 24" fill="none" xmlns="http://www.w3.org/2000/svg">
<path d="M7 11H7.625C9.38057 11 10.2584 11 10.8889 10.5787C11.1619 10.3963 11.3963 10.1619 11.5787 9.88893C12 9.25837 12 8.38058 12 6.625C12 5.57165 12 5.04498 11.7472 4.66664C11.6378 4.50286 11.4971 4.36223 11.3334 4.2528C10.955 4 10.4283 4 9.375 4H7.71393C7.56953 4 7.49733 4 7.43101 3.99026C7.18274 3.95381 6.96074 3.81737 6.81761 3.61327C6.77937 3.55875 6.74734 3.49469 6.68328 3.36656C6.42089 2.84179 6.18111 2.31356 5.59963 2.0955C5.34495 2 5.05401 2 4.47214 2C3.5639 2 3.10978 2 2.76903 2.19016C2.52613 2.32571 2.32571 2.52613 2.19016 2.76903C2 3.10978 2 3.5639 2 4.47214V6C2 8.35702 2 9.53553 2.73223 10.2678C3.46447 11 4.64298 11 7 11Z" stroke="#141B34" stroke-width="1.5" stroke-linecap="round"/>
<path d="M22.579 20.6116C21.5257 23.1076 18.1007 23.835 16.1374 21.89C14.2124 19.9829 14.8084 16.5278 17.3396 15.4209" stroke="#141B34" stroke-width="1.5" stroke-linecap="round"/>
<path d="M21.3929 19.2105C22.1877 19.2105 22.5851 19.2105 22.8418 18.8547C22.8514 18.8414 22.8673 18.8176 22.8759 18.8036C23.1064 18.4304 22.9876 18.1436 22.75 17.57C22.5346 17.0499 22.2188 16.5773 21.8208 16.1793C21.4227 15.7812 20.9501 15.4654 20.43 15.25C19.8564 15.0124 19.5697 14.8936 19.1964 15.1241C19.1824 15.1327 19.1586 15.1487 19.1453 15.1583C18.7895 15.4149 18.7895 15.8123 18.7895 16.6071V17.4958C18.7895 18.3041 18.7895 18.7083 19.0406 18.9594C19.2917 19.2105 19.6959 19.2105 20.5042 19.2105H21.3929Z" stroke="#141B34" stroke-width="1.5"/>
<path d="M19.3358 9H22C21.5 5 19 2.5 16 2" stroke="#141B34" stroke-width="1.5" stroke-linecap="round" stroke-linejoin="round"/>
<path d="M4.66416 15L2 15C2.5 19 5 21.5 8 22" stroke="#141B34" stroke-width="1.5" stroke-linecap="round" stroke-linejoin="round"/>
</svg>
