<svg width="24" height="24" viewBox="0 0 24 24" fill="none" xmlns="http://www.w3.org/2000/svg">
<path d="M7 11H7.625C9.38057 11 10.2584 11 10.8889 10.5787C11.1619 10.3963 11.3963 10.1619 11.5787 9.88893C12 9.25837 12 8.38058 12 6.625C12 5.57165 12 5.04498 11.7472 4.66664C11.6378 4.50286 11.4971 4.36223 11.3334 4.2528C10.955 4 10.4283 4 9.375 4H7.71393C7.56953 4 7.49733 4 7.43101 3.99026C7.18274 3.95381 6.96074 3.81737 6.81761 3.61327C6.77937 3.55875 6.74734 3.49469 6.68328 3.36656C6.42089 2.84179 6.18111 2.31356 5.59963 2.0955C5.34495 2 5.05401 2 4.47214 2C3.5639 2 3.10978 2 2.76903 2.19016C2.52613 2.32571 2.32571 2.52613 2.19016 2.76903C2 3.10978 2 3.5639 2 4.47214V6C2 8.35702 2 9.53553 2.73223 10.2678C3.46447 11 4.64298 11 7 11Z" stroke="#141B34" stroke-width="1.5" stroke-linecap="round"/>
<path d="M19.6911 15.5777L20.395 16.9971C20.491 17.1947 20.7469 17.3843 20.9629 17.4206L22.2388 17.6343C23.0547 17.7714 23.2467 18.3682 22.6587 18.957L21.6668 19.9571C21.4989 20.1265 21.4069 20.4531 21.4589 20.687L21.7428 21.925C21.9668 22.9049 21.4509 23.284 20.591 22.7718L19.3951 22.0581C19.1791 21.929 18.8232 21.929 18.6032 22.0581L17.4073 22.7718C16.5514 23.284 16.0315 22.9009 16.2554 21.925L16.5394 20.687C16.5914 20.4531 16.4994 20.1265 16.3314 19.9571L15.3395 18.957C14.7556 18.3682 14.9436 17.7714 15.7595 17.6343L17.0353 17.4206C17.2473 17.3843 17.5033 17.1947 17.5993 16.9971L18.3032 15.5777C18.6872 14.8074 19.3111 14.8074 19.6911 15.5777Z" stroke="#141B34" stroke-width="1.5" stroke-linecap="round" stroke-linejoin="round"/>
<path d="M19.3358 9H22C21.5 5 19 2.5 16 2" stroke="#141B34" stroke-width="1.5" stroke-linecap="round" stroke-linejoin="round"/>
<path d="M4.66416 15L2 15C2.5 19 5 21.5 8 22" stroke="#141B34" stroke-width="1.5" stroke-linecap="round" stroke-linejoin="round"/>
</svg>
