<svg width="24" height="24" viewBox="0 0 24 24" fill="none" xmlns="http://www.w3.org/2000/svg">
<path d="M7 11H7.625C9.38057 11 10.2584 11 10.8889 10.5787C11.1619 10.3963 11.3963 10.1619 11.5787 9.88893C12 9.25837 12 8.38058 12 6.625C12 5.57165 12 5.04498 11.7472 4.66664C11.6378 4.50286 11.4971 4.36223 11.3334 4.2528C10.955 4 10.4283 4 9.375 4H7.71393C7.56953 4 7.49733 4 7.43101 3.99026C7.18274 3.95381 6.96074 3.81737 6.81761 3.61327C6.77937 3.55875 6.74734 3.49469 6.68328 3.36656C6.42089 2.84179 6.18111 2.31356 5.59963 2.0955C5.34495 2 5.05401 2 4.47214 2C3.5639 2 3.10978 2 2.76903 2.19016C2.52613 2.32571 2.32571 2.52613 2.19016 2.76903C2 3.10978 2 3.5639 2 4.47214V6C2 8.35702 2 9.53553 2.73223 10.2678C3.46447 11 4.64298 11 7 11Z" stroke="#141B34" stroke-width="1.5" stroke-linecap="round"/>
<path d="M13 17.3935H13.1618C13.9732 17.3935 14.3788 17.3935 14.6886 17.5677C14.9983 17.7419 15.1375 18.0484 15.416 18.6613L15.7525 19.4019C15.9355 19.8046 16.027 20.006 16.1746 19.9998C16.3223 19.9935 16.3869 19.7855 16.5162 19.3695L17.6732 15.6473C17.8063 15.2193 17.8728 15.0052 18.0219 15C18.171 14.9948 18.2605 15.2033 18.4394 15.6204L18.642 16.0928C18.9115 16.721 19.0462 17.0351 19.3589 17.2143C19.6715 17.3935 20.0846 17.3935 20.9108 17.3935H21" stroke="#141B34" stroke-width="1.5" stroke-linecap="round" stroke-linejoin="round"/>
<path d="M19.3358 9H22C21.5 5 19 2.5 16 2" stroke="#141B34" stroke-width="1.5" stroke-linecap="round" stroke-linejoin="round"/>
<path d="M4.66416 15L2 15C2.5 19 5 21.5 8 22" stroke="#141B34" stroke-width="1.5" stroke-linecap="round" stroke-linejoin="round"/>
</svg>
