<svg width="24" height="24" viewBox="0 0 24 24" fill="none" xmlns="http://www.w3.org/2000/svg">
<path d="M21 21H10C6.70017 21 5.05025 21 4.02513 19.9749C3 18.9497 3 17.2998 3 14V3" stroke="#141B34" stroke-width="1.5" stroke-linecap="round"/>
<path d="M6.00006 6.39353H6.16185C6.97321 6.39353 7.37889 6.39353 7.68862 6.56772C7.99834 6.7419 8.13758 7.04836 8.41606 7.66128L8.75254 8.40185C8.93554 8.80463 9.02704 9.00602 9.17468 8.99976C9.32232 8.9935 9.38698 8.78549 9.5163 8.36946L10.6733 4.64732C10.8063 4.21926 10.8729 4.00523 11.022 4C11.1711 3.99477 11.2606 4.20332 11.4395 4.62043L11.6421 5.0928C11.9116 5.72097 12.0463 6.03506 12.3589 6.2143C12.6715 6.39353 13.0847 6.39353 13.9109 6.39353H14.0001" stroke="#141B34" stroke-width="1.5" stroke-linecap="round" stroke-linejoin="round"/>
<path d="M5 20C6.07093 18.053 7.52279 13.0189 10.3063 13.0189C12.2301 13.0189 12.7283 15.4717 14.6136 15.4717C17.8572 15.4717 17.387 10 21 10" stroke="#141B34" stroke-width="1.5" stroke-linecap="round" stroke-linejoin="round"/>
</svg>
