<svg width="72" height="72" viewBox="0 0 72 72" fill="none" xmlns="http://www.w3.org/2000/svg">
<path d="M33 45H39" stroke="#141B34" stroke-width="3" stroke-linecap="round" stroke-linejoin="round"/>
<path d="M36 54V66" stroke="#141B34" stroke-width="3"/>
<path d="M24 66H48" stroke="#141B34" stroke-width="3" stroke-linecap="round"/>
<path d="M27 6.00293C19.1236 6.028 14.8695 6.26178 11.7567 8.44136C10.4667 9.34463 9.34471 10.4666 8.44145 11.7566C6 15.2434 6 20.1622 6 29.9999C6 39.8376 6 44.7564 8.44145 48.2432C9.34471 49.5332 10.4667 50.6552 11.7567 51.5585C15.2435 53.9999 20.1623 53.9999 30 53.9999H42C51.8377 53.9999 56.7565 53.9999 60.2433 51.5585C61.5333 50.6552 62.6553 49.5332 63.5586 48.2432C65.7381 45.1304 65.9719 40.8763 65.997 32.9999" stroke="#141B34" stroke-width="3" stroke-linecap="round"/>
<path d="M35.8 10.5C35.8 9.32149 35.8 8.73223 36.1662 8.36612C36.5323 8 37.1215 8 38.3 8C39.4786 8 40.0678 8 40.4339 8.36612C40.8 8.73223 40.8 9.32149 40.8 10.5V13C40.8 14.1785 40.8 14.7678 40.4339 15.1339C40.0678 15.5 39.4786 15.5 38.3 15.5C37.1215 15.5 36.5323 15.5 36.1662 15.1339C35.8 14.7678 35.8 14.1785 35.8 13V10.5Z" stroke="#141B34" stroke-width="2"/>
<path d="M41.425 23C41.425 21.8215 41.425 21.2322 41.7912 20.8661C42.1573 20.5 42.7465 20.5 43.925 20.5C45.1036 20.5 45.6928 20.5 46.0589 20.8661C46.425 21.2322 46.425 21.8215 46.425 23V25.5C46.425 26.6785 46.425 27.2678 46.0589 27.6339C45.6928 28 45.1036 28 43.925 28C42.7465 28 42.1573 28 41.7912 27.6339C41.425 27.2678 41.425 26.6785 41.425 25.5V23Z" stroke="#141B34" stroke-width="2"/>
<path d="M50.175 10.5C50.175 9.32149 50.175 8.73223 50.5412 8.36612C50.9073 8 51.4965 8 52.675 8C53.8536 8 54.4428 8 54.8089 8.36612C55.175 8.73223 55.175 9.32149 55.175 10.5V13C55.175 14.1785 55.175 14.7678 54.8089 15.1339C54.4428 15.5 53.8536 15.5 52.675 15.5C51.4965 15.5 50.9073 15.5 50.5412 15.1339C50.175 14.7678 50.175 14.1785 50.175 13V10.5Z" stroke="#141B34" stroke-width="2"/>
<path d="M50.175 23C50.175 21.8215 50.175 21.2322 50.5412 20.8661C50.9073 20.5 51.4965 20.5 52.675 20.5C53.8536 20.5 54.4428 20.5 54.8089 20.8661C55.175 21.2322 55.175 21.8215 55.175 23V25.5C55.175 26.6785 55.175 27.2678 54.8089 27.6339C54.4428 28 53.8536 28 52.675 28C51.4965 28 50.9073 28 50.5412 27.6339C50.175 27.2678 50.175 26.6785 50.175 25.5V23Z" stroke="#141B34" stroke-width="2"/>
<path d="M44.55 9.25L46.425 8V15.5" stroke="#141B34" stroke-width="2" stroke-linecap="round" stroke-linejoin="round"/>
<path d="M35.8 21.75L37.675 20.5V28" stroke="#141B34" stroke-width="2" stroke-linecap="round" stroke-linejoin="round"/>
<path d="M58.925 9.25L60.8 8V15.5" stroke="#141B34" stroke-width="2" stroke-linecap="round" stroke-linejoin="round"/>
<path d="M58.925 21.75L60.8 20.5V28" stroke="#141B34" stroke-width="2" stroke-linecap="round" stroke-linejoin="round"/>
</svg>
