<svg width="24" height="24" viewBox="0 0 24 24" fill="none" xmlns="http://www.w3.org/2000/svg">
<path d="M11 15H13" stroke="#141B34" stroke-width="1.5" stroke-linecap="round" stroke-linejoin="round"/>
<path d="M12 18V22" stroke="#141B34" stroke-width="1.5"/>
<path d="M8 22H16" stroke="#141B34" stroke-width="1.5" stroke-linecap="round"/>
<path d="M9 2.00098C6.37454 2.00933 4.9565 2.08726 3.91891 2.81379C3.48891 3.11488 3.1149 3.48888 2.81382 3.91888C2 5.08113 2 6.72074 2 9.99997C2 13.2792 2 14.9188 2.81382 16.0811C3.1149 16.5111 3.48891 16.8851 3.91891 17.1862C5.08116 18 6.72077 18 10 18H14C17.2792 18 18.9188 18 20.0811 17.1862C20.5111 16.8851 20.8851 16.5111 21.1862 16.0811C21.9127 15.0435 21.9906 13.6254 21.999 11" stroke="#141B34" stroke-width="1.5" stroke-linecap="round"/>
<g clip-path="url(#clip0_5729_1825)">
<path d="M11.9333 3.50033C11.9333 3.10749 11.9333 2.91107 12.0554 2.78903C12.1774 2.66699 12.3738 2.66699 12.7667 2.66699C13.1595 2.66699 13.3559 2.66699 13.478 2.78903C13.6 2.91107 13.6 3.10749 13.6 3.50033V4.33366C13.6 4.7265 13.6 4.92291 13.478 5.04495C13.3559 5.16699 13.1595 5.16699 12.7667 5.16699C12.3738 5.16699 12.1774 5.16699 12.0554 5.04495C11.9333 4.92291 11.9333 4.7265 11.9333 4.33366V3.50033Z" stroke="#141B34"/>
<path d="M13.8083 7.66732C13.8083 7.27448 13.8083 7.07806 13.9304 6.95602C14.0524 6.83398 14.2488 6.83398 14.6417 6.83398C15.0345 6.83398 15.2309 6.83398 15.353 6.95602C15.475 7.07806 15.475 7.27448 15.475 7.66732V8.50065C15.475 8.89349 15.475 9.08991 15.353 9.21195C15.2309 9.33398 15.0345 9.33398 14.6417 9.33398C14.2488 9.33398 14.0524 9.33398 13.9304 9.21195C13.8083 9.08991 13.8083 8.89349 13.8083 8.50065V7.66732Z" stroke="#141B34"/>
<path d="M16.725 3.50033C16.725 3.10749 16.725 2.91107 16.847 2.78903C16.9691 2.66699 17.1655 2.66699 17.5583 2.66699C17.9511 2.66699 18.1476 2.66699 18.2696 2.78903C18.3916 2.91107 18.3916 3.10749 18.3916 3.50033V4.33366C18.3916 4.7265 18.3916 4.92291 18.2696 5.04495C18.1476 5.16699 17.9511 5.16699 17.5583 5.16699C17.1655 5.16699 16.9691 5.16699 16.847 5.04495C16.725 4.92291 16.725 4.7265 16.725 4.33366V3.50033Z" stroke="#141B34"/>
<path d="M16.725 7.66732C16.725 7.27448 16.725 7.07806 16.847 6.95602C16.9691 6.83398 17.1655 6.83398 17.5583 6.83398C17.9511 6.83398 18.1476 6.83398 18.2696 6.95602C18.3916 7.07806 18.3916 7.27448 18.3916 7.66732V8.50065C18.3916 8.89349 18.3916 9.08991 18.2696 9.21195C18.1476 9.33398 17.9511 9.33398 17.5583 9.33398C17.1655 9.33398 16.9691 9.33398 16.847 9.21195C16.725 9.08991 16.725 8.89349 16.725 8.50065V7.66732Z" stroke="#141B34"/>
<path d="M14.85 3.08366L15.475 2.66699V5.16699" stroke="#141B34" stroke-linecap="round" stroke-linejoin="round"/>
<path d="M11.9333 7.25065L12.5583 6.83398V9.33398" stroke="#141B34" stroke-linecap="round" stroke-linejoin="round"/>
<path d="M19.6417 3.08366L20.2667 2.66699V5.16699" stroke="#141B34" stroke-linecap="round" stroke-linejoin="round"/>
<path d="M19.6417 7.25065L20.2667 6.83398V9.33398" stroke="#141B34" stroke-linecap="round" stroke-linejoin="round"/>
</g>
<defs>
<clipPath id="clip0_5729_1825">
<rect width="10" height="10" fill="white" transform="translate(11.1 1)"/>
</clipPath>
</defs>
</svg>
