<svg width="72" height="72" viewBox="0 0 72 72" fill="none" xmlns="http://www.w3.org/2000/svg">
<path d="M66 34.7002C66 50.5496 52.5667 63.4003 36 63.4003C34.0521 63.4028 32.1097 63.2227 30.1962 62.8634C28.819 62.6047 28.1303 62.4754 27.6496 62.5488C27.1688 62.6222 26.4875 62.9845 25.125 63.7092C21.2704 65.759 16.7759 66.4829 12.4533 65.6789C14.0962 63.6582 15.2182 61.2336 15.7133 58.6343C16.0133 57.0445 15.27 55.4999 14.1567 54.3693C9.1 49.2346 6 42.3153 6 34.7002C6 18.8507 19.4333 6 36 6C52.5667 6 66 18.8507 66 34.7002Z" stroke="#141B34" stroke-width="3" stroke-linejoin="round"/>
<path d="M35.9865 36H36.0135M47.9731 36H48M24 36H24.0269" stroke="#141B34" stroke-width="3" stroke-linecap="round" stroke-linejoin="round"/>
</svg>
