<svg width="72" height="72" viewBox="0 0 72 72" fill="none" xmlns="http://www.w3.org/2000/svg">
<path d="M21 33H22.875C28.1417 33 30.7751 33 32.6668 31.736C33.4857 31.1888 34.1888 30.4857 34.736 29.6668C36 27.7751 36 25.1417 36 19.875C36 16.715 36 15.1349 35.2416 13.9999C34.9133 13.5086 34.4914 13.0867 34.0001 12.7584C32.8651 12 31.285 12 28.125 12H23.1418C22.7086 12 22.492 12 22.293 11.9708C21.5482 11.8614 20.8822 11.4521 20.4528 10.8398C20.3381 10.6762 20.242 10.4841 20.0498 10.0997C19.2627 8.52536 18.5433 6.94067 16.7989 6.28651C16.0348 6 15.162 6 13.4164 6C10.6917 6 9.32934 6 8.30709 6.57048C7.5784 6.97713 6.97713 7.5784 6.57047 8.30709C6 9.32934 6 10.6917 6 13.4164V18C6 25.0711 6 28.6066 8.1967 30.8033C10.3934 33 13.9289 33 21 33Z" stroke="#141B34" stroke-width="3" stroke-linecap="round"/>
<path d="M67.7369 61.8347C64.577 69.3228 54.302 71.505 48.4123 65.67C42.6372 59.9486 44.4252 49.5833 52.0188 46.2627" stroke="#141B34" stroke-width="3" stroke-linecap="round"/>
<path d="M64.1787 57.6316C66.5631 57.6316 67.7553 57.6316 68.5252 56.5642C68.554 56.5243 68.6018 56.4527 68.6277 56.4109C69.3192 55.2911 68.9628 54.4307 68.2501 52.71C67.6038 51.1497 66.6564 49.732 65.4622 48.5378C64.268 47.3436 62.8503 46.3962 61.29 45.7499C59.5693 45.0372 58.7089 44.6808 57.5891 45.3723C57.5473 45.3982 57.4757 45.446 57.4358 45.4748C56.3684 46.2447 56.3684 47.4369 56.3684 49.8213V52.4873C56.3684 54.9124 56.3684 56.1249 57.1218 56.8782C57.8751 57.6316 59.0876 57.6316 61.5127 57.6316H64.1787Z" stroke="#141B34" stroke-width="3"/>
<path d="M58.0075 27H66C64.5 15 57 7.5 48 6" stroke="#141B34" stroke-width="3" stroke-linecap="round" stroke-linejoin="round"/>
<path d="M13.9925 45L6 45C7.5 57 15 64.5 24 66" stroke="#141B34" stroke-width="3" stroke-linecap="round" stroke-linejoin="round"/>
</svg>
