<svg width="72" height="72" viewBox="0 0 72 72" fill="none" xmlns="http://www.w3.org/2000/svg">
<path d="M21 33H22.875C28.1417 33 30.7751 33 32.6668 31.736C33.4857 31.1888 34.1888 30.4857 34.736 29.6668C36 27.7751 36 25.1417 36 19.875C36 16.715 36 15.1349 35.2416 13.9999C34.9133 13.5086 34.4914 13.0867 34.0001 12.7584C32.8651 12 31.285 12 28.125 12H23.1418C22.7086 12 22.492 12 22.293 11.9708C21.5482 11.8614 20.8822 11.4521 20.4528 10.8398C20.3381 10.6762 20.242 10.4841 20.0498 10.0997C19.2627 8.52536 18.5433 6.94067 16.7989 6.28651C16.0348 6 15.162 6 13.4164 6C10.6917 6 9.32934 6 8.30709 6.57048C7.5784 6.97713 6.97713 7.5784 6.57047 8.30709C6 9.32934 6 10.6917 6 13.4164V18C6 25.0711 6 28.6066 8.1967 30.8033C10.3934 33 13.9289 33 21 33Z" stroke="#141B34" stroke-width="3" stroke-linecap="round"/>
<path d="M59.0732 46.733L61.1849 50.9914C61.4729 51.5842 62.2408 52.1528 62.8887 52.2617L66.7163 52.9029C69.164 53.3142 69.74 55.1047 67.9762 56.871L65.0005 59.8713C64.4966 60.3794 64.2206 61.3593 64.3766 62.061L65.2285 65.775C65.9004 68.7148 64.3526 69.852 61.7729 68.3155L58.1853 66.1742C57.5373 65.7871 56.4695 65.7871 55.8095 66.1742L52.2219 68.3155C49.6542 69.852 48.0944 68.7027 48.7663 65.775L49.6182 62.061C49.7742 61.3593 49.4982 60.3794 48.9943 59.8713L46.0186 56.871C44.2668 55.1047 44.8307 53.3142 47.2785 52.9029L51.106 52.2617C51.742 52.1528 52.5099 51.5842 52.7979 50.9914L54.9096 46.733C56.0615 44.4223 57.9333 44.4223 59.0732 46.733Z" stroke="#141B34" stroke-width="3" stroke-linecap="round" stroke-linejoin="round"/>
<path d="M58.0075 27H66C64.5 15 57 7.5 48 6" stroke="#141B34" stroke-width="3" stroke-linecap="round" stroke-linejoin="round"/>
<path d="M13.9925 45L6 45C7.5 57 15 64.5 24 66" stroke="#141B34" stroke-width="3" stroke-linecap="round" stroke-linejoin="round"/>
</svg>
