<svg width="24" height="24" viewBox="0 0 24 24" fill="none" xmlns="http://www.w3.org/2000/svg">
<path d="M2 19.5C2 18.3215 2 17.7322 2.43934 17.3661C2.87868 17 3.58579 17 5 17C6.41421 17 7.12132 17 7.56066 17.3661C8 17.7322 8 18.3215 8 19.5C8 20.6785 8 21.2678 7.56066 21.6339C7.12132 22 6.41421 22 5 22C3.58579 22 2.87868 22 2.43934 21.6339C2 21.2678 2 20.6785 2 19.5Z" stroke="#141B34" stroke-width="1.5"/>
<path d="M16 19.5C16 18.3215 16 17.7322 16.4393 17.3661C16.8787 17 17.5858 17 19 17C20.4142 17 21.1213 17 21.5607 17.3661C22 17.7322 22 18.3215 22 19.5C22 20.6785 22 21.2678 21.5607 21.6339C21.1213 22 20.4142 22 19 22C17.5858 22 16.8787 22 16.4393 21.6339C16 21.2678 16 20.6785 16 19.5Z" stroke="#141B34" stroke-width="1.5"/>
<path d="M19 17C19 14.518 18.2562 14 14.6923 14H9.30769C5.74379 14 5 14.518 5 17" stroke="#141B34" stroke-width="1.5" stroke-linecap="round" stroke-linejoin="round"/>
<path d="M8 6.39353H8.16179C8.97315 6.39353 9.37883 6.39353 9.68856 6.56772C9.99828 6.7419 10.1375 7.04836 10.416 7.66128L10.7525 8.40185C10.9355 8.80463 11.027 9.00602 11.1746 8.99976C11.3223 8.9935 11.3869 8.78549 11.5162 8.36946L12.6732 4.64732C12.8063 4.21926 12.8728 4.00523 13.0219 4C13.171 3.99477 13.2605 4.20332 13.4394 4.62043L13.642 5.0928C13.9115 5.72097 14.0462 6.03506 14.3589 6.2143C14.6715 6.39353 15.0846 6.39353 15.9108 6.39353H16" stroke="#141B34" stroke-width="1.5" stroke-linecap="round" stroke-linejoin="round"/>
</svg>
