<svg width="24" height="24" viewBox="0 0 24 24" fill="none" xmlns="http://www.w3.org/2000/svg">
<path d="M21 21H10C6.70017 21 5.05025 21 4.02513 19.9749C3 18.9497 3 17.2998 3 14V3" stroke="#141B34" stroke-width="1.5" stroke-linecap="round"/>
<path d="M6.00012 4.47776C7.14896 3.54314 8.52099 3 9.99469 3C11.473 3 12.8491 3.54657 14.0001 4.48661M12.1744 7C11.5183 6.59087 10.778 6.36068 9.99469 6.36068C9.21528 6.36068 8.47853 6.58856 7.82489 6.99385" stroke="#141B34" stroke-width="1.5" stroke-linecap="round"/>
<path d="M10.0001 10H10.0065" stroke="#141B34" stroke-width="1.5" stroke-linecap="round" stroke-linejoin="round"/>
<path d="M5 20C6.07093 18.053 7.52279 13.0189 10.3063 13.0189C12.2301 13.0189 12.7283 15.4717 14.6136 15.4717C17.8572 15.4717 17.387 10 21 10" stroke="#141B34" stroke-width="1.5" stroke-linecap="round" stroke-linejoin="round"/>
</svg>
