<svg width="72" height="72" viewBox="0 0 72 72" fill="none" xmlns="http://www.w3.org/2000/svg">
<path d="M21 33H22.875C28.1417 33 30.7751 33 32.6668 31.736C33.4857 31.1888 34.1888 30.4857 34.736 29.6668C36 27.7751 36 25.1417 36 19.875C36 16.715 36 15.1349 35.2416 13.9999C34.9133 13.5086 34.4914 13.0867 34.0001 12.7584C32.8651 12 31.285 12 28.125 12H23.1418C22.7086 12 22.492 12 22.293 11.9708C21.5482 11.8614 20.8822 11.4521 20.4528 10.8398C20.3381 10.6762 20.242 10.4841 20.0498 10.0997C19.2627 8.52536 18.5433 6.94067 16.7989 6.28651C16.0348 6 15.162 6 13.4164 6C10.6917 6 9.32934 6 8.30709 6.57048C7.5784 6.97713 6.97713 7.5784 6.57047 8.30709C6 9.32934 6 10.6917 6 13.4164V18C6 25.0711 6 28.6066 8.1967 30.8033C10.3934 33 13.9289 33 21 33Z" stroke="#141B34" stroke-width="3" stroke-linecap="round"/>
<path d="M39 52.1806H39.4854C41.9195 52.1806 43.1365 52.1806 44.0657 52.7032C44.9949 53.2257 45.4126 54.1451 46.248 55.9838L47.2574 58.2056C47.8064 59.4139 48.0809 60.0181 48.5239 59.9993C48.9668 59.9805 49.1608 59.3565 49.5487 58.1084L53.0197 46.942C53.4188 45.6578 53.6184 45.0157 54.0658 45C54.5131 44.9843 54.7815 45.61 55.3182 46.8613L55.9261 48.2784C56.7345 50.1629 57.1387 51.1052 58.0766 51.6429C59.0145 52.1806 60.2538 52.1806 62.7324 52.1806H63" stroke="#141B34" stroke-width="3" stroke-linecap="round" stroke-linejoin="round"/>
<path d="M58.0075 27H66C64.5 15 57 7.5 48 6" stroke="#141B34" stroke-width="3" stroke-linecap="round" stroke-linejoin="round"/>
<path d="M13.9925 45L6 45C7.5 57 15 64.5 24 66" stroke="#141B34" stroke-width="3" stroke-linecap="round" stroke-linejoin="round"/>
</svg>
