<svg width="72" height="72" viewBox="0 0 72 72" fill="none" xmlns="http://www.w3.org/2000/svg">
<path d="M63 63H30C20.1005 63 15.1508 63 12.0754 59.9246C9 56.8492 9 51.8995 9 42V9" stroke="#141B34" stroke-width="3" stroke-linecap="round"/>
<path d="M33.7606 30V28.8141L33.7606 28.7889C33.7667 28.1348 34.2958 27.6061 34.9503 27.6001L35.0392 27.5999C36.7346 27.5862 38.191 26.3931 38.5369 24.7344L38.5495 24.6721L39.1643 21.6L40.279 21.043C40.8755 20.745 41.1738 20.596 41.2383 20.3227C41.3029 20.0495 41.1028 19.7829 40.7026 19.2497L38.4438 16.24C38.219 15.9405 38.1066 15.7907 38.0464 15.6323C37.9862 15.4738 37.9677 15.2493 37.9306 14.8002C37.5239 9.8725 33.3929 6 28.3569 6C23.0513 6 18.7502 10.2981 18.7502 15.6C18.7502 18.8996 20.4161 21.8104 22.9531 23.5384M22.9531 23.5384V30M22.9531 23.5384C23.6872 24.0383 24.4941 24.4393 25.3548 24.7219" stroke="#141B34" stroke-width="3" stroke-linecap="round" stroke-linejoin="round"/>
<path d="M15 60C18.2128 54.1591 22.5684 39.0566 30.9188 39.0566C36.6903 39.0566 38.185 46.4151 43.8409 46.4151C53.5717 46.4151 52.1611 30 63 30" stroke="#141B34" stroke-width="3" stroke-linecap="round" stroke-linejoin="round"/>
</svg>
