<svg width="72" height="72" viewBox="0 0 72 72" fill="none" xmlns="http://www.w3.org/2000/svg">
<path d="M63 63H30C20.1005 63 15.1508 63 12.0754 59.9246C9 56.8492 9 51.8995 9 42V9" stroke="#141B34" stroke-width="3" stroke-linecap="round"/>
<path d="M18.0002 19.1806H18.4856C20.9197 19.1806 22.1367 19.1806 23.0659 19.7032C23.9951 20.2257 24.4128 21.1451 25.2482 22.9838L26.2577 25.2056C26.8067 26.4139 27.0812 27.0181 27.5241 26.9993C27.967 26.9805 28.161 26.3565 28.549 25.1084L32.0199 13.942C32.4191 12.6578 32.6187 12.0157 33.066 12C33.5133 11.9843 33.7817 12.61 34.3185 13.8613L34.9264 15.2784C35.7347 17.1629 36.1389 18.1052 37.0768 18.6429C38.0147 19.1806 39.254 19.1806 41.7327 19.1806H42.0002" stroke="#141B34" stroke-width="3" stroke-linecap="round" stroke-linejoin="round"/>
<path d="M15 60C18.2128 54.1591 22.5684 39.0566 30.9188 39.0566C36.6903 39.0566 38.185 46.4151 43.8409 46.4151C53.5717 46.4151 52.1611 30 63 30" stroke="#141B34" stroke-width="3" stroke-linecap="round" stroke-linejoin="round"/>
</svg>
