<svg width="72" height="72" viewBox="0 0 72 72" fill="none" xmlns="http://www.w3.org/2000/svg">
<path d="M6 33C12.9951 25.6735 22.9297 25.3285 30 33M25.4853 13.5C25.4853 17.6421 22.1226 21 17.9746 21C13.8266 21 10.4639 17.6421 10.4639 13.5C10.4639 9.35786 13.8266 6 17.9746 6C22.1226 6 25.4853 9.35786 25.4853 13.5Z" stroke="#141B34" stroke-width="3" stroke-linecap="round"/>
<path d="M42 66C48.9951 58.6735 58.9297 58.3285 66 66M61.4853 46.5C61.4853 50.6421 58.1226 54 53.9746 54C49.8266 54 46.4639 50.6421 46.4639 46.5C46.4639 42.3579 49.8266 39 53.9746 39C58.1226 39 61.4853 42.3579 61.4853 46.5Z" stroke="#141B34" stroke-width="3" stroke-linecap="round"/>
<path d="M9 42C9 53.61 18.39 63 30 63L27 57" stroke="#141B34" stroke-width="3" stroke-linecap="round" stroke-linejoin="round"/>
<path d="M45 9H63M45 18H63M45 27H55.5" stroke="#141B34" stroke-width="3" stroke-linecap="round" stroke-linejoin="round"/>
</svg>
