<svg width="72" height="72" viewBox="0 0 72 72" fill="none" xmlns="http://www.w3.org/2000/svg">
<path d="M38.1 9H33.9C30.4568 9 28.7352 9 27.5149 9.76295C27.0634 10.0452 26.6706 10.3959 26.3545 10.799C25.5 11.8886 25.5 13.4257 25.5 16.5C25.5 19.5743 25.5 21.1114 26.3545 22.201C26.6706 22.6041 27.0634 22.9548 27.5149 23.237C28.7352 24 30.4568 24 33.9 24H38.1C41.5432 24 43.2648 24 44.4851 23.237C44.9366 22.9548 45.3293 22.6041 45.6455 22.201C46.5 21.1114 46.5 19.5743 46.5 16.5C46.5 13.4257 46.5 11.8886 45.6455 10.799C45.3293 10.3959 44.9366 10.0452 44.4851 9.76295C43.2648 9 41.5432 9 38.1 9Z" stroke="#141B34" stroke-width="3" stroke-linecap="round"/>
<path d="M38.625 30.0003L38.2937 29.5605C37.5469 28.569 37.3618 27.0544 37.8341 25.8003M33.375 30.0003L33.7063 29.5605C34.4531 28.569 34.6382 27.0544 34.1659 25.8003" stroke="#141B34" stroke-width="3" stroke-linecap="round"/>
<path d="M30.75 30H41.25" stroke="#141B34" stroke-width="3" stroke-linecap="round"/>
<path d="M59.1 45H54.9C51.4568 45 49.7352 45 48.5149 45.763C48.0634 46.0452 47.6706 46.3959 47.3545 46.799C46.5 47.8886 46.5 49.4257 46.5 52.5C46.5 55.5743 46.5 57.1114 47.3545 58.201C47.6706 58.6041 48.0634 58.9548 48.5149 59.237C49.7352 60 51.4568 60 54.9 60H59.1C62.5432 60 64.2648 60 65.4851 59.237C65.9366 58.9548 66.3293 58.6041 66.6455 58.201C67.5 57.1114 67.5 55.5743 67.5 52.5C67.5 49.4257 67.5 47.8886 66.6455 46.799C66.3293 46.3959 65.9366 46.0452 65.4851 45.763C64.2648 45 62.5432 45 59.1 45Z" stroke="#141B34" stroke-width="3" stroke-linecap="round"/>
<path d="M59.625 66.0003L59.2937 65.5605C58.5469 64.569 58.3618 63.0544 58.8341 61.8003M54.375 66.0003L54.7063 65.5605C55.4531 64.569 55.6382 63.0544 55.1659 61.8003" stroke="#141B34" stroke-width="3" stroke-linecap="round"/>
<path d="M51.75 66H62.25" stroke="#141B34" stroke-width="3" stroke-linecap="round"/>
<path d="M17.1 45H12.9C9.45681 45 7.73521 45 6.51485 45.763C6.06335 46.0452 5.67065 46.3959 5.35451 46.799C4.5 47.8886 4.5 49.4257 4.5 52.5C4.5 55.5743 4.5 57.1114 5.35451 58.201C5.67065 58.6041 6.06335 58.9548 6.51485 59.237C7.73521 60 9.45681 60 12.9 60H17.1C20.5432 60 22.2648 60 23.4851 59.237C23.9366 58.9548 24.3293 58.6041 24.6455 58.201C25.5 57.1114 25.5 55.5743 25.5 52.5C25.5 49.4257 25.5 47.8886 24.6455 46.799C24.3293 46.3959 23.9366 46.0452 23.4851 45.763C22.2648 45 20.5432 45 17.1 45Z" stroke="#141B34" stroke-width="3" stroke-linecap="round"/>
<path d="M17.625 66.0003L17.2937 65.5605C16.5469 64.569 16.3618 63.0544 16.8341 61.8003M12.375 66.0003L12.7063 65.5605C13.4531 64.569 13.6382 63.0544 13.1659 61.8003" stroke="#141B34" stroke-width="3" stroke-linecap="round"/>
<path d="M9.75 66H20.25" stroke="#141B34" stroke-width="3" stroke-linecap="round"/>
<path d="M36 36V42M36 42L40.5 46.5M36 42L31.5 46.5" stroke="#141B34" stroke-width="3" stroke-linecap="round" stroke-linejoin="round"/>
</svg>
