<svg width="72" height="72" viewBox="0 0 72 72" fill="none" xmlns="http://www.w3.org/2000/svg">
<path d="M6 58.5C6 54.9645 6 53.1967 7.31802 52.0983C8.63604 51 10.7574 51 15 51C19.2426 51 21.364 51 22.682 52.0983C24 53.1967 24 54.9645 24 58.5C24 62.0355 24 63.8033 22.682 64.9017C21.364 66 19.2426 66 15 66C10.7574 66 8.63604 66 7.31802 64.9017C6 63.8033 6 62.0355 6 58.5Z" stroke="#141B34" stroke-width="3"/>
<path d="M48 58.5C48 54.9645 48 53.1967 49.318 52.0983C50.636 51 52.7574 51 57 51C61.2426 51 63.364 51 64.682 52.0983C66 53.1967 66 54.9645 66 58.5C66 62.0355 66 63.8033 64.682 64.9017C63.364 66 61.2426 66 57 66C52.7574 66 50.636 66 49.318 64.9017C48 63.8033 48 62.0355 48 58.5Z" stroke="#141B34" stroke-width="3"/>
<path d="M57 51C57 43.554 54.7686 42 44.0769 42H27.9231C17.2314 42 15 43.554 15 51" stroke="#141B34" stroke-width="3" stroke-linecap="round" stroke-linejoin="round"/>
<path d="M24 19.1806H24.4854C26.9195 19.1806 28.1365 19.1806 29.0657 19.7032C29.9949 20.2257 30.4126 21.1451 31.248 22.9838L32.2574 25.2056C32.8064 26.4139 33.0809 27.0181 33.5239 26.9993C33.9668 26.9805 34.1608 26.3565 34.5487 25.1084L38.0197 13.942C38.4188 12.6578 38.6184 12.0157 39.0658 12C39.5131 11.9843 39.7815 12.61 40.3182 13.8613L40.9261 15.2784C41.7345 17.1629 42.1387 18.1052 43.0766 18.6429C44.0145 19.1806 45.2538 19.1806 47.7324 19.1806H48" stroke="#141B34" stroke-width="3" stroke-linecap="round" stroke-linejoin="round"/>
</svg>
