<svg width="72" height="72" viewBox="0 0 72 72" fill="none" xmlns="http://www.w3.org/2000/svg">
<path d="M63 63H30C20.1005 63 15.1508 63 12.0754 59.9246C9 56.8492 9 51.8995 9 42V9" stroke="#141B34" stroke-width="3" stroke-linecap="round"/>
<path d="M18.0002 13.4333C21.4467 10.6294 25.5629 9 29.9839 9C34.419 9 38.5471 10.6397 42.0002 13.4598M36.523 21C34.5547 19.7726 32.334 19.082 29.9839 19.082C27.6457 19.082 25.4355 19.7657 23.4746 20.9815" stroke="#141B34" stroke-width="3" stroke-linecap="round"/>
<path d="M30.0002 30H30.0193" stroke="#141B34" stroke-width="3" stroke-linecap="round" stroke-linejoin="round"/>
<path d="M15 60C18.2128 54.1591 22.5684 39.0566 30.9188 39.0566C36.6903 39.0566 38.185 46.4151 43.8409 46.4151C53.5717 46.4151 52.1611 30 63 30" stroke="#141B34" stroke-width="3" stroke-linecap="round" stroke-linejoin="round"/>
</svg>
