<svg width="24" height="24" viewBox="0 0 24 24" fill="none" xmlns="http://www.w3.org/2000/svg">
<path d="M18.3787 21.25H3.81067L7.53038 17.5303L7.03041 17.0304L7.53038 17.5303L12 13.0607L16.4697 17.5303L18.909 19.9697C19.3815 20.4421 19.0469 21.25 18.3787 21.25ZM12.1768 12.8839C12.1767 12.884 12.1765 12.8842 12.1764 12.8843L12.1768 12.8839ZM11.8237 12.8843C11.8235 12.8842 11.8234 12.884 11.8233 12.8839L11.8237 12.8843ZM17.909 4.03033L2.75007 19.1894V12.4142C2.75007 12.3479 2.77641 12.2843 2.82329 12.2374L12.3107 2.75H17.3787C18.0469 2.75 18.3815 3.55785 17.909 4.03033ZM2.75007 9.18936V3.5C2.75007 3.08579 3.08585 2.75 3.50007 2.75H9.18935L2.75007 9.18936Z" stroke="#141B34" stroke-width="1.5" stroke-linecap="round" stroke-linejoin="round"/>
</svg>
