<svg width="72" height="72" viewBox="0 0 72 72" fill="none" xmlns="http://www.w3.org/2000/svg">
<path d="M6 60C6 57.1716 6 55.7574 6.87868 54.8787C7.75736 54 9.17157 54 12 54H15C17.8284 54 19.2426 54 20.1213 54.8787C21 55.7574 21 57.1716 21 60C21 62.8284 21 64.2426 20.1213 65.1213C19.2426 66 17.8284 66 15 66H12C9.17157 66 7.75736 66 6.87868 65.1213C6 64.2426 6 62.8284 6 60Z" stroke="#141B34" stroke-width="3"/>
<path d="M51 60C51 57.1716 51 55.7574 51.8787 54.8787C52.7574 54 54.1716 54 57 54H60C62.8284 54 64.2426 54 65.1213 54.8787C66 55.7574 66 57.1716 66 60C66 62.8284 66 64.2426 65.1213 65.1213C64.2426 66 62.8284 66 60 66H57C54.1716 66 52.7574 66 51.8787 65.1213C51 64.2426 51 62.8284 51 60Z" stroke="#141B34" stroke-width="3"/>
<path d="M58.5 52.5C58.5 42.572 56.5575 40.5 47.25 40.5H43.5M13.5 52.5C13.5 42.572 15.4425 40.5 24.75 40.5H28.5M36 21V33" stroke="#141B34" stroke-width="3" stroke-linecap="round" stroke-linejoin="round"/>
<path d="M30 6H42C47.4456 6 48 8.77482 48 13.5C48 18.2252 47.4456 21 42 21H30C24.5544 21 24 18.2252 24 13.5C24 8.77482 24.5544 6 30 6Z" stroke="#141B34" stroke-width="3"/>
<path d="M43.5 40.5C43.5 44.6421 40.1421 48 36 48C31.8579 48 28.5 44.6421 28.5 40.5C28.5 36.3579 31.8579 33 36 33C40.1421 33 43.5 36.3579 43.5 40.5Z" stroke="#141B34" stroke-width="3"/>
</svg>
