<svg width="24" height="24" viewBox="0 0 24 24" fill="none" xmlns="http://www.w3.org/2000/svg">
<path d="M5 6C5.08715 4.58055 5.32629 3.67665 5.98247 3.02513C7.01491 2 8.67661 2 12 2C15.3234 2 16.9851 2 18.0175 3.02513C18.6737 3.67665 18.9128 4.58055 19 6M19 18C18.9128 19.4194 18.6737 20.3233 18.0175 20.9749C16.9851 22 15.3234 22 12 22C8.67661 22 7.01491 22 5.98247 20.9749C5.32629 20.3233 5.08715 19.4194 5 18" stroke="#141B34" stroke-width="1.5" stroke-linecap="round"/>
<path d="M11 19H13" stroke="#141B34" stroke-width="1.5" stroke-linecap="round" stroke-linejoin="round"/>
<path d="M19 9L20.5332 10.5858C21.1777 11.2525 21.5 11.5858 21.5 12C21.5 12.4142 21.1777 12.7475 20.5332 13.4142L19 15" stroke="#141B34" stroke-width="1.5" stroke-linecap="round" stroke-linejoin="round"/>
<path d="M5 9L3.46682 10.5858C2.82228 11.2525 2.5 11.5858 2.5 12C2.5 12.4142 2.82227 12.7475 3.46682 13.4142L5 15" stroke="#141B34" stroke-width="1.5" stroke-linecap="round" stroke-linejoin="round"/>
<path d="M16.1436 9.9532C15.8388 10.2783 15.2606 10.1887 15.2606 10.1887C15.2606 10.1887 15.1766 9.57191 15.4814 9.2468C15.7862 8.92168 16.3644 9.01133 16.3644 9.01133C16.3644 9.01133 16.4484 9.62809 16.1436 9.9532Z" stroke="#141B34" stroke-width="1.25" stroke-linejoin="round"/>
<path d="M13 12.6176C13 13.6021 13.6178 14.7329 14.2428 14.9719C14.4595 15.0547 14.6835 14.9404 14.8697 14.798C15.011 14.69 15.1821 14.5869 15.3202 14.5869C15.4584 14.5869 15.6294 14.69 15.7707 14.798C15.9569 14.9404 16.1809 15.0547 16.3976 14.9719C16.8418 14.8021 17.2822 14.182 17.5 13.484C17.0783 13.3552 16.7704 12.9482 16.7704 12.4661C16.7704 12.0244 17.0289 11.6458 17.3964 11.4864C17.1596 11.0377 16.7726 10.7998 16.3353 10.7998C16.1091 10.7998 15.9012 10.8971 15.7333 11.0137C15.4652 11.1997 15.1752 11.1997 14.9072 11.0137C14.7392 10.8971 14.5313 10.7998 14.3051 10.7998C13.5843 10.7998 13 11.4463 13 12.6176Z" stroke="#141B34" stroke-width="1.25" stroke-linejoin="round"/>
<path d="M7.20312 11.2501C7.20312 10.3388 7.89568 9.6001 8.75 9.6001C9.60432 9.6001 10.2969 10.3388 10.2969 11.2501V13.2001C10.2969 13.6244 10.2969 13.8365 10.1733 13.9683C10.0497 14.1001 9.85087 14.1001 9.45312 14.1001H8.04687C7.64913 14.1001 7.45025 14.1001 7.32669 13.9683C7.20312 13.8365 7.20312 13.6244 7.20312 13.2001V11.2501Z" stroke="#141B34" stroke-width="1.25"/>
<path d="M11 11.7002V13.5002" stroke="#141B34" stroke-width="1.25" stroke-linecap="round" stroke-linejoin="round"/>
<path d="M9.59375 14.1001V15.0001" stroke="#141B34" stroke-width="1.25" stroke-linecap="round" stroke-linejoin="round"/>
<path d="M7.90625 14.1001V15.0001" stroke="#141B34" stroke-width="1.25" stroke-linecap="round" stroke-linejoin="round"/>
<path d="M6.5 11.6997L6.5 13.4997" stroke="#141B34" stroke-width="1.25" stroke-linecap="round" stroke-linejoin="round"/>
<path d="M8.1875 9.6L7.76562 9M9.3125 9.6L9.73438 9" stroke="#141B34" stroke-width="1.25" stroke-linecap="round" stroke-linejoin="round"/>
<path d="M7.20312 11.3999H10.2969" stroke="#141B34" stroke-width="1.25" stroke-linecap="round" stroke-linejoin="round"/>
</svg>
