<svg width="24" height="24" viewBox="0 0 24 24" fill="none" xmlns="http://www.w3.org/2000/svg">
<path d="M7.75025 7.56659C9.66926 4.5222 10.6288 3 12 3C13.3712 3 14.3307 4.52219 16.2498 7.56658L18.4941 11.1271C21.2362 15.4772 22.6072 17.6522 21.7426 19.3261C20.878 21 18.3834 21 13.3944 21H10.6056C5.61655 21 3.12205 21 2.25742 19.3261C1.3928 17.6522 2.76382 15.4772 5.50587 11.1271L7.75025 7.56659Z" stroke="#141B34" stroke-width="1.5" stroke-linejoin="round"/>
<path d="M3.5 15H8M7 9H17" stroke="#141B34" stroke-width="1.5" stroke-linecap="round" stroke-linejoin="round"/>
<path d="M11 15.3333C11 16.2538 11.7835 17 12.75 17H16.425C17.2948 17 18 16.3284 18 15.5C18 14.6716 17.287 14 16.4172 14C16.5142 12.9745 15.651 12 14.5 12C13.4931 12 12.6668 12.7362 12.5821 13.6742C11.6944 13.7547 11 14.4668 11 15.3333Z" stroke="#141B34" stroke-width="1.5" stroke-linecap="round" stroke-linejoin="round"/>
</svg>
