<svg width="72" height="72" viewBox="0 0 72 72" fill="none" xmlns="http://www.w3.org/2000/svg">
<path d="M30 30C30 33.3137 32.6863 36 36 36C39.3137 36 42 33.3137 42 30C42 26.6863 39.3137 24 36 24C32.6863 24 30 26.6863 30 30Z" stroke="#141B34" stroke-width="3"/>
<path d="M54.7361 45C58.0298 40.8912 60 35.6757 60 30C60 16.7452 49.2548 6 36 6C22.7452 6 12 16.7452 12 30C12 35.6757 13.9702 40.8912 17.2639 45" stroke="#141B34" stroke-width="3" stroke-linecap="round"/>
<path d="M9 55.5C9 51.2866 9 49.1799 9.91006 47.6666C10.304 47.0114 10.8103 46.4489 11.3999 46.0112C12.7619 45 14.658 45 18.45 45H53.55C57.342 45 59.2381 45 60.6001 46.0112C61.1897 46.4489 61.696 47.0114 62.0899 47.6666C63 49.1799 63 51.2866 63 55.5C63 59.7134 63 61.8201 62.0899 63.3334C61.696 63.9886 61.1897 64.5511 60.6001 64.9888C59.2381 66 57.342 66 53.55 66H18.45C14.658 66 12.7619 66 11.3999 64.9888C10.8103 64.5511 10.304 63.9886 9.91006 63.3334C9 61.8201 9 59.7134 9 55.5Z" stroke="#141B34" stroke-width="3"/>
<path d="M33 54H39" stroke="#141B34" stroke-width="3" stroke-linecap="round" stroke-linejoin="round"/>
<path d="M47.6711 19.8321L53.7054 13.7979" stroke="#141B34" stroke-width="3" stroke-linecap="round" stroke-linejoin="round"/>
</svg>
