<svg width="72" height="72" viewBox="0 0 72 72" fill="none" xmlns="http://www.w3.org/2000/svg">
<path d="M22.0608 52.0607L21.0323 51.0321L22.0608 52.0607L36.0001 38.1213L49.9394 52.0607L59.818 61.9393C60.763 62.8843 60.0937 64.5 58.7574 64.5H9.62135L22.0608 52.0607ZM36.3537 37.7678C36.3534 37.768 36.3531 37.7683 36.3528 37.7686L36.3537 37.7678ZM35.6474 37.7686C35.6471 37.7683 35.6468 37.768 35.6466 37.7678L35.6474 37.7686ZM56.8181 10.0607L7.50021 59.3788V36.6213L36.6214 7.5H55.7574C57.0937 7.5 57.763 9.11571 56.8181 10.0607ZM7.35376 36.7678L7.35455 36.767L7.35376 36.7678ZM7.50021 29.3787V9C7.50021 8.17157 8.17178 7.5 9.00021 7.5H29.3787L7.50021 29.3787Z" stroke="#141B34" stroke-width="3" stroke-linecap="round" stroke-linejoin="round"/>
</svg>
