<svg width="72" height="72" viewBox="0 0 72 72" fill="none" xmlns="http://www.w3.org/2000/svg">
<path d="M15 18C15.2615 13.7417 15.9789 11.03 17.9474 9.07538C21.0447 6 26.0298 6 36 6C45.9702 6 50.9553 6 54.0526 9.07538C56.0211 11.03 56.7385 13.7417 57 18M57 54C56.7385 58.2583 56.0211 60.97 54.0526 62.9246C50.9553 66 45.9702 66 36 66C26.0298 66 21.0447 66 17.9474 62.9246C15.9789 60.97 15.2615 58.2583 15 54" stroke="#141B34" stroke-width="3" stroke-linecap="round"/>
<path d="M33 57H39" stroke="#141B34" stroke-width="3" stroke-linecap="round" stroke-linejoin="round"/>
<path d="M57 27L61.5995 31.7574C63.5332 33.7574 64.5 34.7574 64.5 36C64.5 37.2426 63.5332 38.2426 61.5995 40.2426L57 45" stroke="#141B34" stroke-width="3" stroke-linecap="round" stroke-linejoin="round"/>
<path d="M15 27L10.4005 31.7574C8.46683 33.7574 7.5 34.7574 7.5 36C7.5 37.2426 8.46682 38.2426 10.4005 40.2426L15 45" stroke="#141B34" stroke-width="3" stroke-linecap="round" stroke-linejoin="round"/>
<path d="M48.4309 29.8596C47.5165 30.835 45.7819 30.566 45.7819 30.566C45.7819 30.566 45.5297 28.7157 46.4441 27.7404C47.3585 26.765 49.0931 27.034 49.0931 27.034C49.0931 27.034 49.3453 28.8843 48.4309 29.8596Z" stroke="#141B34" stroke-width="2.5" stroke-linejoin="round"/>
<path d="M39 37.8533C39 40.8068 40.8533 44.1992 42.7284 44.9161C43.3786 45.1646 44.0505 44.8216 44.6092 44.3945C45.033 44.0705 45.5462 43.7612 45.9607 43.7612C46.3751 43.7612 46.8883 44.0705 47.3121 44.3945C47.8708 44.8216 48.5428 45.1646 49.1929 44.9161C50.5253 44.4067 51.8467 42.5464 52.5 40.4525C51.235 40.066 50.3111 38.8452 50.3111 37.3989C50.3111 36.0738 51.0866 34.938 52.1893 34.4597C51.4788 33.1137 50.3177 32.3999 49.0059 32.3999C48.3273 32.3999 47.7036 32.6917 47.1998 33.0415C46.3957 33.5997 45.5256 33.5997 44.7215 33.0415C44.2177 32.6917 43.594 32.3999 42.9154 32.3999C40.753 32.3999 39 34.3395 39 37.8533Z" stroke="#141B34" stroke-width="2.5" stroke-linejoin="round"/>
<path d="M21.6094 33.7503C21.6094 31.0165 23.6871 28.8003 26.25 28.8003C28.8129 28.8003 30.8906 31.0165 30.8906 33.7503V39.6003C30.8906 40.8731 30.8906 41.5095 30.5199 41.9049C30.1492 42.3003 29.5526 42.3003 28.3594 42.3003H24.1406C22.9474 42.3003 22.3508 42.3003 21.9801 41.9049C21.6094 41.5095 21.6094 40.8731 21.6094 39.6003V33.7503Z" stroke="#141B34" stroke-width="2.5"/>
<path d="M33 35.1006V40.5006" stroke="#141B34" stroke-width="2.5" stroke-linecap="round" stroke-linejoin="round"/>
<path d="M28.7812 42.3003V45.0003" stroke="#141B34" stroke-width="2.5" stroke-linecap="round" stroke-linejoin="round"/>
<path d="M23.7188 42.3003V45.0003" stroke="#141B34" stroke-width="2.5" stroke-linecap="round" stroke-linejoin="round"/>
<path d="M19.5 35.1001V40.5001" stroke="#141B34" stroke-width="2.5" stroke-linecap="round" stroke-linejoin="round"/>
<path d="M24.5625 28.8L23.2969 27M27.9375 28.8L29.2031 27" stroke="#141B34" stroke-width="2.5" stroke-linecap="round" stroke-linejoin="round"/>
<path d="M21.6094 34.1997H30.8906" stroke="#141B34" stroke-width="2.5" stroke-linecap="round" stroke-linejoin="round"/>
</svg>
