<svg width="72" height="72" viewBox="0 0 72 72" fill="none" xmlns="http://www.w3.org/2000/svg">
<path d="M7.5 36C7.5 22.565 7.5 15.8475 11.6737 11.6737C15.8475 7.5 22.565 7.5 36 7.5C49.435 7.5 56.1525 7.5 60.3263 11.6737C64.5 15.8475 64.5 22.565 64.5 36C64.5 49.435 64.5 56.1525 60.3263 60.3263C56.1525 64.5 49.435 64.5 36 64.5C22.565 64.5 15.8475 64.5 11.6737 60.3263C7.5 56.1525 7.5 49.435 7.5 36Z" stroke="#141B34" stroke-width="3"/>
<path d="M35.1973 36V48C35.1973 51.3137 32.511 54 29.1973 54C26.9765 54 25.0374 52.7934 24 51" stroke="#141B34" stroke-width="3" stroke-linecap="round"/>
<path d="M55.4004 39C54.363 37.2066 52.424 36 50.2031 36H48.7031C46.2178 36 44.2031 38.0147 44.2031 40.5C44.2031 42.9853 46.2178 45 48.7031 45H51.7031C54.1884 45 56.2031 47.0147 56.2031 49.5C56.2031 51.9853 54.1884 54 51.7031 54H50.2031C47.9823 54 46.0432 52.7934 45.0058 51" stroke="#141B34" stroke-width="3" stroke-linecap="round"/>
</svg>
