<svg width="72" height="72" viewBox="0 0 72 72" fill="none" xmlns="http://www.w3.org/2000/svg">
<path d="M7.5 36C7.5 22.565 7.5 15.8475 11.6737 11.6737C15.8475 7.5 22.565 7.5 36 7.5C49.435 7.5 56.1525 7.5 60.3263 11.6737C64.5 15.8475 64.5 22.565 64.5 36C64.5 49.435 64.5 56.1525 60.3263 60.3263C56.1525 64.5 49.435 64.5 36 64.5C22.565 64.5 15.8475 64.5 11.6737 60.3263C7.5 56.1525 7.5 49.435 7.5 36Z" stroke="#141B34" stroke-width="3"/>
<path d="M15 36V30C15 29.1716 15.6716 28.5 16.5 28.5H20.25C22.3211 28.5 24 30.1789 24 32.25C24 34.3211 22.3211 36 20.25 36H15ZM15 36V43.5" stroke="#141B34" stroke-width="3" stroke-linecap="round" stroke-linejoin="round"/>
<path d="M48 36V30C48 29.1716 48.6716 28.5 49.5 28.5H53.25C55.3211 28.5 57 30.1789 57 32.25C57 34.3211 55.3211 36 53.25 36H48ZM48 36V43.5" stroke="#141B34" stroke-width="3" stroke-linecap="round" stroke-linejoin="round"/>
<path d="M31.5 28.5V36M31.5 43.5V36M40.5 28.5V36M40.5 43.5V36M31.5 36H40.5" stroke="#141B34" stroke-width="3" stroke-linecap="round" stroke-linejoin="round"/>
</svg>
