<svg width="72" height="72" viewBox="0 0 72 72" fill="none" xmlns="http://www.w3.org/2000/svg">
<path d="M23.2507 22.6998C29.0078 13.5666 31.8863 9 36 9C40.1137 9 42.9922 13.5666 48.7493 22.6997L55.4824 33.3814C63.7085 46.4316 67.8216 52.9567 65.2277 57.9783C62.6339 63 55.1503 63 40.1833 63H31.8167C16.8497 63 9.36614 63 6.77227 57.9783C4.1784 52.9567 8.29146 46.4316 16.5176 33.3814L23.2507 22.6998Z" stroke="#141B34" stroke-width="3" stroke-linejoin="round"/>
<path d="M10.5 45H24M21 27H51" stroke="#141B34" stroke-width="3" stroke-linecap="round" stroke-linejoin="round"/>
<path d="M33 46C33 48.7614 35.3505 51 38.25 51H49.275C51.8845 51 54 48.9853 54 46.5C54 44.0147 51.861 42.0001 49.2515 42.0001C49.5426 38.9236 46.9531 36 43.5 36C40.4794 36 38.0004 38.2086 37.7464 41.0227C35.0832 41.2641 33 43.4003 33 46Z" stroke="#141B34" stroke-width="3" stroke-linecap="round" stroke-linejoin="round"/>
</svg>
