<svg width="72" height="72" viewBox="0 0 72 72" fill="none" xmlns="http://www.w3.org/2000/svg">
<path d="M7.5 36C7.5 22.565 7.5 15.8475 11.6737 11.6737C15.8475 7.5 22.565 7.5 36 7.5C49.435 7.5 56.1525 7.5 60.3263 11.6737C64.5 15.8475 64.5 22.565 64.5 36C64.5 49.435 64.5 56.1525 60.3263 60.3263C56.1525 64.5 49.435 64.5 36 64.5C22.565 64.5 15.8475 64.5 11.6737 60.3263C7.5 56.1525 7.5 49.435 7.5 36Z" stroke="#141B34" stroke-width="3"/>
<path d="M7.5 27H64.5" stroke="#141B34" stroke-width="3" stroke-linejoin="round"/>
<path d="M45 36C41.6863 36 39 38.0147 39 40.5C39 42.9853 41.6863 45 45 45C48.3137 45 51 47.0147 51 49.5C51 51.9853 48.3137 54 45 54M45 36C47.6124 36 49.8349 37.2522 50.6586 39M45 36V33M45 54C42.3876 54 40.1651 52.7478 39.3414 51M45 54V57" stroke="#141B34" stroke-width="3" stroke-linecap="round"/>
<path d="M20.9994 18H21.0264" stroke="#141B34" stroke-width="3" stroke-linecap="round" stroke-linejoin="round"/>
<path d="M32.9994 18H33.0264" stroke="#141B34" stroke-width="3" stroke-linecap="round" stroke-linejoin="round"/>
<path d="M27 27V64.5" stroke="#141B34" stroke-width="3" stroke-linecap="round" stroke-linejoin="round"/>
</svg>
