<svg width="24" height="24" viewBox="0 0 24 24" fill="none" xmlns="http://www.w3.org/2000/svg">
<path d="M21 21H10C6.70017 21 5.05025 21 4.02513 19.9749C3 18.9497 3 17.2998 3 14V3" stroke="#141B34" stroke-width="1.5" stroke-linecap="round"/>
<path d="M10.6412 8.6665L9.18053 4.14541C9.0887 3.86116 8.80694 3.6665 8.48735 3.6665C8.16775 3.6665 7.88599 3.86116 7.79416 4.14541L6.3335 8.6665M13.3335 3.6665V8.6665M6.87196 7.1665H10.1027" stroke="#141B34" stroke-width="1.5" stroke-linecap="round" stroke-linejoin="round"/>
<path d="M5 20C6.07093 18.053 7.52279 13.0189 10.3063 13.0189C12.2301 13.0189 12.7283 15.4717 14.6136 15.4717C17.8572 15.4717 17.387 10 21 10" stroke="#141B34" stroke-width="1.5" stroke-linecap="round" stroke-linejoin="round"/>
</svg>
