<svg width="72" height="72" viewBox="0 0 72 72" fill="none" xmlns="http://www.w3.org/2000/svg">
<path d="M60 45V36M12 45V21C12 15.3431 12 12.5147 13.7574 10.7574C15.5147 9 18.3431 9 24 9H34.5" stroke="#141B34" stroke-width="3" stroke-linecap="round" stroke-linejoin="round"/>
<path d="M10.4929 48.0463L12.0586 45H59.8554L61.5069 48.0463C65.8355 56.0309 66.9137 60.0231 65.2684 63.0116C63.6231 66 59.2608 66 50.5362 66L21.4639 66C12.7392 66 8.37694 66 6.73161 63.0116C5.08628 60.0231 6.16423 56.0309 10.4929 48.0463Z" stroke="#141B34" stroke-width="3" stroke-linecap="round" stroke-linejoin="round"/>
<path d="M39 20C39 23.866 42.0221 27 45.75 27H59.925C63.2801 27 66 24.1794 66 20.7C66 17.2206 63.2801 14.4 59.925 14.4C59.8651 14.4 59.925 6 52.5 6C48.6164 6 45.4291 9.09207 45.1026 13.0318C41.6784 13.3697 39 16.3605 39 20Z" stroke="#141B34" stroke-width="3" stroke-linecap="round" stroke-linejoin="round"/>
</svg>
