<svg width="72" height="72" viewBox="0 0 72 72" fill="none" xmlns="http://www.w3.org/2000/svg">
<path d="M18.5244 30.9999C14.9021 32.2225 12.6615 33.9121 12.6615 35.7784C12.6615 38.323 16.8269 40.5391 22.9803 41.691M22.9803 41.691C20.695 42.8473 19.3281 44.3147 19.3281 45.9115C19.3281 49.6423 26.79 52.6668 35.9948 52.6668C38.3651 52.6668 40.6199 52.4663 42.6615 52.1047M22.9803 41.691C25.8489 42.228 29.1495 42.5338 32.6615 42.5338C37.7838 42.5338 42.4564 41.8833 45.9948 40.8136M49.3281 30.3731C45.0931 31.6243 39.1904 32.4007 32.6615 32.4007C19.7748 32.4007 9.32812 29.3762 9.32812 25.6453C9.32812 22.7644 15.5569 20.3047 24.3281 19.3335" stroke="#141B34" stroke-width="3" stroke-linecap="round" stroke-linejoin="round"/>
<path d="M66 57.2098C66 62.0645 52.5685 66 36 66C19.4315 66 6 62.0645 6 57.2098C6 53.7585 11.1219 50.7717 21 49.3333" stroke="#141B34" stroke-width="3" stroke-linecap="round"/>
<path d="M56.2772 26.364C68.9231 23.0831 70.7296 42.7686 52.6641 49.3314" stroke="#141B34" stroke-width="3" stroke-linecap="round" stroke-linejoin="round"/>
<path d="M52.6745 6C50.452 6.37037 46.2738 8.44444 47.3406 13.7778C48.4074 19.1111 46.8966 21.9259 46.0078 22.6667" stroke="#141B34" stroke-width="3" stroke-linecap="round" stroke-linejoin="round"/>
<path d="M39.3385 6C37.1161 6.44444 32.9379 8.93333 34.0047 15.3333C35.0714 21.7333 33.5606 23.4444 32.6719 24.3333" stroke="#141B34" stroke-width="3" stroke-linecap="round" stroke-linejoin="round"/>
</svg>
