<svg width="72" height="72" viewBox="0 0 72 72" fill="none" xmlns="http://www.w3.org/2000/svg">
<path d="M63 63H30C20.1005 63 15.1508 63 12.0754 59.9246C9 56.8492 9 51.8995 9 42V9" stroke="#141B34" stroke-width="3" stroke-linecap="round"/>
<path d="M33.7603 30V28.8141L33.7604 28.7889C33.7664 28.1348 34.2955 27.6061 34.9501 27.6001L35.0389 27.5999C36.7343 27.5862 38.1907 26.3931 38.5366 24.7344L38.5492 24.6721L39.1641 21.6L40.2788 21.043C40.8753 20.745 41.1735 20.596 41.2381 20.3227C41.3026 20.0495 41.1025 19.7829 40.7024 19.2497L38.4436 16.24C38.2188 15.9405 38.1064 15.7907 38.0462 15.6323C37.986 15.4738 37.9674 15.2493 37.9304 14.8002C37.5237 9.8725 33.3927 6 28.3566 6C23.051 6 18.75 10.2981 18.75 15.6C18.75 18.8996 20.4158 21.8104 22.9529 23.5384M22.9529 23.5384V30M22.9529 23.5384C23.6869 24.0383 24.4939 24.4393 25.3545 24.7219" stroke="#141B34" stroke-width="3" stroke-linecap="round" stroke-linejoin="round"/>
<path d="M15 60C18.2128 54.1591 22.5684 39.0566 30.9188 39.0566C36.6903 39.0566 38.185 46.4151 43.8409 46.4151C53.5717 46.4151 52.1611 30 63 30" stroke="#141B34" stroke-width="3" stroke-linecap="round" stroke-linejoin="round"/>
</svg>
