<svg width="24" height="24" viewBox="0 0 24 24" fill="none" xmlns="http://www.w3.org/2000/svg">
<path d="M11 19H13" stroke="#141B34" stroke-width="1.5" stroke-linecap="round" stroke-linejoin="round"/>
<path d="M9 2L9.089 2.53402C9.28188 3.69129 9.37832 4.26993 9.77519 4.62204C10.1892 4.98934 10.7761 5 12 5C13.2239 5 13.8108 4.98934 14.2248 4.62204C14.6217 4.26993 14.7181 3.69129 14.911 2.53402L15 2" stroke="#141B34" stroke-width="1.5" stroke-linejoin="round"/>
<path d="M18.8295 4.75418C19.1276 4.43123 19.2766 4.26976 19.435 4.17557C19.8171 3.9483 20.2876 3.94124 20.6761 4.15693C20.8372 4.24632 20.9908 4.40325 21.298 4.7171C21.6053 5.03096 21.7589 5.18789 21.8464 5.35237C22.0575 5.74925 22.0506 6.22992 21.8281 6.62028C21.7359 6.78206 21.5779 6.93431 21.2617 7.2388L17.5003 10.8617C16.9012 11.4387 16.6016 11.7273 16.2272 11.8735C15.8528 12.0197 15.4413 12.009 14.6181 11.9874L14.5062 11.9845C14.2556 11.978 14.1303 11.9747 14.0574 11.892C13.9846 11.8094 13.9945 11.6817 14.0144 11.4265L14.0252 11.2879C14.0812 10.5694 14.1092 10.2102 14.2495 9.88729C14.3898 9.56438 14.6318 9.30219 15.1158 8.7778L18.8295 4.75418Z" stroke="#141B34" stroke-width="1.5" stroke-linejoin="round"/>
<path d="M8 12H15" stroke="#141B34" stroke-width="1.5" stroke-linecap="round" stroke-linejoin="round"/>
<path d="M19 13.5V14C19 17.2792 19 18.9188 18.2879 20.0811C18.0245 20.5111 17.6972 20.8851 17.321 21.1862C16.304 22 14.8693 22 12 22C9.13067 22 7.69601 22 6.67904 21.1862C6.30279 20.8851 5.97554 20.5111 5.71209 20.0811C5 18.9188 5 17.2792 5 14V10C5 6.72077 5 5.08116 5.71209 3.91891C5.97554 3.48891 6.30279 3.1149 6.67904 2.81382C7.69601 2 9.13067 2 12 2H15" stroke="#141B34" stroke-width="1.5" stroke-linecap="round"/>
</svg>
