<svg width="72" height="72" viewBox="0 0 72 72" fill="none" xmlns="http://www.w3.org/2000/svg">
<path d="M6 58.5C6 54.9645 6 53.1967 7.31802 52.0983C8.63604 51 10.7574 51 15 51C19.2426 51 21.364 51 22.682 52.0983C24 53.1967 24 54.9645 24 58.5C24 62.0355 24 63.8033 22.682 64.9017C21.364 66 19.2426 66 15 66C10.7574 66 8.63604 66 7.31802 64.9017C6 63.8033 6 62.0355 6 58.5Z" stroke="#141B34" stroke-width="3"/>
<path d="M48 58.5C48 54.9645 48 53.1967 49.318 52.0983C50.636 51 52.7574 51 57 51C61.2426 51 63.364 51 64.682 52.0983C66 53.1967 66 54.9645 66 58.5C66 62.0355 66 63.8033 64.682 64.9017C63.364 66 61.2426 66 57 66C52.7574 66 50.636 66 49.318 64.9017C48 63.8033 48 62.0355 48 58.5Z" stroke="#141B34" stroke-width="3"/>
<path d="M57 51C57 41.072 54.7686 39 44.0769 39H27.9231C17.2314 39 15 41.072 15 51" stroke="#141B34" stroke-width="3" stroke-linecap="round" stroke-linejoin="round"/>
<path d="M22.5 23C22.5 26.866 25.5221 30 29.25 30H43.425C46.7801 30 49.5 27.1794 49.5 23.7C49.5 20.2206 46.7499 17.4001 43.3947 17.4001C43.769 13.093 40.4397 9 36 9C32.1164 9 28.9291 12.0921 28.6026 16.0318C25.1784 16.3697 22.5 19.3605 22.5 23Z" stroke="#141B34" stroke-width="3" stroke-linecap="round" stroke-linejoin="round"/>
</svg>
