<svg width="72" height="72" viewBox="0 0 72 72" fill="none" xmlns="http://www.w3.org/2000/svg">
<path d="M21.0005 18.0015C17.3386 18.0124 15.312 18.1 13.6467 18.799C11.3141 19.7781 9.41452 21.5866 8.30481 23.8848C7.39903 25.7606 7.25081 28.164 6.95436 32.9707L6.48983 40.5028C5.75264 52.456 5.38405 58.4326 8.89154 62.2163C12.399 65.9999 18.3081 65.9999 30.1261 65.9999H41.8749C53.6929 65.9999 59.6019 65.9999 63.1094 62.2163C66.6169 58.4326 66.2483 52.456 65.5111 40.5028L65.0466 32.9707C64.7502 28.164 64.6019 25.7606 63.6962 23.8848C62.5865 21.5866 60.6869 19.7781 58.3543 18.799C56.689 18.1 54.6624 18.0124 51.0005 18.0015" stroke="#141B34" stroke-width="3" stroke-linecap="round"/>
<path d="M51.0005 21L48.343 14.3563C47.1964 11.4899 46.1987 8.23831 43.2504 6.77865C41.6777 6 39.7853 6 36.0005 6C32.2157 6 30.3233 6 28.7505 6.77865C25.8023 8.23831 24.8045 11.4899 23.658 14.3563L21.0005 21" stroke="#141B34" stroke-width="3" stroke-linecap="round" stroke-linejoin="round"/>
<path d="M27.0005 36H27.0274M44.9736 36H45.0005M29.9966 48C29.9966 48 32.2432 51 35.9876 51C39.732 51 41.9786 48 41.9786 48" stroke="#141B34" stroke-width="3" stroke-linecap="round" stroke-linejoin="round"/>
</svg>
