<svg width="72" height="72" viewBox="0 0 72 72" fill="none" xmlns="http://www.w3.org/2000/svg">
<path d="M6 37.2C6 28.149 6 23.6235 8.83881 20.8118C11.6776 18 16.2466 18 25.3846 18H28.6154C37.7534 18 42.3224 18 45.1612 20.8118C48 23.6235 48 28.149 48 37.2V46.8C48 55.851 48 60.3765 45.1612 63.1882C42.3224 66 37.7534 66 28.6154 66H25.3846C16.2466 66 11.6776 66 8.83881 63.1882C6 60.3765 6 55.851 6 46.8V37.2Z" stroke="#141B34" stroke-width="3" stroke-linejoin="round"/>
<path d="M46.6128 48H49.3824C57.216 48 61.1328 48 63.5664 45.5397C66 43.0794 66 39.1196 66 31.2V22.8C66 14.8804 66 10.9206 63.5664 8.4603C61.1328 6 57.216 6 49.3824 6H46.6128C38.7792 6 34.8624 6 32.4288 8.4603C30.3007 10.6118 30.0335 13.9099 30 20" stroke="#141B34" stroke-width="3" stroke-linejoin="round"/>
<path d="M18 36H27M18 51H33" stroke="#141B34" stroke-width="3" stroke-linecap="round"/>
<path d="M31.5 9L43.5 19.5" stroke="#141B34" stroke-width="3" stroke-linejoin="round"/>
</svg>
