<svg width="72" height="72" viewBox="0 0 72 72" fill="none" xmlns="http://www.w3.org/2000/svg">
<path d="M6.7626 46.8967C6.86447 45.9271 7.56712 45.1456 8.97241 43.5828L12.0656 40.1247C12.8217 39.1674 13.3582 37.5 13.3582 35.9995C13.3582 34.5 12.8215 32.8321 12.0655 31.875L8.9724 28.4169C7.56711 26.8541 6.86446 26.0727 6.76259 25.103C6.66073 24.1334 7.18559 23.2225 8.23532 21.4007L9.71609 18.8309C10.836 16.8875 11.3959 15.9157 12.3486 15.5282C13.3014 15.1407 14.3789 15.4465 16.5339 16.058L20.1946 17.0891C21.5704 17.4064 23.0138 17.2264 24.2701 16.5809L25.2807 15.9978C26.358 15.3079 27.1866 14.2906 27.6452 13.0948L28.6471 10.1026C29.3058 8.12258 29.6352 7.13255 30.4193 6.56627C31.2034 6 32.245 6 34.328 6H37.6724C39.7554 6 40.797 6 41.5811 6.56627C42.3652 7.13255 42.6946 8.12258 43.3533 10.1026L44.3552 13.0948C44.8138 14.2906 45.6424 15.3079 46.7197 15.9978L47.7303 16.5809C48.9866 17.2264 50.43 17.4064 51.8058 17.0891L55.4665 16.058C57.6215 15.4465 58.699 15.1407 59.6518 15.5282C60.6045 15.9157 61.1644 16.8875 62.2843 18.8309L63.7651 21.4007C64.8148 23.2225 65.3397 24.1334 65.2378 25.103C65.1359 26.0727 64.4333 26.8541 63.028 28.4169L59.9349 31.875C59.1789 32.8321 58.6422 34.5 58.6422 35.9995C58.6422 37.5 59.1787 39.1674 59.9348 40.1247L63.028 43.5828C64.4333 45.1456 65.1359 45.9271 65.2378 46.8967C65.3397 47.8664 64.8148 48.7773 63.7651 50.599L62.2844 53.1687C61.1645 55.1122 60.6045 56.084 59.6518 56.4715C58.699 56.859 57.6215 56.5532 55.4665 55.9416L51.806 54.9105C50.4299 54.5932 48.9862 54.7733 47.7298 55.419L46.7193 56.0021C45.6422 56.6921 44.8138 57.7093 44.3553 58.9049L43.3533 61.8974C42.6946 63.8774 42.3652 64.8675 41.5811 65.4337C40.797 66 39.7554 66 37.6724 66H34.328C32.245 66 31.2034 66 30.4193 65.4337C29.6352 64.8675 29.3058 63.8774 28.6471 61.8974" stroke="#141B34" stroke-width="3" stroke-linecap="round"/>
<path d="M46.4068 46.2849L47.4674 47.3456L46.4068 46.2849ZM48.7496 31.9518L47.2496 31.9454V31.9518H48.7496ZM46.7506 31.1197L47.811 32.1805L47.811 32.1805L46.7506 31.1197ZM41.1804 36.6875L40.1199 35.6266V35.6266L41.1804 36.6875ZM36.0609 36.6872L37.1215 35.6264L36.0609 36.6872ZM26.4656 26.3428L27.5262 27.4036V27.4036L26.4656 26.3428ZM40.8011 24.0006V25.5006L40.8075 25.5005L40.8011 24.0006ZM41.6333 25.9991L42.694 27.0598L42.6941 27.0598L41.6333 25.9991ZM36.0646 31.5683L35.0039 30.5077L35.0039 30.5077L36.0646 31.5683ZM8.45058 56.089L9.51124 57.1497L9.51127 57.1496L8.45058 56.089ZM16.6611 64.2995L17.7218 65.3602L17.7218 65.3601L16.6611 64.2995ZM24.1187 39.5899L25.6187 39.5891L24.1187 39.5899ZM23.5333 41.0055L24.594 42.0661L23.5333 41.0055ZM24.0429 40.388L22.657 39.8143L24.0429 40.388ZM33.1573 48.6314L33.1565 50.1314L33.1573 48.6314ZM31.7415 49.217L30.6808 48.1564L31.7415 49.217ZM32.359 48.7072L31.7853 47.3213L32.359 48.7072ZM33.1565 50.1314C36.4093 50.133 39.2494 50.1353 41.5681 49.825C43.8941 49.5138 45.9528 48.8599 47.4674 47.3456L45.3463 45.2241C44.5165 46.0537 43.2388 46.5747 41.1702 46.8516C39.0943 47.1293 36.4818 47.133 33.158 47.1314L33.1565 50.1314ZM47.4674 47.3456C48.1138 46.6993 48.6839 46.0546 49.1202 45.2537C49.5627 44.4413 49.8205 43.5569 49.9781 42.4742C50.2789 40.4086 50.2496 37.2793 50.2496 31.9518H47.2496C47.2496 37.4381 47.2697 40.2547 47.0094 42.042C46.8866 42.8857 46.7113 43.4044 46.4856 43.8186C46.2537 44.2444 45.9206 44.6499 45.3463 45.2241L47.4674 47.3456ZM50.2496 31.9582C50.2598 29.5709 47.3745 28.3752 45.6902 30.0588L47.811 32.1805C47.7741 32.2175 47.709 32.2557 47.6297 32.2693C47.5587 32.2815 47.4984 32.2707 47.4526 32.2516C47.4068 32.2326 47.3563 32.1972 47.3147 32.1378C47.2682 32.0715 47.2494 31.9979 47.2496 31.9454L50.2496 31.9582ZM45.6902 30.0588L40.1199 35.6266L42.2408 37.7484L47.811 32.1805L45.6902 30.0588ZM40.1199 35.6266C39.2919 36.4543 37.9494 36.4542 37.1215 35.6264L35.0003 37.7479C36.9997 39.747 40.2411 39.7472 42.2408 37.7484L40.1199 35.6266ZM25.6187 39.5891C25.6171 36.2675 25.6208 33.6555 25.8986 31.5797C26.1755 29.5111 26.6967 28.233 27.5262 27.4036L25.4051 25.2821C23.8904 26.7965 23.2365 28.8559 22.9251 31.1817C22.6148 33.5004 22.6171 36.34 22.6188 39.5906L25.6187 39.5891ZM27.5262 27.4036C28.1006 26.8293 28.5061 26.4963 28.9319 26.2644C29.3464 26.0387 29.8652 25.8635 30.7091 25.7406C32.4967 25.4805 35.3139 25.5006 40.8011 25.5006V22.5006C35.4727 22.5006 32.3429 22.4712 30.277 22.7719C29.1942 22.9295 28.3097 23.1873 27.4973 23.6296C26.6963 24.0658 26.0515 24.6358 25.4051 25.2821L27.5262 27.4036ZM40.8075 25.5005C40.7551 25.5008 40.6817 25.482 40.6154 25.4356C40.556 25.394 40.5206 25.3435 40.5015 25.2976C40.4824 25.2517 40.4715 25.1912 40.4838 25.12C40.4974 25.0406 40.5357 24.9755 40.5726 24.9385L42.6941 27.0598C44.3788 25.3749 43.1812 22.4904 40.7946 22.5006L40.8075 25.5005ZM40.5726 24.9385L35.0039 30.5077L37.1253 32.629L42.694 27.0598L40.5726 24.9385ZM35.0039 30.5077C33.0068 32.505 32.9986 35.7465 35.0003 37.7479L37.1215 35.6264C36.2958 34.8009 36.2954 33.4589 37.1253 32.6289L35.0039 30.5077ZM9.51124 63.2389C7.82975 61.5574 7.82975 58.8312 9.51124 57.1497L7.38992 55.0284C4.53686 57.8814 4.53686 62.5071 7.38992 65.3602L9.51124 63.2389ZM15.6004 63.2389C13.919 64.9204 11.1927 64.9204 9.51124 63.2389L7.38992 65.3602C10.243 68.2133 14.8687 68.2133 17.7218 65.3602L15.6004 63.2389ZM30.6808 48.1564L15.6004 63.239L17.7218 65.3601L32.8023 50.2776L30.6808 48.1564ZM9.51127 57.1496L24.594 42.0661L22.4726 39.9448L7.38989 55.0284L9.51127 57.1496ZM22.6188 39.5906C22.6188 39.6962 22.6188 39.7736 22.6179 39.8398C22.6169 39.9056 22.6152 39.9412 22.6137 39.9606C22.6124 39.9786 22.6123 39.967 22.6183 39.9381C22.625 39.9059 22.6371 39.8625 22.657 39.8143L25.4289 40.9617C25.6458 40.4377 25.6189 39.8759 25.6187 39.5891L22.6188 39.5906ZM24.594 42.0661C24.7965 41.8636 25.2121 41.4855 25.4289 40.9617L22.657 39.8143C22.6768 39.7664 22.6989 39.7272 22.717 39.6996C22.7332 39.6749 22.7415 39.6667 22.7298 39.6802C22.7173 39.6948 22.6934 39.7212 22.6477 39.7683C22.6017 39.8156 22.5471 39.8703 22.4726 39.9448L24.594 42.0661ZM33.158 47.1314C32.8712 47.1312 32.3093 47.1043 31.7853 47.3213L32.9328 50.0931C32.8846 50.1131 32.8412 50.1251 32.809 50.1318C32.7801 50.1378 32.7685 50.1378 32.7865 50.1364C32.8059 50.1349 32.8415 50.1332 32.9073 50.1323C32.9735 50.1313 33.0509 50.1313 33.1565 50.1314L33.158 47.1314ZM32.8023 50.2776C32.8768 50.203 32.9315 50.1484 32.9788 50.1024C33.0259 50.0567 33.0523 50.0328 33.0669 50.0203C33.0804 50.0086 33.0722 50.0169 33.0475 50.0331C33.0199 50.0512 32.9807 50.0733 32.9328 50.0931L31.7853 47.3213C31.2614 47.5381 30.8833 47.9538 30.6808 48.1564L32.8023 50.2776Z" fill="#141B34"/>
</svg>
