<svg width="24" height="24" viewBox="0 0 24 24" fill="none" xmlns="http://www.w3.org/2000/svg">
<path d="M2.25428 15.6322C2.28824 15.309 2.52245 15.0485 2.99089 14.5276L4.02195 13.3749C4.27398 13.0558 4.45283 12.5 4.45283 11.9998C4.45283 11.5 4.27392 10.944 4.02192 10.625L2.99088 9.47231C2.52245 8.95137 2.28824 8.6909 2.25428 8.36768C2.22032 8.04446 2.39528 7.74083 2.74519 7.13358L3.23878 6.27698C3.61207 5.62915 3.79872 5.30523 4.11629 5.17607C4.43387 5.0469 4.79304 5.14883 5.51137 5.35267L6.73161 5.69637C7.19021 5.80212 7.67136 5.74213 8.09011 5.52698L8.42699 5.33261C8.78608 5.10262 9.06227 4.76352 9.21515 4.36493L9.54911 3.36754C9.76868 2.70753 9.87847 2.37752 10.1398 2.18876C10.4012 2 10.7484 2 11.4428 2H12.5575C13.2519 2 13.5991 2 13.8604 2.18876C14.1218 2.37752 14.2316 2.70753 14.4512 3.36754L14.7851 4.36493C14.938 4.76352 15.2142 5.10262 15.5733 5.33261L15.9102 5.52698C16.3289 5.74213 16.8101 5.80212 17.2687 5.69637L18.4889 5.35267C19.2073 5.14883 19.5664 5.0469 19.884 5.17607C20.2016 5.30523 20.3882 5.62915 20.7615 6.27698L21.2551 7.13358C21.605 7.74083 21.78 8.04446 21.746 8.36768C21.7121 8.6909 21.4778 8.95137 21.0094 9.47231L19.9784 10.625C19.7264 10.944 19.5475 11.5 19.5475 11.9998C19.5475 12.5 19.7263 13.0558 19.9783 13.3749L21.0094 14.5276C21.4778 15.0485 21.7121 15.309 21.746 15.6322C21.78 15.9555 21.605 16.2591 21.2551 16.8663L20.7615 17.7229C20.3882 18.3707 20.2016 18.6947 19.884 18.8238C19.5664 18.953 19.2072 18.8511 18.4889 18.6472L17.2687 18.3035C16.81 18.1977 16.3288 18.2578 15.91 18.473L15.5732 18.6674C15.2142 18.8974 14.938 19.2364 14.7852 19.635L14.4512 20.6325C14.2316 21.2925 14.1218 21.6225 13.8604 21.8112C13.5991 22 13.2519 22 12.5575 22H11.4428C10.7484 22 10.4012 22 10.1398 21.8112C9.87847 21.6225 9.76868 21.2925 9.54911 20.6325" stroke="#141B34" stroke-width="1.5" stroke-linecap="round"/>
<path d="M15.469 15.4283L15.9993 15.9587L15.9993 15.9587L15.469 15.4283ZM16.2499 10.6506L15.4999 10.6474V10.6506H16.2499ZM15.5836 10.3732L16.1138 10.9037L16.1138 10.9037L15.5836 10.3732ZM13.7269 12.2292L13.1967 11.6987L13.1967 11.6987L13.7269 12.2292ZM12.0204 12.2291L12.5507 11.6987L12.0204 12.2291ZM8.82196 8.78095L9.35225 9.31132L9.35225 9.31132L8.82196 8.78095ZM13.6004 8.00018L13.6004 8.75019L13.6036 8.75018L13.6004 8.00018ZM13.8779 8.66638L14.4082 9.19669L14.4082 9.19668L13.8779 8.66638ZM12.0216 10.5228L11.4913 9.99247L11.4913 9.99248L12.0216 10.5228ZM2.81694 18.6963L3.34727 19.2267L3.34729 19.2267L2.81694 18.6963ZM5.55378 21.4332L6.08411 21.9635L6.08415 21.9635L5.55378 21.4332ZM8.03996 12.6447L7.28996 12.6428L8.03996 12.6447ZM7.45401 14.059L7.98436 14.5893L7.45401 14.059ZM7.96229 13.4437L7.26974 13.1559L7.96229 13.4437ZM11.6045 16.2102L11.6064 16.9602L11.6045 16.2102ZM10.1901 16.7962L9.65969 16.266L10.1901 16.7962ZM10.8054 16.2878L10.5174 15.5953L10.8054 16.2878ZM11.6064 16.9602C12.542 16.9578 13.3881 16.942 14.0978 16.8251C14.8136 16.7072 15.4853 16.4726 15.9993 15.9587L14.9387 14.8979C14.7389 15.0977 14.4207 15.2517 13.854 15.3451C13.281 15.4394 12.5518 15.4578 11.6026 15.4602L11.6064 16.9602ZM15.9993 15.9587C16.2208 15.7372 16.4306 15.5024 16.593 15.2041C16.7586 14.9002 16.8514 14.5749 16.9068 14.1941C17.0105 13.4824 16.9999 12.4132 16.9999 10.6506H15.4999C15.4999 12.4926 15.5059 13.4054 15.4225 13.978C15.3844 14.2393 15.3329 14.3817 15.2758 14.4866C15.2155 14.5973 15.1242 14.7125 14.9387 14.8979L15.9993 15.9587ZM16.9999 10.6538C17.0043 9.63432 15.7723 9.12413 15.0534 9.84277L16.1138 10.9037C15.8877 11.1297 15.4986 10.9702 15.4999 10.6474L16.9999 10.6538ZM15.0534 9.84277L13.1967 11.6987L14.2571 12.7596L16.1138 10.9037L15.0534 9.84277ZM13.1967 11.6987C13.0183 11.877 12.729 11.877 12.5507 11.6987L11.4901 12.7594C12.2542 13.5234 13.4929 13.5235 14.2571 12.7596L13.1967 11.6987ZM8.78995 12.6466C8.79237 11.698 8.8107 10.9689 8.9051 10.396C8.99851 9.82923 9.15247 9.51107 9.35225 9.31132L8.29167 8.25057C7.77766 8.76451 7.54301 9.43638 7.42506 10.1521C7.30812 10.8618 7.29234 11.7078 7.28996 12.6428L8.78995 12.6466ZM9.35225 9.31132C9.53769 9.12591 9.65292 9.03463 9.76362 8.97435C9.86859 8.91719 10.0111 8.86565 10.2725 8.82761C10.8451 8.74425 11.7582 8.75018 13.6004 8.75018L13.6004 7.25018C11.8375 7.25018 10.7682 7.23964 10.0564 7.34325C9.67558 7.39868 9.35028 7.49147 9.0463 7.65699C8.74804 7.81939 8.51315 8.02913 8.29167 8.25057L9.35225 9.31132ZM13.6036 8.75018C13.2814 8.75156 13.121 8.36264 13.3475 8.13608L14.4082 9.19668C15.1274 8.47742 14.6163 7.24583 13.5972 7.25019L13.6036 8.75018ZM13.3475 8.13607L11.4913 9.99247L12.552 11.0531L14.4082 9.19669L13.3475 8.13607ZM11.4913 9.99248C10.7283 10.7555 10.7249 11.9943 11.4901 12.7594L12.5507 11.6987C12.3735 11.5215 12.3726 11.2325 12.552 11.0531L11.4913 9.99248ZM3.34727 20.9029C2.88441 20.44 2.88441 19.6895 3.34727 19.2267L2.28661 18.166C1.23796 19.2147 1.23796 20.9149 2.28661 21.9635L3.34727 20.9029ZM5.02345 20.9029C4.56059 21.3657 3.81014 21.3657 3.34727 20.9029L2.28661 21.9635C3.33526 23.0122 5.03546 23.0122 6.08411 21.9635L5.02345 20.9029ZM9.65969 16.266L5.02341 20.9029L6.08415 21.9635L10.7204 17.3265L9.65969 16.266ZM3.34729 19.2267L7.98436 14.5893L6.92367 13.5287L2.2866 18.166L3.34729 19.2267ZM7.28996 12.6428C7.28941 12.859 7.28861 12.9804 7.28153 13.0714C7.27836 13.112 7.2747 13.1342 7.27231 13.1457C7.27117 13.1511 7.27035 13.1539 7.27004 13.1549C7.26988 13.1555 7.26979 13.1557 7.26977 13.1558C7.26975 13.1558 7.26975 13.1558 7.26974 13.1559L8.65484 13.7316C8.80135 13.3792 8.78906 12.9955 8.78995 12.6466L7.28996 12.6428ZM7.98436 14.5893C8.22935 14.3443 8.5084 14.0839 8.65484 13.7316L7.26974 13.1559C7.26973 13.1559 7.26963 13.1562 7.26915 13.157C7.26864 13.158 7.26721 13.1606 7.26423 13.1651C7.25794 13.1747 7.24497 13.1927 7.21877 13.2232C7.15996 13.2917 7.07547 13.3769 6.92367 13.5287L7.98436 14.5893ZM11.6026 15.4602C11.2537 15.4611 10.8699 15.4488 10.5174 15.5953L11.0933 16.9804C11.0933 16.9804 11.0933 16.9804 11.0933 16.9804C11.0934 16.9803 11.0937 16.9802 11.0942 16.9801C11.0952 16.9798 11.098 16.979 11.1035 16.9778C11.1149 16.9754 11.1372 16.9718 11.1778 16.9686C11.2688 16.9615 11.3902 16.9607 11.6064 16.9602L11.6026 15.4602ZM10.7204 17.3265C10.8722 17.1747 10.9574 17.0902 11.0259 17.0314C11.0564 17.0052 11.0744 16.9922 11.084 16.9859C11.0886 16.9829 11.0911 16.9815 11.0921 16.981C11.093 16.9805 11.0932 16.9804 11.0933 16.9804L10.5174 15.5953C10.1651 15.7418 9.90471 16.0209 9.65969 16.266L10.7204 17.3265Z" fill="#141B34"/>
</svg>
