<svg width="72" height="72" viewBox="0 0 72 72" fill="none" xmlns="http://www.w3.org/2000/svg">
<path d="M48.1393 47.2607C47.5536 46.6749 47.5536 45.7251 48.1393 45.1393C48.7251 44.5536 49.6749 44.5536 50.2607 45.1393L48.1393 47.2607ZM54.6426 40.7574L55.7033 41.818L54.6426 40.7574ZM43.7574 51.6426L44.818 52.7033L43.7574 51.6426ZM47.9638 47.2813C48.5908 47.8228 48.6602 48.77 48.1187 49.397C47.5772 50.0239 46.63 50.0933 46.003 49.5518L47.9638 47.2813ZM20.301 25.3736L19.3206 26.5089L19.3206 26.5089L20.301 25.3736ZM12 9L10.5151 9.21213C10.4483 8.74474 10.6055 8.27319 10.9393 7.93934C11.2732 7.60549 11.7447 7.44831 12.2121 7.51508L12 9ZM28.3736 17.3011L27.2396 18.2829L27.2384 18.2815L28.3736 17.3011ZM52.5814 42.9709C53.1236 43.5972 53.0555 44.5445 52.4291 45.0867C51.8028 45.629 50.8555 45.5608 50.3133 44.9345L52.5814 42.9709ZM22.1098 11.2139L21.3905 12.5302L22.1098 11.2139ZM14.2139 19.1098L12.8977 19.8292V19.8292L14.2139 19.1098ZM24.9804 27.4328C25.6074 27.9743 25.6767 28.9215 25.1353 29.5485C24.5938 30.1754 23.6466 30.2448 23.0196 29.7033L24.9804 27.4328ZM32.7101 20.0182C33.2523 20.6445 33.1841 21.5918 32.5578 22.134C31.9315 22.6763 30.9842 22.6081 30.442 21.9818L32.7101 20.0182ZM40.0608 44.4201C39.4338 43.8786 39.3645 42.9314 39.9059 42.3044C40.4474 41.6774 41.3946 41.6081 42.0216 42.1496L40.0608 44.4201ZM45.6386 39.5349C45.0964 38.9086 45.1645 37.9613 45.7909 37.4191C46.4172 36.8769 47.3645 36.945 47.9067 37.5713L45.6386 39.5349ZM43.5768 55.4984C43.4772 56.3209 42.7297 56.9068 41.9073 56.8071C41.0849 56.7075 40.499 55.96 40.5986 55.1376L43.5768 55.4984ZM58.1376 37.5986C58.96 37.499 59.7075 38.0849 59.8071 38.9073C59.9068 39.7297 59.3209 40.4772 58.4984 40.5768L58.1376 37.5986ZM57.2574 56.3787L48.1393 47.2607L50.2607 45.1393L59.3787 54.2574L57.2574 56.3787ZM59.3787 60.6213C60.5503 61.7929 62.4497 61.7929 63.6213 60.6213L65.7426 62.7426C63.3995 65.0858 59.6005 65.0858 57.2574 62.7426L59.3787 60.6213ZM63.6213 60.6213C64.7929 59.4497 64.7929 57.5503 63.6213 56.3787L65.7426 54.2574C68.0858 56.6005 68.0858 60.3995 65.7426 62.7426L63.6213 60.6213ZM63.6213 56.3787C62.4497 55.2071 60.5503 55.2071 59.3787 56.3787L57.2574 54.2574C59.6005 51.9142 63.3995 51.9142 65.7426 54.2574L63.6213 56.3787ZM59.3787 56.3787C58.2071 57.5503 58.2071 59.4497 59.3787 60.6213L57.2574 62.7426C54.9142 60.3995 54.9142 56.6005 57.2574 54.2574L59.3787 56.3787ZM55.7033 41.818L44.818 52.7033L42.6967 50.582L53.582 39.6967L55.7033 41.818ZM27.2384 18.2815C24.262 14.8351 23.0037 13.4118 21.3905 12.5302L22.8292 9.89769C25.0294 11.1002 26.6759 13.0403 29.5089 16.3206L27.2384 18.2815ZM19.3206 26.5089C16.0403 23.6759 14.1002 22.0294 12.8977 19.8292L15.5302 18.3905C16.4118 20.0037 17.8351 21.262 21.2815 24.2384L19.3206 26.5089ZM12.8977 19.8292C11.9583 18.1104 11.4891 16.23 11.1892 14.4257C11.0388 13.5205 10.9278 12.6125 10.8261 11.7408C10.7232 10.8581 10.631 10.0235 10.5151 9.21213L13.4849 8.78787C13.6079 9.6487 13.7061 10.5375 13.8059 11.3934C13.907 12.2603 14.011 13.106 14.1486 13.9338C14.4248 15.5953 14.8237 17.0977 15.5302 18.3905L12.8977 19.8292ZM12.2121 7.51508C13.0235 7.63099 13.8581 7.7232 14.7408 7.82613C15.6125 7.92778 16.5205 8.03878 17.4257 8.18923C19.23 8.48912 21.1104 8.95833 22.8292 9.89769L21.3905 12.5302C20.0977 11.8237 18.5953 11.4248 16.9338 11.1486C16.106 11.0111 15.2603 10.907 14.3934 10.8059C13.5375 10.7061 12.6487 10.6079 11.7879 10.4849L12.2121 7.51508ZM23.0196 29.7033L19.3206 26.5089L21.2815 24.2384L24.9804 27.4328L23.0196 29.7033ZM29.5077 16.3193L32.7101 20.0182L30.442 21.9818L27.2396 18.2829L29.5077 16.3193ZM46.003 49.5518L40.0608 44.4201L42.0216 42.1496L47.9638 47.2813L46.003 49.5518ZM47.9067 37.5713L52.5814 42.9709L50.3133 44.9345L45.6386 39.5349L47.9067 37.5713ZM44.818 52.7033C44.0568 53.4645 43.714 54.3661 43.5768 55.4984L40.5986 55.1376C40.79 53.558 41.3256 51.953 42.6967 50.582L44.818 52.7033ZM58.4984 40.5768C57.3661 40.714 56.4645 41.0568 55.7033 41.818L53.582 39.6967C54.953 38.3256 56.558 37.79 58.1376 37.5986L58.4984 40.5768Z" fill="#141B34"/>
<path d="M23.8607 47.2607C24.4464 46.6749 24.4464 45.7251 23.8607 45.1393C23.2749 44.5536 22.3251 44.5536 21.7393 45.1393L23.8607 47.2607ZM17.3574 40.7574L16.2967 41.818L17.3574 40.7574ZM28.2426 51.6426L27.182 52.7033L28.2426 51.6426ZM24.0362 47.2813C23.4092 47.8228 23.3398 48.77 23.8813 49.397C24.4228 50.0239 25.37 50.0933 25.997 49.5518L24.0362 47.2813ZM51.699 25.3736L52.6794 26.5089L52.6794 26.5089L51.699 25.3736ZM60 9L61.4849 9.21213C61.5517 8.74474 61.3945 8.27319 61.0607 7.93934C60.7268 7.60549 60.2553 7.44831 59.7879 7.51508L60 9ZM43.6264 17.3011L44.7604 18.2829L44.7616 18.2815L43.6264 17.3011ZM19.4186 42.9709C18.8764 43.5972 18.9445 44.5445 19.5709 45.0867C20.1972 45.629 21.1445 45.5608 21.6867 44.9345L19.4186 42.9709ZM49.8902 11.2139L50.6095 12.5302L49.8902 11.2139ZM57.7861 19.1098L59.1023 19.8292V19.8292L57.7861 19.1098ZM13.8624 37.5986C13.04 37.499 12.2925 38.0849 12.1929 38.9073C12.0932 39.7297 12.6791 40.4772 13.5016 40.5768L13.8624 37.5986ZM28.4232 55.4984C28.5228 56.3209 29.2703 56.9068 30.0927 56.8071C30.9151 56.7075 31.501 55.96 31.4014 55.1376L28.4232 55.4984ZM14.7426 56.3787L23.8607 47.2607L21.7393 45.1393L12.6213 54.2574L14.7426 56.3787ZM12.6213 60.6213C11.4497 61.7929 9.55025 61.7929 8.37868 60.6213L6.25736 62.7426C8.60051 65.0858 12.3995 65.0858 14.7426 62.7426L12.6213 60.6213ZM8.37868 60.6213C7.20711 59.4497 7.20711 57.5503 8.37868 56.3787L6.25736 54.2574C3.91421 56.6005 3.91421 60.3995 6.25736 62.7426L8.37868 60.6213ZM8.37868 56.3787C9.55025 55.2071 11.4497 55.2071 12.6213 56.3787L14.7426 54.2574C12.3995 51.9142 8.60051 51.9142 6.25736 54.2574L8.37868 56.3787ZM12.6213 56.3787C13.7929 57.5503 13.7929 59.4497 12.6213 60.6213L14.7426 62.7426C17.0858 60.3995 17.0858 56.6005 14.7426 54.2574L12.6213 56.3787ZM16.2967 41.818L27.182 52.7033L29.3033 50.582L18.418 39.6967L16.2967 41.818ZM25.997 49.5518L52.6794 26.5089L50.7185 24.2384L24.0362 47.2813L25.997 49.5518ZM42.4923 16.3193L19.4186 42.9709L21.6867 44.9345L44.7604 18.2829L42.4923 16.3193ZM44.7616 18.2815C47.738 14.8351 48.9963 13.4118 50.6095 12.5302L49.1708 9.89769C46.9706 11.1002 45.3241 13.0403 42.4911 16.3206L44.7616 18.2815ZM52.6794 26.5089C55.9597 23.6759 57.8998 22.0294 59.1023 19.8292L56.4698 18.3905C55.5882 20.0037 54.1649 21.262 50.7185 24.2384L52.6794 26.5089ZM59.1023 19.8292C60.0417 18.1104 60.5109 16.23 60.8108 14.4257C60.9612 13.5205 61.0722 12.6125 61.1739 11.7408C61.2768 10.8581 61.369 10.0235 61.4849 9.21213L58.5151 8.78787C58.3921 9.6487 58.2939 10.5375 58.1941 11.3934C58.093 12.2603 57.989 13.106 57.8514 13.9338C57.5752 15.5953 57.1763 17.0977 56.4698 18.3905L59.1023 19.8292ZM59.7879 7.51508C58.9765 7.63099 58.1419 7.7232 57.2592 7.82613C56.3875 7.92778 55.4795 8.03878 54.5743 8.18923C52.77 8.48912 50.8896 8.95833 49.1708 9.89769L50.6095 12.5302C51.9023 11.8237 53.4047 11.4248 55.0662 11.1486C55.894 11.0111 56.7397 10.907 57.6066 10.8059C58.4625 10.7061 59.3513 10.6079 60.2121 10.4849L59.7879 7.51508ZM13.5016 40.5768C14.6339 40.714 15.5355 41.0568 16.2967 41.818L18.418 39.6967C17.047 38.3256 15.442 37.79 13.8624 37.5986L13.5016 40.5768ZM27.182 52.7033C27.9432 53.4645 28.286 54.3661 28.4232 55.4984L31.4014 55.1376C31.21 53.558 30.6744 51.953 29.3033 50.582L27.182 52.7033Z" fill="#141B34"/>
</svg>
