<svg width="24" height="24" viewBox="0 0 24 24" fill="none" xmlns="http://www.w3.org/2000/svg">
<path d="M13 3H11C6.75736 3 4.63604 3 3.31802 4.31802C2 5.63604 2 7.75736 2 12C2 16.2426 2 18.364 3.31802 19.682C4.63604 21 6.75736 21 11 21H13C17.2426 21 19.364 21 20.682 19.682C22 18.364 22 16.2426 22 12C22 7.75736 22 5.63604 20.682 4.31802C19.364 3 17.2426 3 13 3Z" stroke="#141B34" stroke-width="1.5" stroke-linecap="round"/>
<path d="M14 15V13M14 13V11C14 10.5286 14 10.2929 14.1464 10.1464C14.2929 10 14.5286 10 15 10H16.5C17.3284 10 18 10.6716 18 11.5C18 12.3284 17.3284 13 16.5 13M14 13H16.5M16.5 13L17.5 15" stroke="#141B34" stroke-width="1.5" stroke-linecap="round" stroke-linejoin="round"/>
<path d="M6.5 15L6.83193 10.6001C6.86008 10.2268 6.87416 10.0402 6.97797 10.0054C7.08178 9.97056 7.18809 10.1168 7.40071 10.4092L8.24856 11.5754C8.36388 11.734 8.42154 11.8133 8.49844 11.8133C8.57534 11.8133 8.633 11.734 8.74832 11.5754L9.59664 10.4086C9.80909 10.1164 9.91531 9.97027 10.0191 10.005C10.1229 10.0398 10.1371 10.2263 10.1654 10.5992L10.5 15" stroke="#141B34" stroke-width="1.5" stroke-linecap="round"/>
</svg>
