<svg width="72" height="72" viewBox="0 0 72 72" fill="none" xmlns="http://www.w3.org/2000/svg">
<path d="M33 57H39" stroke="#141B34" stroke-width="3" stroke-linecap="round" stroke-linejoin="round"/>
<path d="M27 6L27.267 7.60205C27.8456 11.0739 28.135 12.8098 29.3256 13.8661C30.5675 14.968 32.3284 15 36 15C39.6716 15 41.4325 14.968 42.6744 13.8661C43.865 12.8098 44.1544 11.0739 44.733 7.60205L45 6" stroke="#141B34" stroke-width="3" stroke-linejoin="round"/>
<path d="M56.4884 14.2625C57.3827 13.2937 57.8298 12.8093 58.3049 12.5267C59.4513 11.8449 60.8629 11.8237 62.0284 12.4708C62.5115 12.739 62.9723 13.2097 63.894 14.1513C64.8158 15.0929 65.2766 15.5637 65.5391 16.0571C66.1726 17.2477 66.1518 18.6897 65.4844 19.8608C65.2078 20.3462 64.7336 20.8029 63.7852 21.7164L52.5008 32.5852C50.7035 34.3162 49.8048 35.1818 48.6817 35.6205C47.5585 36.0592 46.3238 36.0269 43.8544 35.9623L43.5185 35.9535C42.7667 35.9339 42.3908 35.924 42.1723 35.6761C41.9538 35.4281 41.9836 35.0452 42.0433 34.2794L42.0757 33.8636C42.2436 31.7083 42.3276 30.6306 42.7484 29.6619C43.1693 28.6931 43.8953 27.9066 45.3473 26.3334L56.4884 14.2625Z" stroke="#141B34" stroke-width="3" stroke-linejoin="round"/>
<path d="M24 36H45" stroke="#141B34" stroke-width="3" stroke-linecap="round" stroke-linejoin="round"/>
<path d="M57 40.5V42C57 51.8377 57 56.7565 54.8637 60.2433C54.0734 61.5333 53.0916 62.6553 51.9629 63.5586C48.912 66 44.608 66 36 66C27.392 66 23.088 66 20.0371 63.5586C18.9084 62.6553 17.9266 61.5333 17.1363 60.2433C15 56.7565 15 51.8377 15 42V30C15 20.1623 15 15.2435 17.1363 11.7567C17.9266 10.4667 18.9084 9.34471 20.0371 8.44145C23.088 6 27.392 6 36 6H45" stroke="#141B34" stroke-width="3" stroke-linecap="round"/>
</svg>
