<svg width="24" height="24" viewBox="0 0 24 24" fill="none" xmlns="http://www.w3.org/2000/svg">
<path d="M7.75025 7.56659C9.66926 4.5222 10.6288 3 12 3C13.3712 3 14.3307 4.52219 16.2498 7.56658L18.4941 11.1271C21.2362 15.4772 22.6072 17.6522 21.7426 19.3261C20.878 21 18.3834 21 13.3944 21H10.6056C5.61655 21 3.12205 21 2.25742 19.3261C1.3928 17.6522 2.76382 15.4772 5.50587 11.1271L7.75025 7.56659Z" stroke="#141B34" stroke-width="1.5" stroke-linejoin="round"/>
<path d="M3.5 15H7M7 9H17" stroke="#141B34" stroke-width="1.5" stroke-linecap="round" stroke-linejoin="round"/>
<path d="M15 17V15.4M15 15.4V13.8C15 13.4229 15 13.2343 15.1098 13.1172C15.2197 13 15.3964 13 15.75 13H16.875C17.4963 13 18 13.5373 18 14.2C18 14.8627 17.4963 15.4 16.875 15.4M15 15.4H16.875M16.875 15.4L17.625 17" stroke="#141B34" stroke-width="1.5" stroke-linecap="round" stroke-linejoin="round"/>
<path d="M9.5 17L9.74894 13.48C9.77006 13.1815 9.78062 13.0322 9.85848 13.0043C9.93633 12.9764 10.0161 13.0934 10.1755 13.3274L10.8114 14.2603C10.8979 14.3872 10.9412 14.4506 10.9988 14.4506C11.0565 14.4506 11.0997 14.3872 11.1862 14.2603L11.8225 13.3269C11.9818 13.0931 12.0615 12.9762 12.1393 13.004C12.2172 13.0319 12.2278 13.181 12.2491 13.4793L12.5 17" stroke="#141B34" stroke-width="1.5" stroke-linecap="round"/>
</svg>
