<svg width="72" height="72" viewBox="0 0 72 72" fill="none" xmlns="http://www.w3.org/2000/svg">
<path d="M15 27C15 17.1005 15 12.1508 18.0754 9.07538C21.1508 6 26.1005 6 36 6C45.8995 6 50.8492 6 53.9246 9.07538C57 12.1508 57 17.1005 57 27V45C57 54.8995 57 59.8492 53.9246 62.9246C50.8492 66 45.8995 66 36 66C26.1005 66 21.1508 66 18.0754 62.9246C15 59.8492 15 54.8995 15 45V27Z" stroke="#141B34" stroke-width="3" stroke-linecap="round"/>
<path d="M33 57H39" stroke="#141B34" stroke-width="3" stroke-linecap="round" stroke-linejoin="round"/>
<path d="M27 6L27.267 7.60205C27.8456 11.0739 28.135 12.8098 29.3256 13.8661C30.5675 14.968 32.3284 15 36 15C39.6716 15 41.4325 14.968 42.6744 13.8661C43.865 12.8098 44.1544 11.0739 44.733 7.60205L45 6" stroke="#141B34" stroke-width="3" stroke-linejoin="round"/>
</svg>
