<svg width="72" height="72" viewBox="0 0 72 72" fill="none" xmlns="http://www.w3.org/2000/svg">
<path d="M7.5 36C7.5 22.565 7.5 15.8475 11.6737 11.6737C15.8475 7.5 22.565 7.5 36 7.5C49.435 7.5 56.1525 7.5 60.3263 11.6737C64.5 15.8475 64.5 22.565 64.5 36C64.5 49.435 64.5 56.1525 60.3263 60.3263C56.1525 64.5 49.435 64.5 36 64.5C22.565 64.5 15.8475 64.5 11.6737 60.3263C7.5 56.1525 7.5 49.435 7.5 36Z" stroke="#141B34" stroke-width="3"/>
<path d="M25.2439 30C24.6262 28.2522 22.9593 27 21 27C18.5147 27 16.5 29.0147 16.5 31.5C16.5 33.9853 18.5147 36 21 36C23.4853 36 25.5 38.0147 25.5 40.5C25.5 42.9853 23.4853 45 21 45C19.0407 45 17.3738 43.7478 16.7561 42" stroke="#141B34" stroke-width="3" stroke-linecap="round"/>
<path d="M37.5 45C35.0147 45 33 42.9853 33 40.5V31.5C33 29.0147 35.0147 27 37.5 27C39.9853 27 42 29.0147 42 31.5V40.5C42 42.9853 39.9853 45 37.5 45ZM37.5 45L42 49.5" stroke="#141B34" stroke-width="3" stroke-linecap="round"/>
<path d="M49.5 27V39C49.5 41.8284 49.5 43.2426 50.3787 44.1213C51.2574 45 52.6716 45 55.5 45" stroke="#141B34" stroke-width="3" stroke-linecap="round"/>
</svg>
