<svg width="72" height="72" viewBox="0 0 72 72" fill="none" xmlns="http://www.w3.org/2000/svg">
<path d="M39 9H33C20.2721 9 13.9081 9 9.95406 12.9541C6 16.9081 6 23.2721 6 36C6 48.7279 6 55.0919 9.95406 59.0459C13.9081 63 20.2721 63 33 63H39C51.7279 63 58.0919 63 62.0459 59.0459C66 55.0919 66 48.7279 66 36C66 23.2721 66 16.9081 62.0459 12.9541C58.0919 9 51.7279 9 39 9Z" stroke="#141B34" stroke-width="3" stroke-linecap="round"/>
<path d="M42 45V39M42 39V33C42 31.5858 42 30.8787 42.4393 30.4393C42.8787 30 43.5858 30 45 30H49.5C51.9853 30 54 32.0147 54 34.5C54 36.9853 51.9853 39 49.5 39M42 39H49.5M49.5 39L52.5 45" stroke="#141B34" stroke-width="3" stroke-linecap="round" stroke-linejoin="round"/>
<path d="M19.5 45L20.4958 31.8002C20.5802 30.6805 20.6225 30.1207 20.9339 30.0162C21.2453 29.9117 21.5643 30.3503 22.2021 31.2277L24.7457 34.7261C25.0916 35.202 25.2646 35.4399 25.4953 35.4399C25.726 35.4399 25.899 35.202 26.2449 34.7261L28.7899 31.2257C29.4273 30.3491 29.7459 29.9108 30.0573 30.0151C30.3686 30.1195 30.4112 30.6788 30.4962 31.7975L31.5 45" stroke="#141B34" stroke-width="3" stroke-linecap="round"/>
</svg>
