<svg width="72" height="72" viewBox="0 0 72 72" fill="none" xmlns="http://www.w3.org/2000/svg">
<path d="M23.2507 22.6998C29.0078 13.5666 31.8863 9 36 9C40.1137 9 42.9922 13.5666 48.7493 22.6997L55.4824 33.3814C63.7085 46.4316 67.8216 52.9567 65.2277 57.9783C62.6339 63 55.1503 63 40.1833 63H31.8167C16.8497 63 9.36614 63 6.77227 57.9783C4.1784 52.9567 8.29146 46.4316 16.5176 33.3814L23.2507 22.6998Z" stroke="#141B34" stroke-width="3" stroke-linejoin="round"/>
<path d="M10.5 45H21M21 27H51" stroke="#141B34" stroke-width="3" stroke-linecap="round" stroke-linejoin="round"/>
<path d="M45 51V46.2M45 46.2V41.4C45 40.2686 45 39.7029 45.3295 39.3515C45.659 39 46.1893 39 47.25 39H50.625C52.489 39 54 40.6118 54 42.6C54 44.5882 52.489 46.2 50.625 46.2M45 46.2H50.625M50.625 46.2L52.875 51" stroke="#141B34" stroke-width="3" stroke-linecap="round" stroke-linejoin="round"/>
<path d="M28.5 51L29.2468 40.4401C29.3102 39.5444 29.3419 39.0965 29.5754 39.0129C29.809 38.9293 30.0482 39.2803 30.5266 39.9821L32.4343 42.7809C32.6937 43.1616 32.8235 43.3519 32.9965 43.3519C33.1695 43.3519 33.2992 43.1616 33.5587 42.7809L35.4674 39.9806C35.9454 39.2793 36.1845 38.9286 36.418 39.0121C36.6515 39.0956 36.6834 39.5431 36.7472 40.438L37.5 51" stroke="#141B34" stroke-width="3" stroke-linecap="round"/>
</svg>
