<svg width="24" height="24" viewBox="0 0 24 24" fill="none" xmlns="http://www.w3.org/2000/svg">
<g clip-path="url(#clip0_5759_17405)">
<path d="M11 15H13" stroke="#141B34" stroke-width="1.5" stroke-linecap="round" stroke-linejoin="round"/>
<path d="M12 18V22" stroke="#141B34" stroke-width="1.5"/>
<path d="M8 22H16" stroke="#141B34" stroke-width="1.5" stroke-linecap="round"/>
<path d="M9 2.00098C6.37454 2.00933 4.9565 2.08726 3.91891 2.81379C3.48891 3.11488 3.1149 3.48888 2.81382 3.91888C2 5.08113 2 6.72074 2 9.99997C2 13.2792 2 14.9188 2.81382 16.0811C3.1149 16.5111 3.48891 16.8851 3.91891 17.1862C5.08116 18 6.72077 18 10 18H14C17.2792 18 18.9188 18 20.0811 17.1862C20.5111 16.8851 20.8851 16.5111 21.1862 16.0811C21.9127 15.0435 21.9906 13.6254 21.999 11" stroke="#141B34" stroke-width="1.5" stroke-linecap="round"/>
<g clip-path="url(#clip1_5759_17405)">
<path fill-rule="evenodd" clip-rule="evenodd" d="M20.177 1.82297C19.2543 0.900201 16.6361 2.02227 14.3292 4.32919C12.0223 6.6361 10.9002 9.25427 11.823 10.177C12.7457 11.0998 15.3639 9.97773 17.6708 7.67081C19.9777 5.3639 21.0998 2.74573 20.177 1.82297Z" stroke="#141B34" stroke-width="1.5" stroke-linecap="round" stroke-linejoin="round"/>
<path fill-rule="evenodd" clip-rule="evenodd" d="M11.823 1.82297C10.9002 2.74573 12.0223 5.3639 14.3292 7.67081C16.6361 9.97773 19.2543 11.0998 20.177 10.177C21.0998 9.25427 19.9777 6.6361 17.6708 4.32919C15.3639 2.02227 12.7457 0.900201 11.823 1.82297Z" stroke="#141B34" stroke-width="1.5" stroke-linecap="round" stroke-linejoin="round"/>
<path d="M16.0045 6H16" stroke="#141B34" stroke-width="1.5" stroke-linecap="round" stroke-linejoin="round"/>
</g>
<path d="M11 15H13" stroke="#141B34" stroke-width="1.5" stroke-linecap="round" stroke-linejoin="round"/>
<path d="M12 18V22" stroke="#141B34" stroke-width="1.5"/>
<path d="M8 22H16" stroke="#141B34" stroke-width="1.5" stroke-linecap="round"/>
<path d="M9 2.00098C6.37454 2.00933 4.9565 2.08726 3.91891 2.81379C3.48891 3.11488 3.1149 3.48888 2.81382 3.91888C2 5.08113 2 6.72074 2 9.99997C2 13.2792 2 14.9188 2.81382 16.0811C3.1149 16.5111 3.48891 16.8851 3.91891 17.1862C5.08116 18 6.72077 18 10 18H14C17.2792 18 18.9188 18 20.0811 17.1862C20.5111 16.8851 20.8851 16.5111 21.1862 16.0811C21.9127 15.0435 21.9906 13.6254 21.999 11" stroke="#141B34" stroke-width="1.5" stroke-linecap="round"/>
</g>
<defs>
<clipPath id="clip0_5759_17405">
<rect width="24" height="24" fill="white"/>
</clipPath>
<clipPath id="clip1_5759_17405">
<rect width="12" height="12" fill="white" transform="translate(10)"/>
</clipPath>
</defs>
</svg>
