<svg width="72" height="72" viewBox="0 0 72 72" fill="none" xmlns="http://www.w3.org/2000/svg">
<path d="M62.3221 54C64.57 54 66.358 52.5854 67.9634 50.6074C71.2497 46.5583 65.854 43.3225 63.7961 41.7378C61.7041 40.1269 59.3683 39.2143 57 39M54 33C58.1421 33 61.5 29.6421 61.5 25.5C61.5 21.3579 58.1421 18 54 18" stroke="#141B34" stroke-width="3" stroke-linecap="round"/>
<path d="M9.67787 54C7.42997 54 5.642 52.5854 4.03664 50.6074C0.750266 46.5583 6.14601 43.3225 8.20394 41.7378C10.2959 40.1269 12.6317 39.2143 15 39M16.5 33C12.3579 33 9 29.6421 9 25.5C9 21.3579 12.3579 18 16.5 18" stroke="#141B34" stroke-width="3" stroke-linecap="round"/>
<path d="M24.2514 45.3336C21.1861 47.229 13.149 51.0993 18.0441 55.9423C20.4353 58.308 23.0986 60 26.4469 60H45.5531C48.9014 60 51.5647 58.308 53.9559 55.9423C58.851 51.0993 50.8139 47.229 47.7486 45.3336C40.5604 40.8888 31.4396 40.8888 24.2514 45.3336Z" stroke="#141B34" stroke-width="3" stroke-linecap="round" stroke-linejoin="round"/>
<path d="M46.5 22.5C46.5 28.299 41.799 33 36 33C30.201 33 25.5 28.299 25.5 22.5C25.5 16.701 30.201 12 36 12C41.799 12 46.5 16.701 46.5 22.5Z" stroke="#141B34" stroke-width="3"/>
</svg>
