<svg width="72" height="72" viewBox="0 0 72 72" fill="none" xmlns="http://www.w3.org/2000/svg">
<path d="M24 66V57C24 51.3431 24 48.5147 25.7574 46.7574C27.5147 45 30.3431 45 36 45C41.6569 45 44.4853 45 46.2426 46.7574C48 48.5147 48 51.3431 48 57V66" stroke="#141B34" stroke-width="3" stroke-linejoin="round"/>
<path d="M30 21H42" stroke="#141B34" stroke-width="3" stroke-linecap="round" stroke-linejoin="round"/>
<path d="M9 35.5753C9 21.846 9 14.9813 13.1602 10.6318C13.3139 10.4711 13.4711 10.3139 13.6318 10.1602C17.9813 6 24.846 6 38.5753 6C41.829 6 43.3965 6.01127 44.8884 6.56809C46.3251 7.10429 47.5286 8.10718 49.9356 10.113L56.5233 15.6028C59.7082 18.2568 61.3006 19.5838 62.1503 21.398C63 23.2121 63 25.285 63 29.4307V39C63 50.2492 63 55.8738 60.1353 59.8168C59.2101 61.0902 58.0902 62.2101 56.8168 63.1353C52.8738 66 47.2492 66 36 66C24.7508 66 19.1262 66 15.1832 63.1353C13.9098 62.2101 12.7899 61.0902 11.8647 59.8168C9 55.8738 9 50.2492 9 39V35.5753Z" stroke="#141B34" stroke-width="3"/>
</svg>
