<svg width="72" height="72" viewBox="0 0 72 72" fill="none" xmlns="http://www.w3.org/2000/svg">
<path d="M6 30C8.33904 18.5523 17.0076 9.38796 28.2185 6.2693C29.1596 6.00752 29.6301 5.87663 29.8836 6.15707C30.137 6.43751 29.9503 6.90125 29.5769 7.82868L27 13.5M42 6C53.4477 8.33904 62.612 17.0076 65.7307 28.2185C65.9925 29.1596 66.1234 29.6301 65.8429 29.8836C65.5625 30.137 65.0988 29.9503 64.1713 29.5769L58.5 27M66 42C63.661 53.4477 54.9924 62.612 43.7815 65.7307C42.8404 65.9925 42.3699 66.1234 42.1164 65.8429C41.863 65.5625 42.0497 65.0988 42.4231 64.1713L45 58.5M30 66C18.5523 63.661 9.38796 54.9924 6.2693 43.7815C6.00752 42.8404 5.87663 42.3699 6.15707 42.1164C6.43751 41.863 6.90125 42.0497 7.82868 42.4231L13.5 45" stroke="#141B34" stroke-width="3" stroke-linecap="round"/>
<path d="M25.8386 34.9942L36.336 21.5198C37.157 20.466 38.6958 21.1219 38.6958 22.5256V32.9549C38.6958 33.7958 39.2993 34.4775 40.0437 34.4775H45.1495C46.3093 34.4775 46.9276 36.0223 46.1614 37.0058L35.664 50.4802C34.843 51.534 33.3042 50.8781 33.3042 49.4744V39.0451C33.3042 38.2042 32.7007 37.5225 31.9563 37.5225H26.8505C25.6907 37.5225 25.0724 35.9777 25.8386 34.9942Z" stroke="#141B34" stroke-width="3" stroke-linecap="round" stroke-linejoin="round"/>
</svg>
