<svg width="72" height="72" viewBox="0 0 72 72" fill="none" xmlns="http://www.w3.org/2000/svg">
<path d="M27 30.0883C31.1177 25.9706 37.7939 25.9706 41.9117 30.0883C46.0294 34.2061 46.0294 40.8823 41.9117 45" stroke="#141B34" stroke-width="3"/>
<path d="M14.5587 57.4413C24.1461 67.0287 38.7381 68.5613 49.9255 62.0391C52.5855 60.4882 53.9156 59.7128 53.9969 58.1347C54.0782 56.5565 52.5831 55.4646 49.5929 53.2809C44.0489 49.2322 38.5908 44.281 33.1549 38.8451C27.719 33.4092 22.7678 27.9511 18.7191 22.4071C16.5354 19.4169 15.4435 17.9218 13.8653 18.0031C12.2872 18.0844 11.5118 19.4145 9.96094 22.0745C3.43871 33.2619 4.97129 47.8539 14.5587 57.4413Z" stroke="#141B34" stroke-width="3" stroke-linejoin="round"/>
<path d="M46.6721 6C51.7112 6.51729 56.3434 8.51887 59.9078 12.0775C63.4834 15.6474 65.4896 20.29 66 25.3395M55.5051 27C54.9078 24.4277 53.6741 22.0843 51.7794 20.1927C49.8943 18.3107 47.5612 17.0819 45 16.4822" stroke="#141B34" stroke-width="3" stroke-linecap="round"/>
</svg>
