<svg width="72" height="72" viewBox="0 0 72 72" fill="none" xmlns="http://www.w3.org/2000/svg">
<path d="M6 18C6 15.1716 6 13.7574 6.87868 12.8787C7.75736 12 9.17157 12 12 12C14.8284 12 16.2426 12 17.1213 12.8787C18 13.7574 18 15.1716 18 18V24C18 26.8284 18 28.2426 17.1213 29.1213C16.2426 30 14.8284 30 12 30C9.17157 30 7.75736 30 6.87868 29.1213C6 28.2426 6 26.8284 6 24V18Z" stroke="#141B34" stroke-width="3"/>
<path d="M19.5 48C19.5 45.1716 19.5 43.7574 20.3787 42.8787C21.2574 42 22.6716 42 25.5 42C28.3284 42 29.7426 42 30.6213 42.8787C31.5 43.7574 31.5 45.1716 31.5 48V54C31.5 56.8284 31.5 58.2426 30.6213 59.1213C29.7426 60 28.3284 60 25.5 60C22.6716 60 21.2574 60 20.3787 59.1213C19.5 58.2426 19.5 56.8284 19.5 54V48Z" stroke="#141B34" stroke-width="3"/>
<path d="M40.5 18C40.5 15.1716 40.5 13.7574 41.3787 12.8787C42.2574 12 43.6716 12 46.5 12C49.3284 12 50.7426 12 51.6213 12.8787C52.5 13.7574 52.5 15.1716 52.5 18V24C52.5 26.8284 52.5 28.2426 51.6213 29.1213C50.7426 30 49.3284 30 46.5 30C43.6716 30 42.2574 30 41.3787 29.1213C40.5 28.2426 40.5 26.8284 40.5 24V18Z" stroke="#141B34" stroke-width="3"/>
<path d="M40.5 48C40.5 45.1716 40.5 43.7574 41.3787 42.8787C42.2574 42 43.6716 42 46.5 42C49.3284 42 50.7426 42 51.6213 42.8787C52.5 43.7574 52.5 45.1716 52.5 48V54C52.5 56.8284 52.5 58.2426 51.6213 59.1213C50.7426 60 49.3284 60 46.5 60C43.6716 60 42.2574 60 41.3787 59.1213C40.5 58.2426 40.5 56.8284 40.5 54V48Z" stroke="#141B34" stroke-width="3"/>
<path d="M27 15L31.5 12V30" stroke="#141B34" stroke-width="3" stroke-linecap="round" stroke-linejoin="round"/>
<path d="M6 45L10.5 42V60" stroke="#141B34" stroke-width="3" stroke-linecap="round" stroke-linejoin="round"/>
<path d="M61.5 15L66 12V30" stroke="#141B34" stroke-width="3" stroke-linecap="round" stroke-linejoin="round"/>
<path d="M61.5 45L66 42V60" stroke="#141B34" stroke-width="3" stroke-linecap="round" stroke-linejoin="round"/>
</svg>
