<svg width="24" height="24" viewBox="0 0 24 24" fill="none" xmlns="http://www.w3.org/2000/svg">
<path d="M5 6C5.08715 4.58055 5.32629 3.67665 5.98247 3.02513C7.01491 2 8.67661 2 12 2C15.3234 2 16.9851 2 18.0175 3.02513C18.6737 3.67665 18.9128 4.58055 19 6M19 18C18.9128 19.4194 18.6737 20.3233 18.0175 20.9749C16.9851 22 15.3234 22 12 22C8.67661 22 7.01491 22 5.98247 20.9749C5.32629 20.3233 5.08715 19.4194 5 18" stroke="#141B34" stroke-width="1.5" stroke-linecap="round"/>
<path d="M11 19H13" stroke="#141B34" stroke-width="1.5" stroke-linecap="round" stroke-linejoin="round"/>
<path d="M18.5 9L20.0332 10.5858C20.6777 11.2525 21 11.5858 21 12C21 12.4142 20.6777 12.7475 20.0332 13.4142L18.5 15" stroke="#141B34" stroke-width="1.5" stroke-linecap="round" stroke-linejoin="round"/>
<path d="M5.5 9L3.96682 10.5858C3.32228 11.2525 3 11.5858 3 12C3 12.4142 3.32227 12.7475 3.96682 13.4142L5.5 15" stroke="#141B34" stroke-width="1.5" stroke-linecap="round" stroke-linejoin="round"/>
<path d="M16.2324 10C15.8866 9.4022 15.2403 9 14.5 9C13.3954 9 12.5 9.89543 12.5 11V13C12.5 14.1046 13.3954 15 14.5 15C15.2403 15 15.8866 14.5978 16.2324 14" stroke="#141B34" stroke-width="1.5" stroke-linecap="round"/>
<path d="M8 10L9.5 9V15" stroke="#141B34" stroke-width="1.5" stroke-linecap="round" stroke-linejoin="round"/>
</svg>
