<svg width="72" height="72" viewBox="0 0 72 72" fill="none" xmlns="http://www.w3.org/2000/svg">
<path d="M63.765 21.4007L62.2842 18.8309C61.1643 16.8875 60.6044 15.9157 59.6516 15.5282C58.6989 15.1407 57.6214 15.4465 55.4664 16.058L51.8057 17.0891C50.4299 17.4064 48.9864 17.2264 47.7302 16.5809L46.7195 15.9978C45.6423 15.3079 44.8137 14.2906 44.3551 13.0948L43.3532 10.1026C42.6945 8.12258 42.3651 7.13255 41.581 6.56627C40.7969 6 39.7553 6 37.6722 6H34.3279C32.2448 6 31.2033 6 30.4192 6.56627C29.6351 7.13255 29.3057 8.12258 28.647 10.1026L27.6451 13.0948C27.1864 14.2906 26.3579 15.3079 25.2806 15.9978L24.27 16.5809C23.0137 17.2264 21.5703 17.4064 20.1945 17.0891L16.5337 16.058C14.3787 15.4465 13.3012 15.1407 12.3485 15.5282C11.3958 15.9157 10.8358 16.8875 9.71596 18.8309L8.2352 21.4007C7.18547 23.2225 6.66061 24.1334 6.76247 25.103C6.86434 26.0727 7.56699 26.8541 8.97228 28.4169L12.0654 31.875C12.8214 32.8321 13.3581 34.5 13.3581 35.9995C13.3581 37.5 12.8216 39.1674 12.0655 40.1247L8.97229 43.5828C7.567 45.1456 6.86435 45.9271 6.76248 46.8967C6.66061 47.8664 7.18549 48.7773 8.2352 50.599L9.71592 53.1687C10.8358 55.1122 11.3958 56.084 12.3485 56.4715C13.3013 56.859 14.3788 56.5532 16.5338 55.9416L20.1943 54.9105C21.5704 54.5932 23.0141 54.7733 24.2705 55.419L25.281 56.0021C26.358 56.6921 27.1864 57.7093 27.645 58.9049L28.647 61.8974C29.3057 63.8774 29.6351 64.8675 30.4192 65.4337C31.2033 66 32.2448 66 34.3279 66H37.6722C39.7553 66 40.7969 66 41.581 65.4337C42.3651 64.8675 42.6945 63.8774 43.3532 61.8974L44.3552 58.9049C44.8137 57.7093 45.6421 56.6921 46.7192 56.0021L47.7296 55.419C48.986 54.7733 50.4298 54.5932 51.8058 54.9105L55.4664 55.9416C57.6214 56.5532 58.6989 56.859 59.6516 56.4715C60.6044 56.084 61.1644 55.1122 62.2842 53.1687L63.765 50.599L63.765 50.599C64.8147 48.7773 65.3395 47.8664 65.2377 46.8967C65.1358 45.9271 64.4332 45.1456 63.0279 43.5828L59.9347 40.1247C59.1786 39.1674 58.642 37.5 58.642 35.9995C58.642 34.5 59.1788 32.8321 59.9347 31.875L63.0279 28.4169C64.4332 26.8541 65.1358 26.0727 65.2377 25.103C65.3395 24.1334 64.8147 23.2225 63.765 21.4007Z" stroke="#141B34" stroke-width="3" stroke-linecap="round"/>
<path fill-rule="evenodd" clip-rule="evenodd" d="M48.5311 23.4689C45.7628 20.7006 37.9083 24.0668 30.9876 30.9876C24.0668 37.9083 20.7006 45.7628 23.4689 48.5311C26.2372 51.2994 34.0917 47.9332 41.0124 41.0124C47.9332 34.0917 51.2994 26.2372 48.5311 23.4689Z" stroke="#141B34" stroke-width="3" stroke-linecap="round" stroke-linejoin="round"/>
<path fill-rule="evenodd" clip-rule="evenodd" d="M23.4689 23.4689C20.7006 26.2372 24.0668 34.0917 30.9876 41.0124C37.9083 47.9332 45.7628 51.2994 48.5311 48.5311C51.2994 45.7628 47.9332 37.9083 41.0124 30.9876C34.0917 24.0668 26.2372 20.7006 23.4689 23.4689Z" stroke="#141B34" stroke-width="3" stroke-linecap="round" stroke-linejoin="round"/>
<path d="M36.0134 36H36" stroke="#141B34" stroke-width="3" stroke-linecap="round" stroke-linejoin="round"/>
</svg>
