<svg width="72" height="72" viewBox="0 0 72 72" fill="none" xmlns="http://www.w3.org/2000/svg">
<path d="M36 21C19.4315 21 6 23.6863 6 27C6 29.4171 13.1464 31.5004 23.444 32.4508C25.2987 32.622 26.5711 34.4163 26.7689 36.2683C27.2831 41.0826 31.1519 45 36 45C40.8481 45 44.7169 41.0826 45.2311 36.2683C45.4289 34.4163 46.7013 32.622 48.556 32.4508C58.8536 31.5004 66 29.4171 66 27C66 23.6863 52.5685 21 36 21Z" stroke="#141B34" stroke-width="3" stroke-linejoin="round"/>
<path d="M35.9994 36H36.0264" stroke="#141B34" stroke-width="3" stroke-linecap="round" stroke-linejoin="round"/>
<path d="M12 9H18M24 9H18M18 9V21" stroke="#141B34" stroke-width="3" stroke-linecap="round" stroke-linejoin="round"/>
<path d="M48 9H54M60 9H54M54 9V21" stroke="#141B34" stroke-width="3" stroke-linecap="round" stroke-linejoin="round"/>
<path d="M15 63V58.5C15 50.2157 21.7157 43.5 30 43.5M57 63V58.5C57 50.2157 50.2843 43.5 42 43.5" stroke="#141B34" stroke-width="3" stroke-linecap="round" stroke-linejoin="round"/>
</svg>
