<svg width="24" height="24" viewBox="0 0 24 24" fill="none" xmlns="http://www.w3.org/2000/svg">
<path d="M2 19.5C2 18.3215 2 17.7322 2.43934 17.3661C2.87868 17 3.58579 17 5 17C6.41421 17 7.12132 17 7.56066 17.3661C8 17.7322 8 18.3215 8 19.5C8 20.6785 8 21.2678 7.56066 21.6339C7.12132 22 6.41421 22 5 22C3.58579 22 2.87868 22 2.43934 21.6339C2 21.2678 2 20.6785 2 19.5Z" stroke="#141B34" stroke-width="1.5"/>
<path d="M16 19.5C16 18.3215 16 17.7322 16.4393 17.3661C16.8787 17 17.5858 17 19 17C20.4142 17 21.1213 17 21.5607 17.3661C22 17.7322 22 18.3215 22 19.5C22 20.6785 22 21.2678 21.5607 21.6339C21.1213 22 20.4142 22 19 22C17.5858 22 16.8787 22 16.4393 21.6339C16 21.2678 16 20.6785 16 19.5Z" stroke="#141B34" stroke-width="1.5"/>
<path d="M19 17C19 14.518 18.2562 14 14.6923 14H9.30769C5.74379 14 5 14.518 5 17" stroke="#141B34" stroke-width="1.5" stroke-linecap="round" stroke-linejoin="round"/>
<g clip-path="url(#clip0_5760_17699)">
<path d="M15.5417 8.59509C14.4994 11.0651 11.11 11.7849 9.16728 9.86022C7.26231 7.97295 7.85207 4.55384 10.3569 3.4585" stroke="#141B34" stroke-width="1.5" stroke-linecap="round"/>
<path d="M14.368 7.20841C15.1545 7.20841 15.5478 7.20842 15.8017 6.85632C15.8112 6.84317 15.827 6.81956 15.8355 6.80575C16.0636 6.43637 15.9461 6.15258 15.711 5.58499C15.4978 5.0703 15.1853 4.60265 14.7914 4.20872C14.3975 3.81479 13.9298 3.50232 13.4151 3.28912C12.8475 3.05402 12.5637 2.93647 12.1943 3.16457C12.1805 3.17309 12.1569 3.18887 12.1438 3.19836C11.7917 3.45233 11.7917 3.84559 11.7917 4.63211V5.51153C11.7917 6.31145 11.7917 6.71141 12.0402 6.95991C12.2887 7.20841 12.6887 7.20841 13.4886 7.20841H14.368Z" stroke="#141B34" stroke-width="1.5"/>
</g>
<defs>
<clipPath id="clip0_5760_17699">
<rect width="10" height="10" fill="white" transform="translate(7 2)"/>
</clipPath>
</defs>
</svg>
