<svg width="72" height="72" viewBox="0 0 72 72" fill="none" xmlns="http://www.w3.org/2000/svg">
<path d="M19.4493 10.9746C18.3515 9.76184 16.7647 9 15 9C11.6863 9 9 11.6863 9 15C9 16.7647 9.76184 18.3515 10.9746 19.4493C12.0391 20.413 13.451 21 15 21C18.3137 21 21 18.3137 21 15C21 13.451 20.413 12.0391 19.4493 10.9746ZM19.4493 10.9746C24.1932 7.83089 29.8828 6 36 6C38.0548 6 40.0613 6.20658 42 6.60011M61.0589 19.5C64.1821 24.2337 66 29.9045 66 36C66 38.0548 65.7934 40.0613 65.3999 42M52.5507 61.0254C47.8068 64.1691 42.1172 66 36 66C33.9452 66 31.9387 65.7934 30 65.3999M52.5507 61.0254C53.6485 62.2382 55.2353 63 57 63C60.3137 63 63 60.3137 63 57C63 55.2353 62.2382 53.6485 61.0254 52.5507C59.9609 51.587 58.549 51 57 51C53.6863 51 51 53.6863 51 57C51 58.549 51.587 59.9609 52.5507 61.0254ZM10.9746 52.5507C7.83089 47.8068 6 42.1172 6 36C6 33.9452 6.20658 31.9387 6.60011 30M10.9746 52.5507C9.76184 53.6485 9 55.2353 9 57C9 60.3137 11.6863 63 15 63C16.7647 63 18.3515 62.2382 19.4493 61.0254C20.413 59.9609 21 58.549 21 57C21 53.6863 18.3137 51 15 51C13.451 51 12.0391 51.587 10.9746 52.5507ZM63 15C63 18.3137 60.3137 21 57 21C53.6863 21 51 18.3137 51 15C51 13.451 51.587 12.0391 52.5507 10.9746C53.6485 9.76184 55.2353 9 57 9C60.3137 9 63 11.6863 63 15Z" stroke="#141B34" stroke-width="3" stroke-linecap="round" stroke-linejoin="round"/>
<path d="M24 31.4333C27.4465 28.6294 31.5626 27 35.9837 27C40.4187 27 44.5469 28.6397 48 31.4598M42.5228 39C40.5545 37.7726 38.3337 37.082 35.9837 37.082C33.6455 37.082 31.4352 37.7657 29.4743 38.9815" stroke="#141B34" stroke-width="3" stroke-linecap="round"/>
<path d="M36 48H36.0191" stroke="#141B34" stroke-width="3" stroke-linecap="round" stroke-linejoin="round"/>
</svg>
