<svg width="72" height="72" viewBox="0 0 72 72" fill="none" xmlns="http://www.w3.org/2000/svg">
<path d="M6 58.5C6 54.9645 6 53.1967 7.31802 52.0983C8.63604 51 10.7574 51 15 51C19.2426 51 21.364 51 22.682 52.0983C24 53.1967 24 54.9645 24 58.5C24 62.0355 24 63.8033 22.682 64.9017C21.364 66 19.2426 66 15 66C10.7574 66 8.63604 66 7.31802 64.9017C6 63.8033 6 62.0355 6 58.5Z" stroke="#141B34" stroke-width="3"/>
<path d="M48 58.5C48 54.9645 48 53.1967 49.318 52.0983C50.636 51 52.7574 51 57 51C61.2426 51 63.364 51 64.682 52.0983C66 53.1967 66 54.9645 66 58.5C66 62.0355 66 63.8033 64.682 64.9017C63.364 66 61.2426 66 57 66C52.7574 66 50.636 66 49.318 64.9017C48 63.8033 48 62.0355 48 58.5Z" stroke="#141B34" stroke-width="3"/>
<path d="M57 51C57 41.072 54.7686 39 44.0769 39H27.9231C17.2314 39 15 41.072 15 51" stroke="#141B34" stroke-width="3" stroke-linecap="round" stroke-linejoin="round"/>
<path fill-rule="evenodd" clip-rule="evenodd" d="M48.5311 5.4689C45.7628 2.7006 37.9083 6.06682 30.9876 12.9876C24.0668 19.9083 20.7006 27.7628 23.4689 30.5311C26.2372 33.2994 34.0917 29.9332 41.0124 23.0124C47.9332 16.0917 51.2994 8.23719 48.5311 5.4689Z" stroke="#141B34" stroke-width="3" stroke-linecap="round" stroke-linejoin="round"/>
<path fill-rule="evenodd" clip-rule="evenodd" d="M23.4689 5.4689C20.7006 8.23719 24.0668 16.0917 30.9876 23.0124C37.9083 29.9332 45.7628 33.2994 48.5311 30.5311C51.2994 27.7628 47.9332 19.9083 41.0124 12.9876C34.0917 6.06682 26.2372 2.7006 23.4689 5.4689Z" stroke="#141B34" stroke-width="3" stroke-linecap="round" stroke-linejoin="round"/>
<path d="M36.0134 18H36" stroke="#141B34" stroke-width="3" stroke-linecap="round" stroke-linejoin="round"/>
</svg>
