<svg width="24" height="24" viewBox="0 0 24 24" fill="none" xmlns="http://www.w3.org/2000/svg">
<path d="M14.5 22L14.1845 21.5811C13.4733 20.6369 13.2969 19.1944 13.7468 18" stroke="#141B34" stroke-width="1.5" stroke-linecap="round"/>
<path d="M9.5 22L9.8155 21.5811C10.5267 20.6369 10.7031 19.1944 10.2532 18" stroke="#141B34" stroke-width="1.5" stroke-linecap="round"/>
<path d="M7 22H17" stroke="#141B34" stroke-width="1.5" stroke-linecap="round"/>
<path d="M17.6436 7.9532C17.3388 8.27832 16.7606 8.18867 16.7606 8.18867C16.7606 8.18867 16.6766 7.57191 16.9814 7.2468C17.2862 6.92168 17.8644 7.01133 17.8644 7.01133C17.8644 7.01133 17.9484 7.62809 17.6436 7.9532Z" stroke="#141B34" stroke-width="1.25" stroke-linejoin="round"/>
<path d="M14.5 10.6176C14.5 11.6021 15.1178 12.7329 15.7428 12.9719C15.9595 13.0547 16.1835 12.9404 16.3697 12.798C16.511 12.69 16.6821 12.5869 16.8202 12.5869C16.9584 12.5869 17.1294 12.69 17.2707 12.798C17.4569 12.9404 17.6809 13.0547 17.8976 12.9719C18.3418 12.8021 18.7822 12.182 19 11.484C18.5783 11.3552 18.2704 10.9482 18.2704 10.4661C18.2704 10.0244 18.5289 9.64584 18.8964 9.48639C18.6596 9.03773 18.2726 8.7998 17.8353 8.7998C17.6091 8.7998 17.4012 8.89707 17.2333 9.01366C16.9652 9.19975 16.6752 9.19975 16.4072 9.01366C16.2392 8.89707 16.0313 8.7998 15.8051 8.7998C15.0843 8.7998 14.5 9.44634 14.5 10.6176Z" stroke="#141B34" stroke-width="1.25" stroke-linejoin="round"/>
<path d="M14 2H10C6.72077 2 5.08116 2 3.91891 2.81382C3.48891 3.1149 3.1149 3.48891 2.81382 3.91891C2 5.08116 2 6.72077 2 10C2 13.2792 2 14.9188 2.81382 16.0811C3.1149 16.5111 3.48891 16.8851 3.91891 17.1862C5.08116 18 6.72077 18 10 18H14C17.2792 18 18.9188 18 20.0811 17.1862C20.5111 16.8851 20.8851 16.5111 21.1862 16.0811C22 14.9188 22 13.2792 22 10C22 6.72077 22 5.08116 21.1862 3.91891C20.8851 3.48891 20.5111 3.1149 20.0811 2.81382C18.9188 2 17.2792 2 14 2Z" stroke="#141B34" stroke-width="1.5" stroke-linecap="round"/>
<path d="M8.45007 11.0502C8.45007 10.7674 8.45007 10.6259 8.53794 10.5381C8.62581 10.4502 8.76723 10.4502 9.05007 10.4502H10.4001C10.6829 10.4502 10.8243 10.4502 10.9122 10.5381C11.0001 10.6259 11.0001 10.7674 11.0001 11.0502V12.4002C11.0001 12.683 11.0001 12.8245 10.9122 12.9123C10.8243 13.0002 10.6829 13.0002 10.4001 13.0002H9.05007C8.76723 13.0002 8.62581 13.0002 8.53794 12.9123C8.45007 12.8245 8.45007 12.683 8.45007 12.4002V11.0502Z" stroke="#141B34" stroke-width="1.25" stroke-linecap="round" stroke-linejoin="round"/>
<path d="M5 7.6C5 7.31716 5 7.17574 5.08787 7.08787C5.17574 7 5.31716 7 5.6 7H6.95C7.23284 7 7.37426 7 7.46213 7.08787C7.55 7.17574 7.55 7.31716 7.55 7.6V8.95C7.55 9.23284 7.55 9.37426 7.46213 9.46213C7.37426 9.55 7.23284 9.55 6.95 9.55H5.6C5.31716 9.55 5.17574 9.55 5.08787 9.46213C5 9.37426 5 9.23284 5 8.95L5 7.6Z" stroke="#141B34" stroke-width="1.25" stroke-linecap="round" stroke-linejoin="round"/>
<path d="M5 11.0502C5 10.7674 5 10.6259 5.08787 10.5381C5.17574 10.4502 5.31716 10.4502 5.6 10.4502H6.95C7.23284 10.4502 7.37426 10.4502 7.46213 10.5381C7.55 10.6259 7.55 10.7674 7.55 11.0502V12.4002C7.55 12.683 7.55 12.8245 7.46213 12.9123C7.37426 13.0002 7.23284 13.0002 6.95 13.0002H5.6C5.31716 13.0002 5.17574 13.0002 5.08787 12.9123C5 12.8245 5 12.683 5 12.4002L5 11.0502Z" stroke="#141B34" stroke-width="1.25" stroke-linecap="round" stroke-linejoin="round"/>
<path d="M8.45007 7.6C8.45007 7.31716 8.45007 7.17574 8.53794 7.08787C8.62581 7 8.76723 7 9.05007 7H10.4001C10.6829 7 10.8243 7 10.9122 7.08787C11.0001 7.17574 11.0001 7.31716 11.0001 7.6V8.95C11.0001 9.23284 11.0001 9.37426 10.9122 9.46213C10.8243 9.55 10.6829 9.55 10.4001 9.55H9.05007C8.76723 9.55 8.62581 9.55 8.53794 9.46213C8.45007 9.37426 8.45007 9.23284 8.45007 8.95V7.6Z" stroke="#141B34" stroke-width="1.25" stroke-linecap="round" stroke-linejoin="round"/>
</svg>
