<svg width="72" height="72" viewBox="0 0 72 72" fill="none" xmlns="http://www.w3.org/2000/svg">
<path d="M61.5 47.4835C53.9954 65.2679 29.5922 70.4504 15.6043 56.5924C1.88845 43.0041 6.13479 18.3865 24.1696 10.5" stroke="#141B34" stroke-width="3" stroke-linecap="round"/>
<path d="M53.0494 37.5C58.7123 37.5 61.5437 37.5 63.3723 34.965C63.4407 34.8702 63.5543 34.7002 63.6156 34.6008C65.2579 31.9413 64.4116 29.898 62.7188 25.8114C61.1839 22.1056 58.934 18.7385 56.0977 15.9022C53.2615 13.0659 49.8943 10.8161 46.1886 9.28111C42.102 7.58837 40.0586 6.742 37.3991 8.38431C37.2997 8.44568 37.1297 8.55926 37.035 8.6276C34.4999 10.4562 34.4999 13.2877 34.4999 18.9506V25.2824C34.4999 31.0419 34.4999 33.9216 36.2892 35.7108C38.0784 37.5 40.9581 37.5 46.7175 37.5H53.0494Z" stroke="#141B34" stroke-width="3"/>
</svg>
