<svg width="72" height="72" viewBox="0 0 72 72" fill="none" xmlns="http://www.w3.org/2000/svg">
<path d="M15 18C15.2615 13.7417 15.9789 11.03 17.9474 9.07538C21.0447 6 26.0298 6 36 6C45.9702 6 50.9553 6 54.0526 9.07538C56.0211 11.03 56.7385 13.7417 57 18M57 54C56.7385 58.2583 56.0211 60.97 54.0526 62.9246C50.9553 66 45.9702 66 36 66C26.0298 66 21.0447 66 17.9474 62.9246C15.9789 60.97 15.2615 58.2583 15 54" stroke="#141B34" stroke-width="3" stroke-linecap="round"/>
<path d="M33 57H39" stroke="#141B34" stroke-width="3" stroke-linecap="round" stroke-linejoin="round"/>
<path d="M55.5 27L60.0995 31.7574C62.0332 33.7574 63 34.7574 63 36C63 37.2426 62.0332 38.2426 60.0995 40.2426L55.5 45" stroke="#141B34" stroke-width="3" stroke-linecap="round" stroke-linejoin="round"/>
<path d="M16.5 27L11.9005 31.7574C9.96683 33.7574 9 34.7574 9 36C9 37.2426 9.96682 38.2426 11.9005 40.2426L16.5 45" stroke="#141B34" stroke-width="3" stroke-linecap="round" stroke-linejoin="round"/>
<path d="M48.6973 30C47.6599 28.2066 45.7208 27 43.5 27C40.1863 27 37.5 29.6863 37.5 33V39C37.5 42.3137 40.1863 45 43.5 45C45.7208 45 47.6599 43.7934 48.6973 42" stroke="#141B34" stroke-width="3" stroke-linecap="round"/>
<path d="M24 30L28.5 27V45" stroke="#141B34" stroke-width="3" stroke-linecap="round" stroke-linejoin="round"/>
</svg>
