<svg width="72" height="72" viewBox="0 0 72 72" fill="none" xmlns="http://www.w3.org/2000/svg">
<path d="M54 63H18C12.3431 63 9.51472 63 7.75736 61.2426C6 59.4853 6 56.6569 6 51C6 45.3431 6 42.5147 7.75736 40.7574C9.51472 39 12.3431 39 18 39H54C59.6569 39 62.4853 39 64.2426 40.7574C66 42.5147 66 45.3431 66 51C66 56.6569 66 59.4853 64.2426 61.2426C62.4853 63 59.6569 63 54 63Z" stroke="#141B34" stroke-width="3" stroke-linecap="round" stroke-linejoin="round"/>
<path d="M24 10.4333C27.4465 7.62942 31.5626 6 35.9837 6C40.4187 6 44.5469 7.63972 48 10.4598M42.5228 18C40.5545 16.7726 38.3337 16.082 35.9837 16.082C33.6455 16.082 31.4352 16.7657 29.4743 17.9815" stroke="#141B34" stroke-width="3" stroke-linecap="round"/>
<path d="M36 27H36.0191" stroke="#141B34" stroke-width="3" stroke-linecap="round" stroke-linejoin="round"/>
<path d="M53.9994 51H54.0264" stroke="#141B34" stroke-width="3" stroke-linecap="round" stroke-linejoin="round"/>
<path d="M41.9994 51H42.0264" stroke="#141B34" stroke-width="3" stroke-linecap="round" stroke-linejoin="round"/>
<path d="M18 51H30" stroke="#141B34" stroke-width="3" stroke-linecap="round" stroke-linejoin="round"/>
</svg>
