<svg width="72" height="72" viewBox="0 0 72 72" fill="none" xmlns="http://www.w3.org/2000/svg">
<path d="M6 58.5C6 54.9645 6 53.1967 7.31802 52.0983C8.63604 51 10.7574 51 15 51C19.2426 51 21.364 51 22.682 52.0983C24 53.1967 24 54.9645 24 58.5C24 62.0355 24 63.8033 22.682 64.9017C21.364 66 19.2426 66 15 66C10.7574 66 8.63604 66 7.31802 64.9017C6 63.8033 6 62.0355 6 58.5Z" stroke="#141B34" stroke-width="3"/>
<path d="M48 58.5C48 54.9645 48 53.1967 49.318 52.0983C50.636 51 52.7574 51 57 51C61.2426 51 63.364 51 64.682 52.0983C66 53.1967 66 54.9645 66 58.5C66 62.0355 66 63.8033 64.682 64.9017C63.364 66 61.2426 66 57 66C52.7574 66 50.636 66 49.318 64.9017C48 63.8033 48 62.0355 48 58.5Z" stroke="#141B34" stroke-width="3"/>
<path d="M57 51C57 43.554 54.7686 42 44.0769 42H27.9231C17.2314 42 15 43.554 15 51" stroke="#141B34" stroke-width="3" stroke-linecap="round" stroke-linejoin="round"/>
<path d="M46.625 25.7848C43.4981 33.1949 33.3301 35.3543 27.5018 29.5802C21.7869 23.9184 23.5562 13.661 31.0707 10.375" stroke="#141B34" stroke-width="3" stroke-linecap="round"/>
<path d="M43.1039 21.625C45.4635 21.625 46.6432 21.625 47.4052 20.5687C47.4336 20.5293 47.481 20.4584 47.5065 20.417C48.1908 19.3089 47.8382 18.4575 47.1329 16.7547C46.4933 15.2107 45.5559 13.8077 44.3741 12.6259C43.1923 11.4441 41.7893 10.5067 40.2453 9.86713C38.5425 9.16182 37.6911 8.80917 36.583 9.49346C36.5416 9.51903 36.4707 9.56636 36.4313 9.59483C35.375 10.3568 35.375 11.5365 35.375 13.8961V16.5343C35.375 18.9341 35.375 20.134 36.1205 20.8795C36.866 21.625 38.0659 21.625 40.4657 21.625H43.1039Z" stroke="#141B34" stroke-width="3"/>
</svg>
