<svg width="72" height="72" viewBox="0 0 72 72" fill="none" xmlns="http://www.w3.org/2000/svg">
<path d="M23.2507 22.6998C29.0078 13.5666 31.8863 9 36 9C40.1137 9 42.9922 13.5666 48.7493 22.6997L55.4824 33.3814C63.7085 46.4316 67.8216 52.9567 65.2277 57.9783C62.6339 63 55.1503 63 40.1833 63H31.8167C16.8497 63 9.36614 63 6.77227 57.9783C4.1784 52.9567 8.29146 46.4316 16.5176 33.3814L23.2507 22.6998Z" stroke="#141B34" stroke-width="3" stroke-linejoin="round"/>
<path d="M10.5 45H18M21 27H51" stroke="#141B34" stroke-width="3" stroke-linecap="round" stroke-linejoin="round"/>
<path d="M49.5 40.5L52.2597 42.8787C53.4199 43.8787 54 44.3787 54 45C54 45.6213 53.4199 46.1213 52.2597 47.1213L49.5 49.5" stroke="#141B34" stroke-width="3" stroke-linecap="round" stroke-linejoin="round"/>
<path d="M28.5 40.5L25.7403 42.8787C24.5801 43.8787 24 44.3787 24 45C24 45.6213 24.5801 46.1213 25.7403 47.1213L28.5 49.5" stroke="#141B34" stroke-width="3" stroke-linecap="round" stroke-linejoin="round"/>
<path d="M42 37.5L36 52.5" stroke="#141B34" stroke-width="3" stroke-linecap="round" stroke-linejoin="round"/>
</svg>
