<svg width="24" height="24" viewBox="0 0 24 24" fill="none" xmlns="http://www.w3.org/2000/svg">
<path d="M9 5C9 6.65685 7.65685 8 6 8C4.34315 8 3 6.65685 3 5C3 3.34315 4.34315 2 6 2C7.65685 2 9 3.34315 9 5Z" stroke="#141B34" stroke-width="1.5"/>
<path d="M21 14C21 15.6569 19.6569 17 18 17C16.3431 17 15 15.6569 15 14C15 12.3431 16.3431 11 18 11C19.6569 11 21 12.3431 21 14Z" stroke="#141B34" stroke-width="1.5"/>
<path d="M9 19C9 20.6569 7.65685 22 6 22C4.34315 22 3 20.6569 3 19C3 17.3431 4.34315 16 6 16C7.65685 16 9 17.3431 9 19Z" stroke="#141B34" stroke-width="1.5"/>
<path d="M6 8V16" stroke="#141B34" stroke-width="1.5" stroke-linecap="round" stroke-linejoin="round"/>
<path d="M15 14H12C8.68629 14 6 11.3137 6 8" stroke="#141B34" stroke-width="1.5" stroke-linecap="round" stroke-linejoin="round"/>
<path d="M12.9974 6.38739L12.3242 6.71794L12.3242 6.71794L12.9974 6.38739ZM13.2853 6.97361L12.612 7.30416L13.2853 6.97361ZM15.2001 6.82079L14.4729 6.63744L14.4729 6.63744L15.2001 6.82079ZM16.3697 2.18197L17.097 2.36533L17.097 2.36533L16.3697 2.18197ZM17.3553 1.5L17.3553 2.25L17.3553 1.5ZM22.5 2.25C22.9142 2.25 23.25 1.91421 23.25 1.5C23.25 1.08579 22.9142 0.75 22.5 0.75L22.5 2.25ZM14.4165 8.49882L14.3568 7.75119L14.3568 7.75119L14.4165 8.49882ZM12.4471 5.65733L12.2497 6.38089L12.2497 6.38089L12.4471 5.65733ZM11.0943 5.36921C10.7459 5.59327 10.6451 6.05733 10.8692 6.40571C11.0933 6.75409 11.5573 6.85486 11.9057 6.63079L11.0943 5.36921ZM17.8034 6.75C17.3892 6.75 17.0534 7.08579 17.0534 7.5C17.0534 7.91421 17.3892 8.25 17.8034 8.25V6.75ZM21.3326 5.25C21.7468 5.25 22.0826 4.91421 22.0826 4.5C22.0826 4.08579 21.7468 3.75 21.3326 3.75V5.25ZM19.2453 5.25386L18.5569 5.55158L18.5569 5.55158L19.2453 5.25386ZM19.8907 6.74614L20.5791 6.44842L20.5791 6.44842L19.8907 6.74614ZM20.2022 7.29833L20.6993 6.73677L20.6993 6.73677L20.2022 7.29833ZM21.125 8.25C21.5392 8.25 21.875 7.91421 21.875 7.5C21.875 7.08579 21.5392 6.75 21.125 6.75V8.25ZM20.4336 7.43969L20.7108 6.74277L20.7108 6.74277L20.4336 7.43969ZM18.011 3.75C17.5968 3.75 17.261 4.08579 17.261 4.5C17.261 4.91421 17.5968 5.25 18.011 5.25V3.75ZM18.7024 4.56031L18.4253 5.25723L18.4253 5.25723L18.7024 4.56031ZM18.9338 4.70167L19.431 4.1401L19.431 4.1401L18.9338 4.70167ZM12.3242 6.71794L12.612 7.30416L13.9585 6.64307L13.6707 6.05685L12.3242 6.71794ZM15.9274 7.00415L17.097 2.36533L15.6425 1.99861L14.4729 6.63744L15.9274 7.00415ZM17.3553 2.25L22.5 2.25L22.5 0.75L17.3553 0.75L17.3553 2.25ZM12.612 7.30416C12.8554 7.79983 13.073 8.24715 13.283 8.5568C13.4732 8.8373 13.8484 9.29654 14.4762 9.24644L14.3568 7.75119C14.6166 7.73046 14.6807 7.94529 14.5245 7.71494C14.388 7.51374 14.224 7.18377 13.9585 6.64307L12.612 7.30416ZM14.4729 6.63744C14.3279 7.21256 14.2385 7.55885 14.1494 7.77408C14.1065 7.87782 14.0883 7.88663 14.111 7.8627C14.1526 7.8189 14.2413 7.76041 14.3568 7.75119L14.4762 9.24644C15.1218 9.19492 15.4061 8.66006 15.5354 8.34784C15.6768 8.00618 15.7953 7.52813 15.9274 7.00415L14.4729 6.63744ZM13.6707 6.05685C13.5715 5.85492 13.4618 5.62693 13.3398 5.45073C13.2004 5.24927 12.9871 5.02725 12.6445 4.93378L12.2497 6.38089C12.2007 6.36751 12.156 6.34318 12.1232 6.31651C12.0958 6.29431 12.0909 6.28198 12.1065 6.30453C12.1227 6.3279 12.1477 6.3691 12.1865 6.44285C12.2251 6.51624 12.2681 6.60354 12.3242 6.71794L13.6707 6.05685ZM17.097 2.36533C17.1283 2.24091 17.1514 2.19152 17.1582 2.17909C17.159 2.17778 17.1372 2.21434 17.0866 2.24621C17.0436 2.27328 17.0223 2.26947 17.0697 2.26249C17.1221 2.25479 17.206 2.25 17.3553 2.25V0.75C17.0754 0.75 16.6472 0.750377 16.2876 0.976703C15.8794 1.23358 15.729 1.65546 15.6425 1.99861L17.097 2.36533ZM11.9057 6.63079C11.9417 6.60765 11.9803 6.58214 12.0123 6.56114C12.0463 6.53878 12.0775 6.5185 12.1082 6.49919C12.1707 6.45994 12.2207 6.43161 12.2629 6.41181C12.3617 6.3655 12.3355 6.4043 12.2497 6.38089L12.6445 4.93378C12.2252 4.81938 11.8536 4.94708 11.6263 5.05364C11.4036 5.15802 11.1835 5.3118 11.0943 5.36921L11.9057 6.63079ZM17.8034 8.25C18.4407 8.25 18.9286 7.90621 19.2748 7.56689C19.6195 7.22914 19.925 6.79366 20.1801 6.43347L18.956 5.56653C18.6799 5.95634 18.4542 6.27086 18.2249 6.49561C17.9972 6.71879 17.8684 6.75 17.8034 6.75V8.25ZM20.1801 6.43347C20.4561 6.04366 20.6818 5.72914 20.9111 5.50439C21.1388 5.28121 21.2677 5.25 21.3326 5.25V3.75C20.6953 3.75 20.2074 4.09379 19.8612 4.43311C19.5166 4.77086 19.2111 5.20634 18.956 5.56653L20.1801 6.43347ZM18.5569 5.55158L18.8796 6.29772L20.2564 5.70228L19.9337 4.95614L18.5569 5.55158ZM18.8796 6.29772L19.2023 7.04386L20.5791 6.44842L20.2564 5.70228L18.8796 6.29772ZM19.2023 7.04386C19.3037 7.27825 19.4331 7.61914 19.7051 7.8599L20.6993 6.73677C20.7295 6.76345 20.7339 6.78213 20.7118 6.74079C20.6996 6.71817 20.6836 6.68541 20.6607 6.63473C20.6377 6.58389 20.6121 6.52471 20.5791 6.44842L19.2023 7.04386ZM21.125 6.75C20.9349 6.75 20.8301 6.74958 20.7531 6.74425C20.6851 6.73955 20.6871 6.73337 20.7108 6.74277L20.1565 8.13661C20.4741 8.26292 20.8306 8.25 21.125 8.25V6.75ZM19.7051 7.8599C19.8393 7.97877 19.9929 8.07153 20.1565 8.13661L20.7108 6.74277C20.7021 6.73934 20.6988 6.7363 20.6993 6.73677L19.7051 7.8599ZM18.011 5.25C18.2011 5.25 18.3059 5.25041 18.383 5.25575C18.4509 5.26045 18.4489 5.26662 18.4253 5.25723L18.9795 3.86339C18.6619 3.73708 18.3054 3.75 18.011 3.75V5.25ZM19.9337 4.95614C19.8323 4.72175 19.7029 4.38086 19.431 4.1401L18.4367 5.26323C18.4066 5.23655 18.4021 5.21787 18.4243 5.2592C18.4364 5.28183 18.4524 5.31459 18.4753 5.36527C18.4983 5.41611 18.5239 5.47529 18.5569 5.55158L19.9337 4.95614ZM18.4253 5.25723C18.4339 5.26066 18.4372 5.2637 18.4367 5.26323L19.431 4.1401C19.2967 4.02122 19.1432 3.92846 18.9795 3.86339L18.4253 5.25723Z" fill="#141B34"/>
</svg>
