<svg width="24" height="24" viewBox="0 0 24 24" fill="none" xmlns="http://www.w3.org/2000/svg">
<path d="M21 21H10C6.70017 21 5.05025 21 4.02513 19.9749C3 18.9497 3 17.2998 3 14V3" stroke="#141B34" stroke-width="1.5" stroke-linecap="round"/>
<path d="M6.99745 8.38739L6.32422 8.71794L6.32422 8.71794L6.99745 8.38739ZM7.28527 8.97361L6.61204 9.30416L7.28527 8.97361ZM9.20015 8.82079L8.47291 8.63744L8.47291 8.63744L9.20015 8.82079ZM10.3697 4.18197L11.097 4.36533L11.097 4.36533L10.3697 4.18197ZM11.3553 3.5L11.3553 4.25L11.3553 3.5ZM16.5 4.25C16.9142 4.25 17.25 3.91421 17.25 3.5C17.25 3.08579 16.9142 2.75 16.5 2.75L16.5 4.25ZM8.41651 10.4988L8.35685 9.75119L8.35684 9.75119L8.41651 10.4988ZM6.4471 7.65733L6.24969 8.38089L6.2497 8.38089L6.4471 7.65733ZM5.09429 7.36921C4.74591 7.59327 4.64514 8.05733 4.86921 8.40571C5.09327 8.75409 5.55733 8.85486 5.90571 8.63079L5.09429 7.36921ZM11.8034 8.75C11.3892 8.75 11.0534 9.08579 11.0534 9.5C11.0534 9.91421 11.3892 10.25 11.8034 10.25V8.75ZM15.3326 7.25C15.7468 7.25 16.0826 6.91421 16.0826 6.5C16.0826 6.08579 15.7468 5.75 15.3326 5.75V7.25ZM13.2453 7.25386L12.5569 7.55158L12.5569 7.55158L13.2453 7.25386ZM13.8907 8.74614L14.5791 8.44842L14.5791 8.44842L13.8907 8.74614ZM14.2022 9.29833L14.6993 8.73677L14.6993 8.73677L14.2022 9.29833ZM15.125 10.25C15.5392 10.25 15.875 9.91421 15.875 9.5C15.875 9.08579 15.5392 8.75 15.125 8.75V10.25ZM14.4336 9.43969L14.7108 8.74277L14.7108 8.74277L14.4336 9.43969ZM12.011 5.75C11.5968 5.75 11.261 6.08579 11.261 6.5C11.261 6.91421 11.5968 7.25 12.011 7.25V5.75ZM12.7024 6.56031L12.4253 7.25723L12.4253 7.25723L12.7024 6.56031ZM12.9338 6.70167L13.431 6.1401L13.431 6.1401L12.9338 6.70167ZM6.32422 8.71794L6.61204 9.30416L7.9585 8.64307L7.67068 8.05685L6.32422 8.71794ZM9.92739 9.00415L11.097 4.36533L9.64248 3.99861L8.47291 8.63744L9.92739 9.00415ZM11.3553 4.25L16.5 4.25L16.5 2.75L11.3553 2.75L11.3553 4.25ZM6.61204 9.30416C6.85541 9.79983 7.073 10.2471 7.28298 10.5568C7.47319 10.8373 7.84844 11.2965 8.47617 11.2464L8.35684 9.75119C8.61661 9.73046 8.68067 9.94529 8.52446 9.71494C8.38803 9.51374 8.22398 9.18377 7.9585 8.64307L6.61204 9.30416ZM8.47291 8.63744C8.3279 9.21256 8.23854 9.55885 8.14943 9.77408C8.10648 9.87782 8.08833 9.88663 8.11103 9.8627C8.15257 9.8189 8.24133 9.76041 8.35685 9.75119L8.47617 11.2464C9.1218 11.1949 9.40611 10.6601 9.53536 10.3478C9.67681 10.0062 9.79528 9.52813 9.92739 9.00415L8.47291 8.63744ZM7.67068 8.05685C7.57153 7.85492 7.4618 7.62693 7.33982 7.45073C7.20035 7.24927 6.9871 7.02725 6.64451 6.93378L6.2497 8.38089C6.20066 8.36751 6.15603 8.34318 6.12316 8.31651C6.09581 8.29431 6.09091 8.28198 6.10653 8.30453C6.1227 8.3279 6.14766 8.3691 6.18649 8.44285C6.22512 8.51624 6.26805 8.60354 6.32422 8.71794L7.67068 8.05685ZM11.097 4.36533C11.1283 4.24091 11.1514 4.19152 11.1582 4.17909C11.159 4.17778 11.1372 4.21434 11.0866 4.24621C11.0436 4.27328 11.0223 4.26947 11.0697 4.26249C11.1221 4.25479 11.206 4.25 11.3553 4.25V2.75C11.0754 2.75 10.6472 2.75038 10.2876 2.9767C9.87943 3.23358 9.729 3.65546 9.64248 3.99861L11.097 4.36533ZM5.90571 8.63079C5.94169 8.60765 5.98028 8.58214 6.01226 8.56114C6.04631 8.53878 6.07745 8.5185 6.10819 8.49919C6.17067 8.45994 6.22072 8.43161 6.26295 8.41181C6.36174 8.3655 6.3355 8.4043 6.24969 8.38089L6.64452 6.93378C6.22521 6.81938 5.85359 6.94708 5.62628 7.05364C5.4036 7.15802 5.18355 7.3118 5.09429 7.36921L5.90571 8.63079ZM11.8034 10.25C12.4407 10.25 12.9286 9.90621 13.2748 9.56689C13.6195 9.22914 13.925 8.79366 14.1801 8.43347L12.956 7.56653C12.6799 7.95634 12.4542 8.27086 12.2249 8.49561C11.9972 8.71879 11.8684 8.75 11.8034 8.75V10.25ZM14.1801 8.43347C14.4561 8.04366 14.6818 7.72914 14.9111 7.50439C15.1388 7.28121 15.2677 7.25 15.3326 7.25V5.75C14.6953 5.75 14.2074 6.09379 13.8612 6.43311C13.5166 6.77086 13.2111 7.20634 12.956 7.56653L14.1801 8.43347ZM12.5569 7.55158L12.8796 8.29772L14.2564 7.70228L13.9337 6.95614L12.5569 7.55158ZM12.8796 8.29772L13.2023 9.04386L14.5791 8.44842L14.2564 7.70228L12.8796 8.29772ZM13.2023 9.04386C13.3037 9.27825 13.4331 9.61914 13.7051 9.8599L14.6993 8.73677C14.7295 8.76345 14.7339 8.78213 14.7118 8.74079C14.6996 8.71817 14.6836 8.68541 14.6607 8.63473C14.6377 8.58389 14.6121 8.52471 14.5791 8.44842L13.2023 9.04386ZM15.125 8.75C14.9349 8.75 14.8301 8.74958 14.7531 8.74425C14.6851 8.73955 14.6871 8.73337 14.7108 8.74277L14.1565 10.1366C14.4741 10.2629 14.8306 10.25 15.125 10.25V8.75ZM13.7051 9.8599C13.8393 9.97877 13.9929 10.0715 14.1565 10.1366L14.7108 8.74277C14.7021 8.73934 14.6988 8.7363 14.6993 8.73677L13.7051 9.8599ZM12.011 7.25C12.2011 7.25 12.3059 7.25041 12.383 7.25575C12.4509 7.26045 12.4489 7.26662 12.4253 7.25723L12.9795 5.86339C12.6619 5.73708 12.3054 5.75 12.011 5.75V7.25ZM13.9337 6.95614C13.8323 6.72175 13.7029 6.38086 13.431 6.1401L12.4367 7.26323C12.4066 7.23655 12.4021 7.21787 12.4243 7.2592C12.4364 7.28183 12.4524 7.31459 12.4753 7.36527C12.4983 7.41611 12.5239 7.47529 12.5569 7.55158L13.9337 6.95614ZM12.4253 7.25723C12.4339 7.26066 12.4372 7.2637 12.4367 7.26323L13.431 6.1401C13.2967 6.02122 13.1432 5.92846 12.9795 5.86339L12.4253 7.25723Z" fill="#141B34"/>
<path d="M5 20C6.07093 18.053 7.52279 13.0189 10.3063 13.0189C12.2301 13.0189 12.7283 15.4717 14.6136 15.4717C17.8572 15.4717 17.387 10 21 10" stroke="#141B34" stroke-width="1.5" stroke-linecap="round" stroke-linejoin="round"/>
</svg>
