<svg width="72" height="72" viewBox="0 0 72 72" fill="none" xmlns="http://www.w3.org/2000/svg">
<path d="M43.5 66L42.5535 64.7434C40.4198 61.9107 39.8908 57.5831 41.2403 54" stroke="#141B34" stroke-width="3" stroke-linecap="round"/>
<path d="M28.5 66L29.4465 64.7434C31.5802 61.9107 32.1092 57.5831 30.7597 54" stroke="#141B34" stroke-width="3" stroke-linecap="round"/>
<path d="M21 66H51" stroke="#141B34" stroke-width="3" stroke-linecap="round"/>
<path d="M52.9309 23.8596C52.0165 24.835 50.2819 24.566 50.2819 24.566C50.2819 24.566 50.0297 22.7157 50.9441 21.7404C51.8585 20.765 53.5931 21.034 53.5931 21.034C53.5931 21.034 53.8453 22.8843 52.9309 23.8596Z" stroke="#141B34" stroke-width="2.5" stroke-linejoin="round"/>
<path d="M43.5 31.8533C43.5 34.8068 45.3533 38.1992 47.2284 38.9161C47.8786 39.1646 48.5505 38.8216 49.1092 38.3945C49.533 38.0705 50.0462 37.7612 50.4607 37.7612C50.8751 37.7612 51.3883 38.0705 51.8121 38.3945C52.3708 38.8216 53.0428 39.1646 53.6929 38.9161C55.0253 38.4067 56.3467 36.5464 57 34.4525C55.735 34.066 54.8111 32.8452 54.8111 31.3989C54.8111 30.0738 55.5866 28.938 56.6893 28.4597C55.9788 27.1137 54.8177 26.3999 53.5059 26.3999C52.8273 26.3999 52.2036 26.6917 51.6998 27.0415C50.8957 27.5997 50.0256 27.5997 49.2215 27.0415C48.7177 26.6917 48.094 26.3999 47.4154 26.3999C45.253 26.3999 43.5 28.3395 43.5 31.8533Z" stroke="#141B34" stroke-width="2.5" stroke-linejoin="round"/>
<path d="M42 6H30C20.1623 6 15.2435 6 11.7567 8.44145C10.4667 9.34471 9.34471 10.4667 8.44145 11.7567C6 15.2435 6 20.1623 6 30C6 39.8377 6 44.7565 8.44145 48.2433C9.34471 49.5333 10.4667 50.6553 11.7567 51.5586C15.2435 54 20.1623 54 30 54H42C51.8377 54 56.7565 54 60.2433 51.5586C61.5333 50.6553 62.6553 49.5333 63.5586 48.2433C66 44.7565 66 39.8377 66 30C66 20.1623 66 15.2435 63.5586 11.7567C62.6553 10.4667 61.5333 9.34471 60.2433 8.44145C56.7565 6 51.8377 6 42 6Z" stroke="#141B34" stroke-width="3" stroke-linecap="round"/>
<path d="M25.3502 33.1506C25.3502 32.3021 25.3502 31.8778 25.6138 31.6142C25.8774 31.3506 26.3017 31.3506 27.1502 31.3506H31.2002C32.0487 31.3506 32.473 31.3506 32.7366 31.6142C33.0002 31.8778 33.0002 32.3021 33.0002 33.1506V37.2006C33.0002 38.0491 33.0002 38.4734 32.7366 38.737C32.473 39.0006 32.0487 39.0006 31.2002 39.0006H27.1502C26.3017 39.0006 25.8774 39.0006 25.6138 38.737C25.3502 38.4734 25.3502 38.0491 25.3502 37.2006V33.1506Z" stroke="#141B34" stroke-width="2.5" stroke-linecap="round" stroke-linejoin="round"/>
<path d="M15 22.8C15 21.9515 15 21.5272 15.2636 21.2636C15.5272 21 15.9515 21 16.8 21H20.85C21.6985 21 22.1228 21 22.3864 21.2636C22.65 21.5272 22.65 21.9515 22.65 22.8V26.85C22.65 27.6985 22.65 28.1228 22.3864 28.3864C22.1228 28.65 21.6985 28.65 20.85 28.65H16.8C15.9515 28.65 15.5272 28.65 15.2636 28.3864C15 28.1228 15 27.6985 15 26.85L15 22.8Z" stroke="#141B34" stroke-width="2.5" stroke-linecap="round" stroke-linejoin="round"/>
<path d="M15 33.1501C15 32.3016 15 31.8773 15.2636 31.6137C15.5272 31.3501 15.9515 31.3501 16.8 31.3501H20.85C21.6985 31.3501 22.1228 31.3501 22.3864 31.6137C22.65 31.8773 22.65 32.3016 22.65 33.1501V37.2001C22.65 38.0486 22.65 38.4729 22.3864 38.7365C22.1228 39.0001 21.6985 39.0001 20.85 39.0001H16.8C15.9515 39.0001 15.5272 39.0001 15.2636 38.7365C15 38.4729 15 38.0486 15 37.2001L15 33.1501Z" stroke="#141B34" stroke-width="2.5" stroke-linecap="round" stroke-linejoin="round"/>
<path d="M25.3502 22.8C25.3502 21.9515 25.3502 21.5272 25.6138 21.2636C25.8774 21 26.3017 21 27.1502 21H31.2002C32.0487 21 32.473 21 32.7366 21.2636C33.0002 21.5272 33.0002 21.9515 33.0002 22.8V26.85C33.0002 27.6985 33.0002 28.1228 32.7366 28.3864C32.473 28.65 32.0487 28.65 31.2002 28.65H27.1502C26.3017 28.65 25.8774 28.65 25.6138 28.3864C25.3502 28.1228 25.3502 27.6985 25.3502 26.85V22.8Z" stroke="#141B34" stroke-width="2.5" stroke-linecap="round" stroke-linejoin="round"/>
</svg>
