<svg width="24" height="24" viewBox="0 0 24 24" fill="none" xmlns="http://www.w3.org/2000/svg">
<path d="M17.5 17.5L22 22" stroke="#141B34" stroke-width="1.5" stroke-linecap="round" stroke-linejoin="round"/>
<path d="M20 11C20 6.02944 15.9706 2 11 2C6.02944 2 2 6.02944 2 11C2 15.9706 6.02944 20 11 20C15.9706 20 20 15.9706 20 11Z" stroke="#141B34" stroke-width="1.5" stroke-linejoin="round"/>
<circle cx="9.5" cy="7" r="1" stroke="#141B34" stroke-width="1.25" stroke-linecap="round"/>
<circle cx="14.5" cy="8.5" r="1" stroke="#141B34" stroke-width="1.25" stroke-linecap="round"/>
<circle cx="15" cy="15" r="1" stroke="#141B34" stroke-width="1.25" stroke-linecap="round"/>
<circle cx="7" cy="14" r="1" stroke="#141B34" stroke-width="1.25" stroke-linecap="round"/>
<path d="M10.4586 7.2876L13.5424 8.21275M14.5772 9.49728L14.9238 14.0031M14.0081 14.8761L7.99287 14.1242M9.16406 7.94217L7.33691 13.0582" stroke="#141B34" stroke-width="1.25" stroke-linecap="round"/>
</svg>
