<svg width="72" height="72" viewBox="0 0 72 72" fill="none" xmlns="http://www.w3.org/2000/svg">
<path d="M28.5 30C28.5 33.3137 31.1863 36 34.5 36C37.8137 36 40.5 33.3137 40.5 30C40.5 26.6863 37.8137 24 34.5 24C31.1863 24 28.5 26.6863 28.5 30Z" stroke="#141B34" stroke-width="3"/>
<path d="M13.7108 42C11.6687 38.4699 10.5 34.3714 10.5 30C10.5 16.7452 21.2452 6 34.5 6C47.7548 6 58.5 16.7452 58.5 30C58.5 34.3714 57.3313 38.4699 55.2892 42" stroke="#141B34" stroke-width="3" stroke-linecap="round"/>
<path d="M40.05 66H16.95C13.158 66 11.2619 66 9.89992 64.8444C9.31029 64.3441 8.80404 63.7012 8.41006 62.9525C7.5 61.2229 7.5 58.8153 7.5 54C7.5 49.1847 7.5 46.7771 8.41006 45.0475C8.80404 44.2988 9.31029 43.6559 9.89992 43.1556C11.2619 42 13.158 42 16.95 42H58.5" stroke="#141B34" stroke-width="3" stroke-linecap="round"/>
<path d="M46.1719 19.8317L52.2062 13.7974" stroke="#141B34" stroke-width="3" stroke-linecap="round" stroke-linejoin="round"/>
<path d="M63 60.9796L59.4775 65.4393C57.6025 67.8131 56.665 69 55.5 69C54.335 69 53.3975 67.8131 51.5225 65.4393L48 60.9796M55.5 68.7383V48" stroke="#141B34" stroke-width="3" stroke-linecap="round" stroke-linejoin="round"/>
</svg>
