<svg width="24" height="24" viewBox="0 0 24 24" fill="none" xmlns="http://www.w3.org/2000/svg">
<path d="M17.5 17.5L22 22" stroke="#141B34" stroke-width="1.5" stroke-linecap="round" stroke-linejoin="round"/>
<path d="M20 11C20 6.02944 15.9706 2 11 2C6.02944 2 2 6.02944 2 11C2 15.9706 6.02944 20 11 20C15.9706 20 20 15.9706 20 11Z" stroke="#141B34" stroke-width="1.5" stroke-linejoin="round"/>
<path d="M6 14L8.36711 11.6329C8.66815 11.3319 8.81867 11.1813 9.00946 11.1708C9.20025 11.1602 9.36647 11.2932 9.69891 11.5591L10.7586 12.4069C11.1096 12.6877 11.2851 12.8281 11.484 12.8112C11.6828 12.7943 11.8321 12.6264 12.1307 12.2904L15.5 8.5" stroke="#141B34" stroke-width="1.5" stroke-linecap="round" stroke-linejoin="round"/>
<path d="M14 7.99976H15C15.4714 7.99976 15.7071 7.99976 15.8536 8.1462C16 8.29265 16 8.52835 16 8.99976L16 9.99976" stroke="#141B34" stroke-width="1.5" stroke-linecap="round" stroke-linejoin="round"/>
<path d="M7.49976 8.99951H10.4998" stroke="#141B34" stroke-width="1.5" stroke-linecap="round" stroke-linejoin="round"/>
</svg>
