<svg width="72" height="72" viewBox="0 0 72 72" fill="none" xmlns="http://www.w3.org/2000/svg">
<path d="M36 24V36M36 36H27C21.3431 36 18.5147 36 16.7574 37.7574C15 39.5147 15 42.3431 15 48M36 36H45C50.6569 36 53.4853 36 55.2426 37.7574C57 39.5147 57 42.3431 57 48" stroke="#141B34" stroke-width="3" stroke-linecap="round" stroke-linejoin="round"/>
<path d="M6 57C6 52.7574 6 50.636 7.31802 49.318C8.63604 48 10.7574 48 15 48C19.2426 48 21.364 48 22.682 49.318C24 50.636 24 52.7574 24 57C24 61.2426 24 63.364 22.682 64.682C21.364 66 19.2426 66 15 66C10.7574 66 8.63604 66 7.31802 64.682C6 63.364 6 61.2426 6 57Z" stroke="#141B34" stroke-width="3"/>
<path d="M48 57C48 52.7574 48 50.636 49.318 49.318C50.636 48 52.7574 48 57 48C61.2426 48 63.364 48 64.682 49.318C66 50.636 66 52.7574 66 57C66 61.2426 66 63.364 64.682 64.682C63.364 66 61.2426 66 57 66C52.7574 66 50.636 66 49.318 64.682C48 63.364 48 61.2426 48 57Z" stroke="#141B34" stroke-width="3"/>
<path d="M30.8571 6H41.1429C47.3664 6 48 9.32978 48 15C48 20.6702 47.3664 24 41.1429 24H30.8571C24.6336 24 24 20.6702 24 15C24 9.32978 24.6336 6 30.8571 6Z" stroke="#141B34" stroke-width="3"/>
</svg>
