<svg width="24" height="24" viewBox="0 0 24 24" fill="none" xmlns="http://www.w3.org/2000/svg">
<path d="M9.33341 11.7579H14.6336C16.109 11.7579 17.2712 10.5095 17.2712 9.02794V3.97518C17.2712 2.53704 16.0657 1.45661 14.6256 1.21668C13.7142 1.0649 12.7724 0.995832 11.8651 1.00019C10.958 1.00437 10.1179 1.08163 9.35576 1.21668C7.11003 1.61311 6.72868 2.44379 6.72868 3.97518V5.94135H11.6364C11.8372 5.94135 11.9999 6.10411 11.9999 6.30489V6.30489C11.9999 6.50566 11.8372 6.66842 11.6364 6.66842H4.68853C3.14642 6.66842 1.79589 7.59688 1.37364 9.36057C0.886326 11.3818 0.864696 12.6177 1.37364 14.7282C1.75081 16.299 2.65147 17.3927 4.19376 17.3927H6.00162V15.021C6.00162 13.2693 7.53355 11.7579 9.33341 11.7579ZM22.5935 9.36057C22.2122 7.825 21.4842 6.66842 19.9399 6.66842H17.9982V9.02794C17.9982 10.8547 16.3998 12.3032 14.6336 12.3032H9.33341C7.88145 12.3032 6.72868 13.6348 6.72868 15.089V20.1421C6.72868 21.5799 7.9547 22.4258 9.3574 22.8384C11.0373 23.3323 12.6281 23.4215 14.6379 22.8384C15.9737 22.4514 17.2712 21.6731 17.2712 20.1421V18.1197H12.3635C12.1627 18.1197 11.9999 17.957 11.9999 17.7562V17.7562C11.9999 17.5554 12.1627 17.3927 12.3635 17.3927H19.9399C21.482 17.3927 22.0569 16.3428 22.5935 14.728C23.1473 13.0657 23.1235 11.4927 22.5935 9.36057Z" stroke="#141B34" stroke-width="1.5"/>
<path d="M9.49102 3.5H9.5M14.491 20.5H14.5" stroke="#141B34" stroke-width="1.5" stroke-linecap="round" stroke-linejoin="round"/>
</svg>
