<svg width="72" height="72" viewBox="0 0 72 72" fill="none" xmlns="http://www.w3.org/2000/svg">
<path d="M27 15C27 19.9706 22.9706 24 18 24C13.0294 24 9 19.9706 9 15C9 10.0294 13.0294 6 18 6C22.9706 6 27 10.0294 27 15Z" stroke="#141B34" stroke-width="3"/>
<path d="M63 42C63 46.9706 58.9706 51 54 51C49.0294 51 45 46.9706 45 42C45 37.0294 49.0294 33 54 33C58.9706 33 63 37.0294 63 42Z" stroke="#141B34" stroke-width="3"/>
<path d="M27 57C27 61.9706 22.9706 66 18 66C13.0294 66 9 61.9706 9 57C9 52.0294 13.0294 48 18 48C22.9706 48 27 52.0294 27 57Z" stroke="#141B34" stroke-width="3"/>
<path d="M18 24L18 48" stroke="#141B34" stroke-width="3" stroke-linecap="round" stroke-linejoin="round"/>
<path d="M45 42H36C26.0589 42 18 33.9411 18 24" stroke="#141B34" stroke-width="3" stroke-linecap="round" stroke-linejoin="round"/>
<path d="M38.9923 19.1622L37.6459 19.8233L37.6459 19.8233L38.9923 19.1622ZM39.8558 20.9208L38.5094 21.5819L39.8558 20.9208ZM45.6004 20.4624L44.146 20.0957H44.146L45.6004 20.4624ZM49.1092 6.54591L50.5637 6.91263V6.91263L49.1092 6.54591ZM52.0658 4.5V6V4.5ZM67.5 6C68.3284 6 69 5.32843 69 4.5C69 3.67157 68.3284 3 67.5 3V6ZM43.2495 25.4965L43.1302 24.0012H43.1302L43.2495 25.4965ZM37.3413 16.972L36.9465 18.4191L36.9465 18.4191L37.3413 16.972ZM33.6886 16.7384C32.9918 17.1865 32.7903 18.1147 33.2384 18.8114C33.6865 19.5082 34.6147 19.7097 35.3114 19.2616L33.6886 16.7384ZM53.4103 21C52.5819 21 51.9103 21.6716 51.9103 22.5C51.9103 23.3284 52.5819 24 53.4103 24V21ZM63.9978 15C64.8262 15 65.4978 14.3284 65.4978 13.5C65.4978 12.6716 64.8262 12 63.9978 12V15ZM57.7359 15.7616L56.3592 16.357H56.3592L57.7359 15.7616ZM59.6722 20.2384L61.0489 19.643V19.643L59.6722 20.2384ZM60.6066 21.895L61.6009 20.7719L61.6009 20.7719L60.6066 21.895ZM63.375 24C64.2034 24 64.875 23.3284 64.875 22.5C64.875 21.6716 64.2034 21 63.375 21V24ZM61.3009 22.3191L61.8552 20.9252L61.8552 20.9252L61.3009 22.3191ZM54.0331 12C53.2047 12 52.5331 12.6716 52.5331 13.5C52.5331 14.3284 53.2047 15 54.0331 15V12ZM56.1072 13.6809L55.5529 15.0748L56.1072 13.6809ZM56.8015 14.105L57.7958 12.9819H57.7958L56.8015 14.105ZM37.6459 19.8233L38.5094 21.5819L41.2023 20.2597L40.3388 18.5011L37.6459 19.8233ZM47.0549 20.8291L50.5637 6.91263L47.6547 6.1792L44.146 20.0957L47.0549 20.8291ZM52.0658 6H67.5V3H52.0658V6ZM38.5094 21.5819C39.2505 23.0915 39.8765 24.3747 40.4697 25.2495C41.0233 26.0659 41.9294 27.1066 43.3689 26.9917L43.1302 24.0012C43.4658 23.9744 43.4383 24.2819 42.9526 23.5657C42.5066 22.9079 41.9877 21.8593 41.2023 20.2597L38.5094 21.5819ZM44.146 20.0957C43.7174 21.7955 43.4347 22.9002 43.1413 23.6091C42.8234 24.3769 42.7589 24.0308 43.1302 24.0012L43.3689 26.9917C44.8441 26.874 45.5393 25.6595 45.9131 24.7566C46.3113 23.7949 46.6521 22.4266 47.0549 20.8291L44.146 20.0957ZM40.3388 18.5011C40.0309 17.874 39.7293 17.2506 39.4028 16.7791C39.0414 16.257 38.5321 15.7421 37.7361 15.5249L36.9465 18.4191C36.8153 18.3833 36.8027 18.2938 36.9362 18.4867C37.1047 18.7301 37.2962 19.1111 37.6459 19.8233L40.3388 18.5011ZM50.5637 6.91263C50.7764 6.06876 50.9299 6.06005 50.8602 6.10389C50.8489 6.11103 50.8957 6.07554 51.1 6.04547C51.3142 6.01395 51.6117 6 52.0658 6V3C51.1949 3 50.1309 3.01823 49.2623 3.56486C48.2966 4.1726 47.9049 5.18685 47.6547 6.1792L50.5637 6.91263ZM35.3114 19.2616C35.7737 18.9643 36.1006 18.7298 36.4705 18.5564C36.6377 18.478 36.7605 18.4399 36.8456 18.4248C36.8857 18.4177 36.912 18.4167 36.9267 18.4171C36.9405 18.4174 36.9459 18.419 36.9465 18.4191L37.7361 15.5249C36.7308 15.2506 35.8148 15.5505 35.1972 15.84C34.5888 16.1252 33.9953 16.5412 33.6886 16.7384L35.3114 19.2616ZM53.4103 24C55.036 24 56.3201 23.1249 57.2995 22.165C58.2757 21.2083 59.1524 19.9623 59.9281 18.8669L57.4799 17.1331C56.6622 18.2877 55.9453 19.2917 55.1997 20.0225C54.4573 20.7501 53.8913 21 53.4103 21V24ZM59.9281 18.8669C60.7459 17.7123 61.4628 16.7083 62.2084 15.9775C62.9508 15.2499 63.5168 15 63.9978 15V12C62.3721 12 61.088 12.8751 60.1085 13.835C59.1323 14.7917 58.2557 16.0377 57.4799 17.1331L59.9281 18.8669ZM56.3592 16.357L57.3273 18.5954L60.0808 17.4046L59.1127 15.1661L56.3592 16.357ZM57.3273 18.5954L58.2954 20.8339L61.0489 19.643L60.0808 17.4046L57.3273 18.5954ZM58.2954 20.8339C58.6273 21.6013 58.9507 22.4324 59.6123 23.0181L61.6009 20.7719C61.5977 20.7691 61.5893 20.7616 61.5723 20.7387C61.553 20.7125 61.5213 20.6645 61.4742 20.5767C61.3698 20.3819 61.2524 20.1134 61.0489 19.643L58.2954 20.8339ZM63.375 21C62.1647 21 61.9782 20.9742 61.8552 20.9252L60.7467 23.7129C61.5336 24.0258 62.4265 24 63.375 24V21ZM59.6123 23.0181C59.9478 23.3151 60.3332 23.5485 60.7467 23.7129L61.8552 20.9252C61.7518 20.8841 61.6667 20.8301 61.6009 20.7719L59.6123 23.0181ZM54.0331 15C55.2434 15 55.4299 15.0258 55.5529 15.0748L56.6614 12.2871C55.8745 11.9742 54.9816 12 54.0331 12V15ZM59.1127 15.1661C58.7808 14.3987 58.4574 13.5676 57.7958 12.9819L55.8072 15.2281C55.8104 15.2309 55.8188 15.2384 55.8358 15.2613C55.8551 15.2875 55.8868 15.3355 55.9338 15.4233C56.0383 15.6181 56.1557 15.8866 56.3592 16.357L59.1127 15.1661ZM55.5529 15.0748C55.6563 15.1159 55.7414 15.1699 55.8072 15.2281L57.7958 12.9819C57.4603 12.6849 57.0749 12.4515 56.6614 12.2871L55.5529 15.0748Z" fill="#141B34"/>
</svg>
