<svg width="72" height="72" viewBox="0 0 72 72" fill="none" xmlns="http://www.w3.org/2000/svg">
<path d="M63 63H30C20.1005 63 15.1508 63 12.0754 59.9246C9 56.8492 9 51.8995 9 42V9" stroke="#141B34" stroke-width="3" stroke-linecap="round"/>
<path d="M20.9923 25.1622L19.6459 25.8233L19.6459 25.8233L20.9923 25.1622ZM21.8558 26.9208L20.5094 27.5819L21.8558 26.9208ZM27.6004 26.4624L26.146 26.0957H26.146L27.6004 26.4624ZM31.1092 12.5459L32.5637 12.9126V12.9126L31.1092 12.5459ZM34.0658 10.5V12V10.5ZM49.5 12C50.3284 12 51 11.3284 51 10.5C51 9.67157 50.3284 9 49.5 9V12ZM25.2495 31.4965L25.1302 30.0012H25.1302L25.2495 31.4965ZM19.3413 22.972L18.9465 24.4191L18.9465 24.4191L19.3413 22.972ZM15.6886 22.7384C14.9918 23.1865 14.7903 24.1147 15.2384 24.8114C15.6865 25.5082 16.6147 25.7097 17.3114 25.2616L15.6886 22.7384ZM35.4103 27C34.5819 27 33.9103 27.6716 33.9103 28.5C33.9103 29.3284 34.5819 30 35.4103 30V27ZM45.9978 21C46.8262 21 47.4978 20.3284 47.4978 19.5C47.4978 18.6716 46.8262 18 45.9978 18V21ZM39.7359 21.7616L38.3592 22.357H38.3592L39.7359 21.7616ZM41.6722 26.2384L43.0489 25.643V25.643L41.6722 26.2384ZM42.6066 27.895L43.6009 26.7719L43.6009 26.7719L42.6066 27.895ZM45.375 30C46.2034 30 46.875 29.3284 46.875 28.5C46.875 27.6716 46.2034 27 45.375 27V30ZM43.3009 28.3191L43.8552 26.9252L43.8552 26.9252L43.3009 28.3191ZM36.0331 18C35.2047 18 34.5331 18.6716 34.5331 19.5C34.5331 20.3284 35.2047 21 36.0331 21V18ZM38.1072 19.6809L37.5529 21.0748L38.1072 19.6809ZM38.8015 20.105L39.7958 18.9819H39.7958L38.8015 20.105ZM19.6459 25.8233L20.5094 27.5819L23.2023 26.2597L22.3388 24.5011L19.6459 25.8233ZM29.0549 26.8291L32.5637 12.9126L29.6547 12.1792L26.146 26.0957L29.0549 26.8291ZM34.0658 12H49.5V9H34.0658V12ZM20.5094 27.5819C21.2505 29.0915 21.8765 30.3747 22.4697 31.2495C23.0233 32.0659 23.9294 33.1066 25.3689 32.9917L25.1302 30.0012C25.4658 29.9744 25.4383 30.2819 24.9526 29.5657C24.5066 28.9079 23.9877 27.8593 23.2023 26.2597L20.5094 27.5819ZM26.146 26.0957C25.7174 27.7955 25.4347 28.9002 25.1413 29.6091C24.8234 30.3769 24.7589 30.0308 25.1302 30.0012L25.3689 32.9917C26.8441 32.874 27.5393 31.6595 27.9131 30.7566C28.3113 29.7949 28.6521 28.4266 29.0549 26.8291L26.146 26.0957ZM22.3388 24.5011C22.0309 23.874 21.7293 23.2506 21.4028 22.7791C21.0414 22.257 20.5321 21.7421 19.7361 21.5249L18.9465 24.4191C18.8153 24.3833 18.8027 24.2938 18.9362 24.4867C19.1047 24.7301 19.2962 25.1111 19.6459 25.8233L22.3388 24.5011ZM32.5637 12.9126C32.7764 12.0688 32.9299 12.0601 32.8602 12.1039C32.8489 12.111 32.8957 12.0755 33.1 12.0455C33.3142 12.014 33.6117 12 34.0658 12V9C33.1949 9 32.1309 9.01823 31.2623 9.56486C30.2966 10.1726 29.9049 11.1868 29.6547 12.1792L32.5637 12.9126ZM17.3114 25.2616C17.7737 24.9643 18.1006 24.7298 18.4705 24.5564C18.6377 24.478 18.7605 24.4399 18.8456 24.4248C18.8857 24.4177 18.912 24.4167 18.9267 24.4171C18.9405 24.4174 18.9459 24.419 18.9465 24.4191L19.7361 21.5249C18.7308 21.2506 17.8148 21.5505 17.1972 21.84C16.5888 22.1252 15.9953 22.5412 15.6886 22.7384L17.3114 25.2616ZM35.4103 30C37.036 30 38.3201 29.1249 39.2995 28.165C40.2757 27.2083 41.1524 25.9623 41.9281 24.8669L39.4799 23.1331C38.6622 24.2877 37.9453 25.2917 37.1997 26.0225C36.4573 26.7501 35.8913 27 35.4103 27V30ZM41.9281 24.8669C42.7459 23.7123 43.4628 22.7083 44.2084 21.9775C44.9508 21.2499 45.5168 21 45.9978 21V18C44.3721 18 43.088 18.8751 42.1085 19.835C41.1323 20.7917 40.2557 22.0377 39.4799 23.1331L41.9281 24.8669ZM38.3592 22.357L39.3273 24.5954L42.0808 23.4046L41.1127 21.1661L38.3592 22.357ZM39.3273 24.5954L40.2954 26.8339L43.0489 25.643L42.0808 23.4046L39.3273 24.5954ZM40.2954 26.8339C40.6273 27.6013 40.9507 28.4324 41.6123 29.0181L43.6009 26.7719C43.5977 26.7691 43.5893 26.7616 43.5723 26.7387C43.553 26.7125 43.5213 26.6645 43.4742 26.5767C43.3698 26.3819 43.2524 26.1134 43.0489 25.643L40.2954 26.8339ZM45.375 27C44.1647 27 43.9782 26.9742 43.8552 26.9252L42.7467 29.7129C43.5336 30.0258 44.4265 30 45.375 30V27ZM41.6123 29.0181C41.9478 29.3151 42.3332 29.5485 42.7467 29.7129L43.8552 26.9252C43.7518 26.8841 43.6667 26.8301 43.6009 26.7719L41.6123 29.0181ZM36.0331 21C37.2434 21 37.4299 21.0258 37.5529 21.0748L38.6614 18.2871C37.8745 17.9742 36.9816 18 36.0331 18V21ZM41.1127 21.1661C40.7808 20.3987 40.4574 19.5676 39.7958 18.9819L37.8072 21.2281C37.8104 21.2309 37.8188 21.2384 37.8358 21.2613C37.8551 21.2875 37.8868 21.3355 37.9338 21.4233C38.0383 21.6181 38.1557 21.8866 38.3592 22.357L41.1127 21.1661ZM37.5529 21.0748C37.6563 21.1159 37.7414 21.1699 37.8072 21.2281L39.7958 18.9819C39.4603 18.6849 39.0749 18.4515 38.6614 18.2871L37.5529 21.0748Z" fill="#141B34"/>
<path d="M15 60C18.2128 54.1591 22.5684 39.0566 30.9188 39.0566C36.6903 39.0566 38.185 46.4151 43.8409 46.4151C53.5717 46.4151 52.1611 30 63 30" stroke="#141B34" stroke-width="3" stroke-linecap="round" stroke-linejoin="round"/>
</svg>
