<svg width="24" height="24" viewBox="0 0 24 24" fill="none" xmlns="http://www.w3.org/2000/svg">
<g clip-path="url(#clip0_5760_17790)">
<path d="M13.9974 19.3874L13.3242 19.7179L13.3242 19.7179L13.9974 19.3874ZM14.2853 19.9736L13.612 20.3042L14.2853 19.9736ZM16.2001 19.8208L15.4729 19.6374L15.4729 19.6374L16.2001 19.8208ZM17.3697 15.182L18.097 15.3653L18.097 15.3653L17.3697 15.182ZM18.3553 14.5L18.3553 15.25L18.3553 14.5ZM23.5 15.25C23.9142 15.25 24.25 14.9142 24.25 14.5C24.25 14.0858 23.9142 13.75 23.5 13.75L23.5 15.25ZM15.4165 21.4988L15.3568 20.7512L15.3568 20.7512L15.4165 21.4988ZM13.4471 18.6573L13.2497 19.3809L13.2497 19.3809L13.4471 18.6573ZM12.0943 18.3692C11.7459 18.5933 11.6451 19.0573 11.8692 19.4057C12.0933 19.7541 12.5573 19.8549 12.9057 19.6308L12.0943 18.3692ZM18.8034 19.75C18.3892 19.75 18.0534 20.0858 18.0534 20.5C18.0534 20.9142 18.3892 21.25 18.8034 21.25V19.75ZM22.3326 18.25C22.7468 18.25 23.0826 17.9142 23.0826 17.5C23.0826 17.0858 22.7468 16.75 22.3326 16.75V18.25ZM20.2453 18.2539L19.5569 18.5516L19.5569 18.5516L20.2453 18.2539ZM20.8907 19.7461L21.5791 19.4484L21.5791 19.4484L20.8907 19.7461ZM21.2022 20.2983L21.6993 19.7368L21.6993 19.7368L21.2022 20.2983ZM22.125 21.25C22.5392 21.25 22.875 20.9142 22.875 20.5C22.875 20.0858 22.5392 19.75 22.125 19.75V21.25ZM21.4336 20.4397L21.7108 19.7428L21.7108 19.7428L21.4336 20.4397ZM19.011 16.75C18.5968 16.75 18.261 17.0858 18.261 17.5C18.261 17.9142 18.5968 18.25 19.011 18.25V16.75ZM19.7024 17.5603L19.4253 18.2572L19.4253 18.2572L19.7024 17.5603ZM19.9338 17.7017L20.431 17.1401L20.431 17.1401L19.9338 17.7017ZM13.3242 19.7179L13.612 20.3042L14.9585 19.6431L14.6707 19.0568L13.3242 19.7179ZM16.9274 20.0042L18.097 15.3653L16.6425 14.9986L15.4729 19.6374L16.9274 20.0042ZM18.3553 15.25L23.5 15.25L23.5 13.75L18.3553 13.75L18.3553 15.25ZM13.612 20.3042C13.8554 20.7998 14.073 21.2471 14.283 21.5568C14.4732 21.8373 14.8484 22.2965 15.4762 22.2464L15.3568 20.7512C15.6166 20.7305 15.6807 20.9453 15.5245 20.7149C15.388 20.5137 15.224 20.1838 14.9585 19.6431L13.612 20.3042ZM15.4729 19.6374C15.3279 20.2126 15.2385 20.5588 15.1494 20.7741C15.1065 20.8778 15.0883 20.8866 15.111 20.8627C15.1526 20.8189 15.2413 20.7604 15.3568 20.7512L15.4762 22.2464C16.1218 22.1949 16.4061 21.6601 16.5354 21.3478C16.6768 21.0062 16.7953 20.5281 16.9274 20.0042L15.4729 19.6374ZM14.6707 19.0568C14.5715 18.8549 14.4618 18.6269 14.3398 18.4507C14.2004 18.2493 13.9871 18.0272 13.6445 17.9338L13.2497 19.3809C13.2007 19.3675 13.156 19.3432 13.1232 19.3165C13.0958 19.2943 13.0909 19.282 13.1065 19.3045C13.1227 19.3279 13.1477 19.3691 13.1865 19.4429C13.2251 19.5162 13.2681 19.6035 13.3242 19.7179L14.6707 19.0568ZM18.097 15.3653C18.1283 15.2409 18.1514 15.1915 18.1582 15.1791C18.159 15.1778 18.1372 15.2143 18.0866 15.2462C18.0436 15.2733 18.0223 15.2695 18.0697 15.2625C18.1221 15.2548 18.206 15.25 18.3553 15.25V13.75C18.0754 13.75 17.6472 13.7504 17.2876 13.9767C16.8794 14.2336 16.729 14.6555 16.6425 14.9986L18.097 15.3653ZM12.9057 19.6308C12.9417 19.6077 12.9803 19.5821 13.0123 19.5611C13.0463 19.5388 13.0775 19.5185 13.1082 19.4992C13.1707 19.4599 13.2207 19.4316 13.2629 19.4118C13.3617 19.3655 13.3355 19.4043 13.2497 19.3809L13.6445 17.9338C13.2252 17.8194 12.8536 17.9471 12.6263 18.0536C12.4036 18.158 12.1835 18.3118 12.0943 18.3692L12.9057 19.6308ZM18.8034 21.25C19.4407 21.25 19.9286 20.9062 20.2748 20.5669C20.6195 20.2291 20.925 19.7937 21.1801 19.4335L19.956 18.5665C19.6799 18.9563 19.4542 19.2709 19.2249 19.4956C18.9972 19.7188 18.8684 19.75 18.8034 19.75V21.25ZM21.1801 19.4335C21.4561 19.0437 21.6818 18.7291 21.9111 18.5044C22.1388 18.2812 22.2677 18.25 22.3326 18.25V16.75C21.6953 16.75 21.2074 17.0938 20.8612 17.4331C20.5166 17.7709 20.2111 18.2063 19.956 18.5665L21.1801 19.4335ZM19.5569 18.5516L19.8796 19.2977L21.2564 18.7023L20.9337 17.9561L19.5569 18.5516ZM19.8796 19.2977L20.2023 20.0439L21.5791 19.4484L21.2564 18.7023L19.8796 19.2977ZM20.2023 20.0439C20.3037 20.2783 20.4331 20.6191 20.7051 20.8599L21.6993 19.7368C21.7295 19.7635 21.7339 19.7821 21.7118 19.7408C21.6996 19.7182 21.6836 19.6854 21.6607 19.6347C21.6377 19.5839 21.6121 19.5247 21.5791 19.4484L20.2023 20.0439ZM22.125 19.75C21.9349 19.75 21.8301 19.7496 21.7531 19.7443C21.6851 19.7395 21.6871 19.7334 21.7108 19.7428L21.1565 21.1366C21.4741 21.2629 21.8306 21.25 22.125 21.25V19.75ZM20.7051 20.8599C20.8393 20.9788 20.9929 21.0715 21.1565 21.1366L21.7108 19.7428C21.7021 19.7393 21.6988 19.7363 21.6993 19.7368L20.7051 20.8599ZM19.011 18.25C19.2011 18.25 19.3059 18.2504 19.383 18.2557C19.4509 18.2605 19.4489 18.2666 19.4253 18.2572L19.9795 16.8634C19.6619 16.7371 19.3054 16.75 19.011 16.75V18.25ZM20.9337 17.9561C20.8323 17.7217 20.7029 17.3809 20.431 17.1401L19.4367 18.2632C19.4066 18.2365 19.4021 18.2179 19.4243 18.2592C19.4364 18.2818 19.4524 18.3146 19.4753 18.3653C19.4983 18.4161 19.5239 18.4753 19.5569 18.5516L20.9337 17.9561ZM19.4253 18.2572C19.4339 18.2607 19.4372 18.2637 19.4367 18.2632L20.431 17.1401C20.2967 17.0212 20.1432 16.9285 19.9795 16.8634L19.4253 18.2572Z" fill="#141B34"/>
<path d="M7 6.5H16.75C18.8567 6.5 19.91 6.5 20.6667 7.00559C20.9943 7.22447 21.2755 7.50572 21.4944 7.83329C21.9587 8.52819 21.9963 9.68416 21.9994 11.5M12 6.5L11.3666 5.23313C10.8418 4.18358 10.3622 3.12712 9.19926 2.69101C8.6899 2.5 8.10802 2.5 6.94427 2.5C5.1278 2.5 4.21956 2.5 3.53806 2.88032C3.05227 3.15142 2.65142 3.55227 2.38032 4.03806C2 4.71956 2 5.6278 2 7.44427V10.5C2 15.214 2 17.5711 3.46447 19.0355C4.8215 20.3926 6.94493 20.4921 11 20.4994" stroke="#141B34" stroke-width="1.5" stroke-linecap="round"/>
</g>
<defs>
<clipPath id="clip0_5760_17790">
<rect width="24" height="24" fill="white"/>
</clipPath>
</defs>
</svg>
