<svg width="72" height="72" viewBox="0 0 72 72" fill="none" xmlns="http://www.w3.org/2000/svg">
<path d="M27 15C27 19.9706 22.9706 24 18 24C13.0294 24 9 19.9706 9 15C9 10.0294 13.0294 6 18 6C22.9706 6 27 10.0294 27 15Z" stroke="#141B34" stroke-width="3"/>
<path d="M63 42C63 46.9706 58.9706 51 54 51C49.0294 51 45 46.9706 45 42C45 37.0294 49.0294 33 54 33C58.9706 33 63 37.0294 63 42Z" stroke="#141B34" stroke-width="3"/>
<path d="M27 57C27 61.9706 22.9706 66 18 66C13.0294 66 9 61.9706 9 57C9 52.0294 13.0294 48 18 48C22.9706 48 27 52.0294 27 57Z" stroke="#141B34" stroke-width="3"/>
<path d="M18 24L18 48" stroke="#141B34" stroke-width="3" stroke-linecap="round" stroke-linejoin="round"/>
<path d="M45 42H36C26.0589 42 18 33.9411 18 24" stroke="#141B34" stroke-width="3" stroke-linecap="round" stroke-linejoin="round"/>
</svg>
