<svg width="24" height="24" viewBox="0 0 24 24" fill="none" xmlns="http://www.w3.org/2000/svg">
<path d="M7 11H7.625C9.38057 11 10.2584 11 10.8889 10.5787C11.1619 10.3963 11.3963 10.1619 11.5787 9.88893C12 9.25837 12 8.38058 12 6.625C12 5.57165 12 5.04498 11.7472 4.66664C11.6378 4.50286 11.4971 4.36223 11.3334 4.2528C10.955 4 10.4283 4 9.375 4H7.71393C7.56953 4 7.49733 4 7.43101 3.99026C7.18274 3.95381 6.96074 3.81737 6.81761 3.61327C6.77937 3.55875 6.74734 3.49469 6.68328 3.36656C6.42089 2.84179 6.18111 2.31356 5.59963 2.0955C5.34495 2 5.05401 2 4.47214 2C3.5639 2 3.10978 2 2.76903 2.19016C2.52613 2.32571 2.32571 2.52613 2.19016 2.76903C2 3.10978 2 3.5639 2 4.47214V6C2 8.35702 2 9.53553 2.73223 10.2678C3.46447 11 4.64298 11 7 11Z" stroke="#141B34" stroke-width="1.5" stroke-linecap="round"/>
<path d="M17 22H17.625C19.3806 22 20.2584 22 20.8889 21.5787C21.1619 21.3963 21.3963 21.1619 21.5787 20.8889C22 20.2584 22 19.3806 22 17.625C22 16.5717 22 16.045 21.7472 15.6666C21.6378 15.5029 21.4971 15.3622 21.3334 15.2528C20.955 15 20.4283 15 19.375 15H17.7139C17.5695 15 17.4973 15 17.431 14.9903C17.1827 14.9538 16.9607 14.8174 16.8176 14.6133C16.7794 14.5587 16.7473 14.4947 16.6833 14.3666C16.4209 13.8418 16.1811 13.3136 15.5996 13.0955C15.3449 13 15.054 13 14.4721 13C13.5639 13 13.1098 13 12.769 13.1902C12.5261 13.3257 12.3257 13.5261 12.1902 13.769C12 14.1098 12 14.5639 12 15.4721V17C12 19.357 12 20.5355 12.7322 21.2678C13.4645 22 14.643 22 17 22Z" stroke="#141B34" stroke-width="1.5" stroke-linecap="round"/>
<path d="M19.3358 9H22C21.5 5 19 2.5 16 2" stroke="#141B34" stroke-width="1.5" stroke-linecap="round" stroke-linejoin="round"/>
<path d="M4.66416 15L2 15C2.5 19 5 21.5 8 22" stroke="#141B34" stroke-width="1.5" stroke-linecap="round" stroke-linejoin="round"/>
</svg>
