<svg width="72" height="72" viewBox="0 0 72 72" fill="none" xmlns="http://www.w3.org/2000/svg">
<path d="M28.0002 35.2737H43.9007C48.3269 35.2737 51.8135 31.5286 51.8135 27.0838V11.9255C51.8135 7.6111 48.1971 4.36983 43.8767 3.65004C41.1425 3.19471 38.3173 2.9875 35.5952 3.00058C32.8741 3.01312 30.3537 3.24488 28.0673 3.65004C21.3301 4.83934 20.1861 7.33137 20.1861 11.9255V17.8241H34.9092C35.5115 17.8241 35.9998 18.3123 35.9998 18.9147V18.9147C35.9998 19.517 35.5115 20.0053 34.9092 20.0053H14.0656C9.43925 20.0053 5.38767 22.7907 4.12093 28.0817C2.65898 34.1455 2.59409 37.853 4.12093 44.1845C5.25243 48.897 7.9544 52.178 12.5813 52.178H18.0048V45.0629C18.0048 39.8079 22.6006 35.2737 28.0002 35.2737ZM67.7805 28.0817C66.6365 23.475 64.4525 20.0053 59.8196 20.0053H53.9947V27.0838C53.9947 32.5641 49.1993 36.9096 43.9007 36.9096H28.0002C23.6444 36.9096 20.1861 40.9045 20.1861 45.2669V60.4263C20.1861 64.7396 23.8641 67.2774 28.0722 68.5153C33.1119 69.9968 37.8843 70.2646 43.9137 68.5153C47.9212 67.3543 51.8135 65.0193 51.8135 60.4263V54.3592H37.0904C36.4881 54.3592 35.9998 53.871 35.9998 53.2686V53.2686C35.9998 52.6663 36.4881 52.178 37.0904 52.178H59.8196C64.446 52.178 66.1708 49.0284 67.7805 44.1839C69.442 39.1971 69.3706 34.4781 67.7805 28.0817Z" stroke="#141B34" stroke-width="3"/>
<path d="M28.4731 10.5H28.5M43.473 61.5H43.5" stroke="#141B34" stroke-width="2" stroke-linecap="round" stroke-linejoin="round"/>
</svg>
