<svg width="72" height="72" viewBox="0 0 72 72" fill="none" xmlns="http://www.w3.org/2000/svg">
<path d="M21 33H22.875C28.1417 33 30.7751 33 32.6668 31.736C33.4857 31.1888 34.1888 30.4857 34.736 29.6668C36 27.7751 36 25.1417 36 19.875C36 16.715 36 15.1349 35.2416 13.9999C34.9133 13.5086 34.4914 13.0867 34.0001 12.7584C32.8651 12 31.285 12 28.125 12H23.1418C22.7086 12 22.492 12 22.293 11.9708C21.5482 11.8614 20.8822 11.4521 20.4528 10.8398C20.3381 10.6762 20.242 10.4841 20.0498 10.0997C19.2627 8.52536 18.5433 6.94067 16.7989 6.28651C16.0348 6 15.162 6 13.4164 6C10.6917 6 9.32934 6 8.30709 6.57048C7.5784 6.97713 6.97713 7.5784 6.57047 8.30709C6 9.32934 6 10.6917 6 13.4164V18C6 25.0711 6 28.6066 8.1967 30.8033C10.3934 33 13.9289 33 21 33Z" stroke="#141B34" stroke-width="3" stroke-linecap="round"/>
<path d="M51 66H52.875C58.1417 66 60.7751 66 62.6668 64.736C63.4857 64.1888 64.1888 63.4857 64.736 62.6668C66 60.7751 66 58.1417 66 52.875C66 49.715 66 48.1349 65.2416 46.9999C64.9133 46.5086 64.4914 46.0867 64.0001 45.7584C62.8651 45 61.285 45 58.125 45H53.1418C52.7086 45 52.492 45 52.293 44.9708C51.5482 44.8614 50.8822 44.4521 50.4528 43.8398C50.3381 43.6762 50.242 43.4841 50.0498 43.0997C49.2627 41.5254 48.5433 39.9407 46.7989 39.2865C46.0348 39 45.162 39 43.4164 39C40.6917 39 39.3293 39 38.3071 39.5705C37.5784 39.9771 36.9771 40.5784 36.5705 41.3071C36 42.3293 36 43.6917 36 46.4164V51C36 58.0711 36 61.6066 38.1967 63.8033C40.3934 66 43.9289 66 51 66Z" stroke="#141B34" stroke-width="3" stroke-linecap="round"/>
<path d="M58.0075 27H66C64.5 15 57 7.5 48 6" stroke="#141B34" stroke-width="3" stroke-linecap="round" stroke-linejoin="round"/>
<path d="M13.9925 45L6 45C7.5 57 15 64.5 24 66" stroke="#141B34" stroke-width="3" stroke-linecap="round" stroke-linejoin="round"/>
</svg>
