<svg width="24" height="24" viewBox="0 0 24 24" fill="none" xmlns="http://www.w3.org/2000/svg">
<circle cx="14.75" cy="7.75" r="0.75" stroke="#141B34" stroke-width="1.5" stroke-linecap="round" stroke-linejoin="round"/>
<path d="M21.9999 8.125C21.9802 7.88009 21.9359 7.7075 21.8363 7.5625C21.7189 7.39148 21.55 7.24946 21.3466 7.15072C21.0361 7 20.6192 7 19.7855 7C18.9518 7 18.5349 7 18.2244 7.15072C18.021 7.24946 17.8521 7.39148 17.7347 7.5625C17.5554 7.82356 17.5554 8.17404 17.5554 8.875V11.125C17.5554 11.826 17.5554 12.1764 17.7347 12.4375C17.8521 12.6085 18.021 12.7505 18.2244 12.8493C18.5349 13 18.9518 13 19.7855 13C20.6192 13 21.0361 13 21.3466 12.8493C21.55 12.7505 21.7189 12.6085 21.8363 12.4375C21.9359 12.2925 21.9802 12.1199 21.9999 11.875" stroke="#141B34" stroke-width="1.5" stroke-linecap="round" stroke-linejoin="round"/>
<ellipse cx="14.8889" cy="16.75" rx="0.888889" ry="0.75" stroke="#141B34" stroke-width="1.5" stroke-linecap="round" stroke-linejoin="round"/>
<path d="M22 16H20.6667C19.4096 16 18.781 16 18.3905 16.3295C18 16.659 18 17.1893 18 18.25V22" stroke="#141B34" stroke-width="1.5" stroke-linecap="round" stroke-linejoin="round"/>
<path d="M18 19H21.1111" stroke="#141B34" stroke-width="1.5" stroke-linecap="round" stroke-linejoin="round"/>
<path d="M12 11H7M7 11V9M7 11V14C7 16.8284 7 18.2426 7.87868 19.1213C8.75736 20 9.17157 20 12 20" stroke="#141B34" stroke-width="1.5" stroke-linecap="round" stroke-linejoin="round"/>
<path d="M3.5 3.42857L4.29549 3.85311C4.69572 2.51978 6.23107 1.72852 7.72477 2.08578C8.48938 2.26866 9.09486 2.71704 9.4501 3.29002M10.5 5.57143L9.70467 5.14689C9.30443 6.48022 7.76909 7.27148 6.27538 6.91422C5.52853 6.73558 4.93349 6.30363 4.5752 5.74968" stroke="#141B34" stroke-width="1.5" stroke-linecap="round" stroke-linejoin="round"/>
</svg>
