<svg width="72" height="72" viewBox="0 0 72 72" fill="none" xmlns="http://www.w3.org/2000/svg">
<path d="M6 58.5C6 54.9645 6 53.1967 7.31802 52.0983C8.63604 51 10.7574 51 15 51C19.2426 51 21.364 51 22.682 52.0983C24 53.1967 24 54.9645 24 58.5C24 62.0355 24 63.8033 22.682 64.9017C21.364 66 19.2426 66 15 66C10.7574 66 8.63604 66 7.31802 64.9017C6 63.8033 6 62.0355 6 58.5Z" stroke="#141B34" stroke-width="3"/>
<path d="M48 58.5C48 54.9645 48 53.1967 49.318 52.0983C50.636 51 52.7574 51 57 51C61.2426 51 63.364 51 64.682 52.0983C66 53.1967 66 54.9645 66 58.5C66 62.0355 66 63.8033 64.682 64.9017C63.364 66 61.2426 66 57 66C52.7574 66 50.636 66 49.318 64.9017C48 63.8033 48 62.0355 48 58.5Z" stroke="#141B34" stroke-width="3"/>
<path d="M57 51C57 41.072 54.7686 39 44.0769 39H27.9231C17.2314 39 15 41.072 15 51" stroke="#141B34" stroke-width="3" stroke-linecap="round" stroke-linejoin="round"/>
<path d="M36 30H37.6875C42.4275 30 44.7976 30 46.5001 28.8765C47.2371 28.3901 47.8699 27.7651 48.3624 27.0371C49.5 25.3556 49.5 23.0149 49.5 18.3333C49.5 15.5244 49.5 14.1199 48.8175 13.1111C48.522 12.6743 48.1423 12.2993 47.7001 12.0075C46.6786 11.3333 45.2565 11.3333 42.4125 11.3333H37.9276C37.5377 11.3333 37.3428 11.3333 37.1637 11.3074C36.4934 11.2102 35.894 10.8463 35.5075 10.3021C35.4043 10.1567 35.3178 9.98583 35.1449 9.64417C34.4364 8.24477 33.789 6.83616 32.219 6.25468C31.5314 6 30.7458 6 29.1748 6C26.7225 6 25.4964 6 24.5764 6.50709C23.9206 6.86856 23.3794 7.40302 23.0134 8.05075C22.5 8.95942 22.5 10.1704 22.5 12.5924V16.6667C22.5 22.9521 22.5 26.0948 24.477 28.0474C26.4541 30 29.636 30 36 30Z" stroke="#141B34" stroke-width="3" stroke-linecap="round"/>
</svg>
