<svg width="72" height="72" viewBox="0 0 72 72" fill="none" xmlns="http://www.w3.org/2000/svg">
<path d="M41.9923 58.1622L40.6459 58.8233L40.6459 58.8233L41.9923 58.1622ZM42.8558 59.9208L41.5094 60.5819L42.8558 59.9208ZM48.6004 59.4624L47.146 59.0957H47.146L48.6004 59.4624ZM52.1092 45.5459L53.5637 45.9126V45.9126L52.1092 45.5459ZM55.0658 43.5V45V43.5ZM70.5 45C71.3284 45 72 44.3284 72 43.5C72 42.6716 71.3284 42 70.5 42V45ZM46.2495 64.4965L46.1302 63.0012H46.1302L46.2495 64.4965ZM40.3413 55.972L39.9465 57.4191L39.9465 57.4191L40.3413 55.972ZM36.6886 55.7384C35.9918 56.1865 35.7903 57.1147 36.2384 57.8114C36.6865 58.5082 37.6147 58.7097 38.3114 58.2616L36.6886 55.7384ZM56.4103 60C55.5819 60 54.9103 60.6716 54.9103 61.5C54.9103 62.3284 55.5819 63 56.4103 63V60ZM66.9978 54C67.8262 54 68.4978 53.3284 68.4978 52.5C68.4978 51.6716 67.8262 51 66.9978 51V54ZM60.7359 54.7616L59.3592 55.357H59.3592L60.7359 54.7616ZM62.6722 59.2384L64.0489 58.643V58.643L62.6722 59.2384ZM63.6066 60.895L64.6009 59.7719L64.6009 59.7719L63.6066 60.895ZM66.375 63C67.2034 63 67.875 62.3284 67.875 61.5C67.875 60.6716 67.2034 60 66.375 60V63ZM64.3009 61.3191L64.8552 59.9252L64.8552 59.9252L64.3009 61.3191ZM57.0331 51C56.2047 51 55.5331 51.6716 55.5331 52.5C55.5331 53.3284 56.2047 54 57.0331 54V51ZM59.1072 52.6809L58.5529 54.0748L59.1072 52.6809ZM59.8015 53.105L60.7958 51.9819H60.7958L59.8015 53.105ZM40.6459 58.8233L41.5094 60.5819L44.2023 59.2597L43.3388 57.5011L40.6459 58.8233ZM50.0549 59.8291L53.5637 45.9126L50.6547 45.1792L47.146 59.0957L50.0549 59.8291ZM55.0658 45H70.5V42H55.0658V45ZM41.5094 60.5819C42.2505 62.0915 42.8765 63.3747 43.4697 64.2495C44.0233 65.0659 44.9294 66.1066 46.3689 65.9917L46.1302 63.0012C46.4658 62.9744 46.4383 63.2819 45.9526 62.5657C45.5066 61.9079 44.9877 60.8593 44.2023 59.2597L41.5094 60.5819ZM47.146 59.0957C46.7174 60.7955 46.4347 61.9002 46.1413 62.6091C45.8234 63.3769 45.7589 63.0308 46.1302 63.0012L46.3689 65.9917C47.8441 65.874 48.5393 64.6595 48.9131 63.7566C49.3113 62.7949 49.6521 61.4266 50.0549 59.8291L47.146 59.0957ZM43.3388 57.5011C43.0309 56.874 42.7293 56.2506 42.4028 55.7791C42.0414 55.257 41.5321 54.7421 40.7361 54.5249L39.9465 57.4191C39.8153 57.3833 39.8027 57.2938 39.9362 57.4867C40.1047 57.7301 40.2962 58.1111 40.6459 58.8233L43.3388 57.5011ZM53.5637 45.9126C53.7764 45.0688 53.9299 45.0601 53.8602 45.1039C53.8489 45.111 53.8957 45.0755 54.1 45.0455C54.3142 45.014 54.6117 45 55.0658 45V42C54.1949 42 53.1309 42.0182 52.2623 42.5649C51.2966 43.1726 50.9049 44.1868 50.6547 45.1792L53.5637 45.9126ZM38.3114 58.2616C38.7737 57.9643 39.1006 57.7298 39.4705 57.5564C39.6377 57.478 39.7605 57.4399 39.8456 57.4248C39.8857 57.4177 39.912 57.4167 39.9267 57.4171C39.9405 57.4174 39.9459 57.419 39.9465 57.4191L40.7361 54.5249C39.7308 54.2506 38.8148 54.5505 38.1972 54.84C37.5888 55.1252 36.9953 55.5412 36.6886 55.7384L38.3114 58.2616ZM56.4103 63C58.036 63 59.3201 62.1249 60.2995 61.165C61.2757 60.2083 62.1524 58.9623 62.9281 57.8669L60.4799 56.1331C59.6622 57.2877 58.9453 58.2917 58.1997 59.0225C57.4573 59.7501 56.8913 60 56.4103 60V63ZM62.9281 57.8669C63.7459 56.7123 64.4628 55.7083 65.2084 54.9775C65.9508 54.2499 66.5168 54 66.9978 54V51C65.3721 51 64.088 51.8751 63.1085 52.835C62.1323 53.7917 61.2557 55.0377 60.4799 56.1331L62.9281 57.8669ZM59.3592 55.357L60.3273 57.5954L63.0808 56.4046L62.1127 54.1661L59.3592 55.357ZM60.3273 57.5954L61.2954 59.8339L64.0489 58.643L63.0808 56.4046L60.3273 57.5954ZM61.2954 59.8339C61.6273 60.6013 61.9507 61.4324 62.6123 62.0181L64.6009 59.7719C64.5977 59.7691 64.5893 59.7616 64.5723 59.7387C64.553 59.7125 64.5213 59.6645 64.4742 59.5767C64.3698 59.3819 64.2524 59.1134 64.0489 58.643L61.2954 59.8339ZM66.375 60C65.1647 60 64.9782 59.9742 64.8552 59.9252L63.7467 62.7129C64.5336 63.0258 65.4265 63 66.375 63V60ZM62.6123 62.0181C62.9478 62.3151 63.3332 62.5485 63.7467 62.7129L64.8552 59.9252C64.7518 59.8841 64.6667 59.8301 64.6009 59.7719L62.6123 62.0181ZM57.0331 54C58.2434 54 58.4299 54.0258 58.5529 54.0748L59.6614 51.2871C58.8745 50.9742 57.9816 51 57.0331 51V54ZM62.1127 54.1661C61.7808 53.3987 61.4574 52.5676 60.7958 51.9819L58.8072 54.2281C58.8104 54.2309 58.8188 54.2384 58.8358 54.2613C58.8551 54.2875 58.8868 54.3355 58.9338 54.4233C59.0383 54.6181 59.1557 54.8866 59.3592 55.357L62.1127 54.1661ZM58.5529 54.0748C58.6563 54.1159 58.7414 54.1699 58.8072 54.2281L60.7958 51.9819C60.4603 51.6849 60.0749 51.4515 59.6614 51.2871L58.5529 54.0748Z" fill="#141B34"/>
<path d="M21 19.5H50.25C56.5701 19.5 59.7301 19.5 62.0001 21.0168C62.9828 21.6734 63.8266 22.5172 64.4832 23.4999C65.8762 25.5846 65.989 29.0525 65.9982 34.5M36 19.5L34.0997 15.6994C32.5254 12.5507 31.0867 9.38135 27.5978 8.07302C26.0697 7.5 24.3241 7.5 20.8328 7.5C15.3834 7.5 12.6587 7.5 10.6142 8.64095C9.1568 9.45426 7.95426 10.6568 7.14095 12.1142C6 14.1587 6 16.8834 6 22.3328V31.5C6 45.6421 6 52.7132 10.3934 57.1066C14.4645 61.1777 20.8348 61.4764 33 61.4983" stroke="#141B34" stroke-width="3" stroke-linecap="round"/>
</svg>
