<svg width="72" height="72" viewBox="0 0 72 72" fill="none" xmlns="http://www.w3.org/2000/svg">
<path d="M49.5002 66C56.1277 66 61.5002 60.6274 61.5002 54C61.5002 50.8006 60.2482 47.8937 58.2074 45.7425C56.6873 44.1401 55.9272 43.339 55.7137 42.8037C55.5002 42.2685 55.5002 41.5606 55.5002 40.1446V12C55.5002 8.68629 52.814 6 49.5002 6C46.1865 6 43.5002 8.68629 43.5002 12V40.1446C43.5002 41.5606 43.5002 42.2685 43.2868 42.8037C43.0733 43.339 42.3132 44.1401 40.7931 45.7425C38.7523 47.8937 37.5002 50.8006 37.5002 54C37.5002 60.6274 42.8728 66 49.5002 66Z" stroke="#141B34" stroke-width="3" stroke-linecap="round" stroke-linejoin="round"/>
<path d="M30.9399 47.4908C26.0338 46.6249 22.0899 42.3121 21.61 36.7822C21.0412 30.2279 25.5542 24.4458 31.6901 23.8677C32.6491 23.7773 33.5911 23.8194 34.5 23.9798M30.6602 12L30.9691 15.5603M18.126 22.7272L15.5508 20.4317M13.833 37.515L10.5 37.8291M20.6033 51.2604L18.465 54" stroke="#141B34" stroke-width="3" stroke-linecap="round"/>
</svg>
