<svg width="24" height="24" viewBox="0 0 24 24" fill="none" xmlns="http://www.w3.org/2000/svg">
<path d="M12 18V22" stroke="#141B34" stroke-width="1.5" stroke-linecap="round" stroke-linejoin="round"/>
<path d="M8.5 22L8.82821 21.6717C9.40628 21.0936 9.69532 20.8045 10.0629 20.6523C10.4305 20.5 10.8392 20.5 11.6568 20.5H12.343C13.1605 20.5 13.5692 20.5 13.9368 20.6522C14.3043 20.8045 14.5933 21.0935 15.1714 21.6716L15.4998 22" stroke="#141B34" stroke-width="1.5" stroke-linecap="round" stroke-linejoin="round"/>
<path d="M21.5 7C21.5 4.17157 21.5 3.75736 20.6213 2.87868C19.7426 2 18.3284 2 15.5 2H8.5C5.67157 2 4.25736 2 3.37868 2.87868C2.5 3.75736 2.5 5.17157 2.5 8V12C2.5 14.8284 2.5 16.2426 3.37868 17.1213C4.25736 18 5.67157 18 8.5 18H13.5" stroke="#141B34" stroke-width="1.5" stroke-linecap="round"/>
<path d="M13.5 8.5L14.4199 9.29289C14.8066 9.62623 15 9.79289 15 10C15 10.2071 14.8066 10.3738 14.4199 10.7071L13.5 11.5" stroke="#141B34" stroke-width="1.5" stroke-linecap="round" stroke-linejoin="round"/>
<path d="M6.5 8.5L5.58009 9.29289C5.19337 9.62623 5 9.79289 5 10C5 10.2071 5.19336 10.3738 5.58009 10.7071L6.5 11.5" stroke="#141B34" stroke-width="1.5" stroke-linecap="round" stroke-linejoin="round"/>
<path d="M11 7.5L9 12.5" stroke="#141B34" stroke-width="1.5" stroke-linecap="round" stroke-linejoin="round"/>
<path d="M21 10.1C21 11.2598 19.8279 12.55 19 12.55C18.1721 12.55 17 11.2598 17 10.1C17 8.9402 17.8954 8 19 8C20.1046 8 21 8.9402 21 10.1Z" stroke="#141B34" stroke-width="1.5"/>
<path d="M21.6943 12.9001C22.7096 13.8349 23.3675 15.4179 22.7767 16.8938C22.6494 17.2117 22.3574 17.4179 22.0342 17.4179C21.7057 17.4179 21.166 17.3073 21.0611 17.7564L20.3296 20.8888C20.1771 21.5419 19.6289 22.0001 19 22.0001C18.3711 22.0001 17.8229 21.5419 17.6704 20.8888L16.9389 17.7564C16.834 17.3073 16.2943 17.4179 15.9657 17.4179C15.6426 17.4179 15.3505 17.2117 15.2233 16.8938C14.6324 15.4179 15.2904 13.8349 16.3057 12.9001" stroke="#141B34" stroke-width="1.5" stroke-linecap="round"/>
</svg>
