<svg width="24" height="24" viewBox="0 0 24 24" fill="none" xmlns="http://www.w3.org/2000/svg">
<path d="M7.75025 7.56659C9.66926 4.5222 10.6288 3 12 3C13.3712 3 14.3307 4.52219 16.2498 7.56658L18.4941 11.1271C21.2362 15.4772 22.6072 17.6522 21.7426 19.3261C20.878 21 18.3834 21 13.3944 21H10.6056C5.61655 21 3.12205 21 2.25742 19.3261C1.3928 17.6522 2.76382 15.4772 5.50587 11.1271L7.75025 7.56659Z" stroke="#141B34" stroke-width="1.5" stroke-linejoin="round"/>
<path d="M3.5 15H8M7 9H17" stroke="#141B34" stroke-width="1.5" stroke-linecap="round" stroke-linejoin="round"/>
<g clip-path="url(#clip0_5760_17940)">
<path d="M13.0416 13.0417H15.8853C16.4998 13.0417 16.807 13.0417 17.0277 13.1891C17.1233 13.253 17.2053 13.335 17.2691 13.4305C17.4166 13.6512 17.4166 13.9585 17.4166 14.5729C17.4166 15.597 17.4166 16.109 17.1708 16.4769C17.0644 16.6361 16.9277 16.7728 16.7685 16.8792C16.4006 17.125 15.8886 17.125 14.8645 17.125H14.4999C13.125 17.125 12.4375 17.125 12.0104 16.6979C11.5833 16.2707 11.5833 15.5833 11.5833 14.2083V13.3171C11.5833 12.7873 11.5833 12.5224 11.6942 12.3236C11.7732 12.1819 11.8902 12.065 12.0319 11.9859C12.2306 11.875 12.4955 11.875 13.0253 11.875C13.3648 11.875 13.5345 11.875 13.683 11.9307C14.0222 12.0579 14.1621 12.366 14.3152 12.6722L14.4999 13.0417" stroke="#141B34" stroke-width="1.25" stroke-linecap="round"/>
</g>
<defs>
<clipPath id="clip0_5760_17940">
<rect width="7" height="7" fill="white" transform="translate(11 11)"/>
</clipPath>
</defs>
</svg>
