<svg width="72" height="72" viewBox="0 0 72 72" fill="none" xmlns="http://www.w3.org/2000/svg">
<circle cx="44.25" cy="23.25" r="2.25" stroke="#141B34" stroke-width="3" stroke-linecap="round" stroke-linejoin="round"/>
<path d="M65.9998 24.375C65.9408 23.6403 65.808 23.1225 65.5093 22.6875C65.157 22.1744 64.6502 21.7484 64.04 21.4522C63.1085 21 61.8579 21 59.3568 21C56.8557 21 55.6051 21 54.6736 21.4522C54.0634 21.7484 53.5566 22.1744 53.2043 22.6875C52.6665 23.4707 52.6665 24.5221 52.6665 26.625V33.375C52.6665 35.4779 52.6665 36.5293 53.2043 37.3125C53.5566 37.8256 54.0634 38.2516 54.6736 38.5478C55.6051 39 56.8557 39 59.3568 39C61.8579 39 63.1085 39 64.04 38.5478C64.6502 38.2516 65.157 37.8256 65.5093 37.3125C65.808 36.8775 65.9408 36.3597 65.9998 35.625" stroke="#141B34" stroke-width="3" stroke-linecap="round" stroke-linejoin="round"/>
<ellipse cx="44.6667" cy="50.25" rx="2.66667" ry="2.25" stroke="#141B34" stroke-width="3" stroke-linecap="round" stroke-linejoin="round"/>
<path d="M66 48H62C58.2288 48 56.3431 48 55.1716 48.9885C54 49.977 54 51.568 54 54.75V66" stroke="#141B34" stroke-width="3" stroke-linecap="round" stroke-linejoin="round"/>
<path d="M54 57H63.3333" stroke="#141B34" stroke-width="3" stroke-linecap="round" stroke-linejoin="round"/>
<path d="M36 33H21M21 33V27M21 33V42C21 50.4853 21 54.7279 23.636 57.364C26.2721 60 27.5147 60 36 60" stroke="#141B34" stroke-width="3" stroke-linecap="round" stroke-linejoin="round"/>
<path d="M10.5 10.2857L12.8865 11.5593C14.0872 7.55934 18.6932 5.18556 23.1743 6.25735C25.4681 6.80599 27.2846 8.15112 28.3503 9.87007M31.5 16.7143L29.114 15.4407C27.9133 19.4407 23.3073 21.8144 18.8262 20.7426C16.5856 20.2067 14.8005 18.9109 13.7256 17.249" stroke="#141B34" stroke-width="3" stroke-linecap="round" stroke-linejoin="round"/>
</svg>
