<svg width="72" height="72" viewBox="0 0 72 72" fill="none" xmlns="http://www.w3.org/2000/svg">
<path d="M63 16.8974C59.5905 14.4419 55.2284 14.4419 51.8189 16.8974C49.7632 18.4042 47.0056 18.3484 44.9499 16.8416C41.5404 14.3861 37.1783 14.3861 33.819 16.8416C31.7131 18.3484 29.0557 18.3484 27 16.8416" stroke="#141B34" stroke-width="3" stroke-linecap="round"/>
<path d="M9 28.1301C12.5052 30.5858 16.9897 30.5858 20.4948 28.1301C22.6083 26.6233 25.3917 26.6233 27.5052 28.1301C31.0103 30.5858 35.5464 30.6416 39 28.1859" stroke="#141B34" stroke-width="3" stroke-linecap="round"/>
<path d="M63 43.8699C59.5905 41.4142 55.2284 41.4142 51.8189 43.8699C49.7632 45.3767 47.0557 45.3767 45 43.8699C41.5905 41.4142 37.1783 41.3584 33.819 43.8141C31.7131 45.3209 29.0557 45.3209 27 43.8141" stroke="#141B34" stroke-width="3" stroke-linecap="round"/>
<path d="M9 55.1301C12.5052 57.5858 16.9897 57.5858 20.4948 55.1301C22.6083 53.6233 25.3917 53.6233 27.5052 55.1301C31.0103 57.5858 35.5464 57.6416 39 55.1859" stroke="#141B34" stroke-width="3" stroke-linecap="round"/>
</svg>
