<svg width="24" height="24" viewBox="0 0 24 24" fill="none" xmlns="http://www.w3.org/2000/svg">
<path d="M7.75025 7.56659C9.66926 4.5222 10.6288 3 12 3C13.3712 3 14.3307 4.52219 16.2498 7.56658L18.4941 11.1271C21.2362 15.4772 22.6072 17.6522 21.7426 19.3261C20.878 21 18.3834 21 13.3944 21H10.6056C5.61655 21 3.12205 21 2.25742 19.3261C1.3928 17.6522 2.76382 15.4772 5.50587 11.1271L7.75025 7.56659Z" stroke="#141B34" stroke-width="1.5" stroke-linejoin="round"/>
<path d="M3.5 15H8M7 9H17" stroke="#141B34" stroke-width="1.5" stroke-linecap="round" stroke-linejoin="round"/>
<path d="M11 14.5C11 13.3215 11 12.7322 11.4393 12.3661C11.8787 12 12.5858 12 14 12C15.4142 12 16.1213 12 16.5607 12.3661C17 12.7322 17 13.3215 17 14.5C17 15.6785 17 16.2678 16.5607 16.6339C16.1213 17 15.4142 17 14 17C12.5858 17 11.8787 17 11.4393 16.6339C11 16.2678 11 15.6785 11 14.5Z" stroke="#141B34" stroke-width="1.5"/>
</svg>
