<svg width="72" height="72" viewBox="0 0 72 72" fill="none" xmlns="http://www.w3.org/2000/svg">
<path d="M6 61.5C5.17157 61.5 4.5 62.1716 4.5 63C4.5 63.8284 5.17157 64.5 6 64.5V61.5ZM45 22.5C45.8284 22.5 46.5 21.8284 46.5 21C46.5 20.1716 45.8284 19.5 45 19.5V22.5ZM21.9339 31.554L23.3534 31.0694L21.9339 31.554ZM29.0661 52.446L30.4857 51.9614L29.0661 52.446ZM32.5082 60.1767L33.6278 59.1784L33.6278 59.1784L32.5082 60.1767ZM42.7059 64.5C43.5343 64.5 44.2059 63.8284 44.2059 63C44.2059 62.1716 43.5343 61.5 42.7059 61.5V64.5ZM35.0659 62.1557L34.391 63.4953H34.391L35.0659 62.1557ZM8.29412 19.5C7.46569 19.5 6.79412 20.1716 6.79412 21C6.79412 21.8284 7.46569 22.5 8.29412 22.5V19.5ZM15.9341 21.8443L15.2593 23.1839V23.1839L15.9341 21.8443ZM18.4918 23.8233L17.3722 24.8216L17.3722 24.8216L18.4918 23.8233ZM6 64.5C10.5962 64.5 14.3914 61.3959 17.6271 57.3784C20.894 53.3221 23.8927 47.9491 26.8093 42.7319C29.7626 37.4491 32.6338 32.3221 35.7094 28.5034C38.8162 24.6459 41.836 22.5 45 22.5V19.5C40.4038 19.5 36.6086 22.6041 33.3729 26.6216C30.106 30.6779 27.1073 36.0509 24.1907 41.2681C21.2374 46.5509 18.3662 51.6779 15.2906 55.4966C12.1838 59.3541 9.16397 61.5 6 61.5V64.5ZM20.5143 32.0386L27.6466 52.9306L30.4857 51.9614L23.3534 31.0694L20.5143 32.0386ZM27.6466 52.9306C28.3534 55.001 28.9079 56.6282 29.4531 57.9165C30.005 59.2208 30.5853 60.2741 31.3886 61.1749L33.6278 59.1784C33.13 58.6201 32.703 57.8985 32.2159 56.7475C31.7222 55.5806 31.2062 54.072 30.4857 51.9614L27.6466 52.9306ZM42.7059 61.5C40.692 61.5 39.2773 61.4987 38.1543 61.4002C37.059 61.3041 36.3486 61.1224 35.7407 60.8161L34.391 63.4953C35.459 64.0334 36.5806 64.2737 37.8923 64.3887C39.1763 64.5013 40.7437 64.5 42.7059 64.5V61.5ZM31.3886 61.1749C32.2478 62.1385 33.2636 62.9274 34.391 63.4953L35.7407 60.8161C34.9641 60.4249 34.2467 59.8725 33.6278 59.1784L31.3886 61.1749ZM8.29412 22.5C10.308 22.5 11.7227 22.5013 12.8457 22.5998C13.941 22.6959 14.6514 22.8776 15.2593 23.1839L16.609 20.5047C15.541 19.9667 14.4194 19.7263 13.1077 19.6113C11.8237 19.4987 10.2563 19.5 8.29412 19.5V22.5ZM23.3534 31.0694C22.6466 28.999 22.0921 27.3718 21.5469 26.0835C20.995 24.7792 20.4147 23.726 19.6114 22.8251L17.3722 24.8216C17.87 25.3799 18.297 26.1015 18.7841 27.2525C19.2778 28.4194 19.7938 29.928 20.5143 32.0386L23.3534 31.0694ZM15.2593 23.1839C16.0359 23.5751 16.7533 24.1275 17.3722 24.8216L19.6114 22.8251C18.7522 21.8615 17.7364 21.0726 16.609 20.5047L15.2593 23.1839Z" fill="#141B34"/>
<path d="M66.0007 26.9995H54.0007L63.6008 19.7994C65.1116 18.6664 66.0007 16.8881 66.0007 14.9997C66.0007 11.6861 63.314 8.99997 60.0004 9C56.6868 9.00003 54 11.6863 54 14.9999" stroke="#141B34" stroke-width="3" stroke-linecap="round" stroke-linejoin="round"/>
</svg>
