<svg width="72" height="72" viewBox="0 0 72 72" fill="none" xmlns="http://www.w3.org/2000/svg">
<path d="M9 9C14.5913 9 17.3869 9 19.5922 9.91345C22.5325 11.1314 24.8686 13.4675 26.0866 16.4078C27 18.6131 27 21.4087 27 27C21.4087 27 18.6131 27 16.4078 26.0866C13.4675 24.8686 11.1314 22.5325 9.91345 19.5922C9 17.3869 9 14.5913 9 9Z" stroke="#141B34" stroke-width="3" stroke-linejoin="round"/>
<path d="M39 15C35.2725 15 33.4087 15 31.9385 15.609C29.9783 16.4209 28.4209 17.9783 27.609 19.9385C27 21.4087 27 23.2725 27 27C30.7275 27 32.5913 27 34.0615 26.391C36.0217 25.5791 37.5791 24.0217 38.391 22.0615C39 20.5913 39 18.7275 39 15Z" stroke="#141B34" stroke-width="3" stroke-linejoin="round"/>
<path d="M27 27V42" stroke="#141B34" stroke-width="3" stroke-linecap="round"/>
<path d="M39 42L9 42" stroke="#141B34" stroke-width="3" stroke-linecap="round"/>
<path d="M39 51L9 51" stroke="#141B34" stroke-width="3" stroke-linecap="round"/>
<path d="M39 60L9 60" stroke="#141B34" stroke-width="3" stroke-linecap="round"/>
<path d="M57 63C61.9706 63 66 58.9706 66 54C66 51.9115 65.2886 49.9891 64.0949 48.462C62.5831 46.5279 61.8271 45.5607 61.6636 45.0859C61.5 44.6111 61.5 43.9885 61.5 42.7433V31.5C61.5 29.0147 59.4853 27 57 27C54.5147 27 52.5 29.0147 52.5 31.5V42.7433C52.5 43.9885 52.5 44.6111 52.3364 45.0859C52.1729 45.5607 51.4169 46.5278 49.9051 48.462C48.7114 49.9891 48 51.9115 48 54C48 58.9706 52.0294 63 57 63Z" stroke="#141B34" stroke-width="3" stroke-linejoin="round"/>
</svg>
