<svg width="24" height="24" viewBox="0 0 24 24" fill="none" xmlns="http://www.w3.org/2000/svg">
<path d="M18 13C18 17.9706 15.5228 20 10 20C4.47715 20 2 17.9706 2 13H18ZM18 13H22M18 13V9" stroke="#141B34" stroke-width="1.5" stroke-linecap="round" stroke-linejoin="round"/>
<path d="M3.5 10.5C3.5 9.55719 3.5 9.08579 3.79289 8.79289C4.08579 8.5 4.55719 8.5 5.5 8.5C6.44281 8.5 6.91421 8.5 7.20711 8.79289C7.5 9.08579 7.5 9.55719 7.5 10.5C7.5 11.4428 7.5 11.9142 7.20711 12.2071C6.91421 12.5 6.44281 12.5 5.5 12.5C4.55719 12.5 4.08579 12.5 3.79289 12.2071C3.5 11.9142 3.5 11.4428 3.5 10.5Z" stroke="#141B34" stroke-width="1.5"/>
<path d="M7.5 10.5C7.5 9.55719 7.5 9.08579 7.79289 8.79289C8.08579 8.5 8.55719 8.5 9.5 8.5C10.4428 8.5 10.9142 8.5 11.2071 8.79289C11.5 9.08579 11.5 9.55719 11.5 10.5C11.5 11.4428 11.5 11.9142 11.2071 12.2071C10.9142 12.5 10.4428 12.5 9.5 12.5C8.55719 12.5 8.08579 12.5 7.79289 12.2071C7.5 11.9142 7.5 11.4428 7.5 10.5Z" stroke="#141B34" stroke-width="1.5"/>
<path d="M11.5 10.5C11.5 9.55719 11.5 9.08579 11.7929 8.79289C12.0858 8.5 12.5572 8.5 13.5 8.5C14.4428 8.5 14.9142 8.5 15.2071 8.79289C15.5 9.08579 15.5 9.55719 15.5 10.5C15.5 11.4428 15.5 11.9142 15.2071 12.2071C14.9142 12.5 14.4428 12.5 13.5 12.5C12.5572 12.5 12.0858 12.5 11.7929 12.2071C11.5 11.9142 11.5 11.4428 11.5 10.5Z" stroke="#141B34" stroke-width="1.5"/>
<path d="M5.5 6.5C5.5 5.55719 5.5 5.08579 5.79289 4.79289C6.08579 4.5 6.55719 4.5 7.5 4.5C8.44281 4.5 8.91421 4.5 9.20711 4.79289C9.5 5.08579 9.5 5.55719 9.5 6.5C9.5 7.44281 9.5 7.91421 9.20711 8.20711C8.91421 8.5 8.44281 8.5 7.5 8.5C6.55719 8.5 6.08579 8.5 5.79289 8.20711C5.5 7.91421 5.5 7.44281 5.5 6.5Z" stroke="#141B34" stroke-width="1.5"/>
<path d="M9.5 6.5C9.5 5.55719 9.5 5.08579 9.79289 4.79289C10.0858 4.5 10.5572 4.5 11.5 4.5C12.4428 4.5 12.9142 4.5 13.2071 4.79289C13.5 5.08579 13.5 5.55719 13.5 6.5C13.5 7.44281 13.5 7.91421 13.2071 8.20711C12.9142 8.5 12.4428 8.5 11.5 8.5C10.5572 8.5 10.0858 8.5 9.79289 8.20711C9.5 7.91421 9.5 7.44281 9.5 6.5Z" stroke="#141B34" stroke-width="1.5"/>
<path d="M5.99981 16H6.00879" stroke="#141B34" stroke-width="1.5" stroke-linecap="round" stroke-linejoin="round"/>
</svg>
