<svg width="24" height="24" viewBox="0 0 24 24" fill="none" xmlns="http://www.w3.org/2000/svg">
<path d="M17.4776 9.01106C17.485 9.01102 17.4925 9.01101 17.5 9.01101C19.9853 9.01101 22 11.0294 22 13.5193C22 15.8398 21.25 17.7508 19 18M17.4776 9.01106C17.4924 8.84606 17.5 8.67896 17.5 8.51009C17.5 5.46695 15.0376 3 12 3C9.12324 3 6.76233 5.21267 6.52042 8.03192M17.4776 9.01106C17.3753 10.1476 16.9286 11.1846 16.2428 12.0165M6.52042 8.03192C3.98398 8.27373 2 10.4139 2 13.0183C2 15.4417 2.71776 17.5359 5 18M6.52042 8.03192C6.67826 8.01687 6.83823 8.00917 7 8.00917C8.12582 8.00917 9.16474 8.38194 10.0005 9.01101" stroke="#141B34" stroke-width="1.5" stroke-linecap="round" stroke-linejoin="round"/>
<path d="M15.5 16.5L16.4199 17.2929C16.8066 17.6262 17 17.7929 17 18C17 18.2071 16.8066 18.3738 16.4199 18.7071L15.5 19.5" stroke="#141B34" stroke-width="1.5" stroke-linecap="round" stroke-linejoin="round"/>
<path d="M8.5 16.5L7.58009 17.2929C7.19337 17.6262 7 17.7929 7 18C7 18.2071 7.19336 18.3738 7.58009 18.7071L8.5 19.5" stroke="#141B34" stroke-width="1.5" stroke-linecap="round" stroke-linejoin="round"/>
<path d="M13 15.5L11 20.5" stroke="#141B34" stroke-width="1.5" stroke-linecap="round" stroke-linejoin="round"/>
</svg>
