<svg width="72" height="72" viewBox="0 0 72 72" fill="none" xmlns="http://www.w3.org/2000/svg">
<path d="M23.2507 22.6998C29.0078 13.5666 31.8863 9 36 9C40.1137 9 42.9922 13.5666 48.7493 22.6997L55.4824 33.3814C63.7085 46.4316 67.8216 52.9567 65.2277 57.9783C62.6339 63 55.1503 63 40.1833 63H31.8167C16.8497 63 9.36614 63 6.77227 57.9783C4.1784 52.9567 8.29146 46.4316 16.5176 33.3814L23.2507 22.6998Z" stroke="#141B34" stroke-width="3" stroke-linejoin="round"/>
<path d="M10.5 45H24M21 27H51" stroke="#141B34" stroke-width="3" stroke-linecap="round" stroke-linejoin="round"/>
<path d="M39.125 39.125H47.6562C49.4996 39.125 50.4213 39.125 51.0834 39.5674C51.37 39.7589 51.6161 40.005 51.8076 40.2916C52.25 40.9537 52.25 41.8754 52.25 43.7188C52.25 46.791 52.25 48.3271 51.5127 49.4306C51.1935 49.9083 50.7833 50.3185 50.3056 50.6377C49.2021 51.375 47.666 51.375 44.5938 51.375H43.5C39.3752 51.375 37.3128 51.375 36.0314 50.0936C34.75 48.8122 34.75 46.7498 34.75 42.625V39.9512C34.75 38.3618 34.75 37.5671 35.0828 36.9708C35.32 36.5457 35.6707 36.195 36.0958 35.9578C36.6921 35.625 37.4868 35.625 39.0762 35.625C40.0945 35.625 40.6037 35.625 41.0493 35.7921C42.0669 36.1737 42.4866 37.0981 42.9457 38.0165L43.5 39.125" stroke="#141B34" stroke-width="2.5" stroke-linecap="round"/>
</svg>
