<svg width="24" height="24" viewBox="0 0 24 24" fill="none" xmlns="http://www.w3.org/2000/svg">
<path d="M20 12C20 13.1046 19.1046 14 18 14C16.8954 14 16 13.1046 16 12M20 12C20 10.8954 19.1046 10 18 10C16.8954 10 16 10.8954 16 12M20 12H22M16 12H8M8 12C8 13.1046 7.10457 14 6 14C4.89543 14 4 13.1046 4 12M8 12C8 10.8954 7.10457 10 6 10C4.89543 10 4 10.8954 4 12M4 12H2" stroke="#141B34" stroke-width="1.5" stroke-linecap="round"/>
<path d="M17 18.5158L15.6575 17.0352C14.982 19.1937 12.3906 20.4747 9.86956 19.8963C8.60902 19.6071 7.60472 18.9078 7 18.011" stroke="#141B34" stroke-width="1.5" stroke-linecap="round" stroke-linejoin="round"/>
<path d="M7 5.51734L8.33678 7C9.00945 4.84147 11.5899 3.5605 14.1003 4.13888C15.3853 4.43494 16.403 5.16082 17 6.08842" stroke="#141B34" stroke-width="1.5" stroke-linecap="round" stroke-linejoin="round"/>
</svg>
