<svg width="72" height="72" viewBox="0 0 72 72" fill="none" xmlns="http://www.w3.org/2000/svg">
<path d="M36 6C38.7066 6 41.025 8.12441 43.7626 11.9917C46.4818 15.8331 47.8414 17.7538 47.0049 19.3769C46.1685 21 43.7199 21 38.8228 21H33.1772C28.2801 21 25.8315 21 24.9951 19.3769C24.1586 17.7538 25.5182 15.8331 28.2374 11.9917C30.975 8.12441 33.2934 6 36 6Z" stroke="#141B34" stroke-width="3" stroke-linejoin="round"/>
<path d="M17.4868 42H54.5132C56.7829 42 57.9178 42 58.3526 41.2525C58.7873 40.505 58.2274 39.5294 57.1076 37.578C56.8073 37.0546 56.5059 36.5318 56.2038 36.0094C54.5077 33.0762 53.6597 31.6095 52.2627 30.8048C50.8657 30 49.1627 30 45.7568 30H26.2432C22.8373 30 21.1343 30 19.7373 30.8048C18.3403 31.6095 17.4923 33.0762 15.7962 36.0094C15.4941 36.5318 15.1927 37.0546 14.8924 37.578C13.7726 39.5294 13.2127 40.505 13.6474 41.2525C14.0822 42 15.2171 42 17.4868 42Z" stroke="#141B34" stroke-width="3" stroke-linejoin="round"/>
<path d="M24.7298 66H47.2701C57.9298 66 63.2597 66 65.3012 62.6483C66.5831 60.5439 66.0396 57.9863 64.1761 54.1461C63.4543 52.6586 63.0934 51.9149 62.363 51.4575C61.6325 51 60.7496 51 58.9839 51H13.0161C11.2504 51 10.3675 51 9.63703 51.4575C8.90658 51.9149 8.54569 52.6586 7.8239 54.1461C5.96042 57.9863 5.41693 60.5439 6.6988 62.6483C8.74032 66 14.0702 66 24.7298 66Z" stroke="#141B34" stroke-width="3" stroke-linejoin="round"/>
</svg>
