<svg width="72" height="72" viewBox="0 0 72 72" fill="none" xmlns="http://www.w3.org/2000/svg">
<path d="M23.2507 22.6998C29.0078 13.5666 31.8863 9 36 9C40.1137 9 42.9922 13.5666 48.7493 22.6997L55.4824 33.3814C63.7085 46.4316 67.8216 52.9567 65.2277 57.9783C62.6339 63 55.1503 63 40.1833 63H31.8167C16.8497 63 9.36614 63 6.77227 57.9783C4.1784 52.9567 8.29146 46.4316 16.5176 33.3814L23.2507 22.6998Z" stroke="#141B34" stroke-width="3" stroke-linejoin="round"/>
<path d="M10.5 45H24M21 27H51" stroke="#141B34" stroke-width="3" stroke-linecap="round" stroke-linejoin="round"/>
<path d="M33 43.5C33 39.9645 33 38.1967 34.318 37.0983C35.636 36 37.7574 36 42 36C46.2426 36 48.364 36 49.682 37.0983C51 38.1967 51 39.9645 51 43.5C51 47.0355 51 48.8033 49.682 49.9017C48.364 51 46.2426 51 42 51C37.7574 51 35.636 51 34.318 49.9017C33 48.8033 33 47.0355 33 43.5Z" stroke="#141B34" stroke-width="3"/>
</svg>
