<svg width="72" height="72" viewBox="0 0 72 72" fill="none" xmlns="http://www.w3.org/2000/svg">
<path d="M15.0044 42C15.0055 35.3333 14.4468 12 25.5054 12C31.3025 12 36.0021 22.7452 36.0021 36C36.0021 49.2548 40.7016 60 46.4988 60C57.5573 60 57 36.6667 57 30" stroke="#141B34" stroke-width="3" stroke-linecap="round"/>
<path d="M6 36H15" stroke="#141B34" stroke-width="3" stroke-linecap="round" stroke-linejoin="round"/>
<path d="M57 36H66" stroke="#141B34" stroke-width="3" stroke-linecap="round" stroke-linejoin="round"/>
<path d="M24 36L48 36" stroke="#141B34" stroke-width="3" stroke-linecap="round" stroke-linejoin="round"/>
<path d="M62.7439 8.5C62.1262 7.04351 60.4593 6 58.5 6C56.0147 6 54 7.67893 54 9.75C54 11.8211 56.0147 13.5 58.5 13.5C60.9853 13.5 63 15.1789 63 17.25C63 19.3211 60.9853 21 58.5 21C56.5407 21 54.8738 19.9565 54.2561 18.5" stroke="#141B34" stroke-width="3" stroke-linecap="round"/>
<path d="M16.6318 51C14.0737 51 12 53.0147 12 55.5V61.5C12 63.9853 14.0737 66 16.6318 66M16.6318 51C18.6485 51 20.3642 52.2522 21 54M16.6318 51C14.6151 51 12.8994 52.2522 12.2636 54M16.6318 66C14.6151 66 12.8994 64.7478 12.2636 63M16.6318 66C18.6485 66 20.3642 64.7478 21 63" stroke="#141B34" stroke-width="3" stroke-linecap="round"/>
</svg>
