<svg width="72" height="72" viewBox="0 0 72 72" fill="none" xmlns="http://www.w3.org/2000/svg">
<path d="M54 39C54 53.9117 46.5685 60 30 60C13.4315 60 6 53.9117 6 39H54ZM54 39H66M54 39V27" stroke="#141B34" stroke-width="3" stroke-linecap="round" stroke-linejoin="round"/>
<path d="M10.5 31.5C10.5 28.6716 10.5 27.2574 11.3787 26.3787C12.2574 25.5 13.6716 25.5 16.5 25.5C19.3284 25.5 20.7426 25.5 21.6213 26.3787C22.5 27.2574 22.5 28.6716 22.5 31.5C22.5 34.3284 22.5 35.7426 21.6213 36.6213C20.7426 37.5 19.3284 37.5 16.5 37.5C13.6716 37.5 12.2574 37.5 11.3787 36.6213C10.5 35.7426 10.5 34.3284 10.5 31.5Z" stroke="#141B34" stroke-width="3"/>
<path d="M22.5 31.5C22.5 28.6716 22.5 27.2574 23.3787 26.3787C24.2574 25.5 25.6716 25.5 28.5 25.5C31.3284 25.5 32.7426 25.5 33.6213 26.3787C34.5 27.2574 34.5 28.6716 34.5 31.5C34.5 34.3284 34.5 35.7426 33.6213 36.6213C32.7426 37.5 31.3284 37.5 28.5 37.5C25.6716 37.5 24.2574 37.5 23.3787 36.6213C22.5 35.7426 22.5 34.3284 22.5 31.5Z" stroke="#141B34" stroke-width="3"/>
<path d="M34.5 31.5C34.5 28.6716 34.5 27.2574 35.3787 26.3787C36.2574 25.5 37.6716 25.5 40.5 25.5C43.3284 25.5 44.7426 25.5 45.6213 26.3787C46.5 27.2574 46.5 28.6716 46.5 31.5C46.5 34.3284 46.5 35.7426 45.6213 36.6213C44.7426 37.5 43.3284 37.5 40.5 37.5C37.6716 37.5 36.2574 37.5 35.3787 36.6213C34.5 35.7426 34.5 34.3284 34.5 31.5Z" stroke="#141B34" stroke-width="3"/>
<path d="M16.5 19.5C16.5 16.6716 16.5 15.2574 17.3787 14.3787C18.2574 13.5 19.6716 13.5 22.5 13.5C25.3284 13.5 26.7426 13.5 27.6213 14.3787C28.5 15.2574 28.5 16.6716 28.5 19.5C28.5 22.3284 28.5 23.7426 27.6213 24.6213C26.7426 25.5 25.3284 25.5 22.5 25.5C19.6716 25.5 18.2574 25.5 17.3787 24.6213C16.5 23.7426 16.5 22.3284 16.5 19.5Z" stroke="#141B34" stroke-width="3"/>
<path d="M28.5 19.5C28.5 16.6716 28.5 15.2574 29.3787 14.3787C30.2574 13.5 31.6716 13.5 34.5 13.5C37.3284 13.5 38.7426 13.5 39.6213 14.3787C40.5 15.2574 40.5 16.6716 40.5 19.5C40.5 22.3284 40.5 23.7426 39.6213 24.6213C38.7426 25.5 37.3284 25.5 34.5 25.5C31.6716 25.5 30.2574 25.5 29.3787 24.6213C28.5 23.7426 28.5 22.3284 28.5 19.5Z" stroke="#141B34" stroke-width="3"/>
<path d="M17.9994 48H18.0264" stroke="#141B34" stroke-width="3" stroke-linecap="round" stroke-linejoin="round"/>
</svg>
