<svg width="24" height="24" viewBox="0 0 24 24" fill="none" xmlns="http://www.w3.org/2000/svg">
<path d="M11.5 21C7.02166 21 4.78249 21 3.39124 19.6088C2 18.2175 2 15.9783 2 11.5C2 7.02166 2 4.78249 3.39124 3.39124C4.78249 2 7.02166 2 11.5 2C15.9783 2 18.2175 2 19.6088 3.39124C21 4.78249 21 7.02166 21 11.5" stroke="#141B34" stroke-width="1.5" stroke-linecap="round"/>
<path d="M2 7H21" stroke="#141B34" stroke-width="1.5" stroke-linejoin="round"/>
<path d="M10 16H11M6 16H7M10 12H14M6 12H7" stroke="#141B34" stroke-width="1.5" stroke-linecap="round" stroke-linejoin="round"/>
<path d="M21.5557 18.582V16.6183C21.5557 15.8564 21.5557 15.4754 21.4366 15.1711C21.2451 14.682 20.8402 14.2961 20.3269 14.1137C20.0076 14.0002 19.6078 14.0002 18.8082 14.0002C17.4089 14.0002 16.7093 14.0002 16.1505 14.1988C15.2522 14.5181 14.5436 15.1933 14.2085 16.0494C14.0001 16.5818 14.0001 17.2486 14.0001 18.582V19.7274C14.0001 21.1087 14.0001 21.7993 14.3769 22.2789C14.4848 22.4163 14.6128 22.5383 14.757 22.6411C15.2214 22.9724 15.8744 22.998 17.1112 23" stroke="#141B34" stroke-width="1.25" stroke-linecap="round" stroke-linejoin="round"/>
<path d="M13.9999 18.5C13.9999 17.6716 14.6632 17 15.4814 17C15.7773 17 16.1261 17.0525 16.4138 16.9744C16.6695 16.9051 16.8691 16.7029 16.9376 16.4441C17.0147 16.1528 16.9629 15.7996 16.9629 15.5C16.9629 14.6716 17.6261 14 18.4443 14" stroke="#141B34" stroke-width="1.25" stroke-linecap="round" stroke-linejoin="round"/>
<path d="M18 20.7501L18.4546 21.0176C18.6833 20.1776 19.5606 19.6791 20.4142 19.9041C20.8511 20.0194 21.1971 20.3018 21.4001 20.6628M22 22.1001L21.5455 21.8326C21.3168 22.6726 20.4395 23.1711 19.5859 22.9461C19.1592 22.8335 18.8191 22.5614 18.6144 22.2124" stroke="#141B34" stroke-width="1.25" stroke-linecap="round" stroke-linejoin="round"/>
</svg>
