<svg width="72" height="72" viewBox="0 0 72 72" fill="none" xmlns="http://www.w3.org/2000/svg">
<path d="M60 36C60 39.3137 57.3137 42 54 42C50.6863 42 48 39.3137 48 36M60 36C60 32.6863 57.3137 30 54 30C50.6863 30 48 32.6863 48 36M60 36H66M48 36H24M24 36C24 39.3137 21.3137 42 18 42C14.6863 42 12 39.3137 12 36M24 36C24 32.6863 21.3137 30 18 30C14.6863 30 12 32.6863 12 36M12 36H6" stroke="#141B34" stroke-width="3" stroke-linecap="round"/>
<path d="M51 55.5474L46.9724 51.1055C44.9459 57.5811 37.1719 61.424 29.6087 59.6888C25.8271 58.8213 22.8142 56.7234 21 54.033" stroke="#141B34" stroke-width="3" stroke-linecap="round" stroke-linejoin="round"/>
<path d="M21 16.552L25.0103 21C27.0283 14.5244 34.7696 10.6815 42.3009 12.4166C46.156 13.3048 49.2089 15.4824 51 18.2652" stroke="#141B34" stroke-width="3" stroke-linecap="round" stroke-linejoin="round"/>
</svg>
