<svg width="24" height="24" viewBox="0 0 24 24" fill="none" xmlns="http://www.w3.org/2000/svg">
<path d="M20 10C19.9641 7.52043 19.7801 6.11466 18.8365 5.17157C17.6643 4 15.7776 4 12.0043 4C8.23106 4 6.34442 4 5.17221 5.17157C4 6.34315 4 8.22876 4 12C4 15.7712 4 17.6569 5.17221 18.8284C6.23545 19.8911 7.88646 19.9899 11 19.9991" stroke="#141B34" stroke-width="1.5" stroke-linecap="round" stroke-linejoin="round"/>
<path d="M18 17.5L19 16M22.5 17.5C22.5 19.9853 20.4853 22 18 22C15.5147 22 13.5 19.9853 13.5 17.5C13.5 15.0147 15.5147 13 18 13C20.4853 13 22.5 15.0147 22.5 17.5Z" stroke="#141B34" stroke-width="1.5" stroke-linecap="round"/>
<path d="M9.5 2V4" stroke="#141B34" stroke-width="1.5" stroke-linecap="round" stroke-linejoin="round"/>
<path d="M14.5 2V4" stroke="#141B34" stroke-width="1.5" stroke-linecap="round" stroke-linejoin="round"/>
<path d="M9.5 20V22" stroke="#141B34" stroke-width="1.5" stroke-linecap="round" stroke-linejoin="round"/>
<path d="M4 9.5L2 9.5" stroke="#141B34" stroke-width="1.5" stroke-linecap="round" stroke-linejoin="round"/>
<path d="M4 14.5L2 14.5" stroke="#141B34" stroke-width="1.5" stroke-linecap="round" stroke-linejoin="round"/>
<path d="M22 9.5L20 9.5" stroke="#141B34" stroke-width="1.5" stroke-linecap="round" stroke-linejoin="round"/>
<path d="M12 8H8" stroke="#141B34" stroke-width="1.5" stroke-linecap="round" stroke-linejoin="round"/>
</svg>
