<svg width="72" height="72" viewBox="0 0 72 72" fill="none" xmlns="http://www.w3.org/2000/svg">
<path d="M52.5 52.5L66 66" stroke="#141B34" stroke-width="3" stroke-linecap="round" stroke-linejoin="round"/>
<path d="M60 33C60 18.0883 47.9117 6 33 6C18.0883 6 6 18.0883 6 33C6 47.9117 18.0883 60 33 60C47.9117 60 60 47.9117 60 33Z" stroke="#141B34" stroke-width="3" stroke-linejoin="round"/>
<path d="M21 33C21 27.3431 21 24.5147 22.7574 22.7574C24.5147 21 27.3431 21 33 21C38.6569 21 41.4853 21 43.2426 22.7574C45 24.5147 45 27.3431 45 33C45 38.6569 45 41.4853 43.2426 43.2426C41.4853 45 38.6569 45 33 45C27.3431 45 24.5147 45 22.7574 43.2426C21 41.4853 21 38.6569 21 33Z" stroke="#141B34" stroke-width="2.5" stroke-linejoin="round"/>
<path d="M29.25 18V21" stroke="#141B34" stroke-width="2.5" stroke-linecap="round" stroke-linejoin="round"/>
<path d="M36.75 18V21" stroke="#141B34" stroke-width="2.5" stroke-linecap="round" stroke-linejoin="round"/>
<path d="M29.25 45V48" stroke="#141B34" stroke-width="2.5" stroke-linecap="round" stroke-linejoin="round"/>
<path d="M36.75 45V48" stroke="#141B34" stroke-width="2.5" stroke-linecap="round" stroke-linejoin="round"/>
<path d="M34.5 28.5L28.5 34.5" stroke="#141B34" stroke-width="2.5" stroke-linecap="round" stroke-linejoin="round"/>
<path d="M37.5 34.5L34.5 37.5" stroke="#141B34" stroke-width="2.5" stroke-linecap="round" stroke-linejoin="round"/>
<path d="M48 36.75L45 36.75" stroke="#141B34" stroke-width="2.5" stroke-linecap="round" stroke-linejoin="round"/>
<path d="M21 29.25L18 29.25" stroke="#141B34" stroke-width="2.5" stroke-linecap="round" stroke-linejoin="round"/>
<path d="M21 36.75L18 36.75" stroke="#141B34" stroke-width="2.5" stroke-linecap="round" stroke-linejoin="round"/>
<path d="M48 29.25L45 29.25" stroke="#141B34" stroke-width="2.5" stroke-linecap="round" stroke-linejoin="round"/>
</svg>
