<svg width="72" height="72" viewBox="0 0 72 72" fill="none" xmlns="http://www.w3.org/2000/svg">
<path d="M60 30C59.8923 22.5613 59.3403 18.344 56.5095 15.5147C52.9928 12 47.3329 12 36.013 12C24.6932 12 19.0333 12 15.5166 15.5147C12 19.0294 12 24.6863 12 36C12 47.3137 12 52.9706 15.5166 56.4853C18.7063 59.6733 23.6594 59.9696 33 59.9972" stroke="#141B34" stroke-width="3" stroke-linecap="round" stroke-linejoin="round"/>
<path d="M46.0432 62.5672L45.7295 61.1003L46.0432 62.5672ZM42.4328 58.9568L43.8997 59.2705L42.4328 58.9568ZM45.062 51.3351L44.0014 50.2745L45.062 51.3351ZM53.6649 59.938L52.6042 58.8773L53.6649 59.938ZM65.3888 43.4319L66.6878 42.6819L65.3888 43.4319ZM63.5884 50.0145L64.649 51.0751L63.5884 50.0145ZM65.3888 47.9942L66.6878 48.7442L65.3888 47.9942ZM61.5681 39.6112L62.3181 38.3122V38.3122L61.5681 39.6112ZM54.9855 41.4116L56.0462 42.4723L54.9855 41.4116ZM57.0058 39.6112L56.2558 38.3122V38.3122L57.0058 39.6112ZM62.5277 48.9538L52.6042 58.8773L54.7255 60.9986L64.649 51.0751L62.5277 48.9538ZM46.1227 52.3958L56.0462 42.4723L53.9249 40.351L44.0014 50.2745L46.1227 52.3958ZM45.7295 61.1003C44.6459 61.332 43.9995 61.4662 43.5463 61.495C43.12 61.5221 43.254 61.4254 43.4143 61.5857L41.293 63.707C42.038 64.452 42.9819 64.537 43.7367 64.489C44.4645 64.4427 45.3706 64.2449 46.3568 64.034L45.7295 61.1003ZM40.966 58.6432C40.7551 59.6294 40.5573 60.5355 40.511 61.2633C40.463 62.0181 40.548 62.962 41.293 63.707L43.4143 61.5857C43.5746 61.746 43.4779 61.88 43.505 61.4537C43.5338 61.0005 43.668 60.3541 43.8997 59.2705L40.966 58.6432ZM62.5277 42.4723C63.596 43.5406 63.913 43.8758 64.0897 44.1819L66.6878 42.6819C66.2638 41.9476 65.5808 41.2827 64.649 40.351L62.5277 42.4723ZM64.649 51.0751C65.5808 50.1434 66.2638 49.4785 66.6878 48.7442L64.0897 47.2442C63.913 47.5503 63.596 47.8855 62.5277 48.9538L64.649 51.0751ZM64.0897 44.1819C64.6368 45.1294 64.6368 46.2967 64.0897 47.2442L66.6878 48.7442C67.7707 46.8685 67.7707 44.5576 66.6878 42.6819L64.0897 44.1819ZM64.649 40.351C63.7173 39.4192 63.0524 38.7362 62.3181 38.3122L60.8181 40.9103C61.1242 41.087 61.4594 41.404 62.5277 42.4723L64.649 40.351ZM56.0462 42.4723C57.1145 41.404 57.4497 41.087 57.7558 40.9103L56.2558 38.3122C55.5215 38.7362 54.8566 39.4192 53.9249 40.351L56.0462 42.4723ZM62.3181 38.3122C60.4424 37.2293 58.1315 37.2293 56.2558 38.3122L57.7558 40.9103C58.7033 40.3632 59.8706 40.3632 60.8181 40.9103L62.3181 38.3122ZM52.6042 58.8773C51.8827 59.5988 50.9338 60.0236 49.7321 60.3304C49.1306 60.484 48.4968 60.6007 47.8166 60.7183C47.1541 60.8327 46.4288 60.9508 45.7295 61.1003L46.3568 64.034C46.981 63.9005 47.6223 63.7963 48.3273 63.6745C49.0146 63.5557 49.7491 63.4223 50.4742 63.2372C51.9261 62.8665 53.4645 62.2597 54.7255 60.9986L52.6042 58.8773ZM43.8997 59.2705C44.0492 58.5712 44.1673 57.8459 44.2817 57.1834C44.3993 56.5032 44.516 55.8694 44.6696 55.2679C44.9764 54.0662 45.4012 53.1173 46.1227 52.3958L44.0014 50.2745C42.7403 51.5355 42.1335 53.0739 41.7628 54.5258C41.5777 55.2509 41.4443 55.9854 41.3255 56.6727C41.2037 57.3777 41.0995 58.019 40.966 58.6432L43.8997 59.2705Z" fill="#141B34"/>
<path d="M28.5 6V12" stroke="#141B34" stroke-width="3" stroke-linecap="round" stroke-linejoin="round"/>
<path d="M43.5 6V12" stroke="#141B34" stroke-width="3" stroke-linecap="round" stroke-linejoin="round"/>
<path d="M28.5 60V66" stroke="#141B34" stroke-width="3" stroke-linecap="round" stroke-linejoin="round"/>
<path d="M12 28.5L6 28.5" stroke="#141B34" stroke-width="3" stroke-linecap="round" stroke-linejoin="round"/>
<path d="M12 43.5L6 43.5" stroke="#141B34" stroke-width="3" stroke-linecap="round" stroke-linejoin="round"/>
<path d="M66 28.5L60 28.5" stroke="#141B34" stroke-width="3" stroke-linecap="round" stroke-linejoin="round"/>
<path d="M36 24H24" stroke="#141B34" stroke-width="3" stroke-linecap="round" stroke-linejoin="round"/>
</svg>
