<svg width="72" height="72" viewBox="0 0 72 72" fill="none" xmlns="http://www.w3.org/2000/svg">
<path d="M34.5 63C21.065 63 14.3475 63 10.1737 58.8263C6 54.6525 6 47.935 6 34.5C6 21.065 6 14.3475 10.1737 10.1737C14.3475 6 21.065 6 34.5 6C47.935 6 54.6525 6 58.8263 10.1737C63 14.3475 63 21.065 63 34.5" stroke="#141B34" stroke-width="3" stroke-linecap="round"/>
<path d="M6 21L63 21" stroke="#141B34" stroke-width="3" stroke-linejoin="round"/>
<path d="M30 48H33M18 48H21M30 36H42M18 36H21" stroke="#141B34" stroke-width="3" stroke-linecap="round" stroke-linejoin="round"/>
<path d="M64.667 55.746V49.855C64.667 47.5692 64.667 46.4262 64.3097 45.5134C63.7353 44.0459 62.5206 42.8883 60.9806 42.341C60.0227 42.0005 58.8233 42.0005 56.4246 42.0005C52.2267 42.0005 50.1278 42.0005 48.4515 42.5963C45.7565 43.5542 43.6307 45.5799 42.6256 48.1481C42.0003 49.7455 42.0003 51.7457 42.0003 55.746V59.1823C42.0003 63.326 42.0003 65.3978 43.1306 66.8366C43.4544 67.2488 43.8385 67.6148 44.2711 67.9234C45.6643 68.9173 47.6231 68.9941 51.3337 69" stroke="#141B34" stroke-width="2.5" stroke-linecap="round" stroke-linejoin="round"/>
<path d="M41.9997 55.5C41.9997 53.0147 43.9895 51 46.4441 51C47.3318 51 48.3784 51.1575 49.2415 50.9233C50.0084 50.7153 50.6074 50.1088 50.8128 49.3323C51.0441 48.4584 50.8886 47.3988 50.8886 46.5C50.8886 44.0147 52.8784 42 55.333 42" stroke="#141B34" stroke-width="2.5" stroke-linecap="round" stroke-linejoin="round"/>
<path d="M54 62.25L55.3637 63.0524C56.0498 60.5324 58.6818 59.0369 61.2425 59.7122C62.5532 60.0578 63.5912 60.9053 64.2002 61.9882M66 66.3L64.6366 65.4977C63.9505 68.0177 61.3184 69.5131 58.7578 68.8379C57.4775 68.5003 56.4574 67.6839 55.8432 66.6369" stroke="#141B34" stroke-width="2.5" stroke-linecap="round" stroke-linejoin="round"/>
</svg>
