<svg width="24" height="24" viewBox="0 0 24 24" fill="none" xmlns="http://www.w3.org/2000/svg">
<path d="M21 21H10C6.70017 21 5.05025 21 4.02513 19.9749C3 18.9497 3 17.2998 3 14V3" stroke="#141B34" stroke-width="1.5" stroke-linecap="round"/>
<circle cx="7.75" cy="4.75" r="0.75" stroke="#141B34" stroke-width="1.5" stroke-linecap="round" stroke-linejoin="round"/>
<path d="M15.0001 5.125C14.9804 4.88009 14.9362 4.7075 14.8366 4.5625C14.7192 4.39148 14.5502 4.24946 14.3468 4.15072C14.0363 4 13.6195 4 12.7858 4C11.952 4 11.5352 4 11.2247 4.15072C11.0213 4.24946 10.8524 4.39148 10.7349 4.5625C10.5557 4.82356 10.5557 5.17404 10.5557 5.875V8.125C10.5557 8.82596 10.5557 9.17644 10.7349 9.4375C10.8524 9.60852 11.0213 9.75054 11.2247 9.84928C11.5352 10 11.952 10 12.7858 10C13.6195 10 14.0363 10 14.3468 9.84928C14.5502 9.75054 14.7192 9.60852 14.8366 9.4375C14.9362 9.2925 14.9804 9.11991 15.0001 8.875" stroke="#141B34" stroke-width="1.5" stroke-linecap="round" stroke-linejoin="round"/>
<path d="M5 20C6.07093 18.053 7.52279 13.0189 10.3063 13.0189C12.2301 13.0189 12.7283 15.4717 14.6136 15.4717C17.8572 15.4717 17.387 10 21 10" stroke="#141B34" stroke-width="1.5" stroke-linecap="round" stroke-linejoin="round"/>
</svg>
