<svg width="72" height="72" viewBox="0 0 72 72" fill="none" xmlns="http://www.w3.org/2000/svg">
<path d="M58.4864 37.8972L59.5775 39.7945C64.7543 48.7959 67.3427 53.2967 65.3012 56.6483C63.2597 60 57.9298 60 47.2701 60H45M13.5136 37.8972L12.4225 39.7945C7.24567 48.7959 4.65727 53.2967 6.6988 56.6483C8.74032 60 14.0702 60 24.7298 60H27M22.5993 22.0989L23.6926 20.1979C29.1361 10.7326 31.8579 6 36 6C40.1421 6 42.8639 10.7326 48.3074 20.1979L49.4007 22.0989" stroke="#141B34" stroke-width="3" stroke-linecap="round" stroke-linejoin="round"/>
<path d="M36 54V66" stroke="#141B34" stroke-width="3" stroke-linecap="round" stroke-linejoin="round"/>
<path d="M58.9805 27L48.5882 33" stroke="#141B34" stroke-width="3" stroke-linecap="round" stroke-linejoin="round"/>
<path d="M13.0195 27L23.4118 33" stroke="#141B34" stroke-width="3" stroke-linecap="round" stroke-linejoin="round"/>
</svg>
