<svg width="72" height="72" viewBox="0 0 72 72" fill="none" xmlns="http://www.w3.org/2000/svg">
<path d="M3.17107 59.6221L9.01465 14.1019C9.54868 9.94193 10.6037 9 14.8687 9C19.1337 9 20.1888 9.94193 20.7228 14.1019L27 63H6.17973C4.57564 63 3.7736 63 3.32078 62.4916C2.86796 61.9832 2.969 61.1962 3.17107 59.6221Z" stroke="#141B34" stroke-width="3" stroke-linecap="round" stroke-linejoin="round"/>
<path d="M27.4611 63L33 63M24 33H24.5978C26.5326 33 27.4999 33 28.4044 32.7059C29.3088 32.4118 30.0911 31.8428 31.6559 30.7048L45 21V29.5949C45 32.3658 45 33.7513 45.8638 34.1558C46.7275 34.5604 47.7919 33.6734 49.9206 31.8995L63 21V42" stroke="#141B34" stroke-width="3" stroke-linecap="round" stroke-linejoin="round"/>
<path d="M9 18L21 18" stroke="#141B34" stroke-width="3" stroke-linecap="round" stroke-linejoin="round"/>
<path d="M33 45L39 45" stroke="#141B34" stroke-width="3" stroke-linecap="round" stroke-linejoin="round"/>
<path d="M64.5 54L67.2597 56.3787C68.4199 57.3787 69 57.8787 69 58.5C69 59.1213 68.4199 59.6213 67.2597 60.6213L64.5 63" stroke="#141B34" stroke-width="3" stroke-linecap="round" stroke-linejoin="round"/>
<path d="M43.5 54L40.7403 56.3787C39.5801 57.3787 39 57.8787 39 58.5C39 59.1213 39.5801 59.6213 40.7403 60.6213L43.5 63" stroke="#141B34" stroke-width="3" stroke-linecap="round" stroke-linejoin="round"/>
<path d="M57 51L51 66" stroke="#141B34" stroke-width="3" stroke-linecap="round" stroke-linejoin="round"/>
</svg>
