<svg width="72" height="72" viewBox="0 0 72 72" fill="none" xmlns="http://www.w3.org/2000/svg">
<path d="M9 9L63 9" stroke="#141B34" stroke-width="3" stroke-linecap="round" stroke-linejoin="round"/>
<circle cx="46.5" cy="31.5" r="10.5" stroke="#141B34" stroke-width="3" stroke-linecap="round" stroke-linejoin="round"/>
<circle cx="25.5" cy="52.5" r="10.5" stroke="#141B34" stroke-width="3" stroke-linecap="round" stroke-linejoin="round"/>
<path d="M15 52.5L15 9" stroke="#141B34" stroke-width="3" stroke-linecap="round" stroke-linejoin="round"/>
<path d="M36 52.5L36 31.5" stroke="#141B34" stroke-width="3" stroke-linecap="round" stroke-linejoin="round"/>
<path d="M46.5 21L46.5 9" stroke="#141B34" stroke-width="3" stroke-linecap="round" stroke-linejoin="round"/>
<path d="M57 51L57 31.5" stroke="#141B34" stroke-width="3" stroke-linecap="round" stroke-linejoin="round"/>
<path d="M57 51C54.8591 51 53.709 51.5983 52.8508 53.6893C51.7335 56.4115 50.3727 60.4488 51.3168 62.1094C51.8231 63 52.9802 63 55.2944 63H58.7056C61.0198 63 62.1769 63 62.6832 62.1094C63.6273 60.4488 62.2665 56.4115 61.1492 53.6893C60.3315 51.6969 59.2269 51 57 51Z" stroke="#141B34" stroke-width="3" stroke-linejoin="round"/>
</svg>
