<svg width="72" height="72" viewBox="0 0 72 72" fill="none" xmlns="http://www.w3.org/2000/svg">
<path d="M60 37.5V23.4545C60 18.3748 60 15.835 59.1961 13.8064C57.9037 10.5453 55.1706 7.97294 51.7057 6.7566C49.5504 6 46.8518 6 41.4545 6C32.0094 6 27.2869 6 23.5151 7.32406C17.4514 9.45265 12.6684 13.9543 10.4068 19.6613C9 23.2112 9 27.6559 9 36.5455V44.1818C9 53.3899 9 57.994 11.5431 61.1913C12.2717 62.1074 13.1359 62.9207 14.1092 63.6065C17.4265 65.9437 22.1691 65.9987 31.5 66" stroke="#141B34" stroke-width="3" stroke-linecap="round" stroke-linejoin="round"/>
<path d="M9 36C9 30.4772 13.4772 26 19 26C20.9974 26 23.3521 26.35 25.2941 25.8296C27.0196 25.3673 28.3673 24.0196 28.8296 22.2941C29.35 20.3521 29 17.9974 29 16C29 10.4772 33.4772 6 39 6" stroke="#141B34" stroke-width="3" stroke-linecap="round" stroke-linejoin="round"/>
<path d="M44.4375 66C42.7308 64.2305 36 59.5208 36 57C36 54.4792 42.7308 49.7695 44.4375 48M54.5625 66C56.2692 64.2305 63 59.5208 63 57C63 54.4792 56.2692 49.7695 54.5625 48" stroke="#141B34" stroke-width="3" stroke-linecap="round" stroke-linejoin="round"/>
</svg>
