<svg width="72" height="72" viewBox="0 0 72 72" fill="none" xmlns="http://www.w3.org/2000/svg">
<path d="M7.5 36C7.5 22.565 7.5 15.8475 11.6737 11.6737C15.8475 7.5 22.565 7.5 36 7.5C49.435 7.5 56.1525 7.5 60.3263 11.6737C64.5 15.8475 64.5 22.565 64.5 36C64.5 49.435 64.5 56.1525 60.3263 60.3263C56.1525 64.5 49.435 64.5 36 64.5C22.565 64.5 15.8475 64.5 11.6737 60.3263C7.5 56.1525 7.5 49.435 7.5 36Z" stroke="#141B34" stroke-width="3"/>
<path d="M16.5 37.5L17.9236 36.5509C19.3455 35.603 20.0564 35.1291 20.7388 35.341C21.4212 35.553 21.7385 36.3463 22.3732 37.9329L27 49.5L33.2649 30.7053C34.585 26.7451 35.245 24.7651 36.8163 23.6325C38.3876 22.5 40.4748 22.5 44.6491 22.5H55.5" stroke="#141B34" stroke-width="3" stroke-linecap="round" stroke-linejoin="round"/>
<path d="M51 36L46.5 40.5M46.5 40.5L42 45M46.5 40.5L51 45M46.5 40.5L42 36" stroke="#141B34" stroke-width="3" stroke-linecap="round" stroke-linejoin="round"/>
</svg>
