<svg width="24" height="24" viewBox="0 0 24 24" fill="none" xmlns="http://www.w3.org/2000/svg">
<ellipse cx="12" cy="4.05" rx="3" ry="1.05" stroke="#141B34" stroke-width="1.5"/>
<path d="M15 6.5C15 7.0799 13.6569 7.55 12 7.55C10.3431 7.55 9 7.0799 9 6.5" stroke="#141B34" stroke-width="1.5"/>
<path d="M15 4.0498V8.9498C15 9.5297 13.6569 9.9998 12 9.9998C10.3431 9.9998 9 9.5297 9 8.9498V4.0498" stroke="#141B34" stroke-width="1.5"/>
<path d="M19.7 15H18.3C17.1523 15 16.5784 15 16.1716 15.2543C16.0211 15.3484 15.8902 15.4653 15.7848 15.5997C15.5 15.9629 15.5 16.4752 15.5 17.5C15.5 18.5248 15.5 19.0371 15.7848 19.4003C15.8902 19.5347 16.0211 19.6516 16.1716 19.7457C16.5784 20 17.1523 20 18.3 20H19.7C20.8477 20 21.4216 20 21.8284 19.7457C21.9789 19.6516 22.1098 19.5347 22.2152 19.4003C22.5 19.0371 22.5 18.5248 22.5 17.5C22.5 16.4752 22.5 15.9629 22.2152 15.5997C22.1098 15.4653 21.9789 15.3484 21.8284 15.2543C21.4216 15 20.8477 15 19.7 15Z" stroke="#141B34" stroke-width="1.5" stroke-linecap="round"/>
<path d="M19.875 21.9996L19.7646 21.853C19.5156 21.5225 19.4539 21.0176 19.6114 20.5996M18.125 21.9996L18.2354 21.853C18.4844 21.5225 18.5461 21.0176 18.3886 20.5996" stroke="#141B34" stroke-width="1.5" stroke-linecap="round"/>
<path d="M17.25 22H20.75" stroke="#141B34" stroke-width="1.5" stroke-linecap="round"/>
<path d="M5.7 15H4.3C3.15227 15 2.5784 15 2.17162 15.2543C2.02112 15.3484 1.89022 15.4653 1.78484 15.5997C1.5 15.9629 1.5 16.4752 1.5 17.5C1.5 18.5248 1.5 19.0371 1.78484 19.4003C1.89022 19.5347 2.02112 19.6516 2.17162 19.7457C2.5784 20 3.15227 20 4.3 20H5.7C6.84773 20 7.4216 20 7.82838 19.7457C7.97888 19.6516 8.10978 19.5347 8.21516 19.4003C8.5 19.0371 8.5 18.5248 8.5 17.5C8.5 16.4752 8.5 15.9629 8.21516 15.5997C8.10978 15.4653 7.97888 15.3484 7.82838 15.2543C7.4216 15 6.84773 15 5.7 15Z" stroke="#141B34" stroke-width="1.5" stroke-linecap="round"/>
<path d="M5.875 21.9996L5.76458 21.853C5.51564 21.5225 5.45393 21.0176 5.61137 20.5996M4.125 21.9996L4.23542 21.853C4.48436 21.5225 4.54607 21.0176 4.38863 20.5996" stroke="#141B34" stroke-width="1.5" stroke-linecap="round"/>
<path d="M3.25 22H6.75" stroke="#141B34" stroke-width="1.5" stroke-linecap="round"/>
<path d="M12 12V14M12 14L13.5 15.5M12 14L10.5 15.5" stroke="#141B34" stroke-width="1.5" stroke-linecap="round" stroke-linejoin="round"/>
</svg>
