<svg width="72" height="72" viewBox="0 0 72 72" fill="none" xmlns="http://www.w3.org/2000/svg">
<path d="M52.4327 25.194L52.5 25.1939C59.9558 25.1939 66 31.1352 66 38.4643C66 43.0653 63.618 47.1194 60 49.5M52.4327 25.194C52.4772 24.7083 52.5 24.2165 52.5 23.7194C52.5 14.7617 45.1127 7.5 36 7.5C27.3697 7.5 20.287 14.0132 19.5613 22.3118M52.4327 25.194C52.126 28.5395 50.7859 31.592 48.7285 34.0408M19.5613 22.3118C11.9519 23.0236 6 29.3234 6 36.9898C6 42.2657 8.8189 46.8944 13.057 49.5M19.5613 22.3118C20.0348 22.2675 20.5147 22.2449 21 22.2449C24.3775 22.2449 27.4942 23.3422 30.0015 25.1939" stroke="#141B34" stroke-width="3" stroke-linecap="round" stroke-linejoin="round"/>
<path d="M45 48L48.6796 51.1716C50.2265 52.5049 51 53.1716 51 54C51 54.8284 50.2265 55.4951 48.6796 56.8284L45 60" stroke="#141B34" stroke-width="3" stroke-linecap="round" stroke-linejoin="round"/>
<path d="M24 48L20.3204 51.1716C18.7735 52.5049 18 53.1716 18 54C18 54.8284 18.7735 55.4951 20.3204 56.8284L24 60" stroke="#141B34" stroke-width="3" stroke-linecap="round" stroke-linejoin="round"/>
<path d="M37.5 48L31.5 60" stroke="#141B34" stroke-width="3" stroke-linecap="round" stroke-linejoin="round"/>
</svg>
