<svg width="72" height="72" viewBox="0 0 72 72" fill="none" xmlns="http://www.w3.org/2000/svg">
<path d="M45.5262 66V63.0352L45.5263 62.9724C45.5416 61.3371 46.8821 60.0152 48.5402 60.0001L48.7653 59.9997C53.0602 59.9656 56.7498 56.9827 57.6261 52.8361L57.658 52.6802L59.2156 45L62.0395 43.6076C63.5507 42.8624 64.3063 42.4899 64.4698 41.8068C64.6333 41.1237 64.1264 40.4572 63.1127 39.1243L57.3903 31.6C56.8209 30.8512 56.5361 30.4768 56.3836 30.0807C56.2311 29.6846 56.1841 29.1233 56.0903 28.0006C55.06 15.6813 44.5948 6 31.8368 6C18.3959 6 7.5 16.7452 7.5 30C7.5 38.249 11.7201 45.526 18.1473 49.846M18.1473 49.846V66M18.1473 49.846C20.0069 51.0958 22.0512 52.0981 24.2315 52.8049" stroke="#141B34" stroke-width="3" stroke-linecap="round" stroke-linejoin="round"/>
<path d="M47.0028 33.1805C47.5066 33.1037 47.7585 33.0653 47.8793 32.9248C48 32.7842 48 32.558 48 32.1056V27.8946C48 27.4421 48 27.2159 47.8793 27.0754C47.7585 26.9348 47.5066 26.8965 47.0028 26.8197C43.2252 26.2439 40.8312 22.4529 42.14 19.0499C42.3343 18.5448 42.4314 18.2923 42.3663 18.1157C42.3013 17.939 42.0947 17.8268 41.6817 17.6024L37.7258 15.4531C37.3478 15.2477 37.1588 15.1451 36.9843 15.1776C36.8098 15.2102 36.6518 15.3963 36.3359 15.7685C33.8625 18.6818 29.1401 18.6817 26.6667 15.7683C26.3508 15.3962 26.1928 15.2101 26.0183 15.1775C25.8438 15.1449 25.6548 15.2476 25.2769 15.4529L21.3209 17.6023C20.9079 17.8267 20.7014 17.9389 20.6363 18.1155C20.5712 18.2921 20.6683 18.5447 20.8625 19.0497C22.171 22.4528 19.7752 26.2439 15.9972 26.8197C15.4934 26.8964 15.2415 26.9348 15.1207 27.0754C15 27.2159 15 27.4421 15 27.8946V32.1056C15 32.558 15 32.7842 15.1207 32.9248C15.2415 33.0653 15.4934 33.1037 15.9972 33.1805C19.7748 33.7562 22.1687 37.5473 20.86 40.9503C20.6657 41.4553 20.5686 41.7078 20.6337 41.8845C20.6987 42.0611 20.9053 42.1733 21.3183 42.3977L25.2742 44.5471C25.6522 44.7524 25.8412 44.8551 26.0157 44.8225C26.1902 44.7899 26.3482 44.6038 26.6641 44.2317C29.1387 41.3164 33.8639 41.3163 36.3385 44.2315C36.6544 44.6037 36.8124 44.7898 36.9869 44.8224C37.1614 44.855 37.3504 44.7523 37.7284 44.5469L41.6843 42.3976C42.0974 42.1731 42.3039 42.0609 42.369 41.8843C42.434 41.7077 42.3369 41.4552 42.1426 40.9502C40.8335 37.5472 43.2256 33.7563 47.0028 33.1805Z" stroke="#141B34" stroke-width="3" stroke-linecap="round"/>
<circle cx="31.5" cy="30" r="5.25" stroke="#141B34" stroke-width="3"/>
</svg>
