<svg width="24" height="24" viewBox="0 0 24 24" fill="none" xmlns="http://www.w3.org/2000/svg">
<path d="M15.1754 22V21.0117L15.1754 20.9908C15.1805 20.4457 15.6274 20.0051 16.1801 20L16.2551 19.9999C17.6867 19.9885 18.9166 18.9942 19.2087 17.612L19.2193 17.5601L19.7385 15L20.6798 14.5359C21.1836 14.2875 21.4354 14.1633 21.4899 13.9356C21.5444 13.7079 21.3755 13.4857 21.0376 13.0414L19.1301 10.5333C18.9403 10.2837 18.8454 10.1589 18.7945 10.0269C18.7437 9.89486 18.728 9.70775 18.6968 9.33353C18.3533 5.22708 14.8649 2 10.6123 2C6.13198 2 2.5 5.58172 2.5 10C2.5 12.7497 3.90669 15.1753 6.04911 16.6153M6.04911 16.6153V22M6.04911 16.6153C6.66896 17.0319 7.3504 17.366 8.07717 17.6016" stroke="#141B34" stroke-width="1.5" stroke-linecap="round" stroke-linejoin="round"/>
<path d="M15.0352 11.2619C15.5796 10.9865 15.8519 10.8488 15.9259 10.7283C16 10.6079 16 10.417 16 10.0352V9.96486C16 9.58303 16 9.39211 15.9259 9.27164C15.8518 9.15116 15.5796 9.0135 15.0352 8.73817C14.3743 8.40398 13.9437 7.74212 13.9269 7.03762C13.9107 6.36271 13.9026 6.02526 13.8326 5.91071C13.7627 5.79617 13.6006 5.70812 13.2765 5.53201L13.131 5.45299C12.8135 5.28047 12.6547 5.19421 12.5202 5.19802C12.3856 5.20183 12.1352 5.35685 11.6344 5.66689C10.9504 6.09036 10.0505 6.09034 9.36646 5.66684C8.86568 5.3568 8.61529 5.20178 8.48072 5.19797C8.34615 5.19415 8.18738 5.28041 7.86986 5.45294L7.7244 5.53196C7.40035 5.70803 7.23833 5.79606 7.16834 5.91057C7.09834 6.02508 7.09019 6.36258 7.07387 7.03759C7.05684 7.74214 6.62593 8.40404 5.96486 8.73822C5.42042 9.01344 5.1482 9.15105 5.0741 9.27153C5 9.39202 5 9.58296 5 9.96486V10.0352C5 10.417 5 10.6079 5.07408 10.7284C5.14816 10.8489 5.42038 10.9866 5.96484 11.2619C6.62569 11.5961 7.05626 12.2579 7.07312 12.9624C7.08928 13.6373 7.09736 13.9748 7.16735 14.0893C7.23735 14.2039 7.39941 14.2919 7.72353 14.468L7.86899 14.5471C8.18657 14.7196 8.34537 14.8059 8.47997 14.8021C8.61457 14.7982 8.86489 14.6432 9.36552 14.3331C10.0501 13.909 10.9508 13.909 11.6353 14.333C12.136 14.6431 12.3863 14.7982 12.5209 14.802C12.6555 14.8058 12.8143 14.7196 13.1319 14.547L13.2773 14.468C13.6015 14.2918 13.7636 14.2038 13.8336 14.0892C13.9036 13.9746 13.9116 13.6372 13.9276 12.9624C13.9443 12.2579 14.3746 11.5961 15.0352 11.2619Z" stroke="#141B34" stroke-width="1.5" stroke-linecap="round"/>
<circle cx="10.5" cy="10" r="1.75" stroke="#141B34" stroke-width="1.5"/>
</svg>
