<svg width="24" height="24" viewBox="0 0 24 24" fill="none" xmlns="http://www.w3.org/2000/svg">
<path d="M12 2V22" stroke="#141B34" stroke-width="1.5" stroke-linecap="round" stroke-linejoin="round"/>
<path d="M22 12L2 12" stroke="#141B34" stroke-width="1.5" stroke-linecap="round" stroke-linejoin="round"/>
<path d="M9 18C9 19.6569 7.65685 21 6 21C4.34315 21 3 19.6569 3 18C3 16.3431 4.34315 15 6 15C7.65685 15 9 16.3431 9 18Z" stroke="#141B34" stroke-width="0.75"/>
<path d="M4.83614 15.2998C4.70238 15.7855 4.72913 16.9755 5.90625 17.8498M5.90625 17.8498C7.38885 17.4508 8.4375 17.5948 9 18.1047M5.90625 17.8498C6.07574 19.2562 5.0625 20.1448 4.5 20.3998" stroke="#141B34" stroke-width="0.75" stroke-linecap="round" stroke-linejoin="round"/>
<path d="M5.1001 16.8002C5.72618 16.2343 7.29792 15.9387 8.5501 16.5045" stroke="#141B34" stroke-width="0.75" stroke-linejoin="round"/>
<path d="M7.46656 17.7002C7.64331 18.5686 7.11433 20.1567 6 21.0002" stroke="#141B34" stroke-width="0.75" stroke-linejoin="round"/>
<path d="M5.4001 19.5002C4.61247 19.1221 3.64761 17.688 3.6001 16.2002" stroke="#141B34" stroke-width="0.75" stroke-linejoin="round"/>
<path d="M16.2 16.7998L19.2 19.7998" stroke="#141B34" stroke-width="0.75" stroke-linejoin="round"/>
<path d="M15.1464 19.856C15.6816 19.5196 16.4997 19.0162 16.6201 18.5054C16.6576 18.3465 16.5734 18.1925 16.5007 18.0463C16.1492 17.3391 16.1413 16.5157 16.6639 15.9938C17.5752 15.0837 19.5316 14.5485 20.4921 15.5077C21.4515 16.4657 20.9167 18.4204 20.0053 19.3304C19.4826 19.8524 18.6583 19.8447 17.9502 19.4936C17.8037 19.421 17.6494 19.337 17.4903 19.3744C16.9787 19.4946 16.4744 20.3114 16.1376 20.8458C15.7715 21.4264 14.5903 20.2056 15.1464 19.856Z" stroke="#141B34" stroke-width="0.75" stroke-linejoin="round"/>
<path d="M15.7083 8.00149C15.8548 7.85505 15.8548 7.61761 15.7083 7.47116C15.5619 7.32472 15.3244 7.32472 15.178 7.47116L15.7083 8.00149ZM15.9898 8.82966L16.255 9.09482L16.255 9.09482L15.9898 8.82966ZM16.5283 8.82149C16.6748 8.67504 16.6748 8.43761 16.5283 8.29116C16.3819 8.14471 16.1444 8.14471 15.998 8.29116L16.5283 8.82149ZM15.178 7.47116L14.9047 7.7445L15.435 8.27483L15.7083 8.00149L15.178 7.47116ZM16.255 9.09482L16.5283 8.82149L15.998 8.29116L15.7247 8.56449L16.255 9.09482ZM14.9047 9.09482C15.2775 9.46771 15.8821 9.46771 16.255 9.09482L15.7247 8.56449C15.6447 8.64448 15.515 8.64448 15.435 8.56449L14.9047 9.09482ZM14.9047 7.7445C14.5318 8.11738 14.5318 8.72194 14.9047 9.09482L15.435 8.56449C15.355 8.4845 15.355 8.35482 15.435 8.27483L14.9047 7.7445Z" fill="#141B34"/>
<path d="M19.4712 3.17799C19.3247 3.32444 19.3247 3.56188 19.4712 3.70832C19.6176 3.85477 19.855 3.85477 20.0015 3.70832L19.4712 3.17799ZM20.8297 3.98983L21.0948 4.25499L21.0948 4.25499L20.8297 3.98983ZM20.2912 3.99799C20.1447 4.14444 20.1447 4.38188 20.2912 4.52832C20.4376 4.67477 20.675 4.67477 20.8215 4.52832L20.2912 3.99799ZM20.0015 3.70832L20.2748 3.43499L19.7445 2.90466L19.4712 3.17799L20.0015 3.70832ZM20.5645 3.72466L20.2912 3.99799L20.8215 4.52832L21.0948 4.25499L20.5645 3.72466ZM20.5645 3.43499C20.6445 3.51498 20.6445 3.64467 20.5645 3.72466L21.0948 4.25499C21.4677 3.88211 21.4677 3.27755 21.0948 2.90466L20.5645 3.43499ZM20.2748 3.43499C20.3548 3.355 20.4845 3.355 20.5645 3.43499L21.0948 2.90466C20.7219 2.53178 20.1174 2.53178 19.7445 2.90466L20.2748 3.43499Z" fill="#141B34"/>
<path d="M16.6595 6.55232C16.6595 6.55232 16.9455 6.16652 17.1332 6.07864C17.7 5.81333 17.8153 5.69806 18.0806 5.13127C18.1685 4.94352 18.5543 4.65759 18.5543 4.65759M17.449 7.3418C17.449 7.3418 17.8348 7.05586 17.9227 6.86811C18.188 6.30132 18.3033 6.18605 18.8701 5.92074C19.0578 5.83286 19.3438 5.44706 19.3438 5.44706" stroke="#141B34" stroke-width="0.75" stroke-linecap="round" stroke-linejoin="round"/>
<path d="M19.5789 5.47159L19.3138 5.73675L19.3138 5.73675L19.5789 5.47159ZM18.5291 4.42172L18.7942 4.15656L18.5291 4.42172ZM19.5789 3.37185L19.8441 3.10669L19.8441 3.10669L19.5789 3.37185ZM20.6288 4.42172L20.3637 4.68689L20.3637 4.68689L20.6288 4.42172ZM19.054 3.00067L19.054 2.62567L19.054 2.62567L19.054 3.00067ZM18.1579 3.89679L18.5329 3.89679L18.5329 3.89679L18.1579 3.89679ZM20.1039 5.84277L20.1039 6.21777L20.1039 6.21777L20.1039 5.84277ZM21 4.94666L21.375 4.94666L21.375 4.94666L21 4.94666ZM19.8441 5.20642L18.7942 4.15656L18.2639 4.68689L19.3138 5.73675L19.8441 5.20642ZM19.3138 3.63702L20.3637 4.68689L20.894 4.15656L19.8441 3.10669L19.3138 3.63702ZM18.7942 3.63702C18.9255 3.50579 18.9978 3.43461 19.0542 3.3916C19.1019 3.35518 19.0921 3.37567 19.054 3.37567L19.054 2.62567C18.8622 2.62567 18.7137 2.70802 18.5992 2.79533C18.4934 2.87604 18.3801 2.99046 18.2639 3.10669L18.7942 3.63702ZM19.8441 3.10669C19.7279 2.99046 19.6146 2.87604 19.5088 2.79533C19.3944 2.70802 19.2458 2.62567 19.054 2.62567L19.054 3.37567C19.0159 3.37567 19.0061 3.35518 19.0539 3.3916C19.1103 3.43461 19.1826 3.50579 19.3138 3.63702L19.8441 3.10669ZM18.7942 4.15656C18.663 4.02533 18.5918 3.95303 18.5488 3.89665C18.5124 3.84892 18.5329 3.8587 18.5329 3.89679L17.7829 3.89679C17.7829 4.08862 17.8652 4.23714 17.9526 4.35158C18.0333 4.45737 18.1477 4.57065 18.2639 4.68689L18.7942 4.15656ZM18.2639 3.10669C18.1477 3.22292 18.0333 3.33621 17.9526 3.44199C17.8652 3.55643 17.7829 3.70495 17.7829 3.89679L18.5329 3.89679C18.5329 3.93487 18.5124 3.94465 18.5488 3.89693C18.5918 3.84055 18.663 3.76824 18.7942 3.63702L18.2639 3.10669ZM20.3637 5.20642C20.2324 5.33765 20.1601 5.40883 20.1037 5.45184C20.056 5.48826 20.0658 5.46777 20.1039 5.46777L20.1039 6.21777C20.2957 6.21777 20.4442 6.13542 20.5587 6.04811C20.6645 5.9674 20.7777 5.85299 20.894 5.73675L20.3637 5.20642ZM19.3138 5.73675C19.43 5.85299 19.5433 5.9674 19.6491 6.04811C19.7635 6.13542 19.912 6.21777 20.1039 6.21777L20.1039 5.46777C20.142 5.46777 20.1517 5.48826 20.104 5.45184C20.0476 5.40883 19.9753 5.33765 19.8441 5.20642L19.3138 5.73675ZM20.894 5.73675C21.0102 5.62052 21.1246 5.50724 21.2053 5.40145C21.2927 5.28701 21.375 5.13849 21.375 4.94666L20.625 4.94666C20.625 4.90857 20.6455 4.89879 20.6091 4.94651C20.5661 5.00289 20.4949 5.0752 20.3637 5.20642L20.894 5.73675ZM20.3637 4.68689C20.4949 4.81811 20.5661 4.89042 20.6091 4.9468C20.6455 4.99452 20.625 4.98474 20.625 4.94666L21.375 4.94666C21.375 4.75482 21.2927 4.6063 21.2053 4.49186C21.1246 4.38607 21.0102 4.27279 20.894 4.15656L20.3637 4.68689Z" fill="#141B34"/>
<path d="M17.4726 7.57895L17.7377 7.31378L17.7377 7.31378L17.4726 7.57895ZM16.4227 6.52908L16.1575 6.79424L16.4227 6.52908ZM15.3728 7.57895L15.1077 7.84411L15.1077 7.84411L15.3728 7.57895ZM16.4227 8.62882L16.6879 8.36365L16.6879 8.36365L16.4227 8.62882ZM15.0016 7.05401L14.6266 7.05401L14.6266 7.05401L15.0016 7.05401ZM15.8978 6.15789L15.8978 6.53289L15.8978 6.53289L15.8978 6.15789ZM17.8438 8.10388L18.2188 8.10388L18.2187 8.10388L17.8438 8.10388ZM16.9476 9L16.9476 9.375L16.9476 9.375L16.9476 9ZM17.7377 7.31378L16.6879 6.26391L16.1575 6.79424L17.2074 7.84411L17.7377 7.31378ZM15.1077 7.84411L16.1575 8.89398L16.6879 8.36365L15.638 7.31378L15.1077 7.84411ZM15.1077 6.26391C14.9914 6.38015 14.877 6.49343 14.7963 6.59922C14.709 6.71366 14.6266 6.86218 14.6266 7.05401L15.3766 7.05401C15.3766 7.0921 15.3562 7.10188 15.3926 7.05415C15.4356 6.99777 15.5068 6.92547 15.638 6.79424L15.1077 6.26391ZM15.638 7.31378C15.5068 7.18256 15.4356 7.11025 15.3926 7.05387C15.3562 7.00615 15.3766 7.01593 15.3766 7.05401L14.6266 7.05401C14.6266 7.24585 14.709 7.39437 14.7963 7.50881C14.877 7.61459 14.9914 7.72788 15.1077 7.84411L15.638 7.31378ZM16.6879 6.26391C16.5716 6.14768 16.4583 6.03327 16.3526 5.95256C16.2381 5.86524 16.0896 5.78289 15.8978 5.78289L15.8978 6.53289C15.8597 6.53289 15.8499 6.51241 15.8976 6.54882C15.954 6.59184 16.0263 6.66302 16.1575 6.79424L16.6879 6.26391ZM15.638 6.79424C15.7692 6.66302 15.8415 6.59184 15.8979 6.54882C15.9456 6.51241 15.9358 6.53289 15.8978 6.53289L15.8978 5.78289C15.7059 5.78289 15.5574 5.86524 15.443 5.95256C15.3372 6.03327 15.2239 6.14768 15.1077 6.26391L15.638 6.79424ZM17.7377 8.89398C17.854 8.77775 17.9684 8.66446 18.0491 8.55868C18.1364 8.44424 18.2187 8.29572 18.2187 8.10388L17.4688 8.10388C17.4688 8.0658 17.4892 8.05601 17.4528 8.10374C17.4098 8.16012 17.3386 8.23243 17.2074 8.36365L17.7377 8.89398ZM17.2074 7.84411C17.3386 7.97534 17.4098 8.04764 17.4528 8.10402C17.4892 8.15175 17.4688 8.14197 17.4688 8.10388L18.2187 8.10388C18.2187 7.91205 18.1364 7.76353 18.0491 7.64909C17.9684 7.5433 17.854 7.43001 17.7377 7.31378L17.2074 7.84411ZM17.2074 8.36365C17.0762 8.49487 17.0039 8.56605 16.9475 8.60907C16.8998 8.64548 16.9095 8.625 16.9476 8.625L16.9476 9.375C17.1395 9.375 17.288 9.29265 17.4024 9.20534C17.5082 9.12462 17.6215 9.01021 17.7377 8.89398L17.2074 8.36365ZM16.1575 8.89398C16.2738 9.01021 16.3871 9.12462 16.4928 9.20534C16.6073 9.29265 16.7558 9.375 16.9476 9.375L16.9476 8.625C16.9857 8.625 16.9955 8.64548 16.9478 8.60907C16.8914 8.56605 16.8191 8.49487 16.6879 8.36365L16.1575 8.89398Z" fill="#141B34"/>
<path d="M2.73416 6.01571C2.58809 6.16253 2.58869 6.39997 2.73552 6.54604C2.88234 6.69211 3.11977 6.6915 3.26584 6.54468L2.73416 6.01571ZM5.82897 3.02531L5.92973 2.6641L5.92973 2.6641L5.82897 3.02531ZM6.54498 3.22504L6.64574 2.86383L6.64574 2.86383L6.54498 3.22504ZM6.85403 3.43022L6.56272 3.66637L6.56272 3.66637L6.85403 3.43022ZM8.57943 6.09628L8.23812 6.25163L8.23812 6.25163L8.57943 6.09628ZM4.99289 3.46433L4.71709 3.21024L4.71709 3.21024L4.99289 3.46433ZM5.66423 4.42151L5.60315 4.05152L5.60315 4.05152L5.66423 4.42151ZM6.52045 4.81707L6.8179 4.5887L6.8179 4.5887L6.52045 4.81707ZM6.81379 5.89016L6.44107 5.93143L6.44107 5.93143L6.81379 5.89016ZM7.03909 6.47062L6.82856 6.78095C6.98616 6.88787 7.19886 6.85968 7.32318 6.71541C7.44749 6.57114 7.44392 6.3566 7.31489 6.21654L7.03909 6.47062ZM4.56989 6.57547C4.44154 6.73801 4.46925 6.97382 4.63179 7.10218C4.79433 7.23053 5.03015 7.20281 5.1585 7.04027L4.56989 6.57547ZM4.68215 4.00991L4.31272 4.07433L4.31272 4.07433L4.68215 4.00991ZM8.93345 7.68116L9.28175 7.82014L9.28175 7.82013L8.93345 7.68116ZM7.6609 8.47371L7.77818 8.8299L7.77818 8.8299L7.6609 8.47371ZM6.1383 4.38724L6.28108 4.04048L6.28108 4.04048L6.1383 4.38724ZM5.46134 8.51978L5.73057 8.78081L5.73058 8.78081L5.46134 8.51978ZM3.2758 8.24004C3.13548 8.08772 2.89824 8.07799 2.74592 8.21832C2.5936 8.35864 2.58387 8.59588 2.7242 8.7482L3.2758 8.24004ZM5.51387 8.44635L5.65042 8.0971C5.47926 8.03018 5.28482 8.09716 5.19119 8.25531L5.51387 8.44635ZM5.50357 8.46375L5.18089 8.2727L5.18089 8.2727L5.50357 8.46375ZM5.63414 6.24853L5.74875 6.60558L5.63414 6.24853ZM5.7282 3.38652L6.44422 3.58625L6.64574 2.86383L5.92973 2.6641L5.7282 3.38652ZM6.56272 3.66637C7.33409 4.61794 7.82282 5.33915 8.23812 6.25163L8.92075 5.94094C8.46955 4.94961 7.93905 4.17322 7.14534 3.19408L6.56272 3.66637ZM6.44107 5.93143C6.46832 6.17754 6.54936 6.49251 6.76329 6.72471L7.31489 6.21654C7.25839 6.15521 7.2063 6.02761 7.18651 5.84889L6.44107 5.93143ZM6.223 5.04543C6.28254 5.12297 6.32175 5.17411 6.34876 5.21164C6.36194 5.22995 6.3689 5.24047 6.3722 5.24579C6.37622 5.25229 6.37065 5.24444 6.36367 5.22688L7.06066 4.94994C7.03261 4.87933 6.98748 4.81519 6.95745 4.77347C6.92204 4.72428 6.8743 4.66216 6.8179 4.5887L6.223 5.04543ZM7.18651 5.84889C7.1587 5.59769 7.13745 5.40569 7.12091 5.27112C7.11267 5.20411 7.10513 5.14739 7.09808 5.10294C7.09364 5.0749 7.08337 5.0071 7.06066 4.94994L6.36367 5.22688C6.34986 5.19214 6.34977 5.17269 6.35733 5.22033C6.36228 5.25157 6.36855 5.29788 6.37651 5.36262C6.39236 5.49158 6.41301 5.67803 6.44107 5.93143L7.18651 5.84889ZM4.71709 3.21024C4.61282 3.32342 4.49946 3.44437 4.4241 3.56315C4.33519 3.70329 4.2774 3.87178 4.31272 4.07433L5.05157 3.9455C5.0525 3.95079 5.05297 3.96296 5.04982 3.97568C5.04737 3.98556 5.04566 3.98344 5.05739 3.96495C5.06985 3.94532 5.09112 3.91696 5.12836 3.87367C5.16551 3.83047 5.21054 3.78154 5.26869 3.71841L4.71709 3.21024ZM8.23812 6.25163C8.41847 6.64786 8.53378 6.90407 8.59004 7.11346C8.64068 7.30197 8.63394 7.41992 8.58515 7.54219L9.28175 7.82013C9.40456 7.51236 9.39601 7.22281 9.31435 6.91886C9.2383 6.63579 9.09081 6.31459 8.92075 5.94094L8.23812 6.25163ZM7.77818 8.8299C8.13167 8.71351 8.44714 8.61129 8.69057 8.47567C8.95831 8.32652 9.15908 8.12758 9.28175 7.82014L8.58515 7.54219C8.53623 7.6648 8.46771 7.7413 8.32557 7.82048C8.15912 7.91321 7.92411 7.99224 7.54363 8.11752L7.77818 8.8299ZM5.72531 4.7915C5.86371 4.76866 5.94739 4.75507 6.00668 4.74958C6.01998 4.74835 6.02975 4.74777 6.03675 4.74755C6.0438 4.74732 6.04667 4.7475 6.04632 4.74748C6.04596 4.74746 6.04088 4.74714 6.03236 4.74542C6.02366 4.74365 6.01086 4.74031 5.99553 4.734L6.28108 4.04048C6.15258 3.98757 6.02087 3.99506 5.93754 4.00278C5.84516 4.01133 5.72994 4.03059 5.60315 4.05152L5.72531 4.7915ZM5.19211 8.25874C4.96192 8.49616 4.60569 8.62844 4.22832 8.62493C3.85102 8.62143 3.49936 8.48271 3.2758 8.24004L2.7242 8.7482C3.11405 9.17139 3.67858 9.36986 4.22136 9.3749C4.76405 9.37994 5.33179 9.19212 5.73057 8.78081L5.19211 8.25874ZM7.54363 8.11752C6.87169 8.33875 6.31518 8.357 5.65042 8.0971L5.37732 8.79561C6.22988 9.12894 6.96839 9.09652 7.77818 8.8299L7.54363 8.11752ZM5.82626 8.65479L5.83656 8.6374L5.19119 8.25531L5.18089 8.2727L5.82626 8.65479ZM5.73058 8.78081C5.77059 8.73954 5.80183 8.69606 5.82626 8.65479L5.18089 8.2727C5.18141 8.27182 5.18473 8.26635 5.19211 8.25875L5.73058 8.78081ZM7.24962 6.1603C6.90945 5.92952 6.22953 5.66358 5.51953 5.89147L5.74875 6.60558C6.16617 6.4716 6.60529 6.62948 6.82856 6.78095L7.24962 6.1603ZM5.51953 5.89147C5.17932 6.00067 4.85195 6.21828 4.56989 6.57547L5.1585 7.04027C5.3536 6.79321 5.55852 6.66664 5.74875 6.60558L5.51953 5.89147ZM5.89144 5.97572C5.46742 5.5758 4.87137 5.39672 4.3053 5.40279C3.73929 5.40886 3.14701 5.60073 2.73416 6.01571L3.26584 6.54468C3.50898 6.30029 3.89544 6.15723 4.31334 6.15275C4.73117 6.14827 5.1242 6.28304 5.37684 6.52133L5.89144 5.97572ZM5.99553 4.734C5.97964 4.72745 5.99777 4.72997 6.05183 4.80154C6.07559 4.83299 6.09909 4.86766 6.12796 4.9105C6.15427 4.94952 6.18796 4.99978 6.223 5.04543L6.8179 4.5887C6.79969 4.56499 6.77953 4.53529 6.74987 4.49129C6.72278 4.4511 6.6882 4.39967 6.65027 4.34946C6.58096 4.25771 6.46127 4.11467 6.28108 4.04048L5.99553 4.734ZM6.44422 3.58625C6.49337 3.59996 6.51508 3.60628 6.52925 3.61123C6.53915 3.61469 6.52937 3.61215 6.51429 3.60213C6.49962 3.59237 6.49424 3.58502 6.50285 3.59443C6.51413 3.60676 6.52968 3.62561 6.56272 3.66637L7.14534 3.19408C7.09782 3.13546 7.02707 3.04239 6.92944 2.97751C6.82994 2.91137 6.71654 2.88358 6.64574 2.86383L6.44422 3.58625ZM5.92973 2.6641C5.60991 2.57488 5.34706 2.64637 5.13537 2.79615C4.96458 2.917 4.80923 3.11023 4.71709 3.21024L5.26869 3.71841C5.30226 3.68198 5.33457 3.64549 5.36333 3.61314C5.39301 3.57974 5.41915 3.55044 5.44472 3.52307C5.49673 3.46742 5.53543 3.43184 5.56856 3.4084C5.59901 3.38686 5.61887 3.37984 5.63337 3.37706C5.64719 3.37441 5.67548 3.37181 5.7282 3.38652L5.92973 2.6641ZM4.31272 4.07433C4.38311 4.47797 4.74069 4.6582 4.97622 4.73146C5.23132 4.8108 5.51965 4.82546 5.72531 4.7915L5.60315 4.05152C5.51567 4.06596 5.34539 4.06084 5.19896 4.0153C5.03295 3.96367 5.04606 3.9139 5.05157 3.9455L4.31272 4.07433Z" fill="#141B34"/>
</svg>
