<svg width="72" height="72" viewBox="0 0 72 72" fill="none" xmlns="http://www.w3.org/2000/svg">
<path d="M4.93663 37.744C4.35234 38.3313 4.35478 39.281 4.94206 39.8653C5.52935 40.4496 6.47909 40.4472 7.06337 39.8599L4.93663 37.744ZM34.2896 6.25307L34.6927 4.80823L34.2896 6.25307ZM41.4498 8.25041L41.8529 6.80557L41.4498 8.25041ZM44.5403 10.3022L43.375 11.2468V11.2468L44.5403 10.3022ZM61.7943 36.9628L60.4291 37.5842V37.5842L61.7943 36.9628ZM25.9289 10.6433L24.8257 9.62691L25.9289 10.6433ZM32.6423 20.2151L32.398 18.7352H32.398L32.6423 20.2151ZM41.2045 24.1707L42.3943 23.2572L42.3943 23.2572L41.2045 24.1707ZM44.1379 34.9016L42.647 35.0667V35.0667L44.1379 34.9016ZM46.3909 40.7062L45.5488 41.9476C46.1791 42.3752 47.03 42.2625 47.5272 41.6854C48.0245 41.1083 48.0102 40.2501 47.4941 39.6899L46.3909 40.7062ZM23.4647 43.1491C22.9513 43.7993 23.0622 44.7425 23.7123 45.2559C24.3625 45.7694 25.3057 45.6585 25.8192 45.0083L23.4647 43.1491ZM22.8215 16.0991L21.3438 16.3568L22.8215 16.0991ZM65.3345 52.8116L66.7277 53.3675L65.3345 52.8116ZM52.609 60.7371L53.0781 62.1618L52.609 60.7371ZM37.383 19.8724L37.9541 18.4854L37.9541 18.4854L37.383 19.8724ZM30.6134 61.1978L31.6903 62.2419L31.6904 62.2419L30.6134 61.1978ZM7.10322 59.9249C6.54192 59.3156 5.59297 59.2767 4.98368 59.838C4.37439 60.3993 4.33548 61.3482 4.89678 61.9575L7.10322 59.9249ZM31.1387 60.4635L31.6849 59.0665C31.0003 58.7988 30.2225 59.0668 29.848 59.6993L31.1387 60.4635ZM31.0357 60.6375L29.745 59.8733L29.745 59.8733L31.0357 60.6375ZM32.3414 38.4853L32.7998 39.9135L32.3414 38.4853ZM33.8866 7.69791L41.0468 9.69525L41.8529 6.80557L34.6927 4.80823L33.8866 7.69791ZM43.375 11.2468C51.1558 20.8452 56.1684 28.2229 60.4291 37.5842L63.1596 36.3414C58.7553 26.6647 53.5756 19.0663 45.7055 9.35765L43.375 11.2468ZM42.647 35.0667C42.8972 37.3256 43.6207 39.9132 45.2877 41.7226L47.4941 39.6899C46.4568 38.564 45.8491 36.7259 45.6288 34.7365L42.647 35.0667ZM40.0147 25.0841C40.6007 25.8473 41.0183 26.3916 41.3136 26.8018C41.46 27.0052 41.5631 27.1574 41.6348 27.2732C41.7094 27.3936 41.7289 27.441 41.7277 27.438L44.5157 26.3302C44.35 25.9133 44.0558 25.4762 43.7484 25.0492C43.4195 24.5923 42.9677 24.0041 42.3943 23.2572L40.0147 25.0841ZM45.6288 34.7365C45.3499 32.2179 45.1392 30.3145 44.9759 28.9857C44.8943 28.3224 44.8227 27.7865 44.7585 27.3816C44.7048 27.0424 44.6332 26.6261 44.5157 26.3302L41.7277 27.438C41.6992 27.3663 41.7293 27.4335 41.7955 27.8512C41.8513 28.2032 41.9179 28.6975 41.9983 29.3517C42.1588 30.6581 42.3672 32.5393 42.647 35.0667L45.6288 34.7365ZM24.8257 9.62691C23.7261 10.8205 22.7607 11.86 22.1409 12.8369C21.4669 13.8993 21.1109 15.0212 21.3438 16.3568L24.2992 15.8415C24.2267 15.4257 24.2868 15.0545 24.674 14.4441C25.1155 13.7484 25.8565 12.9356 27.0321 11.6596L24.8257 9.62691ZM60.4291 37.5842C62.2017 41.4788 63.4514 44.2359 64.0733 46.5508C64.6728 48.7822 64.6512 50.4765 63.9413 52.2557L66.7277 53.3675C67.7337 50.8462 67.6941 48.4656 66.9706 45.7724C66.2694 43.1628 64.8911 40.1457 63.1596 36.3414L60.4291 37.5842ZM53.0781 62.1618C56.694 60.9713 59.6073 60.0187 61.8107 58.7912C64.1113 57.5095 65.7222 55.8874 66.7277 53.3675L63.9413 52.2557C63.2309 54.0363 62.1489 55.1686 60.3507 56.1704C58.4552 57.2264 55.8638 58.0862 52.1399 59.3123L53.0781 62.1618ZM32.8866 21.6951C34.2358 21.4724 35.1672 21.3195 35.8594 21.2554C36.1989 21.224 36.4349 21.2188 36.6014 21.2291C36.7662 21.2392 36.8185 21.2621 36.8119 21.2594L37.9541 18.4854C37.2113 18.1795 36.3712 18.1952 35.5828 18.2682C34.7583 18.3445 33.7007 18.5201 32.398 18.7352L32.8866 21.6951ZM29.5365 60.1536C26.7288 63.0494 22.532 64.5389 18.2623 64.4992C13.9929 64.4596 9.83769 62.8932 7.10322 59.9249L4.89678 61.9575C8.29647 65.6479 13.3031 67.4533 18.2344 67.4991C23.1655 67.5449 28.2083 65.8333 31.6903 62.2419L29.5365 60.1536ZM52.1399 59.3123C45.007 61.6608 38.8959 61.8858 31.6849 59.0665L30.5925 61.8606C38.5547 64.9736 45.3938 64.6919 53.0781 62.1618L52.1399 59.3123ZM32.3265 61.4016L32.4295 61.2277L29.848 59.6993L29.745 59.8733L32.3265 61.4016ZM31.6904 62.2419C31.9483 61.9759 32.157 61.6879 32.3265 61.4016L29.745 59.8733C29.6754 59.9909 29.6049 60.0831 29.5365 60.1536L31.6904 62.2419ZM47.233 39.4649C44.182 37.3951 38.1052 35.0598 31.883 37.057L32.7998 39.9135C37.8518 38.2919 42.9654 40.195 45.5488 41.9476L47.233 39.4649ZM31.883 37.057C28.9308 38.0046 26.0245 39.9076 23.4647 43.1491L25.8192 45.0083C28.031 42.2073 30.4476 40.6685 32.7998 39.9135L31.883 37.057ZM33.3706 37.3941C29.6445 33.8797 24.2931 32.2219 19.0771 32.2778C13.8614 32.3337 8.55602 34.106 4.93663 37.744L7.06337 39.8599C10.0039 36.9042 14.486 35.3272 19.1093 35.2776C23.7323 35.228 28.2716 36.7087 31.3122 39.5765L33.3706 37.3941ZM36.8119 21.2594C37.2413 21.4362 37.7273 21.8829 38.3136 22.6591C38.5937 23.0299 38.8619 23.4269 39.1453 23.8473C39.4185 24.2525 39.7148 24.6934 40.0147 25.0841L42.3943 23.2572C42.1617 22.9543 41.9195 22.5956 41.633 22.1705C41.3567 21.7607 41.0442 21.2967 40.7074 20.8508C40.06 19.9939 39.1678 18.9851 37.9541 18.4854L36.8119 21.2594ZM41.0468 9.69525C42.0424 9.97299 42.2398 10.0487 42.3884 10.1474C42.5445 10.2512 42.7037 10.4186 43.375 11.2468L45.7055 9.35765C45.1463 8.66777 44.6737 8.06415 44.049 7.64892C43.4167 7.22868 42.6842 7.03746 41.8529 6.80557L41.0468 9.69525ZM34.6927 4.80823C32.2024 4.11356 30.2666 4.6568 28.6533 5.79827C27.2036 6.82399 25.9336 8.42437 24.8257 9.62691L27.0321 11.6596C28.3887 10.1871 29.2807 9.02937 30.3861 8.24725C31.3279 7.58087 32.3402 7.26653 33.8866 7.69791L34.6927 4.80823ZM21.3438 16.3568C21.82 19.0875 24.2837 20.4984 26.4304 21.1661C28.6554 21.8581 31.1845 21.9761 32.8866 21.6951L32.398 18.7352C31.1686 18.9381 29.1117 18.8583 27.3214 18.3015C25.4527 17.7203 24.4718 16.8312 24.2992 15.8415L21.3438 16.3568Z" fill="#141B34"/>
</svg>
