<svg width="72" height="72" viewBox="0 0 72 72" fill="none" xmlns="http://www.w3.org/2000/svg">
<path d="M21 28.5C21 30.9853 18.9853 33 16.5 33C14.0147 33 12 30.9853 12 28.5C12 26.0147 14.0147 24 16.5 24C18.9853 24 21 26.0147 21 28.5Z" stroke="#141B34" stroke-width="3"/>
<path d="M28.4849 8.78787C28.3678 7.96777 27.608 7.39792 26.7879 7.51508C25.9678 7.63223 25.3979 8.39203 25.5151 9.21213L28.4849 8.78787ZM28.9398 22.5783L27.4548 22.7905L28.9398 22.5783ZM26.6472 36.7056L27.9889 37.3764L27.9889 37.3764L26.6472 36.7056ZM19.6584 47.3292C19.2879 48.0701 19.5882 48.9712 20.3292 49.3416C21.0701 49.7121 21.9712 49.4118 22.3416 48.6708L19.6584 47.3292ZM51.8408 37.1625L53.2712 36.7108V36.7108L51.8408 37.1625ZM58.5696 63.4517C58.8191 64.2417 59.6617 64.6798 60.4517 64.4304C61.2417 64.1809 61.6798 63.3383 61.4304 62.5483L58.5696 63.4517ZM29.4355 29.9084L27.9549 29.6681L29.4355 29.9084ZM48.4216 33.4286L47.8461 34.8138L48.4216 33.4286ZM27.3067 35.383L25.9628 34.7168H25.9628L27.3067 35.383ZM34.5955 62.4733C34.3046 63.249 34.6976 64.1136 35.4733 64.4045C36.249 64.6954 37.1136 64.3024 37.4045 63.5267L34.5955 62.4733ZM50.7162 35.1133L51.8654 34.1493L50.7162 35.1133ZM25.5151 9.21213L27.4548 22.7905L30.4247 22.3662L28.4849 8.78787L25.5151 9.21213ZM25.3056 36.0347L19.6584 47.3292L22.3416 48.6708L27.9889 37.3764L25.3056 36.0347ZM50.4104 37.6142L58.5696 63.4517L61.4304 62.5483L53.2712 36.7108L50.4104 37.6142ZM27.4548 22.7905C27.6168 23.9245 27.7513 24.8658 27.8526 25.6843L30.8299 25.3157C30.7244 24.4635 30.5855 23.4917 30.4247 22.3662L27.4548 22.7905ZM27.8526 25.6843C28.0822 27.5391 28.1227 28.634 27.9549 29.6681L30.9162 30.1487C31.1549 28.6778 31.0674 27.2349 30.8299 25.3157L27.8526 25.6843ZM28.7656 26.8852L47.8461 34.8138L48.9972 32.0434L29.9168 24.1148L28.7656 26.8852ZM27.9889 37.3764C28.2246 36.9049 28.4459 36.4622 28.6507 36.0493L25.9628 34.7168C25.7608 35.1243 25.5419 35.5621 25.3056 36.0347L27.9889 37.3764ZM28.6507 36.0493C29.8678 33.5941 30.623 31.9553 30.9162 30.1487L27.9549 29.6681C27.7449 30.962 27.2044 32.2123 25.9628 34.7168L28.6507 36.0493ZM42.4705 41.4733L34.5955 62.4733L37.4045 63.5267L45.2795 42.5267L42.4705 41.4733ZM26.7504 36.7761L43.3187 43.393L44.4313 40.607L27.8631 33.99L26.7504 36.7761ZM53.2712 36.7108C52.9715 35.7619 52.4901 34.894 51.8654 34.1493L49.567 36.0773C49.9419 36.5242 50.2306 37.0447 50.4104 37.6142L53.2712 36.7108ZM51.8654 34.1493C51.101 33.2381 50.1217 32.5107 48.9972 32.0434L47.8461 34.8138C48.5207 35.0941 49.1082 35.5304 49.567 36.0773L51.8654 34.1493ZM49.652 34.0562L42.8108 40.9429L44.9392 43.0571L51.7803 36.1704L49.652 34.0562Z" fill="#141B34"/>
</svg>
