<svg width="72" height="72" viewBox="0 0 72 72" fill="none" xmlns="http://www.w3.org/2000/svg">
<path d="M66 36C66 52.5685 52.5685 66 36 66C19.4315 66 6 52.5685 6 36C6 19.4315 19.4315 6 36 6C52.5685 6 66 19.4315 66 36Z" stroke="#141B34" stroke-width="3"/>
<path d="M6 36C12.8409 43.2867 23.7325 48 36 48C48.2675 48 59.1591 43.2867 66 36" stroke="#141B34" stroke-width="3"/>
<path d="M36 6V66" stroke="#141B34" stroke-width="3" stroke-linecap="round" stroke-linejoin="round"/>
<path d="M15.4668 15C14.3216 19.5 15.1202 27 19.6986 33C24.5124 39.3084 27.5473 48 16.108 57" stroke="#141B34" stroke-width="3" stroke-linecap="round" stroke-linejoin="round"/>
<path d="M56.5332 15C57.6784 19.5 56.8798 27 52.3014 33C47.4876 39.3084 44.4527 48 55.892 57" stroke="#141B34" stroke-width="3" stroke-linecap="round" stroke-linejoin="round"/>
</svg>
