<svg width="72" height="72" viewBox="0 0 72 72" fill="none" xmlns="http://www.w3.org/2000/svg">
<path d="M66 36C66 52.5685 52.5685 66 36 66C19.4315 66 6 52.5685 6 36C6 19.4315 19.4315 6 36 6C52.5685 6 66 19.4315 66 36Z" stroke="#141B34" stroke-width="3"/>
<path d="M24.3614 9C23.0238 13.8571 23.2913 25.7571 35.0625 34.5M35.0625 34.5C49.8885 30.5101 60.375 31.95 66 37.0493M35.0625 34.5C36.7574 48.5642 26.625 57.45 21 60" stroke="#141B34" stroke-width="3" stroke-linecap="round" stroke-linejoin="round"/>
<path d="M27 24C33.2609 18.341 48.9783 15.3846 61.5 21.043" stroke="#141B34" stroke-width="3" stroke-linejoin="round"/>
<path d="M50.6656 33C52.4331 41.6841 47.1433 57.5649 36 66" stroke="#141B34" stroke-width="3" stroke-linejoin="round"/>
<path d="M30 51C22.1237 47.2189 12.4751 32.8784 12 18" stroke="#141B34" stroke-width="3" stroke-linejoin="round"/>
</svg>
