<svg width="72" height="72" viewBox="0 0 72 72" fill="none" xmlns="http://www.w3.org/2000/svg">
<path d="M57.3037 54L23.889 54C15.0874 54 10.6866 54 8.00421 50.6484C2.91279 44.2868 8.71411 27.3714 12.2283 21C13.4197 28.2 25.6846 28 30.1522 27C27.1755 21.0036 31.1492 19.0024 33.136 18.0018L33.1395 18C42 28.5 60.9446 34.212 65.5873 45.6565C67.5927 50.6002 61.8786 54 57.3037 54Z" stroke="#141B34" stroke-width="3" stroke-linecap="round" stroke-linejoin="round"/>
<path d="M6 42C18.494 46.2882 26.1929 47.5327 36.0651 44.4118C39.0565 43.4661 40.5522 42.9933 41.4844 43.0574C42.4167 43.1216 44.3186 44.0085 48.1224 45.7824C52.8728 47.9977 59.3914 49.273 66 46.075" stroke="#141B34" stroke-width="3" stroke-linejoin="round"/>
<path d="M40.5 28.5L45 24" stroke="#141B34" stroke-width="3" stroke-linecap="round" stroke-linejoin="round"/>
<path d="M46.5 33L51 28.5" stroke="#141B34" stroke-width="3" stroke-linecap="round" stroke-linejoin="round"/>
</svg>
