<svg width="72" height="72" viewBox="0 0 72 72" fill="none" xmlns="http://www.w3.org/2000/svg">
<path d="M15 17.4828H23.1M33 17.4828H28.5M23.1 17.4828H28.5M23.1 17.4828V15M28.5 17.4828C27.5505 20.8781 25.5623 24.0877 23.2929 26.9084M17.5071 33C19.3417 31.3131 21.4137 29.2441 23.2929 26.9084M23.2929 26.9084C22.1357 25.5517 20.5157 23.3567 20.0529 22.3636M23.2929 26.9084L26.7643 30.5172" stroke="#141B34" stroke-width="3" stroke-linecap="round" stroke-linejoin="round"/>
<path d="M40.5 57L43 51M55.5 57L53 51M43 51L48 39L53 51M43 51H53" stroke="#141B34" stroke-width="3" stroke-linecap="round" stroke-linejoin="round"/>
<path d="M42 30V24C42 15.5147 42 11.2721 39.364 8.63604C36.7279 6 32.4853 6 24 6C15.5147 6 11.2721 6 8.63604 8.63604C6 11.2721 6 15.5147 6 24C6 32.4853 6 36.7279 8.63604 39.364C11.2721 42 15.5147 42 24 42H30" stroke="#141B34" stroke-width="3" stroke-linecap="round"/>
<path d="M30 48C30 39.5147 30 35.2721 32.636 32.636C35.2721 30 39.5147 30 48 30C56.4853 30 60.7279 30 63.364 32.636C66 35.2721 66 39.5147 66 48C66 56.4853 66 60.7279 63.364 63.364C60.7279 66 56.4853 66 48 66C39.5147 66 35.2721 66 32.636 63.364C30 60.7279 30 56.4853 30 48Z" stroke="#141B34" stroke-width="3"/>
<path d="M12 49.5C12 53.7134 12 55.8201 13.0112 57.3334C13.4489 57.9886 14.0114 58.5511 14.6666 58.9888C16.1799 60 18.2866 60 22.5 60" stroke="#141B34" stroke-width="3" stroke-linecap="round" stroke-linejoin="round"/>
<path d="M60 22.5C60 18.2866 60 16.1799 58.9888 14.6666C58.5511 14.0114 57.9886 13.4489 57.3334 13.0112C55.8201 12 53.7134 12 49.5 12" stroke="#141B34" stroke-width="3" stroke-linecap="round" stroke-linejoin="round"/>
</svg>
