<svg width="72" height="72" viewBox="0 0 72 72" fill="none" xmlns="http://www.w3.org/2000/svg">
<path d="M10.5 30V25.5C10.5 19.8431 10.5 17.0147 12.2574 15.2574C14.0147 13.5 16.8431 13.5 22.5 13.5M61.5 30V25.5C61.5 19.8431 61.5 17.0147 59.7426 15.2574C57.9853 13.5 55.1569 13.5 49.5 13.5" stroke="#141B34" stroke-width="3" stroke-linecap="round" stroke-linejoin="round"/>
<path d="M66 30L57 30" stroke="#141B34" stroke-width="3" stroke-linecap="round" stroke-linejoin="round"/>
<path d="M15 30H6" stroke="#141B34" stroke-width="3" stroke-linecap="round" stroke-linejoin="round"/>
<path d="M28.1032 10.5236H43.8968C45.5072 10.5236 47.7024 10.2367 48.8298 11.6623C49.5 12.5097 49.5 13.7635 49.5 16.271C49.5 17.8204 49.206 18.3372 47.7389 18.9392L44.5017 20.2673C43.27 20.7727 42.6541 21.0254 42.012 20.998C39.8144 20.9042 38.2363 18.5798 36 18.5798C33.7637 18.5798 32.1856 20.9042 29.988 20.998C29.3459 21.0254 28.73 20.7727 27.4983 20.2673L24.2611 18.9392C22.794 18.3372 22.5 17.8204 22.5 16.271C22.5 13.7635 22.5 12.5097 23.1702 11.6623C24.2976 10.2367 26.4928 10.5236 28.1032 10.5236Z" stroke="#141B34" stroke-width="3" stroke-linecap="round" stroke-linejoin="round"/>
<path d="M28.1032 42.0007H43.8968C45.5072 42.0007 47.7024 41.7137 48.8298 43.1394C49.5 43.9868 49.5 45.2405 49.5 47.7481C49.5 49.2974 49.206 49.8143 47.7389 50.4162L44.5017 51.7444C43.27 52.2498 42.6541 52.5025 42.012 52.4751C39.8144 52.3813 38.2363 50.0569 36 50.0569C33.7637 50.0569 32.1856 52.3813 29.988 52.4751C29.3459 52.5025 28.73 52.2498 27.4983 51.7444L24.2611 50.4162C22.794 49.8143 22.5 49.2974 22.5 47.7481C22.5 45.2405 22.5 43.9868 23.1702 43.1394C24.2976 41.7137 26.4928 42.0007 28.1032 42.0007Z" stroke="#141B34" stroke-width="3" stroke-linecap="round" stroke-linejoin="round"/>
<path d="M10.2431 61.2419V56.7419C10.2431 51.0851 10.2431 48.2566 12.0005 46.4993C13.7578 44.7419 16.5863 44.7419 22.2431 44.7419M61.2431 61.2419V56.7419C61.2431 51.0851 61.2431 48.2566 59.4858 46.4993C57.7284 44.7419 54.9 44.7419 49.2431 44.7419" stroke="#141B34" stroke-width="3" stroke-linecap="round" stroke-linejoin="round"/>
<path d="M66 61.5H57" stroke="#141B34" stroke-width="3" stroke-linecap="round" stroke-linejoin="round"/>
<path d="M15 61.5H6" stroke="#141B34" stroke-width="3" stroke-linecap="round" stroke-linejoin="round"/>
</svg>
