<svg width="72" height="72" viewBox="0 0 72 72" fill="none" xmlns="http://www.w3.org/2000/svg">
<path d="M63 33V30C63 18.6863 63 13.0294 59.2785 9.51472C55.5571 6 49.5675 6 37.5882 6L34.4118 6C22.4325 6 16.4429 6 12.7215 9.51472C9 13.0294 9 18.6863 9 30L9 42C9 53.3137 9 58.9706 12.7215 62.4853C16.4429 66 22.4325 66 34.4118 66H36" stroke="#141B34" stroke-width="3" stroke-linecap="round"/>
<path d="M24 21H48" stroke="#141B34" stroke-width="3" stroke-linecap="round"/>
<path d="M24 36H39" stroke="#141B34" stroke-width="3" stroke-linecap="round"/>
<path d="M63 61.9412L63 51C63 46.7117 58.9706 42 54 42C49.0294 42 45 46.7117 45 51L45 61.5C45 63.8391 47.1979 66 49.9091 66C52.6203 66 54.8182 63.8391 54.8182 61.5L54.8182 53.2941" stroke="#141B34" stroke-width="3" stroke-linecap="round"/>
</svg>
