<svg width="72" height="72" viewBox="0 0 72 72" fill="none" xmlns="http://www.w3.org/2000/svg">
<path d="M33.3224 16.7287C34.1075 18.0812 34.5 18.7574 34.5 19.5C34.5 20.2426 34.1075 20.9188 33.3224 22.2713L29.5741 28.7287C28.7891 30.0812 28.3965 30.7574 27.75 31.1287C27.1035 31.5 26.3184 31.5 24.7483 31.5H17.2517C15.6816 31.5 14.8965 31.5 14.25 31.1287C13.6035 30.7574 13.2109 30.0812 12.4259 28.7287L8.67759 22.2713C7.89253 20.9188 7.5 20.2426 7.5 19.5C7.5 18.7574 7.89253 18.0812 8.67759 16.7287L12.4259 10.2713C13.2109 8.9188 13.6035 8.24256 14.25 7.87128C14.8965 7.5 15.6816 7.5 17.2517 7.5L24.7483 7.5C26.3184 7.5 27.1035 7.5 27.75 7.87128C28.3965 8.24256 28.7891 8.9188 29.5741 10.2713L33.3224 16.7287Z" stroke="#141B34" stroke-width="3" stroke-linecap="round" stroke-linejoin="round"/>
<path d="M63.3224 34.7287C64.1075 36.0812 64.5 36.7574 64.5 37.5C64.5 38.2426 64.1075 38.9188 63.3224 40.2713L59.5741 46.7287C58.7891 48.0812 58.3965 48.7574 57.75 49.1287C57.1035 49.5 56.3184 49.5 54.7483 49.5H47.2517C45.6816 49.5 44.8965 49.5 44.25 49.1287C43.6035 48.7574 43.2109 48.0812 42.4259 46.7287L38.6776 40.2713C37.8925 38.9188 37.5 38.2426 37.5 37.5C37.5 36.7574 37.8925 36.0812 38.6776 34.7287L42.4259 28.2713C43.2109 26.9188 43.6035 26.2426 44.25 25.8713C44.8965 25.5 45.6816 25.5 47.2517 25.5L54.7483 25.5C56.3184 25.5 57.1035 25.5 57.75 25.8713C58.3965 26.2426 58.7891 26.9188 59.5741 28.2713L63.3224 34.7287Z" stroke="#141B34" stroke-width="3" stroke-linecap="round" stroke-linejoin="round"/>
<path d="M33.3224 49.7287C34.1075 51.0812 34.5 51.7574 34.5 52.5C34.5 53.2426 34.1075 53.9188 33.3224 55.2713L29.5741 61.7287C28.7891 63.0812 28.3965 63.7574 27.75 64.1287C27.1035 64.5 26.3184 64.5 24.7483 64.5H17.2517C15.6816 64.5 14.8965 64.5 14.25 64.1287C13.6035 63.7574 13.2109 63.0812 12.4259 61.7287L8.67759 55.2713C7.89253 53.9188 7.5 53.2426 7.5 52.5C7.5 51.7574 7.89253 51.0812 8.67759 49.7287L12.4259 43.2713C13.2109 41.9188 13.6035 41.2426 14.25 40.8713C14.8965 40.5 15.6816 40.5 17.2517 40.5L24.7483 40.5C26.3184 40.5 27.1035 40.5 27.75 40.8713C28.3965 41.2426 28.7891 41.9188 29.5741 43.2713L33.3224 49.7287Z" stroke="#141B34" stroke-width="3" stroke-linecap="round" stroke-linejoin="round"/>
</svg>
