<svg width="72" height="72" viewBox="0 0 72 72" fill="none" xmlns="http://www.w3.org/2000/svg">
<path d="M21.0006 6C17.1001 6.3856 14.4745 7.25707 12.5149 9.22661C9 12.7593 9 18.445 9 29.8164V41.8776C9 53.249 9 58.9347 12.5149 62.4674C16.0298 66 21.6869 66 33.0012 66H39.0015C50.3158 66 55.973 66 59.4879 62.4674C62.6778 59.2613 62.9727 54.3167 63 44.9298" stroke="#141B34" stroke-width="3" stroke-linecap="round" stroke-linejoin="round"/>
<path d="M35.2885 20.6712C35.1069 19.8629 34.3045 19.3549 33.4962 19.5365C32.6879 19.7181 32.1799 20.5205 32.3615 21.3288L35.2885 20.6712ZM36.268 31.8737L37.7315 31.5449V31.5449L36.268 31.8737ZM58.6988 21.5233C58.8843 20.716 58.3802 19.9111 57.5728 19.7256C56.7654 19.5401 55.9605 20.0443 55.775 20.8517L58.6988 21.5233ZM54.782 31.8737L53.32 31.5379L53.3185 31.5449L54.782 31.8737ZM37.4658 33.7582L38.3169 32.5231L37.4658 33.7582ZM53.5842 33.7582L54.4353 34.9934V34.9934L53.5842 33.7582ZM65.875 17.2805C65.875 16.4521 65.2034 15.7805 64.375 15.7805C63.5466 15.7805 62.875 16.4521 62.875 17.2805H65.875ZM62.875 31.3125C62.875 32.1409 63.5466 32.8125 64.375 32.8125C65.2034 32.8125 65.875 32.1409 65.875 31.3125H62.875ZM28.5 15.375C28.5 15.6016 28.4167 15.7045 28.4537 15.6448C28.484 15.5959 28.5647 15.4884 28.7334 15.324C29.0707 14.9953 29.6091 14.5829 30.3428 14.1079C31.7984 13.1655 33.8183 12.1063 35.9918 11.1069C38.1584 10.1107 40.4328 9.19447 42.3792 8.53079C43.353 8.19877 44.229 7.93533 44.9587 7.75656C45.714 7.57155 46.2233 7.5 46.5 7.5V4.5C45.8534 4.5 45.061 4.6428 44.2449 4.84272C43.4033 5.0489 42.4385 5.34098 41.4111 5.69131C39.355 6.39235 36.9852 7.34819 34.7385 8.38122C32.4986 9.41113 30.336 10.5384 28.7123 11.5897C27.9064 12.1115 27.181 12.6478 26.6394 13.1757C26.3687 13.4396 26.1062 13.7375 25.9031 14.0655C25.7068 14.3826 25.5 14.834 25.5 15.375H28.5ZM67.5 15.375C67.5 14.834 67.2932 14.3826 67.0969 14.0655C66.8938 13.7375 66.6313 13.4396 66.3606 13.1757C65.819 12.6478 65.0936 12.1115 64.2877 11.5897C62.664 10.5384 60.5014 9.41113 58.2615 8.38122C56.0148 7.34819 53.645 6.39235 51.5889 5.69131C50.5615 5.34098 49.5967 5.0489 48.7551 4.84273C47.939 4.6428 47.1466 4.5 46.5 4.5V7.5C46.7767 7.5 47.286 7.57155 48.0413 7.75656C48.771 7.93533 49.647 8.19877 50.6208 8.53079C52.5672 9.19447 54.8416 10.1107 57.0082 11.1069C59.1817 12.1063 61.2016 13.1655 62.6572 14.1079C63.3909 14.5829 63.9293 14.9953 64.2666 15.324C64.4353 15.4884 64.516 15.5959 64.5463 15.6448C64.5833 15.7045 64.5 15.6016 64.5 15.375H67.5ZM64.5 15.375C64.5 15.1484 64.5833 15.0455 64.5463 15.1052C64.516 15.1541 64.4353 15.2616 64.2666 15.426C63.9293 15.7547 63.3909 16.1671 62.6572 16.6421C61.2016 17.5845 59.1817 18.6437 57.0082 19.6431C54.8416 20.6393 52.5672 21.5555 50.6208 22.2192C49.647 22.5512 48.771 22.8147 48.0413 22.9934C47.286 23.1785 46.7767 23.25 46.5 23.25V26.25C47.1466 26.25 47.939 26.1072 48.7551 25.9073C49.5967 25.7011 50.5615 25.409 51.5889 25.0587C53.645 24.3576 56.0148 23.4018 58.2615 22.3688C60.5014 21.3389 62.664 20.2116 64.2877 19.1603C65.0936 18.6385 65.819 18.1022 66.3606 17.5743C66.6313 17.3104 66.8938 17.0125 67.0969 16.6845C67.2932 16.3674 67.5 15.916 67.5 15.375H64.5ZM25.5 15.375C25.5 15.916 25.7068 16.3674 25.9031 16.6845C26.1062 17.0125 26.3687 17.3104 26.6394 17.5743C27.181 18.1022 27.9064 18.6385 28.7123 19.1603C30.336 20.2116 32.4986 21.3389 34.7385 22.3688C36.9852 23.4018 39.355 24.3576 41.4111 25.0587C42.4385 25.409 43.4033 25.7011 44.2449 25.9073C45.061 26.1072 45.8534 26.25 46.5 26.25V23.25C46.2233 23.25 45.714 23.1785 44.9587 22.9934C44.229 22.8147 43.353 22.5512 42.3792 22.2192C40.4328 21.5555 38.1584 20.6393 35.9918 19.6431C33.8183 18.6437 31.7984 17.5845 30.3428 16.6421C29.6091 16.1671 29.0707 15.7547 28.7334 15.426C28.5647 15.2616 28.484 15.1541 28.4537 15.1052C28.4167 15.0455 28.5 15.1484 28.5 15.375H25.5ZM32.3615 21.3288L34.8045 32.2026L37.7315 31.5449L35.2885 20.6712L32.3615 21.3288ZM55.775 20.8517L53.3201 31.5379L56.2439 32.2096L58.6988 21.5233L55.775 20.8517ZM36.6147 34.9934C39.0931 36.7012 42.3567 37.5 45.525 37.5C48.6933 37.5 51.9569 36.7012 54.4353 34.9934L52.7331 32.5231C50.8737 33.8043 48.247 34.5 45.525 34.5C42.803 34.5 40.1763 33.8043 38.3169 32.5231L36.6147 34.9934ZM53.3185 31.5449C53.2122 32.0179 52.9934 32.3437 52.7331 32.5231L54.4353 34.9934C55.4633 34.2851 56.0171 33.2192 56.2455 32.2026L53.3185 31.5449ZM34.8045 32.2026C35.0329 33.2192 35.5867 34.2851 36.6147 34.9934L38.3169 32.5231C38.0566 32.3437 37.8378 32.0179 37.7315 31.5449L34.8045 32.2026ZM62.875 17.2805V31.3125H65.875V17.2805H62.875Z" fill="#141B34"/>
</svg>
