<svg width="72" height="72" viewBox="0 0 72 72" fill="none" xmlns="http://www.w3.org/2000/svg">
<path d="M55.5 53.5139C58.5916 53.06 60.7882 52.1824 62.4853 50.4853C66 46.9706 66 41.3137 66 30C66 18.6863 66 13.0294 62.4853 9.51472C58.9706 6 53.3137 6 42 6H30C18.6863 6 13.0294 6 9.51472 9.51472C6 13.0294 6 18.6863 6 30C6 41.3137 6 46.9706 9.51472 50.4853C11.9392 52.9098 15.3831 53.6618 21 53.8951" stroke="#141B34" stroke-width="3" stroke-linecap="round"/>
<path d="M51 21L21 21" stroke="#141B34" stroke-width="3" stroke-linecap="round" stroke-linejoin="round"/>
<path d="M43.5 43.5C43.5 47.6421 40.1421 51 36 51C31.8579 51 28.5 47.6421 28.5 43.5C28.5 39.3579 31.8579 36 36 36C40.1421 36 43.5 39.3579 43.5 43.5Z" stroke="#141B34" stroke-width="3"/>
<path d="M28.5 43.5C28.5 55.6976 33.6667 62.6118 36 66L40.5 57L45.75 60L51 63C48.796 60.8664 46.5174 54.1412 46.5174 54.1412" stroke="#141B34" stroke-width="3" stroke-linecap="round" stroke-linejoin="round"/>
</svg>
