<svg width="24" height="24" viewBox="0 0 24 24" fill="none" xmlns="http://www.w3.org/2000/svg">
<path d="M9.5625 15C11.2813 15 11.711 13.6666 13.0001 9C14.2893 4.33334 14.719 3 16.4377 3" stroke="#141B34" stroke-width="1.5" stroke-linecap="round" stroke-linejoin="round"/>
<path d="M14.5625 15C16.2813 15 16.711 13.6666 18.0001 9C19.2893 4.33334 19.719 3 21.4377 3" stroke="#141B34" stroke-width="1.5" stroke-linecap="round" stroke-linejoin="round"/>
<path d="M4.5625 15C6.28133 15 6.71103 13.6666 8.00015 9C9.28927 4.33334 9.71897 3 11.4377 3" stroke="#141B34" stroke-width="1.5" stroke-linecap="round" stroke-linejoin="round"/>
<path d="M3 18L6 21M6 18L3 21" stroke="#141B34" stroke-width="1.5" stroke-linecap="round"/>
<path d="M11.5 18L10 19.5M10 19.5V21M10 19.5L8.5 18" stroke="#141B34" stroke-width="1.5" stroke-linecap="round"/>
<path d="M14 18H17L14 21H17" stroke="#141B34" stroke-width="1.5" stroke-linecap="round" stroke-linejoin="round"/>
</svg>
