<svg width="72" height="72" viewBox="0 0 72 72" fill="none" xmlns="http://www.w3.org/2000/svg">
<path d="M66 36C66 19.4315 52.5685 6 36 6C19.4315 6 6 19.4315 6 36C6 52.5685 19.4315 66 36 66C52.5685 66 66 52.5685 66 36Z" stroke="#141B34" stroke-width="3"/>
<path d="M36 6V12" stroke="#141B34" stroke-width="3" stroke-linecap="round"/>
<path d="M66 36L60 36" stroke="#141B34" stroke-width="3" stroke-linecap="round"/>
<path d="M36 60L36 66" stroke="#141B34" stroke-width="3" stroke-linecap="round"/>
<path d="M12 36H6" stroke="#141B34" stroke-width="3" stroke-linecap="round"/>
<path d="M36 27C32.6863 27 30 29.0147 30 31.5C30 33.9853 32.6863 36 36 36C39.3137 36 42 38.0147 42 40.5C42 42.9853 39.3137 45 36 45M36 27C38.6124 27 40.8349 28.2522 41.6586 30M36 27V24M36 45C33.3876 45 31.1651 43.7478 30.3414 42M36 45V48" stroke="#141B34" stroke-width="3" stroke-linecap="round"/>
</svg>
