<svg width="72" height="72" viewBox="0 0 72 72" fill="none" xmlns="http://www.w3.org/2000/svg">
<path d="M36 17.3794C39.3393 19.7968 42.7348 22.6852 46.0247 25.9751C49.3148 29.2652 52.2032 32.6608 54.6206 36.0002M36 17.3794C32.6607 19.7968 29.2653 22.6852 25.9753 25.9751C22.6853 29.2652 19.7969 32.6608 17.3794 36.0002M36 17.3794C46.7097 9.62637 56.8416 6.71723 61.0622 10.9378C65.2828 15.1584 62.3737 25.2904 54.6206 36.0002M54.6206 36.0002C62.3735 46.7098 65.2825 56.8416 61.0619 61.0622C57.9328 64.1914 51.5543 63.4014 44.1 59.624M54.6206 36.0002C52.2032 39.3395 49.3149 42.7349 46.025 46.0249C42.7349 49.3149 39.3394 52.2033 36 54.6208M36 54.6208C32.6606 52.2033 29.2651 49.3149 25.975 46.0249C22.6851 42.7349 19.7968 39.3395 17.3794 36.0002M36 54.6208C25.2904 62.3737 15.1586 65.2828 10.9381 61.0622C6.71752 56.8416 9.62656 46.7098 17.3794 36.0002M17.3794 36.0002C9.62635 25.2904 6.7172 15.1584 10.9378 10.9378C14.067 7.80858 20.4456 8.59856 27.9 12.3761" stroke="#141B34" stroke-width="3" stroke-linecap="round"/>
<circle cx="36" cy="36" r="6" stroke="#141B34" stroke-width="3"/>
</svg>
