<svg width="72" height="72" viewBox="0 0 72 72" fill="none" xmlns="http://www.w3.org/2000/svg">
<path d="M63 6C63 30.8528 50.9117 51 36 51C21.0883 51 9 30.8528 9 6" stroke="#141B34" stroke-width="3" stroke-linecap="round"/>
<path d="M9 60H12.1765M47.1176 60H50.2941M59.8235 60H63M21.7059 60H24.8824" stroke="#141B34" stroke-width="3" stroke-linecap="round" stroke-linejoin="round"/>
<path d="M34.5 66C34.5 66.8284 35.1716 67.5 36 67.5C36.8284 67.5 37.5 66.8284 37.5 66H34.5ZM39.75 9.1066L40.8909 8.13278H40.8909L39.75 9.1066ZM42.3591 14.4738C42.8969 15.1039 43.8437 15.1787 44.4738 14.6409C45.1039 14.1031 45.1787 13.1563 44.6409 12.5262L42.3591 14.4738ZM27.3591 12.5262C26.8213 13.1563 26.8961 14.1031 27.5262 14.6409C28.1563 15.1787 29.1031 15.1039 29.6409 14.4738L27.3591 12.5262ZM32.25 9.1066L33.3909 10.0804L32.25 9.1066ZM37.5 66L37.5 6L34.5 6L34.5 66H37.5ZM38.6091 10.0804L42.3591 14.4738L44.6409 12.5262L40.8909 8.13278L38.6091 10.0804ZM29.6409 14.4738L33.3909 10.0804L31.1091 8.13277L27.3591 12.5262L29.6409 14.4738ZM40.8909 8.13278C40.0357 7.13086 39.2966 6.25986 38.6236 5.65831C37.9293 5.03767 37.0873 4.5 36 4.5V7.5C36.0111 7.5 36.1602 7.4801 36.6243 7.89499C37.1098 8.32897 37.6965 9.01127 38.6091 10.0804L40.8909 8.13278ZM33.3909 10.0804C34.3035 9.01127 34.8902 8.32897 35.3757 7.89499C35.8398 7.4801 35.9889 7.5 36 7.5V4.5C34.9127 4.5 34.0707 5.03767 33.3764 5.65831C32.7034 6.25986 31.9643 7.13086 31.1091 8.13277L33.3909 10.0804Z" fill="#141B34"/>
</svg>
