<svg width="72" height="72" viewBox="0 0 72 72" fill="none" xmlns="http://www.w3.org/2000/svg">
<path d="M30 61.7025C19.7143 65.1744 11.1429 61.7025 6 51" stroke="#141B34" stroke-width="3" stroke-linecap="round" stroke-linejoin="round"/>
<path d="M30 66V56.2736C30 54.4789 30.5518 52.9189 31.4413 51.5096C32.0513 50.5429 31.6335 49.1711 30.5313 48.8681C21.4018 46.3585 15 42.3232 15 28.9382C15 25.4583 16.1402 22.1867 18.1443 19.3392C18.6431 18.6305 18.8925 18.2762 18.9524 17.9553C19.0124 17.6344 18.9081 17.2156 18.6997 16.378C17.8512 12.9687 17.9061 9.34856 19.1797 6.08468C19.1797 6.08468 21.8113 5.22726 27.8009 8.96908C29.1685 9.8234 29.8522 10.2506 30.4544 10.3461C31.0566 10.4417 31.8618 10.2415 33.472 9.84123C35.674 9.29385 37.9428 9 40.5 9C43.0572 9 45.326 9.29385 47.528 9.84123C49.1382 10.2415 49.9434 10.4417 50.5456 10.3461C51.1478 10.2506 51.8315 9.8234 53.1991 8.96908C59.1887 5.22726 61.8203 6.08468 61.8203 6.08468C63.0939 9.34856 63.1488 12.9687 62.3003 16.378C62.0919 17.2156 61.9876 17.6344 62.0476 17.9553C62.1075 18.2762 62.3569 18.6306 62.8557 19.3392C64.8598 22.1867 66 25.4583 66 28.9382C66 42.3232 59.5982 46.3585 50.4687 48.8681C49.3665 49.1711 48.9487 50.5429 49.5587 51.5096C50.4482 52.9189 51 54.4789 51 56.2736V66" stroke="#141B34" stroke-width="3" stroke-linecap="round" stroke-linejoin="round"/>
</svg>
