<svg width="24" height="24" viewBox="0 0 24 24" fill="none" xmlns="http://www.w3.org/2000/svg">
<path d="M12 18V22" stroke="#141B34" stroke-width="1.5" stroke-linecap="round" stroke-linejoin="round"/>
<path d="M8.5 22L8.82821 21.6717C9.40628 21.0936 9.69532 20.8045 10.0629 20.6523C10.4305 20.5 10.8392 20.5 11.6568 20.5H12.343C13.1605 20.5 13.5692 20.5 13.9368 20.6522C14.3043 20.8045 14.5933 21.0935 15.1714 21.6716L15.4998 22" stroke="#141B34" stroke-width="1.5" stroke-linecap="round" stroke-linejoin="round"/>
<path d="M21.5 7C21.5 4.17157 21.5 3.75736 20.6213 2.87868C19.7426 2 18.3284 2 15.5 2H8.5C5.67157 2 4.25736 2 3.37868 2.87868C2.5 3.75736 2.5 5.17157 2.5 8V12C2.5 14.8284 2.5 16.2426 3.37868 17.1213C4.25736 18 5.67157 18 8.5 18H13.5" stroke="#141B34" stroke-width="1.5" stroke-linecap="round"/>
<path d="M5.5 10.5C5.5 8.85008 5.5 8.02513 6.01256 7.51256C6.52513 7 7.35008 7 9 7C10.6499 7 11.4749 7 11.9874 7.51256C12.5 8.02513 12.5 8.85008 12.5 10.5C12.5 12.1499 12.5 12.9749 11.9874 13.4874C11.4749 14 10.6499 14 9 14C7.35008 14 6.52513 14 6.01256 13.4874C5.5 12.9749 5.5 12.1499 5.5 10.5Z" stroke="#141B34" stroke-width="1.5"/>
<path d="M5.5 9.39453H12.5" stroke="#141B34" stroke-width="1.5" stroke-linejoin="round"/>
<path d="M7.89453 9.39453V13.9998" stroke="#141B34" stroke-width="1.5" stroke-linecap="round" stroke-linejoin="round"/>
<path d="M21 10.1C21 11.2598 19.8279 12.55 19 12.55C18.1721 12.55 17 11.2598 17 10.1C17 8.9402 17.8954 8 19 8C20.1046 8 21 8.9402 21 10.1Z" stroke="#141B34" stroke-width="1.5"/>
<path d="M21.6943 12.9004C22.7096 13.8351 23.3675 15.4182 22.7767 16.894C22.6494 17.212 22.3574 17.4181 22.0342 17.4181C21.7057 17.4181 21.166 17.3076 21.0611 17.7566L20.3296 20.889C20.1771 21.5422 19.6289 22.0004 19 22.0004C18.3711 22.0004 17.8229 21.5422 17.6704 20.889L16.9389 17.7566C16.834 17.3076 16.2943 17.4181 15.9657 17.4181C15.6426 17.4181 15.3505 17.212 15.2233 16.894C14.6324 15.4182 15.2904 13.8351 16.3057 12.9004" stroke="#141B34" stroke-width="1.5" stroke-linecap="round"/>
</svg>
