<svg width="72" height="72" viewBox="0 0 72 72" fill="none" xmlns="http://www.w3.org/2000/svg">
<path d="M29.6738 22.6668C28.0233 23.6145 23.6956 25.5496 26.3314 27.9711C27.619 29.154 29.0531 30 30.856 30H41.144C42.9469 30 44.381 29.154 45.6686 27.9711C48.3044 25.5496 43.9767 23.6145 42.3262 22.6668C38.4556 20.4444 33.5444 20.4444 29.6738 22.6668Z" stroke="#141B34" stroke-width="3" stroke-linecap="round" stroke-linejoin="round"/>
<path d="M40.5 10.5C40.5 12.9853 38.4853 15 36 15C33.5147 15 31.5 12.9853 31.5 10.5C31.5 8.01472 33.5147 6 36 6C38.4853 6 40.5 8.01472 40.5 10.5Z" stroke="#141B34" stroke-width="3"/>
<path d="M49.1738 58.6668C47.5233 59.6145 43.1956 61.5496 45.8314 63.9711C47.119 65.154 48.5531 66 50.356 66H60.644C62.4469 66 63.881 65.154 65.1686 63.9711C67.8044 61.5496 63.4767 59.6145 61.8262 58.6668C57.9556 56.4444 53.0444 56.4444 49.1738 58.6668Z" stroke="#141B34" stroke-width="3" stroke-linecap="round" stroke-linejoin="round"/>
<path d="M60 46.5C60 48.9853 57.9853 51 55.5 51C53.0147 51 51 48.9853 51 46.5C51 44.0147 53.0147 42 55.5 42C57.9853 42 60 44.0147 60 46.5Z" stroke="#141B34" stroke-width="3"/>
<path d="M10.1738 58.6668C8.52327 59.6145 4.19559 61.5496 6.83144 63.9711C8.11903 65.154 9.55307 66 11.356 66H21.644C23.4469 66 24.881 65.154 26.1686 63.9711C28.8044 61.5496 24.4767 59.6145 22.8262 58.6668C18.9556 56.4444 14.0444 56.4444 10.1738 58.6668Z" stroke="#141B34" stroke-width="3" stroke-linecap="round" stroke-linejoin="round"/>
<path d="M21 46.5C21 48.9853 18.9853 51 16.5 51C14.0147 51 12 48.9853 12 46.5C12 44.0147 14.0147 42 16.5 42C18.9853 42 21 44.0147 21 46.5Z" stroke="#141B34" stroke-width="3"/>
<path d="M36 39V46.5M36 46.5L43.5 51M36 46.5L28.5 51" stroke="#141B34" stroke-width="3" stroke-linecap="round" stroke-linejoin="round"/>
</svg>
