<svg width="24" height="24" viewBox="0 0 24 24" fill="none" xmlns="http://www.w3.org/2000/svg">
<path d="M3.99377 5.963C3.60078 6.22625 2.57038 6.76379 3.19796 7.43643C3.50453 7.76501 3.84597 8 4.27524 8H6.72476C7.15403 8 7.49547 7.76501 7.80204 7.43643C8.42962 6.76379 7.39922 6.22625 7.00623 5.96299C6.08467 5.34567 4.91533 5.34567 3.99377 5.963Z" stroke="#141B34" stroke-width="1.5" stroke-linecap="round" stroke-linejoin="round"/>
<path d="M6.75 2.5C6.75 3.19036 6.19036 3.75 5.5 3.75C4.80964 3.75 4.25 3.19036 4.25 2.5C4.25 1.80964 4.80964 1.25 5.5 1.25C6.19036 1.25 6.75 1.80964 6.75 2.5Z" stroke="#141B34" stroke-width="1.5"/>
<path d="M16 9.4C16 8.26863 16 7.70294 16.3515 7.35147C16.7029 7 17.2686 7 18.4 7H18.6C19.7314 7 20.2971 7 20.6485 7.35147C21 7.70294 21 8.26863 21 9.4V9.6C21 10.7314 21 11.2971 20.6485 11.6485C20.2971 12 19.7314 12 18.6 12H18.4C17.2686 12 16.7029 12 16.3515 11.6485C16 11.2971 16 10.7314 16 9.6V9.4Z" stroke="#141B34" stroke-width="1.5"/>
<path d="M3 14.4C3 13.2686 3 12.7029 3.35147 12.3515C3.70294 12 4.26863 12 5.4 12H5.6C6.73137 12 7.29706 12 7.64853 12.3515C8 12.7029 8 13.2686 8 14.4V14.6C8 15.7314 8 16.2971 7.64853 16.6485C7.29706 17 6.73137 17 5.6 17H5.4C4.26863 17 3.70294 17 3.35147 16.6485C3 16.2971 3 15.7314 3 14.6V14.4Z" stroke="#141B34" stroke-width="1.5"/>
<path d="M16 19.4C16 18.2686 16 17.7029 16.3515 17.3515C16.7029 17 17.2686 17 18.4 17H18.6C19.7314 17 20.2971 17 20.6485 17.3515C21 17.7029 21 18.2686 21 19.4V19.6C21 20.7314 21 21.2971 20.6485 21.6485C20.2971 22 19.7314 22 18.6 22H18.4C17.2686 22 16.7029 22 16.3515 21.6485C16 21.2971 16 20.7314 16 19.6V19.4Z" stroke="#141B34" stroke-width="1.5"/>
<path d="M10 6L15 9.5L9 14.5L16 19.5" stroke="#141B34" stroke-width="1.5" stroke-linecap="round" stroke-linejoin="round"/>
</svg>
