<svg width="24" height="24" viewBox="0 0 24 24" fill="none" xmlns="http://www.w3.org/2000/svg">
<path d="M2 19.5C2 18.3215 2 17.7322 2.43934 17.3661C2.87868 17 3.58579 17 5 17C6.41421 17 7.12132 17 7.56066 17.3661C8 17.7322 8 18.3215 8 19.5C8 20.6785 8 21.2678 7.56066 21.6339C7.12132 22 6.41421 22 5 22C3.58579 22 2.87868 22 2.43934 21.6339C2 21.2678 2 20.6785 2 19.5Z" stroke="#141B34" stroke-width="1.5"/>
<path d="M16 19.5C16 18.3215 16 17.7322 16.4393 17.3661C16.8787 17 17.5858 17 19 17C20.4142 17 21.1213 17 21.5607 17.3661C22 17.7322 22 18.3215 22 19.5C22 20.6785 22 21.2678 21.5607 21.6339C21.1213 22 20.4142 22 19 22C17.5858 22 16.8787 22 16.4393 21.6339C16 21.2678 16 20.6785 16 19.5Z" stroke="#141B34" stroke-width="1.5"/>
<path d="M19 17C19 14.518 18.2562 14 14.6923 14H9.30769C5.74379 14 5 14.518 5 17" stroke="#141B34" stroke-width="1.5" stroke-linecap="round" stroke-linejoin="round"/>
<g clip-path="url(#clip0_5733_2209)">
<path d="M15.5415 8.59558C14.4992 11.0656 11.1099 11.7854 9.1671 9.86071C7.26212 7.97344 7.85189 4.55433 10.3567 3.45898" stroke="#141B34" stroke-width="1.5" stroke-linecap="round"/>
<path d="M14.3678 7.20866C15.1543 7.20866 15.5476 7.20866 15.8016 6.85657C15.8111 6.84341 15.8268 6.8198 15.8354 6.806C16.0634 6.43662 15.9459 6.15282 15.7108 5.58524C15.4976 5.07055 15.1851 4.60289 14.7912 4.20896C14.3973 3.81504 13.9296 3.50256 13.4149 3.28937C12.8473 3.05427 12.5635 2.93671 12.1942 3.16481C12.1804 3.17334 12.1568 3.18911 12.1436 3.1986C11.7915 3.45258 11.7915 3.84583 11.7915 4.63235V5.51178C11.7915 6.31169 11.7915 6.71165 12.04 6.96016C12.2885 7.20866 12.6885 7.20866 13.4884 7.20866H14.3678Z" stroke="#141B34" stroke-width="1.5"/>
</g>
<defs>
<clipPath id="clip0_5733_2209">
<rect width="10" height="10" fill="white" transform="translate(7 2)"/>
</clipPath>
</defs>
</svg>
