<svg width="72" height="72" viewBox="0 0 72 72" fill="none" xmlns="http://www.w3.org/2000/svg">
<path d="M12 45L12 57" stroke="#141B34" stroke-width="3" stroke-linecap="round" stroke-linejoin="round"/>
<path d="M36 27L36 57" stroke="#141B34" stroke-width="3" stroke-linecap="round" stroke-linejoin="round"/>
<path d="M66 66L6 66" stroke="#141B34" stroke-width="3" stroke-linecap="round" stroke-linejoin="round"/>
<path d="M60 39L60 57" stroke="#141B34" stroke-width="3" stroke-linecap="round" stroke-linejoin="round"/>
<path d="M16.8003 26.3998C15.7056 24.9426 13.9629 24 12 24C8.68629 24 6 26.6863 6 30C6 33.3137 8.68629 36 12 36C15.3137 36 18 33.3137 18 30C18 28.6492 17.5536 27.4026 16.8003 26.3998ZM16.8003 26.3998L31.1997 15.6002M31.1997 15.6002C32.2944 17.0574 34.0371 18 36 18C38.349 18 40.3827 16.6502 41.3677 14.6839M31.1997 15.6002C30.4464 14.5974 30 13.3508 30 12C30 8.68629 32.6863 6 36 6C39.3137 6 42 8.68629 42 12C42 12.9647 41.7723 13.8763 41.3677 14.6839M41.3677 14.6839L54.6323 21.3161M54.6323 21.3161C54.2277 22.1237 54 23.0353 54 24C54 27.3137 56.6863 30 60 30C63.3137 30 66 27.3137 66 24C66 20.6863 63.3137 18 60 18C57.651 18 55.6173 19.3498 54.6323 21.3161Z" stroke="#141B34" stroke-width="3"/>
</svg>
