<svg width="72" height="72" viewBox="0 0 72 72" fill="none" xmlns="http://www.w3.org/2000/svg">
<path d="M36 54V66" stroke="#141B34" stroke-width="3" stroke-linecap="round" stroke-linejoin="round"/>
<path d="M25.5 66L26.4846 65.0152C28.2188 63.2808 29.086 62.4136 30.1887 61.9568C31.2914 61.5 32.5177 61.5 34.9704 61.5H37.0289C39.4814 61.5 40.7076 61.5 41.8103 61.9567C42.9129 62.4134 43.78 63.2805 45.5142 65.0147L46.4994 66" stroke="#141B34" stroke-width="3" stroke-linecap="round" stroke-linejoin="round"/>
<path d="M64.5 21C64.5 12.5147 64.5 11.2721 61.864 8.63604C59.2279 6 54.9853 6 46.5 6H25.5C17.0147 6 12.7721 6 10.136 8.63604C7.5 11.2721 7.5 15.5147 7.5 24V36C7.5 44.4853 7.5 48.7279 10.136 51.364C12.7721 54 17.0147 54 25.5 54H40.5" stroke="#141B34" stroke-width="3" stroke-linecap="round"/>
<path d="M16.5 31.5C16.5 26.5503 16.5 24.0754 18.0377 22.5377C19.5754 21 22.0503 21 27 21C31.9497 21 34.4246 21 35.9623 22.5377C37.5 24.0754 37.5 26.5503 37.5 31.5C37.5 36.4497 37.5 38.9246 35.9623 40.4623C34.4246 42 31.9497 42 27 42C22.0503 42 19.5754 42 18.0377 40.4623C16.5 38.9246 16.5 36.4497 16.5 31.5Z" stroke="#141B34" stroke-width="2.5"/>
<path d="M16.5 28.1846H37.5" stroke="#141B34" stroke-width="2.5" stroke-linejoin="round"/>
<path d="M23.6846 28.1846V42.0004" stroke="#141B34" stroke-width="2.5" stroke-linecap="round" stroke-linejoin="round"/>
<path d="M63 30.3C63 33.7794 59.4836 37.65 57 37.65C54.5164 37.65 51 33.7794 51 30.3C51 26.8206 53.6863 24 57 24C60.3137 24 63 26.8206 63 30.3Z" stroke="#141B34" stroke-width="3"/>
<path d="M65.0829 38.7012C68.1289 41.5053 70.1026 46.2546 68.3302 50.682C67.9483 51.6359 67.0722 52.2544 66.1027 52.2544C65.117 52.2544 63.4979 51.9227 63.1833 53.2698L60.9888 62.6671C60.5312 64.6266 58.8867 66.0012 57 66.0012C55.1133 66.0012 53.4688 64.6266 53.0112 62.6671L50.8167 53.2698C50.5021 51.9227 48.883 52.2544 47.8972 52.2544C46.9278 52.2544 46.0516 51.6359 45.6698 50.682C43.8973 46.2546 45.8712 41.5053 48.9171 38.7012" stroke="#141B34" stroke-width="3" stroke-linecap="round"/>
</svg>
