<svg width="72" height="72" viewBox="0 0 72 72" fill="none" xmlns="http://www.w3.org/2000/svg">
<path d="M11.9813 17.889C10.8023 18.6787 7.71114 20.2914 9.59388 22.3093C10.5136 23.295 11.5379 24 12.8257 24H20.1743C21.4621 24 22.4864 23.295 23.4061 22.3093C25.2889 20.2914 22.1977 18.6787 21.0187 17.889C18.254 16.037 14.746 16.037 11.9813 17.889Z" stroke="#141B34" stroke-width="3" stroke-linecap="round" stroke-linejoin="round"/>
<path d="M20.25 7.5C20.25 9.57107 18.5711 11.25 16.5 11.25C14.4289 11.25 12.75 9.57107 12.75 7.5C12.75 5.42893 14.4289 3.75 16.5 3.75C18.5711 3.75 20.25 5.42893 20.25 7.5Z" stroke="#141B34" stroke-width="3"/>
<path d="M48 28.2C48 24.8059 48 23.1088 49.0544 22.0544C50.1088 21 51.8059 21 55.2 21H55.8C59.1941 21 60.8912 21 61.9456 22.0544C63 23.1088 63 24.8059 63 28.2V28.8C63 32.1941 63 33.8912 61.9456 34.9456C60.8912 36 59.1941 36 55.8 36H55.2C51.8059 36 50.1088 36 49.0544 34.9456C48 33.8912 48 32.1941 48 28.8V28.2Z" stroke="#141B34" stroke-width="3"/>
<path d="M9 43.2C9 39.8059 9 38.1088 10.0544 37.0544C11.1088 36 12.8059 36 16.2 36H16.8C20.1941 36 21.8912 36 22.9456 37.0544C24 38.1088 24 39.8059 24 43.2V43.8C24 47.1941 24 48.8912 22.9456 49.9456C21.8912 51 20.1941 51 16.8 51H16.2C12.8059 51 11.1088 51 10.0544 49.9456C9 48.8912 9 47.1941 9 43.8V43.2Z" stroke="#141B34" stroke-width="3"/>
<path d="M48 58.2C48 54.8059 48 53.1088 49.0544 52.0544C50.1088 51 51.8059 51 55.2 51H55.8C59.1941 51 60.8912 51 61.9456 52.0544C63 53.1088 63 54.8059 63 58.2V58.8C63 62.1941 63 63.8912 61.9456 64.9456C60.8912 66 59.1941 66 55.8 66H55.2C51.8059 66 50.1088 66 49.0544 64.9456C48 63.8912 48 62.1941 48 58.8V58.2Z" stroke="#141B34" stroke-width="3"/>
<path d="M30 18L45 28.5L27 43.5L48 58.5" stroke="#141B34" stroke-width="3" stroke-linecap="round" stroke-linejoin="round"/>
</svg>
