<svg width="24" height="24" viewBox="0 0 24 24" fill="none" xmlns="http://www.w3.org/2000/svg">
<path d="M14 2H10C6.72077 2 5.08116 2 3.91891 2.81382C3.48891 3.1149 3.1149 3.48891 2.81382 3.91891C2 5.08116 2 6.72077 2 10C2 13.2792 2 14.9188 2.81382 16.0811C3.1149 16.5111 3.48891 16.8851 3.91891 17.1862C5.08116 18 6.72077 18 10 18H14C17.2792 18 18.9188 18 20.0811 17.1862C20.5111 16.8851 20.8851 16.5111 21.1862 16.0811C22 14.9188 22 13.2792 22 10C22 6.72077 22 5.08116 21.1862 3.91891C20.8851 3.48891 20.5111 3.1149 20.0811 2.81382C18.9188 2 17.2792 2 14 2Z" stroke="#141B34" stroke-width="1.5" stroke-linecap="round"/>
<path d="M8 9.39353H8.16179C8.97315 9.39353 9.37883 9.39353 9.68856 9.56772C9.99828 9.7419 10.1375 10.0484 10.416 10.6613L10.7525 11.4019C10.9355 11.8046 11.027 12.006 11.1746 11.9998C11.3223 11.9935 11.3869 11.7855 11.5162 11.3695L12.6732 7.64732C12.8063 7.21926 12.8728 7.00523 13.0219 7C13.171 6.99477 13.2605 7.20332 13.4394 7.62043L13.642 8.0928C13.9115 8.72097 14.0462 9.03506 14.3589 9.2143C14.6715 9.39353 15.0846 9.39353 15.9108 9.39353H16" stroke="#141B34" stroke-width="1.5" stroke-linecap="round" stroke-linejoin="round"/>
<path d="M14.6557 22L14.2369 21.5811C13.2926 20.6369 13.0585 19.1944 13.6557 18" stroke="#141B34" stroke-width="1.5" stroke-linecap="round"/>
<path d="M9.00051 22L9.41937 21.5811C10.3636 20.6369 10.5977 19.1944 10.0005 18" stroke="#141B34" stroke-width="1.5" stroke-linecap="round"/>
<path d="M7 22H17" stroke="#141B34" stroke-width="1.5" stroke-linecap="round"/>
</svg>
