<svg width="72" height="72" viewBox="0 0 72 72" fill="none" xmlns="http://www.w3.org/2000/svg">
<path d="M36 39L51 52.5M36 39L21 52.5M36 39V24" stroke="#141B34" stroke-width="3"/>
<path d="M54.5746 49.3369C56.1243 48.4456 56.8991 48 57.75 48C58.6009 48 59.3757 48.4456 60.9254 49.3369L62.8246 50.4291C64.3743 51.3204 65.1491 51.766 65.5746 52.5C66 53.234 66 54.1253 66 55.9078V58.0922C66 59.8747 66 60.766 65.5746 61.5C65.1491 62.234 64.3743 62.6796 62.8246 63.5709L60.9254 64.6631C59.3757 65.5544 58.6009 66 57.75 66C56.8991 66 56.1243 65.5544 54.5746 64.6631L52.6754 63.5709C51.1257 62.6796 50.3509 62.234 49.9254 61.5C49.5 60.766 49.5 59.8747 49.5 58.0922V55.9078C49.5 54.1253 49.5 53.234 49.9254 52.5C50.3509 51.766 51.1257 51.3204 52.6754 50.4291L54.5746 49.3369Z" stroke="#141B34" stroke-width="3"/>
<path d="M11.0746 49.3369C12.6243 48.4456 13.3991 48 14.25 48C15.1009 48 15.8757 48.4456 17.4254 49.3369L19.3246 50.4291C20.8743 51.3204 21.6491 51.766 22.0746 52.5C22.5 53.234 22.5 54.1253 22.5 55.9078V58.0922C22.5 59.8747 22.5 60.766 22.0746 61.5C21.6491 62.234 20.8743 62.6796 19.3246 63.5709L17.4254 64.6631C15.8757 65.5544 15.1009 66 14.25 66C13.3991 66 12.6243 65.5544 11.0746 64.6631L9.17543 63.5709C7.62571 62.6796 6.85085 62.234 6.42543 61.5C6 60.766 6 59.8747 6 58.0922V55.9078C6 54.1253 6 53.234 6.42543 52.5C6.85085 51.766 7.62571 51.3204 9.17543 50.4291L11.0746 49.3369Z" stroke="#141B34" stroke-width="3"/>
<path d="M32.8246 7.33689C34.3743 6.44563 35.1491 6 36 6C36.8509 6 37.6257 6.44563 39.1754 7.33689L41.0746 8.42911C42.6243 9.32037 43.3991 9.766 43.8246 10.5C44.25 11.234 44.25 12.1253 44.25 13.9078V16.0922C44.25 17.8747 44.25 18.766 43.8246 19.5C43.3991 20.234 42.6243 20.6796 41.0746 21.5709L39.1754 22.6631C37.6257 23.5544 36.8509 24 36 24C35.1491 24 34.3743 23.5544 32.8246 22.6631L30.9254 21.5709C29.3757 20.6796 28.6009 20.234 28.1754 19.5C27.75 18.766 27.75 17.8747 27.75 16.0922V13.9078C27.75 12.1253 27.75 11.234 28.1754 10.5C28.6009 9.766 29.3757 9.32037 30.9254 8.42911L32.8246 7.33689Z" stroke="#141B34" stroke-width="3"/>
</svg>
