<svg width="72" height="72" viewBox="0 0 72 72" fill="none" xmlns="http://www.w3.org/2000/svg">
<path d="M16.5 24V37.5M16.5 37.5V42C16.5 50.4853 16.5 54.7279 19.136 57.364C21.6119 59.8399 25.5052 59.9903 33 59.9994M16.5 37.5H33" stroke="#141B34" stroke-width="3" stroke-linecap="round" stroke-linejoin="round"/>
<path d="M12 6H21C26.4456 6 27 9.32978 27 15C27 20.6702 26.4456 24 21 24H12C6.55439 24 6 20.6702 6 15C6 9.32978 6.55439 6 12 6Z" stroke="#141B34" stroke-width="3"/>
<path d="M33 37.5C33 34.6716 33 33.2574 33.8787 32.3787C34.7574 31.5 36.1716 31.5 39 31.5C41.8284 31.5 43.2426 31.5 44.1213 32.3787C45 33.2574 45 34.6716 45 37.5C45 40.3284 45 41.7426 44.1213 42.6213C43.2426 43.5 41.8284 43.5 39 43.5C36.1716 43.5 34.7574 43.5 33.8787 42.6213C33 41.7426 33 40.3284 33 37.5Z" stroke="#141B34" stroke-width="3"/>
<path d="M33 60C33 57.1716 33 55.7574 33.8787 54.8787C34.7574 54 36.1716 54 39 54C41.8284 54 43.2426 54 44.1213 54.8787C45 55.7574 45 57.1716 45 60C45 62.8284 45 64.2426 44.1213 65.1213C43.2426 66 41.8284 66 39 66C36.1716 66 34.7574 66 33.8787 65.1213C33 64.2426 33 62.8284 33 60Z" stroke="#141B34" stroke-width="3"/>
<path d="M60 41.7143H58.5H60ZM63 63.6331L64.117 64.6342V64.6342L63 63.6331ZM64.883 59.2846C65.4359 58.6677 66.3842 58.6158 67.0011 59.1687C67.618 59.7216 67.6699 60.6699 67.117 61.2868L64.883 59.2846ZM52.883 61.2868C52.3301 60.6699 52.382 59.7216 52.9989 59.1687C53.6158 58.6158 54.5641 58.6677 55.117 59.2846L52.883 61.2868ZM57 63.6331L55.883 64.6342L55.883 64.6342L57 63.6331ZM54 37.5C53.1716 37.5 52.5 36.8284 52.5 36C52.5 35.1716 53.1716 34.5 54 34.5V37.5ZM61.5 41.7143L61.5 66L58.5 66L58.5 41.7143H61.5ZM61.883 62.6319L64.883 59.2846L67.117 61.2868L64.117 64.6342L61.883 62.6319ZM55.117 59.2846L58.117 62.6319L55.883 64.6342L52.883 61.2868L55.117 59.2846ZM64.117 64.6342C63.4391 65.3906 62.8305 66.0745 62.2715 66.5504C61.6863 67.0487 60.9522 67.5 60 67.5V64.5C59.9265 64.5 59.9853 64.5569 60.3268 64.2661C60.6946 63.953 61.1467 63.4535 61.883 62.6319L64.117 64.6342ZM58.117 62.6319C58.8533 63.4535 59.3054 63.953 59.6732 64.2661C60.0147 64.5569 60.0735 64.5 60 64.5V67.5C59.0478 67.5 58.3137 67.0487 57.7285 66.5504C57.1695 66.0745 56.5609 65.3906 55.883 64.6342L58.117 62.6319ZM58.5 41.7143C58.5 39.4549 56.5551 37.5 54 37.5V34.5C58.0723 34.5 61.5 37.6618 61.5 41.7143H58.5Z" fill="#141B34"/>
</svg>
