<svg width="24" height="24" viewBox="0 0 24 24" fill="none" xmlns="http://www.w3.org/2000/svg">
<path d="M4.5 12C4.5 8.71252 4.5 7.06878 5.40796 5.96243C5.57418 5.75989 5.75989 5.57418 5.96243 5.40796C7.06878 4.5 8.71252 4.5 12 4.5C15.2875 4.5 16.9312 4.5 18.0376 5.40796C18.2401 5.57418 18.4258 5.75989 18.592 5.96243C19.5 7.06878 19.5 8.71252 19.5 12C19.5 15.2875 19.5 16.9312 18.592 18.0376C18.4258 18.2401 18.2401 18.4258 18.0376 18.592C16.9312 19.5 15.2875 19.5 12 19.5C8.71252 19.5 7.06878 19.5 5.96243 18.592C5.75989 18.4258 5.57418 18.2401 5.40796 18.0376C4.5 16.9312 4.5 15.2875 4.5 12Z" stroke="#141B34" stroke-width="1.5"/>
<path d="M9 22H15" stroke="#141B34" stroke-width="1.5" stroke-linecap="round"/>
<path d="M9 2H15" stroke="#141B34" stroke-width="1.5" stroke-linecap="round"/>
<path d="M8 12.3935H8.16179C8.97315 12.3935 9.37883 12.3935 9.68856 12.5677C9.99828 12.7419 10.1375 13.0484 10.416 13.6613L10.7525 14.4019C10.9355 14.8046 11.027 15.006 11.1746 14.9998C11.3223 14.9935 11.3869 14.7855 11.5162 14.3695L12.6732 10.6473C12.8063 10.2193 12.8728 10.0052 13.0219 10C13.171 9.99477 13.2605 10.2033 13.4394 10.6204L13.642 11.0928C13.9115 11.721 14.0462 12.0351 14.3589 12.2143C14.6715 12.3935 15.0846 12.3935 15.9108 12.3935H16" stroke="#141B34" stroke-width="1.5" stroke-linecap="round" stroke-linejoin="round"/>
</svg>
