<svg width="72" height="72" viewBox="0 0 72 72" fill="none" xmlns="http://www.w3.org/2000/svg">
<path d="M42 6H30C20.1623 6 15.2435 6 11.7567 8.44145C10.4667 9.34471 9.34471 10.4667 8.44145 11.7567C6 15.2435 6 20.1623 6 30C6 39.8377 6 44.7565 8.44145 48.2433C9.34471 49.5333 10.4667 50.6553 11.7567 51.5586C15.2435 54 20.1623 54 30 54H42C51.8377 54 56.7565 54 60.2433 51.5586C61.5333 50.6553 62.6553 49.5333 63.5586 48.2433C66 44.7565 66 39.8377 66 30C66 20.1623 66 15.2435 63.5586 11.7567C62.6553 10.4667 61.5333 9.34471 60.2433 8.44145C56.7565 6 51.8377 6 42 6Z" stroke="#141B34" stroke-width="3" stroke-linecap="round"/>
<path d="M24 28.1806H24.4854C26.9195 28.1806 28.1365 28.1806 29.0657 28.7032C29.9949 29.2257 30.4126 30.1451 31.248 31.9838L32.2574 34.2056C32.8064 35.4139 33.0809 36.0181 33.5239 35.9993C33.9668 35.9805 34.1608 35.3565 34.5487 34.1084L38.0197 22.942C38.4188 21.6578 38.6184 21.0157 39.0658 21C39.5131 20.9843 39.7815 21.61 40.3182 22.8613L40.9261 24.2784C41.7345 26.1629 42.1387 27.1052 43.0766 27.6429C44.0145 28.1806 45.2538 28.1806 47.7324 28.1806H48" stroke="#141B34" stroke-width="3" stroke-linecap="round" stroke-linejoin="round"/>
<path d="M43.9672 66L42.7106 64.7434C39.8779 61.9107 39.1756 57.5831 40.9672 54" stroke="#141B34" stroke-width="3" stroke-linecap="round"/>
<path d="M27.0015 66L28.2581 64.7434C31.0908 61.9107 31.7931 57.5831 30.0015 54" stroke="#141B34" stroke-width="3" stroke-linecap="round"/>
<path d="M21 66H51" stroke="#141B34" stroke-width="3" stroke-linecap="round"/>
</svg>
