<svg width="72" height="72" viewBox="0 0 72 72" fill="none" xmlns="http://www.w3.org/2000/svg">
<path d="M42.0834 40.1247C44.0278 38.1803 45 37.2081 45 36C45 34.7919 44.0278 33.8197 42.0834 31.8753L40.1247 29.9166C38.1803 27.9722 37.2081 27 36 27C34.7919 27 33.8197 27.9722 31.8753 29.9166L29.9166 31.8753C27.9722 33.8197 27 34.7919 27 36C27 37.2081 27.9722 38.1803 29.9166 40.1247L31.8753 42.0834C33.8197 44.0278 34.7919 45 36 45C37.2081 45 38.1803 44.0278 40.1247 42.0834L42.0834 40.1247Z" stroke="#141B34" stroke-width="3"/>
<path d="M31.4813 16.1112C30.3023 16.743 27.2111 18.0331 29.0939 19.6474C30.0136 20.436 31.0379 21 32.3257 21H39.6743C40.9621 21 41.9864 20.436 42.9061 19.6474C44.7889 18.0331 41.6977 16.743 40.5187 16.1112C37.754 14.6296 34.246 14.6296 31.4813 16.1112Z" stroke="#141B34" stroke-width="3" stroke-linecap="round" stroke-linejoin="round"/>
<path d="M39 6C39 7.65685 37.6569 9 36 9C34.3431 9 33 7.65685 33 6C33 4.34315 34.3431 3 36 3C37.6569 3 39 4.34315 39 6Z" stroke="#141B34" stroke-width="3"/>
<path d="M24 60C24 55.036 25.036 54 30 54H42C46.964 54 48 55.036 48 60C48 64.964 46.964 66 42 66H30C25.036 66 24 64.964 24 60Z" stroke="#141B34" stroke-width="3"/>
<path d="M25.5 36H24C18.3431 36 15.5147 36 13.7574 34.2426C12 32.4853 12 29.6569 12 24C12 18.3431 12 15.5147 13.7574 13.7574C15.5147 12 18.3431 12 24 12" stroke="#141B34" stroke-width="3" stroke-linecap="round" stroke-linejoin="round"/>
<path d="M46.5 36H48C53.6569 36 56.4853 36 58.2426 37.7574C60 39.5147 60 42.3431 60 48C60 53.6569 60 56.4853 58.2426 58.2426C56.4853 60 53.6569 60 48 60" stroke="#141B34" stroke-width="3" stroke-linecap="round" stroke-linejoin="round"/>
<path d="M36 46.5V54" stroke="#141B34" stroke-width="3" stroke-linecap="round" stroke-linejoin="round"/>
</svg>
