<svg width="24" height="24" viewBox="0 0 24 24" fill="none" xmlns="http://www.w3.org/2000/svg">
<ellipse cx="10" cy="5" rx="8" ry="3" stroke="#141B34" stroke-width="1.5"/>
<path d="M5 10.8418C5.60158 11.0226 6.27434 11.1716 7 11.2817" stroke="#141B34" stroke-width="1.5" stroke-linecap="round"/>
<path d="M5 17.8418C5.60158 18.0226 6.27434 18.1716 7 18.2817" stroke="#141B34" stroke-width="1.5" stroke-linecap="round"/>
<path d="M12 17.8722H12.2022C13.2164 17.8722 13.7235 17.8722 14.1107 18.0813C14.4979 18.2903 14.6719 18.658 15.02 19.3935L15.4406 20.2822C15.6694 20.7656 15.7837 21.0072 15.9683 20.9997C16.1528 20.9922 16.2336 20.7426 16.3953 20.2434L17.8415 15.7768C18.0079 15.2631 18.091 15.0063 18.2774 15C18.4638 14.9937 18.5756 15.244 18.7993 15.7445L19.0526 16.3114C19.3894 17.0652 19.5578 17.4421 19.9486 17.6572C20.3394 17.8722 20.8557 17.8722 21.8885 17.8722H22" stroke="#141B34" stroke-width="1.5" stroke-linecap="round" stroke-linejoin="round"/>
<path d="M18 5V11.0082M2 5V19.0191C2 20.5511 5.05369 21.8152 9 22" stroke="#141B34" stroke-width="1.5" stroke-linecap="round" stroke-linejoin="round"/>
<path d="M2 12C2 13.5418 5.05369 14.814 9 15" stroke="#141B34" stroke-width="1.5" stroke-linecap="round"/>
</svg>
