<svg width="72" height="72" viewBox="0 0 72 72" fill="none" xmlns="http://www.w3.org/2000/svg">
<path d="M13.5 36C13.5 26.1376 13.5 21.2063 16.2239 17.8873C16.7225 17.2797 17.2797 16.7225 17.8873 16.2239C21.2063 13.5 26.1376 13.5 36 13.5C45.8624 13.5 50.7937 13.5 54.1127 16.2239C54.7203 16.7225 55.2775 17.2797 55.7761 17.8873C58.5 21.2063 58.5 26.1376 58.5 36C58.5 45.8624 58.5 50.7937 55.7761 54.1127C55.2775 54.7203 54.7203 55.2775 54.1127 55.7761C50.7937 58.5 45.8624 58.5 36 58.5C26.1376 58.5 21.2063 58.5 17.8873 55.7761C17.2797 55.2775 16.7225 54.7203 16.2239 54.1127C13.5 50.7937 13.5 45.8624 13.5 36Z" stroke="#141B34" stroke-width="3"/>
<path d="M27 66H45" stroke="#141B34" stroke-width="3" stroke-linecap="round"/>
<path d="M27 6H45" stroke="#141B34" stroke-width="3" stroke-linecap="round"/>
<path d="M24 37.1806H24.4854C26.9195 37.1806 28.1365 37.1806 29.0657 37.7032C29.9949 38.2257 30.4126 39.1451 31.248 40.9838L32.2574 43.2056C32.8064 44.4139 33.0809 45.0181 33.5239 44.9993C33.9668 44.9805 34.1608 44.3565 34.5487 43.1084L38.0197 31.942C38.4188 30.6578 38.6184 30.0157 39.0658 30C39.5131 29.9843 39.7815 30.61 40.3182 31.8613L40.9261 33.2784C41.7345 35.1629 42.1387 36.1052 43.0766 36.6429C44.0145 37.1806 45.2538 37.1806 47.7324 37.1806H48" stroke="#141B34" stroke-width="3" stroke-linecap="round" stroke-linejoin="round"/>
</svg>
