<svg width="72" height="72" viewBox="0 0 72 72" fill="none" xmlns="http://www.w3.org/2000/svg">
<path d="M36 15V66M36 66H27M36 66H45" stroke="#141B34" stroke-width="3" stroke-linecap="round" stroke-linejoin="round"/>
<path d="M63 39L55.5 24L48 39" stroke="#141B34" stroke-width="3" stroke-linecap="round" stroke-linejoin="round"/>
<path d="M24 39L16.5 24L9 39" stroke="#141B34" stroke-width="3" stroke-linecap="round" stroke-linejoin="round"/>
<path d="M12 24H15.1446C18.935 24 22.6125 22.413 25.5723 19.5C31.6687 13.5 40.3313 13.5 46.4277 19.5C49.3875 22.413 53.065 24 56.8554 24H60" stroke="#141B34" stroke-width="3" stroke-linecap="round" stroke-linejoin="round"/>
<path d="M55.5 51C59.5641 51 63.1033 48.4989 64.9418 44.8046C65.934 42.8107 66.4302 41.8138 65.5245 40.4069C64.6189 39 63.12 39 60.1222 39H50.8778C47.88 39 46.3811 39 45.4755 40.4069C44.5698 41.8138 45.066 42.8107 46.0582 44.8046C47.8967 48.4989 51.4359 51 55.5 51Z" stroke="#141B34" stroke-width="3"/>
<path d="M16.5 51C20.5641 51 24.1033 48.4989 25.9418 44.8046C26.934 42.8107 27.4302 41.8138 26.5245 40.4069C25.6189 39 24.12 39 21.1222 39H11.8778C8.88 39 7.38113 39 6.47548 40.4069C5.56983 41.8138 6.06595 42.8107 7.0582 44.8046C8.89674 48.4989 12.4359 51 16.5 51Z" stroke="#141B34" stroke-width="3"/>
<path d="M40.5 10.5C40.5 12.9853 38.4853 15 36 15C33.5147 15 31.5 12.9853 31.5 10.5C31.5 8.01472 33.5147 6 36 6C38.4853 6 40.5 8.01472 40.5 10.5Z" stroke="#141B34" stroke-width="3"/>
</svg>
