<svg width="24" height="24" viewBox="0 0 24 24" fill="none" xmlns="http://www.w3.org/2000/svg">
<ellipse cx="11" cy="5" rx="8" ry="3" stroke="#141B34" stroke-width="1.5"/>
<path d="M6 10.8418C6.60158 11.0226 7.27434 11.1716 8 11.2817" stroke="#141B34" stroke-width="1.5" stroke-linecap="round"/>
<path d="M3 12C3 13.5299 6.05369 14.7923 10 14.9768" stroke="#141B34" stroke-width="1.5" stroke-linecap="round"/>
<path d="M6 17.8418C6.60158 18.0226 7.27434 18.1716 8 18.2817" stroke="#141B34" stroke-width="1.5" stroke-linecap="round"/>
<path d="M11 22C6.58172 22 3 20.6569 3 19V5M19 5V8.5" stroke="#141B34" stroke-width="1.5" stroke-linecap="round" stroke-linejoin="round"/>
<path d="M19 11C20.8856 11 21.8284 11 22.4142 11.5858C23 12.1716 23 13.1144 23 15V19C23 20.8856 23 21.8284 22.4142 22.4142C21.8284 23 20.8856 23 19 23H18C16.1144 23 15.1716 23 14.5858 22.4142C14 21.8284 14 20.8856 14 19L14 15C14 13.1144 14 12.1716 14.5858 11.5858C15.1716 11 16.1144 11 18 11L19 11Z" stroke="#141B34" stroke-width="1.5" stroke-linecap="round"/>
<path d="M18.5 20.5H18.509" stroke="#141B34" stroke-width="1.5" stroke-linecap="round" stroke-linejoin="round"/>
</svg>
