<svg width="72" height="72" viewBox="0 0 72 72" fill="none" xmlns="http://www.w3.org/2000/svg">
<path d="M66 36C66 52.5685 52.5685 66 36 66C19.4315 66 6 52.5685 6 36C6 19.4315 19.4315 6 36 6C52.5685 6 66 19.4315 66 36Z" stroke="#141B34" stroke-width="3"/>
<path d="M35.1232 28.0468C35.646 27.6511 36.354 27.6511 36.8768 28.0468L43.635 33.1621C44.1578 33.5578 44.3766 34.2592 44.1769 34.8995L41.5955 43.1762C41.3958 43.8165 40.823 44.25 40.1768 44.25H31.8232C31.1769 44.25 30.6042 43.8165 30.4045 43.1762L27.8231 34.8995C27.6234 34.2592 27.8422 33.5578 28.365 33.1621L35.1232 28.0468Z" stroke="#141B34" stroke-width="3"/>
<path d="M36 27V15M45 33L57 28.5M42 45L48 54M30 43.5L24 51M27 34.5L15 31.5" stroke="#141B34" stroke-width="3" stroke-linecap="round" stroke-linejoin="round"/>
<path d="M27 7.5L36.0496 13.8672L45 7.5M6 38.3994L15.5896 31.3165L10.6664 20.1613M58.4108 56.5593L46.8474 54.4664L42.7965 66M60.0893 18.5876L56.4104 28.1693L66 35.2521M24.0298 64.2176L24.1542 51.4996L12.0099 51.63" stroke="#141B34" stroke-width="3" stroke-linejoin="round"/>
</svg>
