<svg width="72" height="72" viewBox="0 0 72 72" fill="none" xmlns="http://www.w3.org/2000/svg">
<path d="M22.1943 24.3002L20.8213 23.6961L20.8213 23.6961L22.1943 24.3002ZM17.9161 34.0231L18.9629 35.0974C19.1007 34.9631 19.2115 34.8034 19.289 34.6272L17.9161 34.0231ZM56.8859 34.2507L57.5426 35.5993V35.5993L56.8859 34.2507ZM60.4237 32.3869L61.2873 33.6133L61.2873 33.6133L60.4237 32.3869ZM62.65 19.0249L63.8571 18.1344L62.65 19.0249ZM56.5541 50.0346L56.1992 48.5772L56.5541 50.0346ZM41.7132 53.6483L42.0681 55.1058H42.0681L41.7132 53.6483ZM12.3495 39.447L13.3961 40.5216L13.3963 40.5214L12.3495 39.447ZM60.532 32.7918C59.852 32.3187 58.9172 32.4864 58.4441 33.1665C57.9709 33.8465 58.1387 34.7813 58.8187 35.2544L60.532 32.7918ZM7.5324 46.1857L6.04013 46.0336L7.5324 46.1857ZM33.228 59.7824L32.1814 58.7078H32.1814L33.228 59.7824ZM26.3093 64.4741L26.4537 65.9672L26.3093 64.4741ZM51.2136 40.8015C51.2136 41.63 51.8852 42.3015 52.7136 42.3015C53.5421 42.3015 54.2136 41.63 54.2136 40.8015L51.2136 40.8015ZM31.4731 11.8267L30.4935 10.6907V10.6907L31.4731 11.8267ZM20.8213 23.6961L16.5431 33.419L19.289 34.6272L23.5673 24.9044L20.8213 23.6961ZM57.5426 35.5993C59.407 34.6914 60.5135 34.1583 61.2873 33.6133L59.5601 31.1605C59.0362 31.5294 58.2166 31.9343 56.2291 32.9021L57.5426 35.5993ZM61.2873 33.6133C66.361 30.0404 67.5289 23.1118 63.8571 18.1344L61.4429 19.9153C64.1014 23.519 63.2779 28.5424 59.5601 31.1605L61.2873 33.6133ZM56.1992 48.5772L41.3583 52.1909L42.0681 55.1058L56.909 51.4921L56.1992 48.5772ZM13.3963 40.5214L18.9629 35.0974L16.8693 32.9488L11.3027 38.3727L13.3963 40.5214ZM58.8187 35.2544C64.1217 38.9437 62.6068 47.017 56.1992 48.5772L56.909 51.4921C65.752 49.3388 68.021 38.0019 60.532 32.7918L58.8187 35.2544ZM11.3029 38.3725C9.80443 39.8319 8.5669 41.0324 7.69371 42.1646C6.78003 43.3492 6.19164 44.5475 6.04013 46.0336L9.02466 46.3379C9.10484 45.5514 9.39654 44.8689 10.0692 43.9967C10.7824 43.072 11.8376 42.0395 13.3961 40.5216L11.3029 38.3725ZM32.1814 58.7078C28.9873 61.8189 27.8615 62.817 26.1649 62.9811L26.4537 65.9672C29.4238 65.6799 31.3549 63.7006 34.2746 60.8569L32.1814 58.7078ZM41.3583 52.1909C37.236 53.1947 34.5762 56.3754 32.1814 58.7078L34.2746 60.8569C37.0104 58.1923 38.9548 55.8638 42.0681 55.1058L41.3583 52.1909ZM56.2291 32.9021C53.1245 34.4141 51.2136 37.1764 51.2136 40.8015L54.2136 40.8015C54.2136 38.4029 55.397 36.6442 57.5426 35.5993L56.2291 32.9021ZM63.8571 18.1344C60.1212 13.0703 54.708 8.77663 48.7617 6.94522C42.7525 5.09447 36.1968 5.77255 30.4935 10.6907L32.4526 12.9627C37.2737 8.80534 42.7224 8.22425 47.8787 9.81232C53.0977 11.4197 58.0108 15.2629 61.4429 19.9153L63.8571 18.1344ZM23.5672 24.9044C25.5946 20.297 28.6294 16.2595 32.4526 12.9627L30.4935 10.6907C26.3449 14.2682 23.0352 18.6649 20.8213 23.6961L23.5672 24.9044ZM26.1649 62.9811C24.9262 63.1009 23.184 62.6534 21.1561 61.6068C19.167 60.5803 17.0676 59.0621 15.1725 57.2834C13.2762 55.5036 11.6306 53.5062 10.5142 51.5479C9.38319 49.564 8.87873 47.7693 9.02466 46.3379L6.04013 46.0336C5.80457 48.3441 6.62687 50.7866 7.90799 53.0337C9.2037 55.3064 11.0556 57.5337 13.1194 59.4708C15.1842 61.4089 17.5073 63.0997 19.7803 64.2727C22.0145 65.4257 24.374 66.1683 26.4537 65.9672L26.1649 62.9811Z" fill="#141B34"/>
<path d="M19.5 34.5C19.5 33.6716 18.8284 33 18 33C17.1716 33 16.5 33.6716 16.5 34.5H19.5ZM37.0544 56.9323C37.8454 57.1784 38.6862 56.7366 38.9323 55.9456C39.1784 55.1546 38.7366 54.3138 37.9456 54.0677L37.0544 56.9323ZM37.9456 54.0677C33.7227 52.7539 29.0558 49.7558 25.4495 46.0534C21.8087 42.3155 19.5 38.1246 19.5 34.5H16.5C16.5 39.2754 19.4413 44.1845 23.3005 48.1466C27.1942 52.1441 32.2773 55.4461 37.0544 56.9323L37.9456 54.0677Z" fill="#141B34"/>
</svg>
