<svg width="72" height="72" viewBox="0 0 72 72" fill="none" xmlns="http://www.w3.org/2000/svg">
<path d="M49.7523 18.1721C56.7562 18.1721 58.6382 27.7332 55.6268 34.0266C54.2798 36.8418 51.9495 39.3153 50.0837 41.807C48.2946 44.1965 47.4001 45.3913 46.224 46.2272C43.6017 48.0911 40.5659 48 37.469 48H34.375C26.7579 48 22.9493 48 20.4329 45.8713C17.9164 43.7427 17.3004 40.0788 16.0683 32.751C15.3909 28.722 14.914 24.6966 15.013 20.794C15.1943 13.6471 20.6664 7.62819 28.0572 6.44622C31.578 5.88317 35.9134 5.82752 39.4361 6.42547C45.7266 7.49326 50.162 12.9126 49.7223 18.9934C49.454 22.7016 47.9494 26.5192 47.0101 30.1033" stroke="#141B34" stroke-width="3" stroke-linecap="round"/>
<path d="M21.0117 46.5V54C21.0117 59.6569 21.0117 62.4853 22.7691 64.2426C24.5264 66 27.3549 66 33.0117 66H36.0117C41.6686 66 44.497 66 46.2544 64.2426C48.0117 62.4853 48.0117 59.6569 48.0117 54V45" stroke="#141B34" stroke-width="3" stroke-linecap="round"/>
<path d="M21.0117 57H30.0117" stroke="#141B34" stroke-width="3" stroke-linecap="round"/>
</svg>
