<svg width="72" height="72" viewBox="0 0 72 72" fill="none" xmlns="http://www.w3.org/2000/svg">
<path d="M43.5005 13.5C43.5005 15.9853 41.4858 18 39.0005 18C36.5152 18 34.5005 15.9853 34.5005 13.5C34.5005 11.0147 36.5152 9 39.0005 9C41.4858 9 43.5005 11.0147 43.5005 13.5Z" stroke="#141B34" stroke-width="3"/>
<path d="M57 26.6719L41.9331 24.8743M57 63L55.6314 52.5903C54.8709 46.8063 54.4907 43.9143 52.4745 42.3893C50.4583 40.8644 47.6166 41.3194 41.9331 42.2295L36.4206 43.1122M41.9331 24.8743L36.6692 24.2462C34.2612 23.9589 33.0573 23.8153 32.1437 24.4326C31.23 25.0498 30.897 26.2319 30.2309 28.5961L28.2261 35.7121C27.0696 39.8171 26.4913 41.8696 27.5759 43.1122C28.6604 44.3548 30.7396 44.0219 34.8979 43.356L36.4206 43.1122M41.9331 24.8743L36.4206 43.1122" stroke="#141B34" stroke-width="3" stroke-linecap="round" stroke-linejoin="round"/>
<path d="M30 51L28.3416 54.3167C27.4708 56.0585 26.0585 57.4708 24.3167 58.3416L15 63" stroke="#141B34" stroke-width="3" stroke-linecap="round" stroke-linejoin="round"/>
</svg>
