<svg width="72" height="72" viewBox="0 0 72 72" fill="none" xmlns="http://www.w3.org/2000/svg">
<path d="M34.5 41.4C34.5 42.2284 35.1716 42.9 36 42.9C36.8284 42.9 37.5 42.2284 37.5 41.4H34.5ZM52.2 50.7C51.3716 50.7 50.7 51.3716 50.7 52.2C50.7 53.0284 51.3716 53.7 52.2 53.7V50.7ZM58.8 63C58.8 63.8284 59.4716 64.5 60.3 64.5C61.1284 64.5 61.8 63.8284 61.8 63H58.8ZM19.8 53.7C20.6284 53.7 21.3 53.0284 21.3 52.2C21.3 51.3716 20.6284 50.7 19.8 50.7V53.7ZM10.2 63C10.2 63.8284 10.8716 64.5 11.7 64.5C12.5284 64.5 13.2 63.8284 13.2 63H10.2ZM9 39.9C8.17157 39.9 7.5 40.5716 7.5 41.4C7.5 42.2284 8.17157 42.9 9 42.9V39.9ZM17.1 42.9C17.9284 42.9 18.6 42.2284 18.6 41.4C18.6 40.5716 17.9284 39.9 17.1 39.9V42.9ZM54.9 39.9C54.0716 39.9 53.4 40.5716 53.4 41.4C53.4 42.2284 54.0716 42.9 54.9 42.9V39.9ZM63 42.9C63.8284 42.9 64.5 42.2284 64.5 41.4C64.5 40.5716 63.8284 39.9 63 39.9V42.9ZM54.9 29.1C54.0716 29.1 53.4 29.7716 53.4 30.6C53.4 31.4284 54.0716 32.1 54.9 32.1V29.1ZM64.5 19.8C64.5 18.9716 63.8284 18.3 63 18.3C62.1716 18.3 61.5 18.9716 61.5 19.8H64.5ZM17.1 32.1C17.9284 32.1 18.6 31.4284 18.6 30.6C18.6 29.7716 17.9284 29.1 17.1 29.1V32.1ZM10.5 19.8C10.5 18.9716 9.82843 18.3 9 18.3C8.17157 18.3 7.5 18.9716 7.5 19.8H10.5ZM26.8393 15.4607C27.4251 16.0464 28.3749 16.0464 28.9607 15.4607C29.5464 14.8749 29.5464 13.9251 28.9607 13.3393L26.8393 15.4607ZM23.5607 7.93934C22.9749 7.35355 22.0251 7.35355 21.4393 7.93934C20.8536 8.52513 20.8536 9.47487 21.4393 10.0607L23.5607 7.93934ZM43.0393 13.3393C42.4536 13.9251 42.4536 14.8749 43.0393 15.4607C43.6251 16.0464 44.5749 16.0464 45.1607 15.4607L43.0393 13.3393ZM50.5607 10.0607C51.1464 9.47487 51.1464 8.52513 50.5607 7.93934C49.9749 7.35355 49.0251 7.35355 48.4393 7.93934L50.5607 10.0607ZM34.5 30.6L34.5 41.4H37.5L37.5 30.6L34.5 30.6ZM53.4 38.7C53.4 51.6648 45.2808 61.5 36 61.5V64.5C47.5956 64.5 56.4 52.5763 56.4 38.7H53.4ZM36 61.5C26.7192 61.5 18.6 51.6648 18.6 38.7H15.6C15.6 52.5763 24.4044 64.5 36 64.5V61.5ZM18.6 38.7C18.6 25.7352 26.7192 15.9 36 15.9V12.9C24.4044 12.9 15.6 24.8237 15.6 38.7H18.6ZM36 15.9C45.2808 15.9 53.4 25.7352 53.4 38.7H56.4C56.4 24.8237 47.5956 12.9 36 12.9V15.9ZM52.2 53.7C53.8588 53.7 55.4749 54.593 56.7276 56.2632C57.9806 57.934 58.8 60.3108 58.8 63H61.8C61.8 59.7245 60.8061 56.7013 59.1276 54.4632C57.4487 52.2247 55.0147 50.7 52.2 50.7V53.7ZM19.8 50.7C16.9853 50.7 14.5514 52.2247 12.8724 54.4632C11.1939 56.7013 10.2 59.7245 10.2 63H13.2C13.2 60.3108 14.0194 57.934 15.2724 56.2632C16.5251 54.593 18.1412 53.7 19.8 53.7V50.7ZM9 42.9H17.1V39.9H9V42.9ZM54.9 42.9H63V39.9H54.9V42.9ZM54.9 32.1C57.7147 32.1 60.1486 30.5753 61.8276 28.3368C63.5061 26.0987 64.5 23.0755 64.5 19.8H61.5C61.5 22.4892 60.6806 24.866 59.4276 26.5368C58.1749 28.207 56.5588 29.1 54.9 29.1V32.1ZM17.1 29.1C15.4412 29.1 13.8251 28.207 12.5724 26.5368C11.3194 24.866 10.5 22.4892 10.5 19.8H7.5C7.5 23.0755 8.49387 26.0987 10.1724 28.3368C11.8514 30.5753 14.2853 32.1 17.1 32.1V29.1ZM51.3199 23.9853C46.8212 27.2448 41.582 29.1 36 29.1V32.1C42.2693 32.1 48.1159 30.0114 53.0801 26.4147L51.3199 23.9853ZM36 29.1C30.418 29.1 25.1788 27.2448 20.6801 23.9853L18.9199 26.4147C23.8841 30.0114 29.7307 32.1 36 32.1V29.1ZM28.9607 13.3393L23.5607 7.93934L21.4393 10.0607L26.8393 15.4607L28.9607 13.3393ZM45.1607 15.4607L50.5607 10.0607L48.4393 7.93934L43.0393 13.3393L45.1607 15.4607Z" fill="#141B34"/>
</svg>
