<svg width="72" height="72" viewBox="0 0 72 72" fill="none" xmlns="http://www.w3.org/2000/svg">
<path d="M19.5 28.5C19.5 19.3873 26.8873 12 36 12C45.1127 12 52.5 19.3873 52.5 28.5V48C52.5 52.2426 52.5 54.364 51.182 55.682C49.864 57 47.7426 57 43.5 57H28.5C24.2574 57 22.136 57 20.818 55.682C19.5 54.364 19.5 52.2426 19.5 48V28.5Z" stroke="#141B34" stroke-width="3"/>
<path d="M60 33V51" stroke="#141B34" stroke-width="3" stroke-linecap="round" stroke-linejoin="round"/>
<path d="M45 57V66" stroke="#141B34" stroke-width="3" stroke-linecap="round" stroke-linejoin="round"/>
<path d="M27 57V66" stroke="#141B34" stroke-width="3" stroke-linecap="round" stroke-linejoin="round"/>
<path d="M12 33L12 51" stroke="#141B34" stroke-width="3" stroke-linecap="round" stroke-linejoin="round"/>
<path d="M30 12L25.5 6M42 12L46.5 6" stroke="#141B34" stroke-width="3" stroke-linecap="round" stroke-linejoin="round"/>
<path d="M19.5 30L52.5 30" stroke="#141B34" stroke-width="3" stroke-linecap="round" stroke-linejoin="round"/>
</svg>
