<svg width="24" height="24" viewBox="0 0 24 24" fill="none" xmlns="http://www.w3.org/2000/svg">
<path d="M12.7 3H11.3C10.1523 3 9.5784 3 9.17162 3.25432C9.02112 3.34841 8.89022 3.46528 8.78484 3.59966C8.5 3.96286 8.5 4.47524 8.5 5.5C8.5 6.52476 8.5 7.03714 8.78484 7.40034C8.89022 7.53472 9.02112 7.65159 9.17162 7.74568C9.5784 8 10.1523 8 11.3 8H12.7C13.8477 8 14.4216 8 14.8284 7.74568C14.9789 7.65159 15.1098 7.53472 15.2152 7.40034C15.5 7.03714 15.5 6.52476 15.5 5.5C15.5 4.47524 15.5 3.96286 15.2152 3.59966C15.1098 3.46528 14.9789 3.34841 14.8284 3.25432C14.4216 3 13.8477 3 12.7 3Z" stroke="#141B34" stroke-width="1.5" stroke-linecap="round"/>
<path d="M12.875 9.99961L12.7646 9.85301C12.5156 9.52252 12.4539 9.01764 12.6114 8.59961M11.125 9.99961L11.2354 9.85301C11.4844 9.52252 11.5461 9.01764 11.3886 8.59961" stroke="#141B34" stroke-width="1.5" stroke-linecap="round"/>
<path d="M10.25 10H13.75" stroke="#141B34" stroke-width="1.5" stroke-linecap="round"/>
<ellipse cx="19" cy="16.05" rx="3" ry="1.05" stroke="#141B34" stroke-width="1.5"/>
<path d="M22 18.5C22 19.0799 20.6569 19.55 19 19.55C17.3431 19.55 16 19.0799 16 18.5" stroke="#141B34" stroke-width="1.5"/>
<path d="M22 16.0498V20.9498C22 21.5297 20.6569 21.9998 19 21.9998C17.3431 21.9998 16 21.5297 16 20.9498V16.0498" stroke="#141B34" stroke-width="1.5"/>
<ellipse cx="5" cy="16.05" rx="3" ry="1.05" stroke="#141B34" stroke-width="1.5"/>
<path d="M8 18.5C8 19.0799 6.65685 19.55 5 19.55C3.34315 19.55 2 19.0799 2 18.5" stroke="#141B34" stroke-width="1.5"/>
<path d="M8 16.0498V20.9498C8 21.5297 6.65685 21.9998 5 21.9998C3.34315 21.9998 2 21.5297 2 20.9498V16.0498" stroke="#141B34" stroke-width="1.5"/>
<path d="M12 12V14M12 14L13.5 15.5M12 14L10.5 15.5" stroke="#141B34" stroke-width="1.5" stroke-linecap="round" stroke-linejoin="round"/>
</svg>
